%TF.GenerationSoftware,KiCad,Pcbnew,10.0.6*%
%TF.CreationDate,2026-10-06T11:29:38+02:00*%
%TF.ProjectId,planch,706c616e-6368-42e6-9b69-6361645f7063,1*%
%TF.SameCoordinates,Original*%
%TF.FileFunction,Legend,Bot*%
%TF.FilePolarity,Positive*%
%FSLAX46Y46*%
G04 Gerber Fmt 4.6, Leading zero omitted, Abs format (unit mm)*
G04 Created by KiCad (PCBNEW 10.0.6) date 2026-10-06 11:29:38*
%MOMM*%
%LPD*%
G01*
G04 APERTURE LIST*
G04 Aperture macros list*
%AMRoundRect*
0 Rectangle with rounded corners*
0 $1 Rounding radius*
0 $2 $3 $4 $5 $6 $7 $8 $9 X,Y pos of 4 corners*
0 Add a 4 corners polygon primitive as box body*
4,1,4,$2,$3,$4,$5,$6,$7,$8,$9,$2,$3,0*
0 Add four circle primitives for the rounded corners*
1,1,$1+$1,$2,$3*
1,1,$1+$1,$4,$5*
1,1,$1+$1,$6,$7*
1,1,$1+$1,$8,$9*
0 Add four rect primitives between the rounded corners*
20,1,$1+$1,$2,$3,$4,$5,0*
20,1,$1+$1,$4,$5,$6,$7,0*
20,1,$1+$1,$6,$7,$8,$9,0*
20,1,$1+$1,$8,$9,$2,$3,0*%
G04 Aperture macros list end*
%ADD10C,0.000000*%
%ADD11C,0.300000*%
%ADD12C,0.200000*%
%ADD13C,0.150000*%
%ADD14C,0.120000*%
%ADD15R,1.700000X1.700000*%
%ADD16C,1.700000*%
%ADD17RoundRect,0.250000X-0.337500X-0.475000X0.337500X-0.475000X0.337500X0.475000X-0.337500X0.475000X0*%
%ADD18RoundRect,0.205000X-0.420000X-0.205000X0.420000X-0.205000X0.420000X0.205000X-0.420000X0.205000X0*%
%ADD19C,1.500000*%
%ADD20R,1.500000X1.000000*%
%ADD21RoundRect,0.250000X-0.350000X-0.450000X0.350000X-0.450000X0.350000X0.450000X-0.350000X0.450000X0*%
%ADD22R,1.000000X1.500000*%
%ADD23RoundRect,0.250000X-0.412500X-0.650000X0.412500X-0.650000X0.412500X0.650000X-0.412500X0.650000X0*%
G04 APERTURE END LIST*
D10*
G36*
X95400000Y-4903000D02*
G01*
X85400000Y-4903000D01*
X85400000Y-4600000D01*
X95400000Y-4600000D01*
X95400000Y-4903000D01*
G37*
G36*
X95400000Y-5206100D02*
G01*
X85400000Y-5206100D01*
X85400000Y-4903000D01*
X95400000Y-4903000D01*
X95400000Y-5206100D01*
G37*
G36*
X86006100Y-5509100D02*
G01*
X85400000Y-5509100D01*
X85400000Y-5206100D01*
X86006100Y-5206100D01*
X86006100Y-5509100D01*
G37*
G36*
X86006100Y-5812100D02*
G01*
X85400000Y-5812100D01*
X85400000Y-5509100D01*
X86006100Y-5509100D01*
X86006100Y-5812100D01*
G37*
G36*
X86006100Y-6115200D02*
G01*
X85400000Y-6115200D01*
X85400000Y-5812100D01*
X86006100Y-5812100D01*
X86006100Y-6115200D01*
G37*
G36*
X86006100Y-6418200D02*
G01*
X85400000Y-6418200D01*
X85400000Y-6115200D01*
X86006100Y-6115200D01*
X86006100Y-6418200D01*
G37*
G36*
X86006100Y-6721200D02*
G01*
X85400000Y-6721200D01*
X85400000Y-6418200D01*
X86006100Y-6418200D01*
X86006100Y-6721200D01*
G37*
G36*
X86006100Y-7024200D02*
G01*
X85400000Y-7024200D01*
X85400000Y-6721200D01*
X86006100Y-6721200D01*
X86006100Y-7024200D01*
G37*
G36*
X86006100Y-7327300D02*
G01*
X85400000Y-7327300D01*
X85400000Y-7024200D01*
X86006100Y-7024200D01*
X86006100Y-7327300D01*
G37*
G36*
X88430300Y-7630300D02*
G01*
X85400000Y-7630300D01*
X85400000Y-7327300D01*
X88430300Y-7327300D01*
X88430300Y-7630300D01*
G37*
G36*
X86006100Y-7933300D02*
G01*
X85400000Y-7933300D01*
X85400000Y-7630300D01*
X86006100Y-7630300D01*
X86006100Y-7933300D01*
G37*
G36*
X86309100Y-8236400D02*
G01*
X85400000Y-8236400D01*
X85400000Y-7933300D01*
X86309100Y-7933300D01*
X86309100Y-8236400D01*
G37*
G36*
X86612100Y-8539400D02*
G01*
X85400000Y-8539400D01*
X85400000Y-8236400D01*
X86612100Y-8236400D01*
X86612100Y-8539400D01*
G37*
G36*
X86006100Y-8842400D02*
G01*
X85400000Y-8842400D01*
X85400000Y-8539400D01*
X86006100Y-8539400D01*
X86006100Y-8842400D01*
G37*
G36*
X86006100Y-9145500D02*
G01*
X85400000Y-9145500D01*
X85400000Y-8842400D01*
X86006100Y-8842400D01*
X86006100Y-9145500D01*
G37*
G36*
X86006100Y-9448500D02*
G01*
X85400000Y-9448500D01*
X85400000Y-9145500D01*
X86006100Y-9145500D01*
X86006100Y-9448500D01*
G37*
G36*
X86006100Y-9751500D02*
G01*
X85400000Y-9751500D01*
X85400000Y-9448500D01*
X86006100Y-9448500D01*
X86006100Y-9751500D01*
G37*
G36*
X86006100Y-10054500D02*
G01*
X85400000Y-10054500D01*
X85400000Y-9751500D01*
X86006100Y-9751500D01*
X86006100Y-10054500D01*
G37*
G36*
X86915200Y-10357600D02*
G01*
X85400000Y-10357600D01*
X85400000Y-10054500D01*
X86915200Y-10054500D01*
X86915200Y-10357600D01*
G37*
G36*
X86309100Y-10660600D02*
G01*
X85400000Y-10660600D01*
X85400000Y-10357600D01*
X86309100Y-10357600D01*
X86309100Y-10660600D01*
G37*
G36*
X86006100Y-10963600D02*
G01*
X85400000Y-10963600D01*
X85400000Y-10660600D01*
X86006100Y-10660600D01*
X86006100Y-10963600D01*
G37*
G36*
X86612100Y-11266700D02*
G01*
X85400000Y-11266700D01*
X85400000Y-10963600D01*
X86612100Y-10963600D01*
X86612100Y-11266700D01*
G37*
G36*
X86309100Y-11569700D02*
G01*
X85400000Y-11569700D01*
X85400000Y-11266700D01*
X86309100Y-11266700D01*
X86309100Y-11569700D01*
G37*
G36*
X86915200Y-11872700D02*
G01*
X85400000Y-11872700D01*
X85400000Y-11569700D01*
X86915200Y-11569700D01*
X86915200Y-11872700D01*
G37*
G36*
X86915200Y-12175800D02*
G01*
X85400000Y-12175800D01*
X85400000Y-11872700D01*
X86915200Y-11872700D01*
X86915200Y-12175800D01*
G37*
G36*
X87218200Y-12478800D02*
G01*
X85400000Y-12478800D01*
X85400000Y-12175800D01*
X87218200Y-12175800D01*
X87218200Y-12478800D01*
G37*
G36*
X86006100Y-12781800D02*
G01*
X85400000Y-12781800D01*
X85400000Y-12478800D01*
X86006100Y-12478800D01*
X86006100Y-12781800D01*
G37*
G36*
X86006100Y-13084800D02*
G01*
X85400000Y-13084800D01*
X85400000Y-12781800D01*
X86006100Y-12781800D01*
X86006100Y-13084800D01*
G37*
G36*
X86006100Y-13387900D02*
G01*
X85400000Y-13387900D01*
X85400000Y-13084800D01*
X86006100Y-13084800D01*
X86006100Y-13387900D01*
G37*
G36*
X86006100Y-13690900D02*
G01*
X85400000Y-13690900D01*
X85400000Y-13387900D01*
X86006100Y-13387900D01*
X86006100Y-13690900D01*
G37*
G36*
X87218200Y-13993900D02*
G01*
X85400000Y-13993900D01*
X85400000Y-13690900D01*
X87218200Y-13690900D01*
X87218200Y-13993900D01*
G37*
G36*
X95400000Y-14297000D02*
G01*
X85400000Y-14297000D01*
X85400000Y-13993900D01*
X95400000Y-13993900D01*
X95400000Y-14297000D01*
G37*
G36*
X95400000Y-14600000D02*
G01*
X85400000Y-14600000D01*
X85400000Y-14297000D01*
X95400000Y-14297000D01*
X95400000Y-14600000D01*
G37*
G36*
X87824200Y-5812100D02*
G01*
X86309100Y-5812100D01*
X86309100Y-5509100D01*
X87824200Y-5509100D01*
X87824200Y-5812100D01*
G37*
G36*
X86612100Y-6115200D02*
G01*
X86309100Y-6115200D01*
X86309100Y-5812100D01*
X86612100Y-5812100D01*
X86612100Y-6115200D01*
G37*
G36*
X86612100Y-6418200D02*
G01*
X86309100Y-6418200D01*
X86309100Y-6115200D01*
X86612100Y-6115200D01*
X86612100Y-6418200D01*
G37*
G36*
X86612100Y-6721200D02*
G01*
X86309100Y-6721200D01*
X86309100Y-6418200D01*
X86612100Y-6418200D01*
X86612100Y-6721200D01*
G37*
G36*
X87824200Y-7024200D02*
G01*
X86309100Y-7024200D01*
X86309100Y-6721200D01*
X87824200Y-6721200D01*
X87824200Y-7024200D01*
G37*
G36*
X86915200Y-8842400D02*
G01*
X86309100Y-8842400D01*
X86309100Y-8539400D01*
X86915200Y-8539400D01*
X86915200Y-8842400D01*
G37*
G36*
X87521200Y-9145500D02*
G01*
X86309100Y-9145500D01*
X86309100Y-8842400D01*
X87521200Y-8842400D01*
X87521200Y-9145500D01*
G37*
G36*
X86612100Y-9751500D02*
G01*
X86309100Y-9751500D01*
X86309100Y-9448500D01*
X86612100Y-9448500D01*
X86612100Y-9751500D01*
G37*
G36*
X86612100Y-10054500D02*
G01*
X86309100Y-10054500D01*
X86309100Y-9751500D01*
X86612100Y-9751500D01*
X86612100Y-10054500D01*
G37*
G36*
X86915200Y-10963600D02*
G01*
X86309100Y-10963600D01*
X86309100Y-10660600D01*
X86915200Y-10660600D01*
X86915200Y-10963600D01*
G37*
G36*
X88127300Y-13084800D02*
G01*
X86309100Y-13084800D01*
X86309100Y-12781800D01*
X88127300Y-12781800D01*
X88127300Y-13084800D01*
G37*
G36*
X86612100Y-13690900D02*
G01*
X86309100Y-13690900D01*
X86309100Y-13387900D01*
X86612100Y-13387900D01*
X86612100Y-13690900D01*
G37*
G36*
X86915200Y-12781800D02*
G01*
X86612100Y-12781800D01*
X86612100Y-12478800D01*
X86915200Y-12478800D01*
X86915200Y-12781800D01*
G37*
G36*
X87218200Y-7933300D02*
G01*
X86915200Y-7933300D01*
X86915200Y-7630300D01*
X87218200Y-7630300D01*
X87218200Y-7933300D01*
G37*
G36*
X87218200Y-8236400D02*
G01*
X86915200Y-8236400D01*
X86915200Y-7933300D01*
X87218200Y-7933300D01*
X87218200Y-8236400D01*
G37*
G36*
X87218200Y-8539400D02*
G01*
X86915200Y-8539400D01*
X86915200Y-8236400D01*
X87218200Y-8236400D01*
X87218200Y-8539400D01*
G37*
G36*
X87218200Y-9751500D02*
G01*
X86915200Y-9751500D01*
X86915200Y-9448500D01*
X87218200Y-9448500D01*
X87218200Y-9751500D01*
G37*
G36*
X87218200Y-10054500D02*
G01*
X86915200Y-10054500D01*
X86915200Y-9751500D01*
X87218200Y-9751500D01*
X87218200Y-10054500D01*
G37*
G36*
X87218200Y-10660600D02*
G01*
X86915200Y-10660600D01*
X86915200Y-10357600D01*
X87218200Y-10357600D01*
X87218200Y-10660600D01*
G37*
G36*
X87218200Y-13387900D02*
G01*
X86915200Y-13387900D01*
X86915200Y-13084800D01*
X87218200Y-13084800D01*
X87218200Y-13387900D01*
G37*
G36*
X87521200Y-8842400D02*
G01*
X87218200Y-8842400D01*
X87218200Y-8539400D01*
X87521200Y-8539400D01*
X87521200Y-8842400D01*
G37*
G36*
X88127300Y-10357600D02*
G01*
X87218200Y-10357600D01*
X87218200Y-10054500D01*
X88127300Y-10054500D01*
X88127300Y-10357600D01*
G37*
G36*
X87824200Y-11266700D02*
G01*
X87218200Y-11266700D01*
X87218200Y-10963600D01*
X87824200Y-10963600D01*
X87824200Y-11266700D01*
G37*
G36*
X87521200Y-13690900D02*
G01*
X87218200Y-13690900D01*
X87218200Y-13387900D01*
X87521200Y-13387900D01*
X87521200Y-13690900D01*
G37*
G36*
X87824200Y-6115200D02*
G01*
X87521200Y-6115200D01*
X87521200Y-5812100D01*
X87824200Y-5812100D01*
X87824200Y-6115200D01*
G37*
G36*
X87824200Y-6418200D02*
G01*
X87521200Y-6418200D01*
X87521200Y-6115200D01*
X87824200Y-6115200D01*
X87824200Y-6418200D01*
G37*
G36*
X87824200Y-6721200D02*
G01*
X87521200Y-6721200D01*
X87521200Y-6418200D01*
X87824200Y-6418200D01*
X87824200Y-6721200D01*
G37*
G36*
X88127300Y-7933300D02*
G01*
X87521200Y-7933300D01*
X87521200Y-7630300D01*
X88127300Y-7630300D01*
X88127300Y-7933300D01*
G37*
G36*
X87824200Y-9751500D02*
G01*
X87521200Y-9751500D01*
X87521200Y-9448500D01*
X87824200Y-9448500D01*
X87824200Y-9751500D01*
G37*
G36*
X88733300Y-10660600D02*
G01*
X87521200Y-10660600D01*
X87521200Y-10357600D01*
X88733300Y-10357600D01*
X88733300Y-10660600D01*
G37*
G36*
X88733300Y-10963600D02*
G01*
X87521200Y-10963600D01*
X87521200Y-10660600D01*
X88733300Y-10660600D01*
X88733300Y-10963600D01*
G37*
G36*
X88430300Y-11872700D02*
G01*
X87521200Y-11872700D01*
X87521200Y-11569700D01*
X88430300Y-11569700D01*
X88430300Y-11872700D01*
G37*
G36*
X87824200Y-12175800D02*
G01*
X87521200Y-12175800D01*
X87521200Y-11872700D01*
X87824200Y-11872700D01*
X87824200Y-12175800D01*
G37*
G36*
X88430300Y-12478800D02*
G01*
X87521200Y-12478800D01*
X87521200Y-12175800D01*
X88430300Y-12175800D01*
X88430300Y-12478800D01*
G37*
G36*
X87824200Y-13993900D02*
G01*
X87521200Y-13993900D01*
X87521200Y-13690900D01*
X87824200Y-13690900D01*
X87824200Y-13993900D01*
G37*
G36*
X88127300Y-8236400D02*
G01*
X87824200Y-8236400D01*
X87824200Y-7933300D01*
X88127300Y-7933300D01*
X88127300Y-8236400D01*
G37*
G36*
X89036400Y-8539400D02*
G01*
X87824200Y-8539400D01*
X87824200Y-8236400D01*
X89036400Y-8236400D01*
X89036400Y-8539400D01*
G37*
G36*
X88733300Y-10054500D02*
G01*
X87824200Y-10054500D01*
X87824200Y-9751500D01*
X88733300Y-9751500D01*
X88733300Y-10054500D01*
G37*
G36*
X88127300Y-13387900D02*
G01*
X87824200Y-13387900D01*
X87824200Y-13084800D01*
X88127300Y-13084800D01*
X88127300Y-13387900D01*
G37*
G36*
X89036400Y-5509100D02*
G01*
X88127300Y-5509100D01*
X88127300Y-5206100D01*
X89036400Y-5206100D01*
X89036400Y-5509100D01*
G37*
G36*
X88733300Y-5812100D02*
G01*
X88127300Y-5812100D01*
X88127300Y-5509100D01*
X88733300Y-5509100D01*
X88733300Y-5812100D01*
G37*
G36*
X90248500Y-6115200D02*
G01*
X88127300Y-6115200D01*
X88127300Y-5812100D01*
X90248500Y-5812100D01*
X90248500Y-6115200D01*
G37*
G36*
X88430300Y-6418200D02*
G01*
X88127300Y-6418200D01*
X88127300Y-6115200D01*
X88430300Y-6115200D01*
X88430300Y-6418200D01*
G37*
G36*
X88733300Y-6721200D02*
G01*
X88127300Y-6721200D01*
X88127300Y-6418200D01*
X88733300Y-6418200D01*
X88733300Y-6721200D01*
G37*
G36*
X88430300Y-7024200D02*
G01*
X88127300Y-7024200D01*
X88127300Y-6721200D01*
X88430300Y-6721200D01*
X88430300Y-7024200D01*
G37*
G36*
X88430300Y-7327300D02*
G01*
X88127300Y-7327300D01*
X88127300Y-7024200D01*
X88430300Y-7024200D01*
X88430300Y-7327300D01*
G37*
G36*
X88430300Y-9145500D02*
G01*
X88127300Y-9145500D01*
X88127300Y-8842400D01*
X88430300Y-8842400D01*
X88430300Y-9145500D01*
G37*
G36*
X89642400Y-9448500D02*
G01*
X88127300Y-9448500D01*
X88127300Y-9145500D01*
X89642400Y-9145500D01*
X89642400Y-9448500D01*
G37*
G36*
X88733300Y-11266700D02*
G01*
X88127300Y-11266700D01*
X88127300Y-10963600D01*
X88733300Y-10963600D01*
X88733300Y-11266700D01*
G37*
G36*
X88430300Y-12175800D02*
G01*
X88127300Y-12175800D01*
X88127300Y-11872700D01*
X88430300Y-11872700D01*
X88430300Y-12175800D01*
G37*
G36*
X89036400Y-13690900D02*
G01*
X88127300Y-13690900D01*
X88127300Y-13387900D01*
X89036400Y-13387900D01*
X89036400Y-13690900D01*
G37*
G36*
X88430300Y-13993900D02*
G01*
X88127300Y-13993900D01*
X88127300Y-13690900D01*
X88430300Y-13690900D01*
X88430300Y-13993900D01*
G37*
G36*
X88733300Y-7933300D02*
G01*
X88430300Y-7933300D01*
X88430300Y-7630300D01*
X88733300Y-7630300D01*
X88733300Y-7933300D01*
G37*
G36*
X88733300Y-8236400D02*
G01*
X88430300Y-8236400D01*
X88430300Y-7933300D01*
X88733300Y-7933300D01*
X88733300Y-8236400D01*
G37*
G36*
X88733300Y-8842400D02*
G01*
X88430300Y-8842400D01*
X88430300Y-8539400D01*
X88733300Y-8539400D01*
X88733300Y-8842400D01*
G37*
G36*
X89642400Y-13084800D02*
G01*
X88430300Y-13084800D01*
X88430300Y-12781800D01*
X89642400Y-12781800D01*
X89642400Y-13084800D01*
G37*
G36*
X89339400Y-6418200D02*
G01*
X88733300Y-6418200D01*
X88733300Y-6115200D01*
X89339400Y-6115200D01*
X89339400Y-6418200D01*
G37*
G36*
X89036400Y-7024200D02*
G01*
X88733300Y-7024200D01*
X88733300Y-6721200D01*
X89036400Y-6721200D01*
X89036400Y-7024200D01*
G37*
G36*
X89036400Y-7327300D02*
G01*
X88733300Y-7327300D01*
X88733300Y-7024200D01*
X89036400Y-7024200D01*
X89036400Y-7327300D01*
G37*
G36*
X89036400Y-11569700D02*
G01*
X88733300Y-11569700D01*
X88733300Y-11266700D01*
X89036400Y-11266700D01*
X89036400Y-11569700D01*
G37*
G36*
X89036400Y-11872700D02*
G01*
X88733300Y-11872700D01*
X88733300Y-11569700D01*
X89036400Y-11569700D01*
X89036400Y-11872700D01*
G37*
G36*
X89036400Y-13387900D02*
G01*
X88733300Y-13387900D01*
X88733300Y-13084800D01*
X89036400Y-13084800D01*
X89036400Y-13387900D01*
G37*
G36*
X90248500Y-7630300D02*
G01*
X89036400Y-7630300D01*
X89036400Y-7327300D01*
X90248500Y-7327300D01*
X90248500Y-7630300D01*
G37*
G36*
X89339400Y-7933300D02*
G01*
X89036400Y-7933300D01*
X89036400Y-7630300D01*
X89339400Y-7630300D01*
X89339400Y-7933300D01*
G37*
G36*
X89339400Y-8842400D02*
G01*
X89036400Y-8842400D01*
X89036400Y-8539400D01*
X89339400Y-8539400D01*
X89339400Y-8842400D01*
G37*
G36*
X89339400Y-9751500D02*
G01*
X89036400Y-9751500D01*
X89036400Y-9448500D01*
X89339400Y-9448500D01*
X89339400Y-9751500D01*
G37*
G36*
X89642400Y-10054500D02*
G01*
X89036400Y-10054500D01*
X89036400Y-9751500D01*
X89642400Y-9751500D01*
X89642400Y-10054500D01*
G37*
G36*
X89945500Y-10660600D02*
G01*
X89036400Y-10660600D01*
X89036400Y-10357600D01*
X89945500Y-10357600D01*
X89945500Y-10660600D01*
G37*
G36*
X89642400Y-12175800D02*
G01*
X89036400Y-12175800D01*
X89036400Y-11872700D01*
X89642400Y-11872700D01*
X89642400Y-12175800D01*
G37*
G36*
X89339400Y-12478800D02*
G01*
X89036400Y-12478800D01*
X89036400Y-12175800D01*
X89339400Y-12175800D01*
X89339400Y-12478800D01*
G37*
G36*
X89642400Y-12781800D02*
G01*
X89036400Y-12781800D01*
X89036400Y-12478800D01*
X89642400Y-12478800D01*
X89642400Y-12781800D01*
G37*
G36*
X90248500Y-13993900D02*
G01*
X89036400Y-13993900D01*
X89036400Y-13690900D01*
X90248500Y-13690900D01*
X90248500Y-13993900D01*
G37*
G36*
X89945500Y-6721200D02*
G01*
X89339400Y-6721200D01*
X89339400Y-6418200D01*
X89945500Y-6418200D01*
X89945500Y-6721200D01*
G37*
G36*
X89642400Y-7327300D02*
G01*
X89339400Y-7327300D01*
X89339400Y-7024200D01*
X89642400Y-7024200D01*
X89642400Y-7327300D01*
G37*
G36*
X89642400Y-8236400D02*
G01*
X89339400Y-8236400D01*
X89339400Y-7933300D01*
X89642400Y-7933300D01*
X89642400Y-8236400D01*
G37*
G36*
X89642400Y-9145500D02*
G01*
X89339400Y-9145500D01*
X89339400Y-8842400D01*
X89642400Y-8842400D01*
X89642400Y-9145500D01*
G37*
G36*
X89945500Y-10357600D02*
G01*
X89339400Y-10357600D01*
X89339400Y-10054500D01*
X89945500Y-10054500D01*
X89945500Y-10357600D01*
G37*
G36*
X89642400Y-11266700D02*
G01*
X89339400Y-11266700D01*
X89339400Y-10963600D01*
X89642400Y-10963600D01*
X89642400Y-11266700D01*
G37*
G36*
X89642400Y-13387900D02*
G01*
X89339400Y-13387900D01*
X89339400Y-13084800D01*
X89642400Y-13084800D01*
X89642400Y-13387900D01*
G37*
G36*
X90551500Y-13690900D02*
G01*
X89339400Y-13690900D01*
X89339400Y-13387900D01*
X90551500Y-13387900D01*
X90551500Y-13690900D01*
G37*
G36*
X89945500Y-5509100D02*
G01*
X89642400Y-5509100D01*
X89642400Y-5206100D01*
X89945500Y-5206100D01*
X89945500Y-5509100D01*
G37*
G36*
X89945500Y-5812100D02*
G01*
X89642400Y-5812100D01*
X89642400Y-5509100D01*
X89945500Y-5509100D01*
X89945500Y-5812100D01*
G37*
G36*
X89945500Y-8539400D02*
G01*
X89642400Y-8539400D01*
X89642400Y-8236400D01*
X89945500Y-8236400D01*
X89945500Y-8539400D01*
G37*
G36*
X89945500Y-9751500D02*
G01*
X89642400Y-9751500D01*
X89642400Y-9448500D01*
X89945500Y-9448500D01*
X89945500Y-9751500D01*
G37*
G36*
X89945500Y-11872700D02*
G01*
X89642400Y-11872700D01*
X89642400Y-11569700D01*
X89945500Y-11569700D01*
X89945500Y-11872700D01*
G37*
G36*
X90248500Y-7024200D02*
G01*
X89945500Y-7024200D01*
X89945500Y-6721200D01*
X90248500Y-6721200D01*
X90248500Y-7024200D01*
G37*
G36*
X90248500Y-7327300D02*
G01*
X89945500Y-7327300D01*
X89945500Y-7024200D01*
X90248500Y-7024200D01*
X90248500Y-7327300D01*
G37*
G36*
X90248500Y-8236400D02*
G01*
X89945500Y-8236400D01*
X89945500Y-7933300D01*
X90248500Y-7933300D01*
X90248500Y-8236400D01*
G37*
G36*
X90248500Y-8842400D02*
G01*
X89945500Y-8842400D01*
X89945500Y-8539400D01*
X90248500Y-8539400D01*
X90248500Y-8842400D01*
G37*
G36*
X90248500Y-9145500D02*
G01*
X89945500Y-9145500D01*
X89945500Y-8842400D01*
X90248500Y-8842400D01*
X90248500Y-9145500D01*
G37*
G36*
X90551500Y-11569700D02*
G01*
X89945500Y-11569700D01*
X89945500Y-11266700D01*
X90551500Y-11266700D01*
X90551500Y-11569700D01*
G37*
G36*
X90551500Y-12478800D02*
G01*
X89945500Y-12478800D01*
X89945500Y-12175800D01*
X90551500Y-12175800D01*
X90551500Y-12478800D01*
G37*
G36*
X90551500Y-6721200D02*
G01*
X90248500Y-6721200D01*
X90248500Y-6418200D01*
X90551500Y-6418200D01*
X90551500Y-6721200D01*
G37*
G36*
X90854500Y-9448500D02*
G01*
X90248500Y-9448500D01*
X90248500Y-9145500D01*
X90854500Y-9145500D01*
X90854500Y-9448500D01*
G37*
G36*
X90854500Y-10357600D02*
G01*
X90248500Y-10357600D01*
X90248500Y-10054500D01*
X90854500Y-10054500D01*
X90854500Y-10357600D01*
G37*
G36*
X90854500Y-10660600D02*
G01*
X90248500Y-10660600D01*
X90248500Y-10357600D01*
X90854500Y-10357600D01*
X90854500Y-10660600D01*
G37*
G36*
X90551500Y-11266700D02*
G01*
X90248500Y-11266700D01*
X90248500Y-10963600D01*
X90551500Y-10963600D01*
X90551500Y-11266700D01*
G37*
G36*
X90551500Y-11872700D02*
G01*
X90248500Y-11872700D01*
X90248500Y-11569700D01*
X90551500Y-11569700D01*
X90551500Y-11872700D01*
G37*
G36*
X90551500Y-12175800D02*
G01*
X90248500Y-12175800D01*
X90248500Y-11872700D01*
X90551500Y-11872700D01*
X90551500Y-12175800D01*
G37*
G36*
X90551500Y-12781800D02*
G01*
X90248500Y-12781800D01*
X90248500Y-12478800D01*
X90551500Y-12478800D01*
X90551500Y-12781800D01*
G37*
G36*
X90854500Y-6418200D02*
G01*
X90551500Y-6418200D01*
X90551500Y-6115200D01*
X90854500Y-6115200D01*
X90854500Y-6418200D01*
G37*
G36*
X90854500Y-7327300D02*
G01*
X90551500Y-7327300D01*
X90551500Y-7024200D01*
X90854500Y-7024200D01*
X90854500Y-7327300D01*
G37*
G36*
X95400000Y-7630300D02*
G01*
X90551500Y-7630300D01*
X90551500Y-7327300D01*
X95400000Y-7327300D01*
X95400000Y-7630300D01*
G37*
G36*
X91157600Y-8236400D02*
G01*
X90551500Y-8236400D01*
X90551500Y-7933300D01*
X91157600Y-7933300D01*
X91157600Y-8236400D01*
G37*
G36*
X91157600Y-8539400D02*
G01*
X90551500Y-8539400D01*
X90551500Y-8236400D01*
X91157600Y-8236400D01*
X91157600Y-8539400D01*
G37*
G36*
X90854500Y-8842400D02*
G01*
X90551500Y-8842400D01*
X90551500Y-8539400D01*
X90854500Y-8539400D01*
X90854500Y-8842400D01*
G37*
G36*
X91460600Y-9751500D02*
G01*
X90551500Y-9751500D01*
X90551500Y-9448500D01*
X91460600Y-9448500D01*
X91460600Y-9751500D01*
G37*
G36*
X91460600Y-13387900D02*
G01*
X90551500Y-13387900D01*
X90551500Y-13084800D01*
X91460600Y-13084800D01*
X91460600Y-13387900D01*
G37*
G36*
X92066700Y-13993900D02*
G01*
X90551500Y-13993900D01*
X90551500Y-13690900D01*
X92066700Y-13690900D01*
X92066700Y-13993900D01*
G37*
G36*
X91460600Y-5812100D02*
G01*
X90854500Y-5812100D01*
X90854500Y-5509100D01*
X91460600Y-5509100D01*
X91460600Y-5812100D01*
G37*
G36*
X92066700Y-6115200D02*
G01*
X90854500Y-6115200D01*
X90854500Y-5812100D01*
X92066700Y-5812100D01*
X92066700Y-6115200D01*
G37*
G36*
X91157600Y-7933300D02*
G01*
X90854500Y-7933300D01*
X90854500Y-7630300D01*
X91157600Y-7630300D01*
X91157600Y-7933300D01*
G37*
G36*
X91157600Y-9145500D02*
G01*
X90854500Y-9145500D01*
X90854500Y-8842400D01*
X91157600Y-8842400D01*
X91157600Y-9145500D01*
G37*
G36*
X91157600Y-10963600D02*
G01*
X90854500Y-10963600D01*
X90854500Y-10660600D01*
X91157600Y-10660600D01*
X91157600Y-10963600D01*
G37*
G36*
X91763600Y-11266700D02*
G01*
X90854500Y-11266700D01*
X90854500Y-10963600D01*
X91763600Y-10963600D01*
X91763600Y-11266700D01*
G37*
G36*
X91763600Y-11569700D02*
G01*
X90854500Y-11569700D01*
X90854500Y-11266700D01*
X91763600Y-11266700D01*
X91763600Y-11569700D01*
G37*
G36*
X91460600Y-11872700D02*
G01*
X90854500Y-11872700D01*
X90854500Y-11569700D01*
X91460600Y-11569700D01*
X91460600Y-11872700D01*
G37*
G36*
X91157600Y-12478800D02*
G01*
X90854500Y-12478800D01*
X90854500Y-12175800D01*
X91157600Y-12175800D01*
X91157600Y-12478800D01*
G37*
G36*
X91460600Y-6418200D02*
G01*
X91157600Y-6418200D01*
X91157600Y-6115200D01*
X91460600Y-6115200D01*
X91460600Y-6418200D01*
G37*
G36*
X91460600Y-6721200D02*
G01*
X91157600Y-6721200D01*
X91157600Y-6418200D01*
X91460600Y-6418200D01*
X91460600Y-6721200D01*
G37*
G36*
X91460600Y-7327300D02*
G01*
X91157600Y-7327300D01*
X91157600Y-7024200D01*
X91460600Y-7024200D01*
X91460600Y-7327300D01*
G37*
G36*
X91460600Y-8842400D02*
G01*
X91157600Y-8842400D01*
X91157600Y-8539400D01*
X91460600Y-8539400D01*
X91460600Y-8842400D01*
G37*
G36*
X92975800Y-9448500D02*
G01*
X91157600Y-9448500D01*
X91157600Y-9145500D01*
X92975800Y-9145500D01*
X92975800Y-9448500D01*
G37*
G36*
X92369700Y-10054500D02*
G01*
X91157600Y-10054500D01*
X91157600Y-9751500D01*
X92369700Y-9751500D01*
X92369700Y-10054500D01*
G37*
G36*
X91460600Y-10357600D02*
G01*
X91157600Y-10357600D01*
X91157600Y-10054500D01*
X91460600Y-10054500D01*
X91460600Y-10357600D01*
G37*
G36*
X91763600Y-12781800D02*
G01*
X91157600Y-12781800D01*
X91157600Y-12478800D01*
X91763600Y-12478800D01*
X91763600Y-12781800D01*
G37*
G36*
X91460600Y-13084800D02*
G01*
X91157600Y-13084800D01*
X91157600Y-12781800D01*
X91460600Y-12781800D01*
X91460600Y-13084800D01*
G37*
G36*
X91460600Y-13690900D02*
G01*
X91157600Y-13690900D01*
X91157600Y-13387900D01*
X91460600Y-13387900D01*
X91460600Y-13690900D01*
G37*
G36*
X91763600Y-7024200D02*
G01*
X91460600Y-7024200D01*
X91460600Y-6721200D01*
X91763600Y-6721200D01*
X91763600Y-7024200D01*
G37*
G36*
X91763600Y-8539400D02*
G01*
X91460600Y-8539400D01*
X91460600Y-8236400D01*
X91763600Y-8236400D01*
X91763600Y-8539400D01*
G37*
G36*
X92066700Y-9145500D02*
G01*
X91460600Y-9145500D01*
X91460600Y-8842400D01*
X92066700Y-8842400D01*
X92066700Y-9145500D01*
G37*
G36*
X91763600Y-12175800D02*
G01*
X91460600Y-12175800D01*
X91460600Y-11872700D01*
X91763600Y-11872700D01*
X91763600Y-12175800D01*
G37*
G36*
X92066700Y-12478800D02*
G01*
X91460600Y-12478800D01*
X91460600Y-12175800D01*
X92066700Y-12175800D01*
X92066700Y-12478800D01*
G37*
G36*
X92066700Y-5509100D02*
G01*
X91763600Y-5509100D01*
X91763600Y-5206100D01*
X92066700Y-5206100D01*
X92066700Y-5509100D01*
G37*
G36*
X92066700Y-5812100D02*
G01*
X91763600Y-5812100D01*
X91763600Y-5509100D01*
X92066700Y-5509100D01*
X92066700Y-5812100D01*
G37*
G36*
X92672700Y-6418200D02*
G01*
X91763600Y-6418200D01*
X91763600Y-6115200D01*
X92672700Y-6115200D01*
X92672700Y-6418200D01*
G37*
G36*
X92066700Y-7327300D02*
G01*
X91763600Y-7327300D01*
X91763600Y-7024200D01*
X92066700Y-7024200D01*
X92066700Y-7327300D01*
G37*
G36*
X92369700Y-8236400D02*
G01*
X91763600Y-8236400D01*
X91763600Y-7933300D01*
X92369700Y-7933300D01*
X92369700Y-8236400D01*
G37*
G36*
X92975800Y-8842400D02*
G01*
X91763600Y-8842400D01*
X91763600Y-8539400D01*
X92975800Y-8539400D01*
X92975800Y-8842400D01*
G37*
G36*
X92066700Y-9751500D02*
G01*
X91763600Y-9751500D01*
X91763600Y-9448500D01*
X92066700Y-9448500D01*
X92066700Y-9751500D01*
G37*
G36*
X92066700Y-10660600D02*
G01*
X91763600Y-10660600D01*
X91763600Y-10357600D01*
X92066700Y-10357600D01*
X92066700Y-10660600D01*
G37*
G36*
X92672700Y-7024200D02*
G01*
X92066700Y-7024200D01*
X92066700Y-6721200D01*
X92672700Y-6721200D01*
X92672700Y-7024200D01*
G37*
G36*
X92369700Y-8539400D02*
G01*
X92066700Y-8539400D01*
X92066700Y-8236400D01*
X92369700Y-8236400D01*
X92369700Y-8539400D01*
G37*
G36*
X92672700Y-10357600D02*
G01*
X92066700Y-10357600D01*
X92066700Y-10054500D01*
X92672700Y-10054500D01*
X92672700Y-10357600D01*
G37*
G36*
X92672700Y-11569700D02*
G01*
X92066700Y-11569700D01*
X92066700Y-11266700D01*
X92672700Y-11266700D01*
X92672700Y-11569700D01*
G37*
G36*
X92672700Y-13387900D02*
G01*
X92066700Y-13387900D01*
X92066700Y-13084800D01*
X92672700Y-13084800D01*
X92672700Y-13387900D01*
G37*
G36*
X92672700Y-13690900D02*
G01*
X92066700Y-13690900D01*
X92066700Y-13387900D01*
X92672700Y-13387900D01*
X92672700Y-13690900D01*
G37*
G36*
X92672700Y-5509100D02*
G01*
X92369700Y-5509100D01*
X92369700Y-5206100D01*
X92672700Y-5206100D01*
X92672700Y-5509100D01*
G37*
G36*
X92672700Y-5812100D02*
G01*
X92369700Y-5812100D01*
X92369700Y-5509100D01*
X92672700Y-5509100D01*
X92672700Y-5812100D01*
G37*
G36*
X92672700Y-6115200D02*
G01*
X92369700Y-6115200D01*
X92369700Y-5812100D01*
X92672700Y-5812100D01*
X92672700Y-6115200D01*
G37*
G36*
X92672700Y-6721200D02*
G01*
X92369700Y-6721200D01*
X92369700Y-6418200D01*
X92672700Y-6418200D01*
X92672700Y-6721200D01*
G37*
G36*
X92672700Y-7327300D02*
G01*
X92369700Y-7327300D01*
X92369700Y-7024200D01*
X92672700Y-7024200D01*
X92672700Y-7327300D01*
G37*
G36*
X92672700Y-9145500D02*
G01*
X92369700Y-9145500D01*
X92369700Y-8842400D01*
X92672700Y-8842400D01*
X92672700Y-9145500D01*
G37*
G36*
X92975800Y-10660600D02*
G01*
X92369700Y-10660600D01*
X92369700Y-10357600D01*
X92975800Y-10357600D01*
X92975800Y-10660600D01*
G37*
G36*
X92672700Y-10963600D02*
G01*
X92369700Y-10963600D01*
X92369700Y-10660600D01*
X92672700Y-10660600D01*
X92672700Y-10963600D01*
G37*
G36*
X95400000Y-11872700D02*
G01*
X92369700Y-11872700D01*
X92369700Y-11569700D01*
X95400000Y-11569700D01*
X95400000Y-11872700D01*
G37*
G36*
X92672700Y-12175800D02*
G01*
X92369700Y-12175800D01*
X92369700Y-11872700D01*
X92672700Y-11872700D01*
X92672700Y-12175800D01*
G37*
G36*
X92672700Y-12478800D02*
G01*
X92369700Y-12478800D01*
X92369700Y-12175800D01*
X92672700Y-12175800D01*
X92672700Y-12478800D01*
G37*
G36*
X92672700Y-12781800D02*
G01*
X92369700Y-12781800D01*
X92369700Y-12478800D01*
X92672700Y-12478800D01*
X92672700Y-12781800D01*
G37*
G36*
X92672700Y-13084800D02*
G01*
X92369700Y-13084800D01*
X92369700Y-12781800D01*
X92672700Y-12781800D01*
X92672700Y-13084800D01*
G37*
G36*
X92672700Y-13993900D02*
G01*
X92369700Y-13993900D01*
X92369700Y-13690900D01*
X92672700Y-13690900D01*
X92672700Y-13993900D01*
G37*
G36*
X94187900Y-8236400D02*
G01*
X92672700Y-8236400D01*
X92672700Y-7933300D01*
X94187900Y-7933300D01*
X94187900Y-8236400D01*
G37*
G36*
X93581800Y-10054500D02*
G01*
X92672700Y-10054500D01*
X92672700Y-9751500D01*
X93581800Y-9751500D01*
X93581800Y-10054500D01*
G37*
G36*
X92975800Y-11266700D02*
G01*
X92672700Y-11266700D01*
X92672700Y-10963600D01*
X92975800Y-10963600D01*
X92975800Y-11266700D01*
G37*
G36*
X94490900Y-5812100D02*
G01*
X92975800Y-5812100D01*
X92975800Y-5509100D01*
X94490900Y-5509100D01*
X94490900Y-5812100D01*
G37*
G36*
X93278800Y-6115200D02*
G01*
X92975800Y-6115200D01*
X92975800Y-5812100D01*
X93278800Y-5812100D01*
X93278800Y-6115200D01*
G37*
G36*
X93278800Y-6418200D02*
G01*
X92975800Y-6418200D01*
X92975800Y-6115200D01*
X93278800Y-6115200D01*
X93278800Y-6418200D01*
G37*
G36*
X93278800Y-6721200D02*
G01*
X92975800Y-6721200D01*
X92975800Y-6418200D01*
X93278800Y-6418200D01*
X93278800Y-6721200D01*
G37*
G36*
X94490900Y-7024200D02*
G01*
X92975800Y-7024200D01*
X92975800Y-6721200D01*
X94490900Y-6721200D01*
X94490900Y-7024200D01*
G37*
G36*
X93278800Y-8539400D02*
G01*
X92975800Y-8539400D01*
X92975800Y-8236400D01*
X93278800Y-8236400D01*
X93278800Y-8539400D01*
G37*
G36*
X93581800Y-9751500D02*
G01*
X92975800Y-9751500D01*
X92975800Y-9448500D01*
X93581800Y-9448500D01*
X93581800Y-9751500D01*
G37*
G36*
X93278800Y-10357600D02*
G01*
X92975800Y-10357600D01*
X92975800Y-10054500D01*
X93278800Y-10054500D01*
X93278800Y-10357600D01*
G37*
G36*
X93581800Y-10963600D02*
G01*
X92975800Y-10963600D01*
X92975800Y-10660600D01*
X93581800Y-10660600D01*
X93581800Y-10963600D01*
G37*
G36*
X94490900Y-12478800D02*
G01*
X92975800Y-12478800D01*
X92975800Y-12175800D01*
X94490900Y-12175800D01*
X94490900Y-12478800D01*
G37*
G36*
X93278800Y-12781800D02*
G01*
X92975800Y-12781800D01*
X92975800Y-12478800D01*
X93278800Y-12478800D01*
X93278800Y-12781800D01*
G37*
G36*
X93278800Y-13084800D02*
G01*
X92975800Y-13084800D01*
X92975800Y-12781800D01*
X93278800Y-12781800D01*
X93278800Y-13084800D01*
G37*
G36*
X93278800Y-13387900D02*
G01*
X92975800Y-13387900D01*
X92975800Y-13084800D01*
X93278800Y-13084800D01*
X93278800Y-13387900D01*
G37*
G36*
X94490900Y-13690900D02*
G01*
X92975800Y-13690900D01*
X92975800Y-13387900D01*
X94490900Y-13387900D01*
X94490900Y-13690900D01*
G37*
G36*
X93581800Y-9448500D02*
G01*
X93278800Y-9448500D01*
X93278800Y-9145500D01*
X93581800Y-9145500D01*
X93581800Y-9448500D01*
G37*
G36*
X94187900Y-10660600D02*
G01*
X93278800Y-10660600D01*
X93278800Y-10357600D01*
X94187900Y-10357600D01*
X94187900Y-10660600D01*
G37*
G36*
X94187900Y-11266700D02*
G01*
X93278800Y-11266700D01*
X93278800Y-10963600D01*
X94187900Y-10963600D01*
X94187900Y-11266700D01*
G37*
G36*
X93581800Y-11569700D02*
G01*
X93278800Y-11569700D01*
X93278800Y-11266700D01*
X93581800Y-11266700D01*
X93581800Y-11569700D01*
G37*
G36*
X94187900Y-9145500D02*
G01*
X93581800Y-9145500D01*
X93581800Y-8842400D01*
X94187900Y-8842400D01*
X94187900Y-9145500D01*
G37*
G36*
X93884800Y-10357600D02*
G01*
X93581800Y-10357600D01*
X93581800Y-10054500D01*
X93884800Y-10054500D01*
X93884800Y-10357600D01*
G37*
G36*
X94490900Y-7933300D02*
G01*
X93884800Y-7933300D01*
X93884800Y-7630300D01*
X94490900Y-7630300D01*
X94490900Y-7933300D01*
G37*
G36*
X94490900Y-9448500D02*
G01*
X93884800Y-9448500D01*
X93884800Y-9145500D01*
X94490900Y-9145500D01*
X94490900Y-9448500D01*
G37*
G36*
X94187900Y-10054500D02*
G01*
X93884800Y-10054500D01*
X93884800Y-9751500D01*
X94187900Y-9751500D01*
X94187900Y-10054500D01*
G37*
G36*
X94187900Y-10963600D02*
G01*
X93884800Y-10963600D01*
X93884800Y-10660600D01*
X94187900Y-10660600D01*
X94187900Y-10963600D01*
G37*
G36*
X94490900Y-6115200D02*
G01*
X94187900Y-6115200D01*
X94187900Y-5812100D01*
X94490900Y-5812100D01*
X94490900Y-6115200D01*
G37*
G36*
X94490900Y-6418200D02*
G01*
X94187900Y-6418200D01*
X94187900Y-6115200D01*
X94490900Y-6115200D01*
X94490900Y-6418200D01*
G37*
G36*
X94490900Y-6721200D02*
G01*
X94187900Y-6721200D01*
X94187900Y-6418200D01*
X94490900Y-6418200D01*
X94490900Y-6721200D01*
G37*
G36*
X94490900Y-8842400D02*
G01*
X94187900Y-8842400D01*
X94187900Y-8539400D01*
X94490900Y-8539400D01*
X94490900Y-8842400D01*
G37*
G36*
X94490900Y-9751500D02*
G01*
X94187900Y-9751500D01*
X94187900Y-9448500D01*
X94490900Y-9448500D01*
X94490900Y-9751500D01*
G37*
G36*
X95400000Y-10357600D02*
G01*
X94187900Y-10357600D01*
X94187900Y-10054500D01*
X95400000Y-10054500D01*
X95400000Y-10357600D01*
G37*
G36*
X94490900Y-12781800D02*
G01*
X94187900Y-12781800D01*
X94187900Y-12478800D01*
X94490900Y-12478800D01*
X94490900Y-12781800D01*
G37*
G36*
X94490900Y-13084800D02*
G01*
X94187900Y-13084800D01*
X94187900Y-12781800D01*
X94490900Y-12781800D01*
X94490900Y-13084800D01*
G37*
G36*
X94490900Y-13387900D02*
G01*
X94187900Y-13387900D01*
X94187900Y-13084800D01*
X94490900Y-13084800D01*
X94490900Y-13387900D01*
G37*
G36*
X95400000Y-8236400D02*
G01*
X94490900Y-8236400D01*
X94490900Y-7933300D01*
X95400000Y-7933300D01*
X95400000Y-8236400D01*
G37*
G36*
X95400000Y-8539400D02*
G01*
X94490900Y-8539400D01*
X94490900Y-8236400D01*
X95400000Y-8236400D01*
X95400000Y-8539400D01*
G37*
G36*
X95400000Y-10054500D02*
G01*
X94490900Y-10054500D01*
X94490900Y-9751500D01*
X95400000Y-9751500D01*
X95400000Y-10054500D01*
G37*
G36*
X95400000Y-5509100D02*
G01*
X94793900Y-5509100D01*
X94793900Y-5206100D01*
X95400000Y-5206100D01*
X95400000Y-5509100D01*
G37*
G36*
X95400000Y-5812100D02*
G01*
X94793900Y-5812100D01*
X94793900Y-5509100D01*
X95400000Y-5509100D01*
X95400000Y-5812100D01*
G37*
G36*
X95400000Y-6115200D02*
G01*
X94793900Y-6115200D01*
X94793900Y-5812100D01*
X95400000Y-5812100D01*
X95400000Y-6115200D01*
G37*
G36*
X95400000Y-6418200D02*
G01*
X94793900Y-6418200D01*
X94793900Y-6115200D01*
X95400000Y-6115200D01*
X95400000Y-6418200D01*
G37*
G36*
X95400000Y-6721200D02*
G01*
X94793900Y-6721200D01*
X94793900Y-6418200D01*
X95400000Y-6418200D01*
X95400000Y-6721200D01*
G37*
G36*
X95400000Y-7024200D02*
G01*
X94793900Y-7024200D01*
X94793900Y-6721200D01*
X95400000Y-6721200D01*
X95400000Y-7024200D01*
G37*
G36*
X95400000Y-7327300D02*
G01*
X94793900Y-7327300D01*
X94793900Y-7024200D01*
X95400000Y-7024200D01*
X95400000Y-7327300D01*
G37*
G36*
X95400000Y-7933300D02*
G01*
X94793900Y-7933300D01*
X94793900Y-7630300D01*
X95400000Y-7630300D01*
X95400000Y-7933300D01*
G37*
G36*
X95400000Y-8842400D02*
G01*
X94793900Y-8842400D01*
X94793900Y-8539400D01*
X95400000Y-8539400D01*
X95400000Y-8842400D01*
G37*
G36*
X95400000Y-9145500D02*
G01*
X94793900Y-9145500D01*
X94793900Y-8842400D01*
X95400000Y-8842400D01*
X95400000Y-9145500D01*
G37*
G36*
X95400000Y-9448500D02*
G01*
X94793900Y-9448500D01*
X94793900Y-9145500D01*
X95400000Y-9145500D01*
X95400000Y-9448500D01*
G37*
G36*
X95400000Y-9751500D02*
G01*
X94793900Y-9751500D01*
X94793900Y-9448500D01*
X95400000Y-9448500D01*
X95400000Y-9751500D01*
G37*
G36*
X95400000Y-10660600D02*
G01*
X94793900Y-10660600D01*
X94793900Y-10357600D01*
X95400000Y-10357600D01*
X95400000Y-10660600D01*
G37*
G36*
X95400000Y-10963600D02*
G01*
X94793900Y-10963600D01*
X94793900Y-10660600D01*
X95400000Y-10660600D01*
X95400000Y-10963600D01*
G37*
G36*
X95400000Y-11266700D02*
G01*
X94793900Y-11266700D01*
X94793900Y-10963600D01*
X95400000Y-10963600D01*
X95400000Y-11266700D01*
G37*
G36*
X95400000Y-11569700D02*
G01*
X94793900Y-11569700D01*
X94793900Y-11266700D01*
X95400000Y-11266700D01*
X95400000Y-11569700D01*
G37*
G36*
X95400000Y-12175800D02*
G01*
X94793900Y-12175800D01*
X94793900Y-11872700D01*
X95400000Y-11872700D01*
X95400000Y-12175800D01*
G37*
G36*
X95400000Y-12478800D02*
G01*
X94793900Y-12478800D01*
X94793900Y-12175800D01*
X95400000Y-12175800D01*
X95400000Y-12478800D01*
G37*
G36*
X95400000Y-12781800D02*
G01*
X94793900Y-12781800D01*
X94793900Y-12478800D01*
X95400000Y-12478800D01*
X95400000Y-12781800D01*
G37*
G36*
X95400000Y-13084800D02*
G01*
X94793900Y-13084800D01*
X94793900Y-12781800D01*
X95400000Y-12781800D01*
X95400000Y-13084800D01*
G37*
G36*
X95400000Y-13387900D02*
G01*
X94793900Y-13387900D01*
X94793900Y-13084800D01*
X95400000Y-13084800D01*
X95400000Y-13387900D01*
G37*
G36*
X95400000Y-13690900D02*
G01*
X94793900Y-13690900D01*
X94793900Y-13387900D01*
X95400000Y-13387900D01*
X95400000Y-13690900D01*
G37*
G36*
X95400000Y-13993900D02*
G01*
X94793900Y-13993900D01*
X94793900Y-13690900D01*
X95400000Y-13690900D01*
X95400000Y-13993900D01*
G37*
D11*
X11150000Y-17750000D02*
G75*
G02*
X10850000Y-17750000I-150000J0D01*
G01*
X10850000Y-17750000D02*
G75*
G02*
X11150000Y-17750000I150000J0D01*
G01*
D12*
X16000000Y-17750000D02*
G75*
G02*
X6000000Y-17750000I-5000000J0D01*
G01*
X6000000Y-17750000D02*
G75*
G02*
X16000000Y-17750000I5000000J0D01*
G01*
D11*
X28150000Y-6000000D02*
G75*
G02*
X27850000Y-6000000I-150000J0D01*
G01*
X27850000Y-6000000D02*
G75*
G02*
X28150000Y-6000000I150000J0D01*
G01*
D12*
X33000000Y-6000000D02*
G75*
G02*
X23000000Y-6000000I-5000000J0D01*
G01*
X23000000Y-6000000D02*
G75*
G02*
X33000000Y-6000000I5000000J0D01*
G01*
D11*
X28150000Y-38000000D02*
G75*
G02*
X27850000Y-38000000I-150000J0D01*
G01*
X27850000Y-38000000D02*
G75*
G02*
X28150000Y-38000000I150000J0D01*
G01*
D12*
X33000000Y-38000000D02*
G75*
G02*
X23000000Y-38000000I-5000000J0D01*
G01*
X23000000Y-38000000D02*
G75*
G02*
X33000000Y-38000000I5000000J0D01*
G01*
D11*
X64150000Y-7000000D02*
G75*
G02*
X63850000Y-7000000I-150000J0D01*
G01*
X63850000Y-7000000D02*
G75*
G02*
X64150000Y-7000000I150000J0D01*
G01*
D12*
X69000000Y-7000000D02*
G75*
G02*
X59000000Y-7000000I-5000000J0D01*
G01*
X59000000Y-7000000D02*
G75*
G02*
X69000000Y-7000000I5000000J0D01*
G01*
D11*
X98150000Y-22000000D02*
G75*
G02*
X97850000Y-22000000I-150000J0D01*
G01*
X97850000Y-22000000D02*
G75*
G02*
X98150000Y-22000000I150000J0D01*
G01*
D12*
X103000000Y-22000000D02*
G75*
G02*
X93000000Y-22000000I-5000000J0D01*
G01*
X93000000Y-22000000D02*
G75*
G02*
X103000000Y-22000000I5000000J0D01*
G01*
D11*
X114150000Y-38000000D02*
G75*
G02*
X113850000Y-38000000I-150000J0D01*
G01*
X113850000Y-38000000D02*
G75*
G02*
X114150000Y-38000000I150000J0D01*
G01*
D12*
X119000000Y-38000000D02*
G75*
G02*
X109000000Y-38000000I-5000000J0D01*
G01*
X109000000Y-38000000D02*
G75*
G02*
X119000000Y-38000000I5000000J0D01*
G01*
D13*
X49380952Y-27388152D02*
X49380952Y-28197676D01*
X49380952Y-28197676D02*
X49428571Y-28292914D01*
X49428571Y-28292914D02*
X49476190Y-28340533D01*
X49476190Y-28340533D02*
X49571428Y-28388152D01*
X49571428Y-28388152D02*
X49714285Y-28388152D01*
X49714285Y-28388152D02*
X49809523Y-28340533D01*
X49380952Y-28007200D02*
X49476190Y-28054819D01*
X49476190Y-28054819D02*
X49666666Y-28054819D01*
X49666666Y-28054819D02*
X49761904Y-28007200D01*
X49761904Y-28007200D02*
X49809523Y-27959580D01*
X49809523Y-27959580D02*
X49857142Y-27864342D01*
X49857142Y-27864342D02*
X49857142Y-27578628D01*
X49857142Y-27578628D02*
X49809523Y-27483390D01*
X49809523Y-27483390D02*
X49761904Y-27435771D01*
X49761904Y-27435771D02*
X49666666Y-27388152D01*
X49666666Y-27388152D02*
X49476190Y-27388152D01*
X49476190Y-27388152D02*
X49380952Y-27435771D01*
X48904761Y-28054819D02*
X48904761Y-27388152D01*
X48904761Y-27054819D02*
X48952380Y-27102438D01*
X48952380Y-27102438D02*
X48904761Y-27150057D01*
X48904761Y-27150057D02*
X48857142Y-27102438D01*
X48857142Y-27102438D02*
X48904761Y-27054819D01*
X48904761Y-27054819D02*
X48904761Y-27150057D01*
X48571428Y-27388152D02*
X48190476Y-27388152D01*
X48428571Y-27054819D02*
X48428571Y-27911961D01*
X48428571Y-27911961D02*
X48380952Y-28007200D01*
X48380952Y-28007200D02*
X48285714Y-28054819D01*
X48285714Y-28054819D02*
X48190476Y-28054819D01*
X47857142Y-28054819D02*
X47857142Y-27054819D01*
X47428571Y-28054819D02*
X47428571Y-27531009D01*
X47428571Y-27531009D02*
X47476190Y-27435771D01*
X47476190Y-27435771D02*
X47571428Y-27388152D01*
X47571428Y-27388152D02*
X47714285Y-27388152D01*
X47714285Y-27388152D02*
X47809523Y-27435771D01*
X47809523Y-27435771D02*
X47857142Y-27483390D01*
X46523809Y-27388152D02*
X46523809Y-28054819D01*
X46952380Y-27388152D02*
X46952380Y-27911961D01*
X46952380Y-27911961D02*
X46904761Y-28007200D01*
X46904761Y-28007200D02*
X46809523Y-28054819D01*
X46809523Y-28054819D02*
X46666666Y-28054819D01*
X46666666Y-28054819D02*
X46571428Y-28007200D01*
X46571428Y-28007200D02*
X46523809Y-27959580D01*
X46047618Y-28054819D02*
X46047618Y-27054819D01*
X46047618Y-27435771D02*
X45952380Y-27388152D01*
X45952380Y-27388152D02*
X45761904Y-27388152D01*
X45761904Y-27388152D02*
X45666666Y-27435771D01*
X45666666Y-27435771D02*
X45619047Y-27483390D01*
X45619047Y-27483390D02*
X45571428Y-27578628D01*
X45571428Y-27578628D02*
X45571428Y-27864342D01*
X45571428Y-27864342D02*
X45619047Y-27959580D01*
X45619047Y-27959580D02*
X45666666Y-28007200D01*
X45666666Y-28007200D02*
X45761904Y-28054819D01*
X45761904Y-28054819D02*
X45952380Y-28054819D01*
X45952380Y-28054819D02*
X46047618Y-28007200D01*
X45142856Y-27959580D02*
X45095237Y-28007200D01*
X45095237Y-28007200D02*
X45142856Y-28054819D01*
X45142856Y-28054819D02*
X45190475Y-28007200D01*
X45190475Y-28007200D02*
X45142856Y-27959580D01*
X45142856Y-27959580D02*
X45142856Y-28054819D01*
X44238095Y-28007200D02*
X44333333Y-28054819D01*
X44333333Y-28054819D02*
X44523809Y-28054819D01*
X44523809Y-28054819D02*
X44619047Y-28007200D01*
X44619047Y-28007200D02*
X44666666Y-27959580D01*
X44666666Y-27959580D02*
X44714285Y-27864342D01*
X44714285Y-27864342D02*
X44714285Y-27578628D01*
X44714285Y-27578628D02*
X44666666Y-27483390D01*
X44666666Y-27483390D02*
X44619047Y-27435771D01*
X44619047Y-27435771D02*
X44523809Y-27388152D01*
X44523809Y-27388152D02*
X44333333Y-27388152D01*
X44333333Y-27388152D02*
X44238095Y-27435771D01*
X43666666Y-28054819D02*
X43761904Y-28007200D01*
X43761904Y-28007200D02*
X43809523Y-27959580D01*
X43809523Y-27959580D02*
X43857142Y-27864342D01*
X43857142Y-27864342D02*
X43857142Y-27578628D01*
X43857142Y-27578628D02*
X43809523Y-27483390D01*
X43809523Y-27483390D02*
X43761904Y-27435771D01*
X43761904Y-27435771D02*
X43666666Y-27388152D01*
X43666666Y-27388152D02*
X43523809Y-27388152D01*
X43523809Y-27388152D02*
X43428571Y-27435771D01*
X43428571Y-27435771D02*
X43380952Y-27483390D01*
X43380952Y-27483390D02*
X43333333Y-27578628D01*
X43333333Y-27578628D02*
X43333333Y-27864342D01*
X43333333Y-27864342D02*
X43380952Y-27959580D01*
X43380952Y-27959580D02*
X43428571Y-28007200D01*
X43428571Y-28007200D02*
X43523809Y-28054819D01*
X43523809Y-28054819D02*
X43666666Y-28054819D01*
X42904761Y-28054819D02*
X42904761Y-27388152D01*
X42904761Y-27483390D02*
X42857142Y-27435771D01*
X42857142Y-27435771D02*
X42761904Y-27388152D01*
X42761904Y-27388152D02*
X42619047Y-27388152D01*
X42619047Y-27388152D02*
X42523809Y-27435771D01*
X42523809Y-27435771D02*
X42476190Y-27531009D01*
X42476190Y-27531009D02*
X42476190Y-28054819D01*
X42476190Y-27531009D02*
X42428571Y-27435771D01*
X42428571Y-27435771D02*
X42333333Y-27388152D01*
X42333333Y-27388152D02*
X42190476Y-27388152D01*
X42190476Y-27388152D02*
X42095237Y-27435771D01*
X42095237Y-27435771D02*
X42047618Y-27531009D01*
X42047618Y-27531009D02*
X42047618Y-28054819D01*
X40857143Y-27007200D02*
X41714285Y-28292914D01*
X40095238Y-28007200D02*
X40190476Y-28054819D01*
X40190476Y-28054819D02*
X40380952Y-28054819D01*
X40380952Y-28054819D02*
X40476190Y-28007200D01*
X40476190Y-28007200D02*
X40523809Y-27959580D01*
X40523809Y-27959580D02*
X40571428Y-27864342D01*
X40571428Y-27864342D02*
X40571428Y-27578628D01*
X40571428Y-27578628D02*
X40523809Y-27483390D01*
X40523809Y-27483390D02*
X40476190Y-27435771D01*
X40476190Y-27435771D02*
X40380952Y-27388152D01*
X40380952Y-27388152D02*
X40190476Y-27388152D01*
X40190476Y-27388152D02*
X40095238Y-27435771D01*
X39238095Y-28054819D02*
X39238095Y-27531009D01*
X39238095Y-27531009D02*
X39285714Y-27435771D01*
X39285714Y-27435771D02*
X39380952Y-27388152D01*
X39380952Y-27388152D02*
X39571428Y-27388152D01*
X39571428Y-27388152D02*
X39666666Y-27435771D01*
X39238095Y-28007200D02*
X39333333Y-28054819D01*
X39333333Y-28054819D02*
X39571428Y-28054819D01*
X39571428Y-28054819D02*
X39666666Y-28007200D01*
X39666666Y-28007200D02*
X39714285Y-27911961D01*
X39714285Y-27911961D02*
X39714285Y-27816723D01*
X39714285Y-27816723D02*
X39666666Y-27721485D01*
X39666666Y-27721485D02*
X39571428Y-27673866D01*
X39571428Y-27673866D02*
X39333333Y-27673866D01*
X39333333Y-27673866D02*
X39238095Y-27626247D01*
X38333333Y-28007200D02*
X38428571Y-28054819D01*
X38428571Y-28054819D02*
X38619047Y-28054819D01*
X38619047Y-28054819D02*
X38714285Y-28007200D01*
X38714285Y-28007200D02*
X38761904Y-27959580D01*
X38761904Y-27959580D02*
X38809523Y-27864342D01*
X38809523Y-27864342D02*
X38809523Y-27578628D01*
X38809523Y-27578628D02*
X38761904Y-27483390D01*
X38761904Y-27483390D02*
X38714285Y-27435771D01*
X38714285Y-27435771D02*
X38619047Y-27388152D01*
X38619047Y-27388152D02*
X38428571Y-27388152D01*
X38428571Y-27388152D02*
X38333333Y-27435771D01*
X37476190Y-28007200D02*
X37571428Y-28054819D01*
X37571428Y-28054819D02*
X37761904Y-28054819D01*
X37761904Y-28054819D02*
X37857142Y-28007200D01*
X37857142Y-28007200D02*
X37904761Y-27959580D01*
X37904761Y-27959580D02*
X37952380Y-27864342D01*
X37952380Y-27864342D02*
X37952380Y-27578628D01*
X37952380Y-27578628D02*
X37904761Y-27483390D01*
X37904761Y-27483390D02*
X37857142Y-27435771D01*
X37857142Y-27435771D02*
X37761904Y-27388152D01*
X37761904Y-27388152D02*
X37571428Y-27388152D01*
X37571428Y-27388152D02*
X37476190Y-27435771D01*
X37047618Y-28054819D02*
X37047618Y-27388152D01*
X37047618Y-27054819D02*
X37095237Y-27102438D01*
X37095237Y-27102438D02*
X37047618Y-27150057D01*
X37047618Y-27150057D02*
X36999999Y-27102438D01*
X36999999Y-27102438D02*
X37047618Y-27054819D01*
X37047618Y-27054819D02*
X37047618Y-27150057D01*
X36142857Y-28054819D02*
X36142857Y-27531009D01*
X36142857Y-27531009D02*
X36190476Y-27435771D01*
X36190476Y-27435771D02*
X36285714Y-27388152D01*
X36285714Y-27388152D02*
X36476190Y-27388152D01*
X36476190Y-27388152D02*
X36571428Y-27435771D01*
X36142857Y-28007200D02*
X36238095Y-28054819D01*
X36238095Y-28054819D02*
X36476190Y-28054819D01*
X36476190Y-28054819D02*
X36571428Y-28007200D01*
X36571428Y-28007200D02*
X36619047Y-27911961D01*
X36619047Y-27911961D02*
X36619047Y-27816723D01*
X36619047Y-27816723D02*
X36571428Y-27721485D01*
X36571428Y-27721485D02*
X36476190Y-27673866D01*
X36476190Y-27673866D02*
X36238095Y-27673866D01*
X36238095Y-27673866D02*
X36142857Y-27626247D01*
X35761904Y-27054819D02*
X35095238Y-27054819D01*
X35095238Y-27054819D02*
X35523809Y-28054819D01*
X34571428Y-27483390D02*
X34666666Y-27435771D01*
X34666666Y-27435771D02*
X34714285Y-27388152D01*
X34714285Y-27388152D02*
X34761904Y-27292914D01*
X34761904Y-27292914D02*
X34761904Y-27245295D01*
X34761904Y-27245295D02*
X34714285Y-27150057D01*
X34714285Y-27150057D02*
X34666666Y-27102438D01*
X34666666Y-27102438D02*
X34571428Y-27054819D01*
X34571428Y-27054819D02*
X34380952Y-27054819D01*
X34380952Y-27054819D02*
X34285714Y-27102438D01*
X34285714Y-27102438D02*
X34238095Y-27150057D01*
X34238095Y-27150057D02*
X34190476Y-27245295D01*
X34190476Y-27245295D02*
X34190476Y-27292914D01*
X34190476Y-27292914D02*
X34238095Y-27388152D01*
X34238095Y-27388152D02*
X34285714Y-27435771D01*
X34285714Y-27435771D02*
X34380952Y-27483390D01*
X34380952Y-27483390D02*
X34571428Y-27483390D01*
X34571428Y-27483390D02*
X34666666Y-27531009D01*
X34666666Y-27531009D02*
X34714285Y-27578628D01*
X34714285Y-27578628D02*
X34761904Y-27673866D01*
X34761904Y-27673866D02*
X34761904Y-27864342D01*
X34761904Y-27864342D02*
X34714285Y-27959580D01*
X34714285Y-27959580D02*
X34666666Y-28007200D01*
X34666666Y-28007200D02*
X34571428Y-28054819D01*
X34571428Y-28054819D02*
X34380952Y-28054819D01*
X34380952Y-28054819D02*
X34285714Y-28007200D01*
X34285714Y-28007200D02*
X34238095Y-27959580D01*
X34238095Y-27959580D02*
X34190476Y-27864342D01*
X34190476Y-27864342D02*
X34190476Y-27673866D01*
X34190476Y-27673866D02*
X34238095Y-27578628D01*
X34238095Y-27578628D02*
X34285714Y-27531009D01*
X34285714Y-27531009D02*
X34380952Y-27483390D01*
X33047619Y-27007200D02*
X33904761Y-28292914D01*
X32714285Y-27388152D02*
X32714285Y-28388152D01*
X32714285Y-27435771D02*
X32619047Y-27388152D01*
X32619047Y-27388152D02*
X32428571Y-27388152D01*
X32428571Y-27388152D02*
X32333333Y-27435771D01*
X32333333Y-27435771D02*
X32285714Y-27483390D01*
X32285714Y-27483390D02*
X32238095Y-27578628D01*
X32238095Y-27578628D02*
X32238095Y-27864342D01*
X32238095Y-27864342D02*
X32285714Y-27959580D01*
X32285714Y-27959580D02*
X32333333Y-28007200D01*
X32333333Y-28007200D02*
X32428571Y-28054819D01*
X32428571Y-28054819D02*
X32619047Y-28054819D01*
X32619047Y-28054819D02*
X32714285Y-28007200D01*
X31666666Y-28054819D02*
X31761904Y-28007200D01*
X31761904Y-28007200D02*
X31809523Y-27911961D01*
X31809523Y-27911961D02*
X31809523Y-27054819D01*
X30857142Y-28054819D02*
X30857142Y-27531009D01*
X30857142Y-27531009D02*
X30904761Y-27435771D01*
X30904761Y-27435771D02*
X30999999Y-27388152D01*
X30999999Y-27388152D02*
X31190475Y-27388152D01*
X31190475Y-27388152D02*
X31285713Y-27435771D01*
X30857142Y-28007200D02*
X30952380Y-28054819D01*
X30952380Y-28054819D02*
X31190475Y-28054819D01*
X31190475Y-28054819D02*
X31285713Y-28007200D01*
X31285713Y-28007200D02*
X31333332Y-27911961D01*
X31333332Y-27911961D02*
X31333332Y-27816723D01*
X31333332Y-27816723D02*
X31285713Y-27721485D01*
X31285713Y-27721485D02*
X31190475Y-27673866D01*
X31190475Y-27673866D02*
X30952380Y-27673866D01*
X30952380Y-27673866D02*
X30857142Y-27626247D01*
X30380951Y-27388152D02*
X30380951Y-28054819D01*
X30380951Y-27483390D02*
X30333332Y-27435771D01*
X30333332Y-27435771D02*
X30238094Y-27388152D01*
X30238094Y-27388152D02*
X30095237Y-27388152D01*
X30095237Y-27388152D02*
X29999999Y-27435771D01*
X29999999Y-27435771D02*
X29952380Y-27531009D01*
X29952380Y-27531009D02*
X29952380Y-28054819D01*
X29047618Y-28007200D02*
X29142856Y-28054819D01*
X29142856Y-28054819D02*
X29333332Y-28054819D01*
X29333332Y-28054819D02*
X29428570Y-28007200D01*
X29428570Y-28007200D02*
X29476189Y-27959580D01*
X29476189Y-27959580D02*
X29523808Y-27864342D01*
X29523808Y-27864342D02*
X29523808Y-27578628D01*
X29523808Y-27578628D02*
X29476189Y-27483390D01*
X29476189Y-27483390D02*
X29428570Y-27435771D01*
X29428570Y-27435771D02*
X29333332Y-27388152D01*
X29333332Y-27388152D02*
X29142856Y-27388152D01*
X29142856Y-27388152D02*
X29047618Y-27435771D01*
X28619046Y-28054819D02*
X28619046Y-27054819D01*
X28190475Y-28054819D02*
X28190475Y-27531009D01*
X28190475Y-27531009D02*
X28238094Y-27435771D01*
X28238094Y-27435771D02*
X28333332Y-27388152D01*
X28333332Y-27388152D02*
X28476189Y-27388152D01*
X28476189Y-27388152D02*
X28571427Y-27435771D01*
X28571427Y-27435771D02*
X28619046Y-27483390D01*
D12*
X34285713Y6051519D02*
X34914285Y6051519D01*
X34599999Y6051519D02*
X34599999Y7151519D01*
X34599999Y7151519D02*
X34704761Y6994376D01*
X34704761Y6994376D02*
X34809523Y6889614D01*
X34809523Y6889614D02*
X34914285Y6837233D01*
X47059523Y-11698480D02*
X46849999Y-11698480D01*
X46849999Y-11698480D02*
X46745237Y-11750861D01*
X46745237Y-11750861D02*
X46640475Y-11855623D01*
X46640475Y-11855623D02*
X46588094Y-12065147D01*
X46588094Y-12065147D02*
X46588094Y-12431814D01*
X46588094Y-12431814D02*
X46640475Y-12641338D01*
X46640475Y-12641338D02*
X46745237Y-12746100D01*
X46745237Y-12746100D02*
X46849999Y-12798480D01*
X46849999Y-12798480D02*
X47059523Y-12798480D01*
X47059523Y-12798480D02*
X47164285Y-12746100D01*
X47164285Y-12746100D02*
X47269047Y-12641338D01*
X47269047Y-12641338D02*
X47321428Y-12431814D01*
X47321428Y-12431814D02*
X47321428Y-12065147D01*
X47321428Y-12065147D02*
X47269047Y-11855623D01*
X47269047Y-11855623D02*
X47164285Y-11750861D01*
X47164285Y-11750861D02*
X47059523Y-11698480D01*
X45592856Y-12798480D02*
X46116666Y-12798480D01*
X46116666Y-12798480D02*
X46116666Y-11698480D01*
X45226190Y-12222290D02*
X44859523Y-12222290D01*
X44702380Y-12798480D02*
X45226190Y-12798480D01*
X45226190Y-12798480D02*
X45226190Y-11698480D01*
X45226190Y-11698480D02*
X44702380Y-11698480D01*
X44230952Y-12798480D02*
X44230952Y-11698480D01*
X44230952Y-11698480D02*
X43969047Y-11698480D01*
X43969047Y-11698480D02*
X43811904Y-11750861D01*
X43811904Y-11750861D02*
X43707142Y-11855623D01*
X43707142Y-11855623D02*
X43654761Y-11960385D01*
X43654761Y-11960385D02*
X43602380Y-12169909D01*
X43602380Y-12169909D02*
X43602380Y-12327052D01*
X43602380Y-12327052D02*
X43654761Y-12536576D01*
X43654761Y-12536576D02*
X43707142Y-12641338D01*
X43707142Y-12641338D02*
X43811904Y-12746100D01*
X43811904Y-12746100D02*
X43969047Y-12798480D01*
X43969047Y-12798480D02*
X44230952Y-12798480D01*
X42083333Y-11698480D02*
X41978571Y-11698480D01*
X41978571Y-11698480D02*
X41873809Y-11750861D01*
X41873809Y-11750861D02*
X41821428Y-11803242D01*
X41821428Y-11803242D02*
X41769047Y-11908004D01*
X41769047Y-11908004D02*
X41716666Y-12117528D01*
X41716666Y-12117528D02*
X41716666Y-12379433D01*
X41716666Y-12379433D02*
X41769047Y-12588957D01*
X41769047Y-12588957D02*
X41821428Y-12693719D01*
X41821428Y-12693719D02*
X41873809Y-12746100D01*
X41873809Y-12746100D02*
X41978571Y-12798480D01*
X41978571Y-12798480D02*
X42083333Y-12798480D01*
X42083333Y-12798480D02*
X42188095Y-12746100D01*
X42188095Y-12746100D02*
X42240476Y-12693719D01*
X42240476Y-12693719D02*
X42292857Y-12588957D01*
X42292857Y-12588957D02*
X42345238Y-12379433D01*
X42345238Y-12379433D02*
X42345238Y-12117528D01*
X42345238Y-12117528D02*
X42292857Y-11908004D01*
X42292857Y-11908004D02*
X42240476Y-11803242D01*
X42240476Y-11803242D02*
X42188095Y-11750861D01*
X42188095Y-11750861D02*
X42083333Y-11698480D01*
X41350000Y-12798480D02*
X40773809Y-12065147D01*
X41350000Y-12065147D02*
X40773809Y-12798480D01*
X40459524Y-11698480D02*
X39778571Y-11698480D01*
X39778571Y-11698480D02*
X40145238Y-12117528D01*
X40145238Y-12117528D02*
X39988095Y-12117528D01*
X39988095Y-12117528D02*
X39883333Y-12169909D01*
X39883333Y-12169909D02*
X39830952Y-12222290D01*
X39830952Y-12222290D02*
X39778571Y-12327052D01*
X39778571Y-12327052D02*
X39778571Y-12588957D01*
X39778571Y-12588957D02*
X39830952Y-12693719D01*
X39830952Y-12693719D02*
X39883333Y-12746100D01*
X39883333Y-12746100D02*
X39988095Y-12798480D01*
X39988095Y-12798480D02*
X40302381Y-12798480D01*
X40302381Y-12798480D02*
X40407143Y-12746100D01*
X40407143Y-12746100D02*
X40459524Y-12693719D01*
X38678571Y-12693719D02*
X38730952Y-12746100D01*
X38730952Y-12746100D02*
X38888095Y-12798480D01*
X38888095Y-12798480D02*
X38992857Y-12798480D01*
X38992857Y-12798480D02*
X39150000Y-12746100D01*
X39150000Y-12746100D02*
X39254762Y-12641338D01*
X39254762Y-12641338D02*
X39307143Y-12536576D01*
X39307143Y-12536576D02*
X39359524Y-12327052D01*
X39359524Y-12327052D02*
X39359524Y-12169909D01*
X39359524Y-12169909D02*
X39307143Y-11960385D01*
X39307143Y-11960385D02*
X39254762Y-11855623D01*
X39254762Y-11855623D02*
X39150000Y-11750861D01*
X39150000Y-11750861D02*
X38992857Y-11698480D01*
X38992857Y-11698480D02*
X38888095Y-11698480D01*
X38888095Y-11698480D02*
X38730952Y-11750861D01*
X38730952Y-11750861D02*
X38678571Y-11803242D01*
X44314285Y7046757D02*
X44261904Y7099138D01*
X44261904Y7099138D02*
X44157142Y7151519D01*
X44157142Y7151519D02*
X43895237Y7151519D01*
X43895237Y7151519D02*
X43790475Y7099138D01*
X43790475Y7099138D02*
X43738094Y7046757D01*
X43738094Y7046757D02*
X43685713Y6941995D01*
X43685713Y6941995D02*
X43685713Y6837233D01*
X43685713Y6837233D02*
X43738094Y6680090D01*
X43738094Y6680090D02*
X44366666Y6051519D01*
X44366666Y6051519D02*
X43685713Y6051519D01*
X51866666Y7151519D02*
X51185713Y7151519D01*
X51185713Y7151519D02*
X51552380Y6732471D01*
X51552380Y6732471D02*
X51395237Y6732471D01*
X51395237Y6732471D02*
X51290475Y6680090D01*
X51290475Y6680090D02*
X51238094Y6627709D01*
X51238094Y6627709D02*
X51185713Y6522947D01*
X51185713Y6522947D02*
X51185713Y6261042D01*
X51185713Y6261042D02*
X51238094Y6156280D01*
X51238094Y6156280D02*
X51290475Y6103900D01*
X51290475Y6103900D02*
X51395237Y6051519D01*
X51395237Y6051519D02*
X51709523Y6051519D01*
X51709523Y6051519D02*
X51814285Y6103900D01*
X51814285Y6103900D02*
X51866666Y6156280D01*
X71390475Y-8765147D02*
X71390475Y-9498480D01*
X71652380Y-8346100D02*
X71914285Y-9131814D01*
X71914285Y-9131814D02*
X71233332Y-9131814D01*
X71338094Y-17068480D02*
X71861904Y-17068480D01*
X71861904Y-17068480D02*
X71914285Y-17592290D01*
X71914285Y-17592290D02*
X71861904Y-17539909D01*
X71861904Y-17539909D02*
X71757142Y-17487528D01*
X71757142Y-17487528D02*
X71495237Y-17487528D01*
X71495237Y-17487528D02*
X71390475Y-17539909D01*
X71390475Y-17539909D02*
X71338094Y-17592290D01*
X71338094Y-17592290D02*
X71285713Y-17697052D01*
X71285713Y-17697052D02*
X71285713Y-17958957D01*
X71285713Y-17958957D02*
X71338094Y-18063719D01*
X71338094Y-18063719D02*
X71390475Y-18116100D01*
X71390475Y-18116100D02*
X71495237Y-18168480D01*
X71495237Y-18168480D02*
X71757142Y-18168480D01*
X71757142Y-18168480D02*
X71861904Y-18116100D01*
X71861904Y-18116100D02*
X71914285Y-18063719D01*
X71390475Y-25728480D02*
X71599999Y-25728480D01*
X71599999Y-25728480D02*
X71704761Y-25780861D01*
X71704761Y-25780861D02*
X71757142Y-25833242D01*
X71757142Y-25833242D02*
X71861904Y-25990385D01*
X71861904Y-25990385D02*
X71914285Y-26199909D01*
X71914285Y-26199909D02*
X71914285Y-26618957D01*
X71914285Y-26618957D02*
X71861904Y-26723719D01*
X71861904Y-26723719D02*
X71809523Y-26776100D01*
X71809523Y-26776100D02*
X71704761Y-26828480D01*
X71704761Y-26828480D02*
X71495237Y-26828480D01*
X71495237Y-26828480D02*
X71390475Y-26776100D01*
X71390475Y-26776100D02*
X71338094Y-26723719D01*
X71338094Y-26723719D02*
X71285713Y-26618957D01*
X71285713Y-26618957D02*
X71285713Y-26357052D01*
X71285713Y-26357052D02*
X71338094Y-26252290D01*
X71338094Y-26252290D02*
X71390475Y-26199909D01*
X71390475Y-26199909D02*
X71495237Y-26147528D01*
X71495237Y-26147528D02*
X71704761Y-26147528D01*
X71704761Y-26147528D02*
X71809523Y-26199909D01*
X71809523Y-26199909D02*
X71861904Y-26252290D01*
X71861904Y-26252290D02*
X71914285Y-26357052D01*
X71966666Y-34398480D02*
X71233332Y-34398480D01*
X71233332Y-34398480D02*
X71704761Y-35498480D01*
X46342857Y-25544742D02*
X46742857Y-24973314D01*
X47028571Y-25544742D02*
X47028571Y-24344742D01*
X47028571Y-24344742D02*
X46571428Y-24344742D01*
X46571428Y-24344742D02*
X46457143Y-24401885D01*
X46457143Y-24401885D02*
X46400000Y-24459028D01*
X46400000Y-24459028D02*
X46342857Y-24573314D01*
X46342857Y-24573314D02*
X46342857Y-24744742D01*
X46342857Y-24744742D02*
X46400000Y-24859028D01*
X46400000Y-24859028D02*
X46457143Y-24916171D01*
X46457143Y-24916171D02*
X46571428Y-24973314D01*
X46571428Y-24973314D02*
X47028571Y-24973314D01*
X45371428Y-25487600D02*
X45485714Y-25544742D01*
X45485714Y-25544742D02*
X45714286Y-25544742D01*
X45714286Y-25544742D02*
X45828571Y-25487600D01*
X45828571Y-25487600D02*
X45885714Y-25373314D01*
X45885714Y-25373314D02*
X45885714Y-24916171D01*
X45885714Y-24916171D02*
X45828571Y-24801885D01*
X45828571Y-24801885D02*
X45714286Y-24744742D01*
X45714286Y-24744742D02*
X45485714Y-24744742D01*
X45485714Y-24744742D02*
X45371428Y-24801885D01*
X45371428Y-24801885D02*
X45314286Y-24916171D01*
X45314286Y-24916171D02*
X45314286Y-25030457D01*
X45314286Y-25030457D02*
X45885714Y-25144742D01*
X44914286Y-24744742D02*
X44628572Y-25544742D01*
X44628572Y-25544742D02*
X44342857Y-24744742D01*
X43885714Y-25430457D02*
X43828571Y-25487600D01*
X43828571Y-25487600D02*
X43885714Y-25544742D01*
X43885714Y-25544742D02*
X43942857Y-25487600D01*
X43942857Y-25487600D02*
X43885714Y-25430457D01*
X43885714Y-25430457D02*
X43885714Y-25544742D01*
X41771428Y-25544742D02*
X42457142Y-25544742D01*
X42114285Y-25544742D02*
X42114285Y-24344742D01*
X42114285Y-24344742D02*
X42228571Y-24516171D01*
X42228571Y-24516171D02*
X42342856Y-24630457D01*
X42342856Y-24630457D02*
X42457142Y-24687600D01*
X40171428Y-25030457D02*
X40228571Y-25087600D01*
X40228571Y-25087600D02*
X40171428Y-25144742D01*
X40171428Y-25144742D02*
X40114285Y-25087600D01*
X40114285Y-25087600D02*
X40171428Y-25030457D01*
X40171428Y-25030457D02*
X40171428Y-25144742D01*
X37885713Y-25544742D02*
X38571427Y-25544742D01*
X38228570Y-25544742D02*
X38228570Y-24344742D01*
X38228570Y-24344742D02*
X38342856Y-24516171D01*
X38342856Y-24516171D02*
X38457141Y-24630457D01*
X38457141Y-24630457D02*
X38571427Y-24687600D01*
X37142856Y-24344742D02*
X37028570Y-24344742D01*
X37028570Y-24344742D02*
X36914284Y-24401885D01*
X36914284Y-24401885D02*
X36857142Y-24459028D01*
X36857142Y-24459028D02*
X36799999Y-24573314D01*
X36799999Y-24573314D02*
X36742856Y-24801885D01*
X36742856Y-24801885D02*
X36742856Y-25087600D01*
X36742856Y-25087600D02*
X36799999Y-25316171D01*
X36799999Y-25316171D02*
X36857142Y-25430457D01*
X36857142Y-25430457D02*
X36914284Y-25487600D01*
X36914284Y-25487600D02*
X37028570Y-25544742D01*
X37028570Y-25544742D02*
X37142856Y-25544742D01*
X37142856Y-25544742D02*
X37257142Y-25487600D01*
X37257142Y-25487600D02*
X37314284Y-25430457D01*
X37314284Y-25430457D02*
X37371427Y-25316171D01*
X37371427Y-25316171D02*
X37428570Y-25087600D01*
X37428570Y-25087600D02*
X37428570Y-24801885D01*
X37428570Y-24801885D02*
X37371427Y-24573314D01*
X37371427Y-24573314D02*
X37314284Y-24459028D01*
X37314284Y-24459028D02*
X37257142Y-24401885D01*
X37257142Y-24401885D02*
X37142856Y-24344742D01*
X35371427Y-24287600D02*
X36399999Y-25830457D01*
X35028570Y-24459028D02*
X34971427Y-24401885D01*
X34971427Y-24401885D02*
X34857142Y-24344742D01*
X34857142Y-24344742D02*
X34571427Y-24344742D01*
X34571427Y-24344742D02*
X34457142Y-24401885D01*
X34457142Y-24401885D02*
X34399999Y-24459028D01*
X34399999Y-24459028D02*
X34342856Y-24573314D01*
X34342856Y-24573314D02*
X34342856Y-24687600D01*
X34342856Y-24687600D02*
X34399999Y-24859028D01*
X34399999Y-24859028D02*
X35085713Y-25544742D01*
X35085713Y-25544742D02*
X34342856Y-25544742D01*
X33599999Y-24344742D02*
X33485713Y-24344742D01*
X33485713Y-24344742D02*
X33371427Y-24401885D01*
X33371427Y-24401885D02*
X33314285Y-24459028D01*
X33314285Y-24459028D02*
X33257142Y-24573314D01*
X33257142Y-24573314D02*
X33199999Y-24801885D01*
X33199999Y-24801885D02*
X33199999Y-25087600D01*
X33199999Y-25087600D02*
X33257142Y-25316171D01*
X33257142Y-25316171D02*
X33314285Y-25430457D01*
X33314285Y-25430457D02*
X33371427Y-25487600D01*
X33371427Y-25487600D02*
X33485713Y-25544742D01*
X33485713Y-25544742D02*
X33599999Y-25544742D01*
X33599999Y-25544742D02*
X33714285Y-25487600D01*
X33714285Y-25487600D02*
X33771427Y-25430457D01*
X33771427Y-25430457D02*
X33828570Y-25316171D01*
X33828570Y-25316171D02*
X33885713Y-25087600D01*
X33885713Y-25087600D02*
X33885713Y-24801885D01*
X33885713Y-24801885D02*
X33828570Y-24573314D01*
X33828570Y-24573314D02*
X33771427Y-24459028D01*
X33771427Y-24459028D02*
X33714285Y-24401885D01*
X33714285Y-24401885D02*
X33599999Y-24344742D01*
X32742856Y-24459028D02*
X32685713Y-24401885D01*
X32685713Y-24401885D02*
X32571428Y-24344742D01*
X32571428Y-24344742D02*
X32285713Y-24344742D01*
X32285713Y-24344742D02*
X32171428Y-24401885D01*
X32171428Y-24401885D02*
X32114285Y-24459028D01*
X32114285Y-24459028D02*
X32057142Y-24573314D01*
X32057142Y-24573314D02*
X32057142Y-24687600D01*
X32057142Y-24687600D02*
X32114285Y-24859028D01*
X32114285Y-24859028D02*
X32799999Y-25544742D01*
X32799999Y-25544742D02*
X32057142Y-25544742D01*
X31028571Y-24344742D02*
X31257142Y-24344742D01*
X31257142Y-24344742D02*
X31371428Y-24401885D01*
X31371428Y-24401885D02*
X31428571Y-24459028D01*
X31428571Y-24459028D02*
X31542856Y-24630457D01*
X31542856Y-24630457D02*
X31599999Y-24859028D01*
X31599999Y-24859028D02*
X31599999Y-25316171D01*
X31599999Y-25316171D02*
X31542856Y-25430457D01*
X31542856Y-25430457D02*
X31485713Y-25487600D01*
X31485713Y-25487600D02*
X31371428Y-25544742D01*
X31371428Y-25544742D02*
X31142856Y-25544742D01*
X31142856Y-25544742D02*
X31028571Y-25487600D01*
X31028571Y-25487600D02*
X30971428Y-25430457D01*
X30971428Y-25430457D02*
X30914285Y-25316171D01*
X30914285Y-25316171D02*
X30914285Y-25030457D01*
X30914285Y-25030457D02*
X30971428Y-24916171D01*
X30971428Y-24916171D02*
X31028571Y-24859028D01*
X31028571Y-24859028D02*
X31142856Y-24801885D01*
X31142856Y-24801885D02*
X31371428Y-24801885D01*
X31371428Y-24801885D02*
X31485713Y-24859028D01*
X31485713Y-24859028D02*
X31542856Y-24916171D01*
X31542856Y-24916171D02*
X31599999Y-25030457D01*
X66685713Y-15844742D02*
X65942856Y-15844742D01*
X65942856Y-15844742D02*
X66342856Y-16301885D01*
X66342856Y-16301885D02*
X66171427Y-16301885D01*
X66171427Y-16301885D02*
X66057142Y-16359028D01*
X66057142Y-16359028D02*
X65999999Y-16416171D01*
X65999999Y-16416171D02*
X65942856Y-16530457D01*
X65942856Y-16530457D02*
X65942856Y-16816171D01*
X65942856Y-16816171D02*
X65999999Y-16930457D01*
X65999999Y-16930457D02*
X66057142Y-16987600D01*
X66057142Y-16987600D02*
X66171427Y-17044742D01*
X66171427Y-17044742D02*
X66514284Y-17044742D01*
X66514284Y-17044742D02*
X66628570Y-16987600D01*
X66628570Y-16987600D02*
X66685713Y-16930457D01*
X65599999Y-15844742D02*
X65199999Y-17044742D01*
X65199999Y-17044742D02*
X64799999Y-15844742D01*
X64514285Y-15844742D02*
X63771428Y-15844742D01*
X63771428Y-15844742D02*
X64171428Y-16301885D01*
X64171428Y-16301885D02*
X63999999Y-16301885D01*
X63999999Y-16301885D02*
X63885714Y-16359028D01*
X63885714Y-16359028D02*
X63828571Y-16416171D01*
X63828571Y-16416171D02*
X63771428Y-16530457D01*
X63771428Y-16530457D02*
X63771428Y-16816171D01*
X63771428Y-16816171D02*
X63828571Y-16930457D01*
X63828571Y-16930457D02*
X63885714Y-16987600D01*
X63885714Y-16987600D02*
X63999999Y-17044742D01*
X63999999Y-17044742D02*
X64342856Y-17044742D01*
X64342856Y-17044742D02*
X64457142Y-16987600D01*
X64457142Y-16987600D02*
X64514285Y-16930457D01*
X64885714Y-20401885D02*
X65000000Y-20344742D01*
X65000000Y-20344742D02*
X65171428Y-20344742D01*
X65171428Y-20344742D02*
X65342857Y-20401885D01*
X65342857Y-20401885D02*
X65457142Y-20516171D01*
X65457142Y-20516171D02*
X65514285Y-20630457D01*
X65514285Y-20630457D02*
X65571428Y-20859028D01*
X65571428Y-20859028D02*
X65571428Y-21030457D01*
X65571428Y-21030457D02*
X65514285Y-21259028D01*
X65514285Y-21259028D02*
X65457142Y-21373314D01*
X65457142Y-21373314D02*
X65342857Y-21487600D01*
X65342857Y-21487600D02*
X65171428Y-21544742D01*
X65171428Y-21544742D02*
X65057142Y-21544742D01*
X65057142Y-21544742D02*
X64885714Y-21487600D01*
X64885714Y-21487600D02*
X64828571Y-21430457D01*
X64828571Y-21430457D02*
X64828571Y-21030457D01*
X64828571Y-21030457D02*
X65057142Y-21030457D01*
X66657142Y-25987600D02*
X66485714Y-26044742D01*
X66485714Y-26044742D02*
X66199999Y-26044742D01*
X66199999Y-26044742D02*
X66085714Y-25987600D01*
X66085714Y-25987600D02*
X66028571Y-25930457D01*
X66028571Y-25930457D02*
X65971428Y-25816171D01*
X65971428Y-25816171D02*
X65971428Y-25701885D01*
X65971428Y-25701885D02*
X66028571Y-25587600D01*
X66028571Y-25587600D02*
X66085714Y-25530457D01*
X66085714Y-25530457D02*
X66199999Y-25473314D01*
X66199999Y-25473314D02*
X66428571Y-25416171D01*
X66428571Y-25416171D02*
X66542856Y-25359028D01*
X66542856Y-25359028D02*
X66599999Y-25301885D01*
X66599999Y-25301885D02*
X66657142Y-25187600D01*
X66657142Y-25187600D02*
X66657142Y-25073314D01*
X66657142Y-25073314D02*
X66599999Y-24959028D01*
X66599999Y-24959028D02*
X66542856Y-24901885D01*
X66542856Y-24901885D02*
X66428571Y-24844742D01*
X66428571Y-24844742D02*
X66142856Y-24844742D01*
X66142856Y-24844742D02*
X65971428Y-24901885D01*
X65457142Y-26044742D02*
X65457142Y-24844742D01*
X65457142Y-24844742D02*
X65171428Y-24844742D01*
X65171428Y-24844742D02*
X64999999Y-24901885D01*
X64999999Y-24901885D02*
X64885714Y-25016171D01*
X64885714Y-25016171D02*
X64828571Y-25130457D01*
X64828571Y-25130457D02*
X64771428Y-25359028D01*
X64771428Y-25359028D02*
X64771428Y-25530457D01*
X64771428Y-25530457D02*
X64828571Y-25759028D01*
X64828571Y-25759028D02*
X64885714Y-25873314D01*
X64885714Y-25873314D02*
X64999999Y-25987600D01*
X64999999Y-25987600D02*
X65171428Y-26044742D01*
X65171428Y-26044742D02*
X65457142Y-26044742D01*
X64314285Y-25701885D02*
X63742857Y-25701885D01*
X64428571Y-26044742D02*
X64028571Y-24844742D01*
X64028571Y-24844742D02*
X63628571Y-26044742D01*
X66628571Y-30487600D02*
X66457143Y-30544742D01*
X66457143Y-30544742D02*
X66171428Y-30544742D01*
X66171428Y-30544742D02*
X66057143Y-30487600D01*
X66057143Y-30487600D02*
X66000000Y-30430457D01*
X66000000Y-30430457D02*
X65942857Y-30316171D01*
X65942857Y-30316171D02*
X65942857Y-30201885D01*
X65942857Y-30201885D02*
X66000000Y-30087600D01*
X66000000Y-30087600D02*
X66057143Y-30030457D01*
X66057143Y-30030457D02*
X66171428Y-29973314D01*
X66171428Y-29973314D02*
X66400000Y-29916171D01*
X66400000Y-29916171D02*
X66514285Y-29859028D01*
X66514285Y-29859028D02*
X66571428Y-29801885D01*
X66571428Y-29801885D02*
X66628571Y-29687600D01*
X66628571Y-29687600D02*
X66628571Y-29573314D01*
X66628571Y-29573314D02*
X66571428Y-29459028D01*
X66571428Y-29459028D02*
X66514285Y-29401885D01*
X66514285Y-29401885D02*
X66400000Y-29344742D01*
X66400000Y-29344742D02*
X66114285Y-29344742D01*
X66114285Y-29344742D02*
X65942857Y-29401885D01*
X64742857Y-30430457D02*
X64800000Y-30487600D01*
X64800000Y-30487600D02*
X64971428Y-30544742D01*
X64971428Y-30544742D02*
X65085714Y-30544742D01*
X65085714Y-30544742D02*
X65257143Y-30487600D01*
X65257143Y-30487600D02*
X65371428Y-30373314D01*
X65371428Y-30373314D02*
X65428571Y-30259028D01*
X65428571Y-30259028D02*
X65485714Y-30030457D01*
X65485714Y-30030457D02*
X65485714Y-29859028D01*
X65485714Y-29859028D02*
X65428571Y-29630457D01*
X65428571Y-29630457D02*
X65371428Y-29516171D01*
X65371428Y-29516171D02*
X65257143Y-29401885D01*
X65257143Y-29401885D02*
X65085714Y-29344742D01*
X65085714Y-29344742D02*
X64971428Y-29344742D01*
X64971428Y-29344742D02*
X64800000Y-29401885D01*
X64800000Y-29401885D02*
X64742857Y-29459028D01*
X63657143Y-30544742D02*
X64228571Y-30544742D01*
X64228571Y-30544742D02*
X64228571Y-29344742D01*
D11*
X43761904Y-20909638D02*
X43761904Y-18909638D01*
X43761904Y-18909638D02*
X42999999Y-18909638D01*
X42999999Y-18909638D02*
X42809523Y-19004876D01*
X42809523Y-19004876D02*
X42714285Y-19100114D01*
X42714285Y-19100114D02*
X42619047Y-19290590D01*
X42619047Y-19290590D02*
X42619047Y-19576304D01*
X42619047Y-19576304D02*
X42714285Y-19766780D01*
X42714285Y-19766780D02*
X42809523Y-19862019D01*
X42809523Y-19862019D02*
X42999999Y-19957257D01*
X42999999Y-19957257D02*
X43761904Y-19957257D01*
X41476190Y-20909638D02*
X41666666Y-20814400D01*
X41666666Y-20814400D02*
X41761904Y-20623923D01*
X41761904Y-20623923D02*
X41761904Y-18909638D01*
X39857142Y-20909638D02*
X39857142Y-19862019D01*
X39857142Y-19862019D02*
X39952380Y-19671542D01*
X39952380Y-19671542D02*
X40142856Y-19576304D01*
X40142856Y-19576304D02*
X40523809Y-19576304D01*
X40523809Y-19576304D02*
X40714285Y-19671542D01*
X39857142Y-20814400D02*
X40047618Y-20909638D01*
X40047618Y-20909638D02*
X40523809Y-20909638D01*
X40523809Y-20909638D02*
X40714285Y-20814400D01*
X40714285Y-20814400D02*
X40809523Y-20623923D01*
X40809523Y-20623923D02*
X40809523Y-20433447D01*
X40809523Y-20433447D02*
X40714285Y-20242971D01*
X40714285Y-20242971D02*
X40523809Y-20147733D01*
X40523809Y-20147733D02*
X40047618Y-20147733D01*
X40047618Y-20147733D02*
X39857142Y-20052495D01*
X38904761Y-19576304D02*
X38904761Y-20909638D01*
X38904761Y-19766780D02*
X38809523Y-19671542D01*
X38809523Y-19671542D02*
X38619047Y-19576304D01*
X38619047Y-19576304D02*
X38333332Y-19576304D01*
X38333332Y-19576304D02*
X38142856Y-19671542D01*
X38142856Y-19671542D02*
X38047618Y-19862019D01*
X38047618Y-19862019D02*
X38047618Y-20909638D01*
X36238094Y-20814400D02*
X36428570Y-20909638D01*
X36428570Y-20909638D02*
X36809523Y-20909638D01*
X36809523Y-20909638D02*
X36999999Y-20814400D01*
X36999999Y-20814400D02*
X37095237Y-20719161D01*
X37095237Y-20719161D02*
X37190475Y-20528685D01*
X37190475Y-20528685D02*
X37190475Y-19957257D01*
X37190475Y-19957257D02*
X37095237Y-19766780D01*
X37095237Y-19766780D02*
X36999999Y-19671542D01*
X36999999Y-19671542D02*
X36809523Y-19576304D01*
X36809523Y-19576304D02*
X36428570Y-19576304D01*
X36428570Y-19576304D02*
X36238094Y-19671542D01*
X35380951Y-20909638D02*
X35380951Y-18909638D01*
X35380951Y-19862019D02*
X34238094Y-19862019D01*
X34238094Y-20909638D02*
X34238094Y-18909638D01*
%TO.C,C6*%
D14*
X81938748Y-26345000D02*
X82461252Y-26345000D01*
X81938748Y-27815000D02*
X82461252Y-27815000D01*
%TO.C,C1*%
X39238748Y1935000D02*
X39761252Y1935000D01*
X39238748Y465000D02*
X39761252Y465000D01*
%TO.C,C10*%
X106788748Y-12565000D02*
X107311252Y-12565000D01*
X106788748Y-14035000D02*
X107311252Y-14035000D01*
%TO.C,C9*%
X114638748Y-21665000D02*
X115161252Y-21665000D01*
X114638748Y-23135000D02*
X115161252Y-23135000D01*
%TO.C,C8*%
X85238748Y-38165000D02*
X85761252Y-38165000D01*
X85238748Y-39635000D02*
X85761252Y-39635000D01*
%TO.C,D2*%
X39975000Y5450000D02*
X40125000Y5650000D01*
X39825000Y5650000D01*
X39975000Y5450000D01*
G36*
X39975000Y5450000D02*
G01*
X39825000Y5650000D01*
X40125000Y5650000D01*
X39975000Y5450000D01*
G37*
%TO.C,D6*%
X73225000Y-24880000D02*
X73375000Y-24680000D01*
X73075000Y-24680000D01*
X73225000Y-24880000D01*
G36*
X73225000Y-24880000D02*
G01*
X73075000Y-24680000D01*
X73375000Y-24680000D01*
X73225000Y-24880000D01*
G37*
%TO.C,C11*%
X83188748Y-665000D02*
X83711252Y-665000D01*
X83188748Y-2135000D02*
X83711252Y-2135000D01*
%TO.C,TP4*%
X68950000Y-30000000D02*
G75*
G02*
X67050000Y-30000000I-950000J0D01*
G01*
X67050000Y-30000000D02*
G75*
G02*
X68950000Y-30000000I950000J0D01*
G01*
%TO.C,TP3*%
X68950000Y-25500000D02*
G75*
G02*
X67050000Y-25500000I-950000J0D01*
G01*
X67050000Y-25500000D02*
G75*
G02*
X68950000Y-25500000I950000J0D01*
G01*
%TO.C,C4*%
X81938748Y-9015000D02*
X82461252Y-9015000D01*
X81938748Y-10485000D02*
X82461252Y-10485000D01*
%TO.C,C5*%
X81938748Y-17685000D02*
X82461252Y-17685000D01*
X81938748Y-19155000D02*
X82461252Y-19155000D01*
%TO.C,D13*%
X7500000Y-11300000D02*
X7500000Y-6250000D01*
X7950000Y-11750000D02*
X7500000Y-11300000D01*
X8300000Y-9900000D02*
X8300000Y-8100000D01*
X13700000Y-9900000D02*
X13700000Y-8100000D01*
X14500000Y-6250000D02*
X7500000Y-6250000D01*
X14500000Y-6250000D02*
X14500000Y-11750000D01*
X14500000Y-11750000D02*
X7950000Y-11750000D01*
%TO.C,D10*%
X106000000Y-6750000D02*
X112550000Y-6750000D01*
X106000000Y-12250000D02*
X106000000Y-6750000D01*
X106000000Y-12250000D02*
X113000000Y-12250000D01*
X106800000Y-8600000D02*
X106800000Y-10400000D01*
X112200000Y-8600000D02*
X112200000Y-10400000D01*
X112550000Y-6750000D02*
X113000000Y-7200000D01*
X113000000Y-7200000D02*
X113000000Y-12250000D01*
%TO.C,TP2*%
X68950000Y-21000000D02*
G75*
G02*
X67050000Y-21000000I-950000J0D01*
G01*
X67050000Y-21000000D02*
G75*
G02*
X68950000Y-21000000I950000J0D01*
G01*
%TO.C,D7*%
X73225000Y-33550000D02*
X73375000Y-33350000D01*
X73075000Y-33350000D01*
X73225000Y-33550000D01*
G36*
X73225000Y-33550000D02*
G01*
X73075000Y-33350000D01*
X73375000Y-33350000D01*
X73225000Y-33550000D01*
G37*
%TO.C,D3*%
X47475000Y5450000D02*
X47625000Y5650000D01*
X47325000Y5650000D01*
X47475000Y5450000D01*
G36*
X47475000Y5450000D02*
G01*
X47325000Y5650000D01*
X47625000Y5650000D01*
X47475000Y5450000D01*
G37*
%TO.C,TP1*%
X68950000Y-16500000D02*
G75*
G02*
X67050000Y-16500000I-950000J0D01*
G01*
X67050000Y-16500000D02*
G75*
G02*
X68950000Y-16500000I950000J0D01*
G01*
%TO.C,R1*%
X32772936Y1635000D02*
X33227064Y1635000D01*
X32772936Y165000D02*
X33227064Y165000D01*
%TO.C,D5*%
X73225000Y-16220000D02*
X73375000Y-16020000D01*
X73075000Y-16020000D01*
X73225000Y-16220000D01*
G36*
X73225000Y-16220000D02*
G01*
X73075000Y-16020000D01*
X73375000Y-16020000D01*
X73225000Y-16220000D01*
G37*
%TO.C,C3*%
X54238748Y1935000D02*
X54761252Y1935000D01*
X54238748Y465000D02*
X54761252Y465000D01*
%TO.C,D1*%
X32475000Y5450000D02*
X32625000Y5650000D01*
X32325000Y5650000D01*
X32475000Y5450000D01*
G36*
X32475000Y5450000D02*
G01*
X32325000Y5650000D01*
X32625000Y5650000D01*
X32475000Y5450000D01*
G37*
%TO.C,D9*%
X113750000Y-23500000D02*
X113750000Y-30500000D01*
X113750000Y-23500000D02*
X119250000Y-23500000D01*
X117400000Y-24300000D02*
X115600000Y-24300000D01*
X117400000Y-29700000D02*
X115600000Y-29700000D01*
X118800000Y-30500000D02*
X113750000Y-30500000D01*
X119250000Y-23500000D02*
X119250000Y-30050000D01*
X119250000Y-30050000D02*
X118800000Y-30500000D01*
%TO.C,C2*%
X46738748Y1935000D02*
X47261252Y1935000D01*
X46738748Y465000D02*
X47261252Y465000D01*
%TO.C,D8*%
X76500000Y-42800000D02*
X76500000Y-37750000D01*
X76950000Y-43250000D02*
X76500000Y-42800000D01*
X77300000Y-41400000D02*
X77300000Y-39600000D01*
X82700000Y-41400000D02*
X82700000Y-39600000D01*
X83500000Y-37750000D02*
X76500000Y-37750000D01*
X83500000Y-37750000D02*
X83500000Y-43250000D01*
X83500000Y-43250000D02*
X76950000Y-43250000D01*
%TO.C,D11*%
X74500000Y-5300000D02*
X74500000Y-250000D01*
X74950000Y-5750000D02*
X74500000Y-5300000D01*
X75300000Y-3900000D02*
X75300000Y-2100000D01*
X80700000Y-3900000D02*
X80700000Y-2100000D01*
X81500000Y-250000D02*
X74500000Y-250000D01*
X81500000Y-250000D02*
X81500000Y-5750000D01*
X81500000Y-5750000D02*
X74950000Y-5750000D01*
%TO.C,C12*%
X50238748Y-38165000D02*
X50761252Y-38165000D01*
X50238748Y-39635000D02*
X50761252Y-39635000D01*
%TO.C,C7*%
X81938748Y-35015000D02*
X82461252Y-35015000D01*
X81938748Y-36485000D02*
X82461252Y-36485000D01*
%TO.C,C13*%
X16238748Y-6665000D02*
X16761252Y-6665000D01*
X16238748Y-8135000D02*
X16761252Y-8135000D01*
%TO.C,C14*%
X35788748Y-1690000D02*
X37211252Y-1690000D01*
X35788748Y-3510000D02*
X37211252Y-3510000D01*
%TO.C,D12*%
X41500000Y-42800000D02*
X41500000Y-37750000D01*
X41950000Y-43250000D02*
X41500000Y-42800000D01*
X42300000Y-41400000D02*
X42300000Y-39600000D01*
X47700000Y-41400000D02*
X47700000Y-39600000D01*
X48500000Y-37750000D02*
X41500000Y-37750000D01*
X48500000Y-37750000D02*
X48500000Y-43250000D01*
X48500000Y-43250000D02*
X41950000Y-43250000D01*
%TO.C,D4*%
X73225000Y-7550000D02*
X73375000Y-7350000D01*
X73075000Y-7350000D01*
X73225000Y-7550000D01*
G36*
X73225000Y-7550000D02*
G01*
X73075000Y-7350000D01*
X73375000Y-7350000D01*
X73225000Y-7550000D01*
G37*
%TD*%
%LPC*%
D15*
%TO.C,U2*%
X39190000Y-9850000D03*
D16*
X41730000Y-9850000D03*
X44270000Y-9850000D03*
X46810000Y-9850000D03*
%TD*%
D17*
%TO.C,C6*%
X81162500Y-27080000D03*
X83237500Y-27080000D03*
%TD*%
%TO.C,C1*%
X38462500Y1200000D03*
X40537500Y1200000D03*
%TD*%
%TO.C,C10*%
X106012500Y-13300000D03*
X108087500Y-13300000D03*
%TD*%
%TO.C,C9*%
X113862500Y-22400000D03*
X115937500Y-22400000D03*
%TD*%
%TO.C,C8*%
X84462500Y-38900000D03*
X86537500Y-38900000D03*
%TD*%
D18*
%TO.C,D2*%
X40025000Y4750000D03*
X40025000Y3250000D03*
X45975000Y3250000D03*
X45975000Y4750000D03*
%TD*%
%TO.C,D6*%
X73275000Y-25580000D03*
X73275000Y-27080000D03*
X79225000Y-27080000D03*
X79225000Y-25580000D03*
%TD*%
D17*
%TO.C,C11*%
X82412500Y-1400000D03*
X84487500Y-1400000D03*
%TD*%
D19*
%TO.C,TP4*%
X68000000Y-30000000D03*
%TD*%
%TO.C,TP3*%
X68000000Y-25500000D03*
%TD*%
D17*
%TO.C,C4*%
X81162500Y-9750000D03*
X83237500Y-9750000D03*
%TD*%
%TO.C,C5*%
X81162500Y-18420000D03*
X83237500Y-18420000D03*
%TD*%
D20*
%TO.C,D13*%
X8550000Y-10600000D03*
X8550000Y-7400000D03*
X13450000Y-7400000D03*
X13450000Y-10600000D03*
%TD*%
%TO.C,D10*%
X111950000Y-7900000D03*
X111950000Y-11100000D03*
X107050000Y-11100000D03*
X107050000Y-7900000D03*
%TD*%
D19*
%TO.C,TP2*%
X68000000Y-21000000D03*
%TD*%
D18*
%TO.C,D7*%
X73275000Y-34250000D03*
X73275000Y-35750000D03*
X79225000Y-35750000D03*
X79225000Y-34250000D03*
%TD*%
%TO.C,D3*%
X47525000Y4750000D03*
X47525000Y3250000D03*
X53475000Y3250000D03*
X53475000Y4750000D03*
%TD*%
D19*
%TO.C,TP1*%
X68000000Y-16500000D03*
%TD*%
D21*
%TO.C,R1*%
X32000000Y900000D03*
X34000000Y900000D03*
%TD*%
D18*
%TO.C,D5*%
X73275000Y-16920000D03*
X73275000Y-18420000D03*
X79225000Y-18420000D03*
X79225000Y-16920000D03*
%TD*%
D17*
%TO.C,C3*%
X53462500Y1200000D03*
X55537500Y1200000D03*
%TD*%
D18*
%TO.C,D1*%
X32525000Y4750000D03*
X32525000Y3250000D03*
X38475000Y3250000D03*
X38475000Y4750000D03*
%TD*%
D22*
%TO.C,D9*%
X118100000Y-29450000D03*
X114900000Y-29450000D03*
X114900000Y-24550000D03*
X118100000Y-24550000D03*
%TD*%
D17*
%TO.C,C2*%
X45962500Y1200000D03*
X48037500Y1200000D03*
%TD*%
D20*
%TO.C,D8*%
X77550000Y-42100000D03*
X77550000Y-38900000D03*
X82450000Y-38900000D03*
X82450000Y-42100000D03*
%TD*%
%TO.C,D11*%
X75550000Y-4600000D03*
X75550000Y-1400000D03*
X80450000Y-1400000D03*
X80450000Y-4600000D03*
%TD*%
D17*
%TO.C,C12*%
X49462500Y-38900000D03*
X51537500Y-38900000D03*
%TD*%
%TO.C,C7*%
X81162500Y-35750000D03*
X83237500Y-35750000D03*
%TD*%
%TO.C,C13*%
X15462500Y-7400000D03*
X17537500Y-7400000D03*
%TD*%
D23*
%TO.C,C14*%
X34937500Y-2600000D03*
X38062500Y-2600000D03*
%TD*%
D20*
%TO.C,D12*%
X42550000Y-42100000D03*
X42550000Y-38900000D03*
X47450000Y-38900000D03*
X47450000Y-42100000D03*
%TD*%
D18*
%TO.C,D4*%
X73275000Y-8250000D03*
X73275000Y-9750000D03*
X79225000Y-9750000D03*
X79225000Y-8250000D03*
%TD*%
%LPD*%
M02*
