%TF.GenerationSoftware,KiCad,Pcbnew,10.0.6*%
%TF.CreationDate,2026-10-05T17:23:51+02:00*%
%TF.ProjectId,planch,706c616e-6368-42e6-9b69-6361645f7063,1*%
%TF.SameCoordinates,Original*%
%TF.FileFunction,Copper,L2,Bot*%
%TF.FilePolarity,Positive*%
%FSLAX46Y46*%
G04 Gerber Fmt 4.6, Leading zero omitted, Abs format (unit mm)*
G04 Created by KiCad (PCBNEW 10.0.6) date 2026-10-05 17:23:51*
%MOMM*%
%LPD*%
G01*
G04 APERTURE LIST*
G04 Aperture macros list*
%AMRoundRect*
0 Rectangle with rounded corners*
0 $1 Rounding radius*
0 $2 $3 $4 $5 $6 $7 $8 $9 X,Y pos of 4 corners*
0 Add a 4 corners polygon primitive as box body*
4,1,4,$2,$3,$4,$5,$6,$7,$8,$9,$2,$3,0*
0 Add four circle primitives for the rounded corners*
1,1,$1+$1,$2,$3*
1,1,$1+$1,$4,$5*
1,1,$1+$1,$6,$7*
1,1,$1+$1,$8,$9*
0 Add four rect primitives between the rounded corners*
20,1,$1+$1,$2,$3,$4,$5,0*
20,1,$1+$1,$4,$5,$6,$7,0*
20,1,$1+$1,$6,$7,$8,$9,0*
20,1,$1+$1,$8,$9,$2,$3,0*%
G04 Aperture macros list end*
%TA.AperFunction,ComponentPad*%
%ADD10R,1.700000X1.700000*%
%TD*%
%TA.AperFunction,ComponentPad*%
%ADD11C,1.700000*%
%TD*%
%TA.AperFunction,SMDPad,CuDef*%
%ADD12RoundRect,0.250000X-0.337500X-0.475000X0.337500X-0.475000X0.337500X0.475000X-0.337500X0.475000X0*%
%TD*%
%TA.AperFunction,SMDPad,CuDef*%
%ADD13RoundRect,0.205000X-0.420000X-0.205000X0.420000X-0.205000X0.420000X0.205000X-0.420000X0.205000X0*%
%TD*%
%TA.AperFunction,SMDPad,CuDef*%
%ADD14C,1.500000*%
%TD*%
%TA.AperFunction,SMDPad,CuDef*%
%ADD15R,1.500000X1.000000*%
%TD*%
%TA.AperFunction,SMDPad,CuDef*%
%ADD16RoundRect,0.250000X-0.350000X-0.450000X0.350000X-0.450000X0.350000X0.450000X-0.350000X0.450000X0*%
%TD*%
%TA.AperFunction,SMDPad,CuDef*%
%ADD17R,1.000000X1.500000*%
%TD*%
%TA.AperFunction,SMDPad,CuDef*%
%ADD18RoundRect,0.250000X-0.412500X-0.650000X0.412500X-0.650000X0.412500X0.650000X-0.412500X0.650000X0*%
%TD*%
%TA.AperFunction,ViaPad*%
%ADD19C,0.600000*%
%TD*%
%TA.AperFunction,Conductor*%
%ADD20C,0.250000*%
%TD*%
%TA.AperFunction,Conductor*%
%ADD21C,0.400000*%
%TD*%
%TA.AperFunction,Conductor*%
%ADD22C,0.800000*%
%TD*%
G04 APERTURE END LIST*
D10*
%TO.P,U2,1,GND_1*%
%TO.N,GND*%
X39190000Y-9850000D03*
D11*
%TO.P,U2,2,VIN_2*%
%TO.N,+3V3*%
X41730000Y-9850000D03*
%TO.P,U2,3,SCK_3*%
%TO.N,/SCL*%
X44270000Y-9850000D03*
%TO.P,U2,4,SDA_4*%
%TO.N,/SDA*%
X46810000Y-9850000D03*
%TD*%
D12*
%TO.P,C6,1*%
%TO.N,+5V*%
X81162500Y-27080000D03*
%TO.P,C6,2*%
%TO.N,GND*%
X83237500Y-27080000D03*
%TD*%
%TO.P,C1,1*%
%TO.N,+5V*%
X38462500Y1200000D03*
%TO.P,C1,2*%
%TO.N,GND*%
X40537500Y1200000D03*
%TD*%
%TO.P,C10,1*%
%TO.N,+5V*%
X106012500Y-13300000D03*
%TO.P,C10,2*%
%TO.N,GND*%
X108087500Y-13300000D03*
%TD*%
%TO.P,C9,1*%
%TO.N,+5V*%
X113862500Y-22400000D03*
%TO.P,C9,2*%
%TO.N,GND*%
X115937500Y-22400000D03*
%TD*%
%TO.P,C8,1*%
%TO.N,+5V*%
X84462500Y-38900000D03*
%TO.P,C8,2*%
%TO.N,GND*%
X86537500Y-38900000D03*
%TD*%
D13*
%TO.P,D2,1,VSS_1*%
%TO.N,GND*%
X40025000Y4750000D03*
%TO.P,D2,2,DIN_2*%
%TO.N,Net-(D1-DOUT)*%
X40025000Y3250000D03*
%TO.P,D2,3,VDD_3*%
%TO.N,+5V*%
X45975000Y3250000D03*
%TO.P,D2,4,DOUT_4*%
%TO.N,Net-(D2-DOUT)*%
X45975000Y4750000D03*
%TD*%
%TO.P,D6,1,VSS_1*%
%TO.N,GND*%
X73275000Y-25580000D03*
%TO.P,D6,2,DIN_2*%
%TO.N,Net-(D5-DOUT)*%
X73275000Y-27080000D03*
%TO.P,D6,3,VDD_3*%
%TO.N,+5V*%
X79225000Y-27080000D03*
%TO.P,D6,4,DOUT_4*%
%TO.N,Net-(D6-DOUT)*%
X79225000Y-25580000D03*
%TD*%
D12*
%TO.P,C11,1*%
%TO.N,+5V*%
X82412500Y-1400000D03*
%TO.P,C11,2*%
%TO.N,GND*%
X84487500Y-1400000D03*
%TD*%
D14*
%TO.P,TP4,1,1_1*%
%TO.N,/SCL*%
X68000000Y-30000000D03*
%TD*%
%TO.P,TP3,1,1_1*%
%TO.N,/SDA*%
X68000000Y-25500000D03*
%TD*%
D12*
%TO.P,C4,1*%
%TO.N,+5V*%
X81162500Y-9750000D03*
%TO.P,C4,2*%
%TO.N,GND*%
X83237500Y-9750000D03*
%TD*%
%TO.P,C5,1*%
%TO.N,+5V*%
X81162500Y-18420000D03*
%TO.P,C5,2*%
%TO.N,GND*%
X83237500Y-18420000D03*
%TD*%
D15*
%TO.P,D13,1,VSS_1*%
%TO.N,GND*%
X8550000Y-10600000D03*
%TO.P,D13,2,DIN_2*%
%TO.N,Net-(D12-DOUT)*%
X8550000Y-7400000D03*
%TO.P,D13,3,VDD_3*%
%TO.N,+5V*%
X13450000Y-7400000D03*
%TO.P,D13,4,DOUT_4*%
%TO.N,unconnected-(D13-DOUT-Pad4)*%
X13450000Y-10600000D03*
%TD*%
%TO.P,D10,1,VSS_1*%
%TO.N,GND*%
X111950000Y-7900000D03*
%TO.P,D10,2,DIN_2*%
%TO.N,Net-(D10-DIN)*%
X111950000Y-11100000D03*
%TO.P,D10,3,VDD_3*%
%TO.N,+5V*%
X107050000Y-11100000D03*
%TO.P,D10,4,DOUT_4*%
%TO.N,Net-(D10-DOUT)*%
X107050000Y-7900000D03*
%TD*%
D14*
%TO.P,TP2,1,1_1*%
%TO.N,GND*%
X68000000Y-21000000D03*
%TD*%
D13*
%TO.P,D7,1,VSS_1*%
%TO.N,GND*%
X73275000Y-34250000D03*
%TO.P,D7,2,DIN_2*%
%TO.N,Net-(D6-DOUT)*%
X73275000Y-35750000D03*
%TO.P,D7,3,VDD_3*%
%TO.N,+5V*%
X79225000Y-35750000D03*
%TO.P,D7,4,DOUT_4*%
%TO.N,/LED_D7_DOUT*%
X79225000Y-34250000D03*
%TD*%
%TO.P,D3,1,VSS_1*%
%TO.N,GND*%
X47525000Y4750000D03*
%TO.P,D3,2,DIN_2*%
%TO.N,Net-(D2-DOUT)*%
X47525000Y3250000D03*
%TO.P,D3,3,VDD_3*%
%TO.N,+5V*%
X53475000Y3250000D03*
%TO.P,D3,4,DOUT_4*%
%TO.N,Net-(D3-DOUT)*%
X53475000Y4750000D03*
%TD*%
D14*
%TO.P,TP1,1,1_1*%
%TO.N,+3V3*%
X68000000Y-16500000D03*
%TD*%
D16*
%TO.P,R1,1*%
%TO.N,/LED_DIN*%
X32000000Y900000D03*
%TO.P,R1,2*%
%TO.N,Net-(D1-DIN)*%
X34000000Y900000D03*
%TD*%
D13*
%TO.P,D5,1,VSS_1*%
%TO.N,GND*%
X73275000Y-16920000D03*
%TO.P,D5,2,DIN_2*%
%TO.N,Net-(D4-DOUT)*%
X73275000Y-18420000D03*
%TO.P,D5,3,VDD_3*%
%TO.N,+5V*%
X79225000Y-18420000D03*
%TO.P,D5,4,DOUT_4*%
%TO.N,Net-(D5-DOUT)*%
X79225000Y-16920000D03*
%TD*%
D12*
%TO.P,C3,1*%
%TO.N,+5V*%
X53462500Y1200000D03*
%TO.P,C3,2*%
%TO.N,GND*%
X55537500Y1200000D03*
%TD*%
D13*
%TO.P,D1,1,VSS_1*%
%TO.N,GND*%
X32525000Y4750000D03*
%TO.P,D1,2,DIN_2*%
%TO.N,Net-(D1-DIN)*%
X32525000Y3250000D03*
%TO.P,D1,3,VDD_3*%
%TO.N,+5V*%
X38475000Y3250000D03*
%TO.P,D1,4,DOUT_4*%
%TO.N,Net-(D1-DOUT)*%
X38475000Y4750000D03*
%TD*%
D17*
%TO.P,D9,1,VSS_1*%
%TO.N,GND*%
X118100000Y-29450000D03*
%TO.P,D9,2,DIN_2*%
%TO.N,Net-(D8-DOUT)*%
X114900000Y-29450000D03*
%TO.P,D9,3,VDD_3*%
%TO.N,+5V*%
X114900000Y-24550000D03*
%TO.P,D9,4,DOUT_4*%
%TO.N,Net-(D10-DIN)*%
X118100000Y-24550000D03*
%TD*%
D12*
%TO.P,C2,1*%
%TO.N,+5V*%
X45962500Y1200000D03*
%TO.P,C2,2*%
%TO.N,GND*%
X48037500Y1200000D03*
%TD*%
D15*
%TO.P,D8,1,VSS_1*%
%TO.N,GND*%
X77550000Y-42100000D03*
%TO.P,D8,2,DIN_2*%
%TO.N,/LED_D7_DOUT*%
X77550000Y-38900000D03*
%TO.P,D8,3,VDD_3*%
%TO.N,+5V*%
X82450000Y-38900000D03*
%TO.P,D8,4,DOUT_4*%
%TO.N,Net-(D8-DOUT)*%
X82450000Y-42100000D03*
%TD*%
%TO.P,D11,1,VSS_1*%
%TO.N,GND*%
X75550000Y-4600000D03*
%TO.P,D11,2,DIN_2*%
%TO.N,Net-(D10-DOUT)*%
X75550000Y-1400000D03*
%TO.P,D11,3,VDD_3*%
%TO.N,+5V*%
X80450000Y-1400000D03*
%TO.P,D11,4,DOUT_4*%
%TO.N,Net-(D11-DOUT)*%
X80450000Y-4600000D03*
%TD*%
D12*
%TO.P,C12,1*%
%TO.N,+5V*%
X49462500Y-38900000D03*
%TO.P,C12,2*%
%TO.N,GND*%
X51537500Y-38900000D03*
%TD*%
%TO.P,C7,1*%
%TO.N,+5V*%
X81162500Y-35750000D03*
%TO.P,C7,2*%
%TO.N,GND*%
X83237500Y-35750000D03*
%TD*%
%TO.P,C13,1*%
%TO.N,+5V*%
X15462500Y-7400000D03*
%TO.P,C13,2*%
%TO.N,GND*%
X17537500Y-7400000D03*
%TD*%
D18*
%TO.P,C14,1*%
%TO.N,+5V*%
X34937500Y-2600000D03*
%TO.P,C14,2*%
%TO.N,GND*%
X38062500Y-2600000D03*
%TD*%
D15*
%TO.P,D12,1,VSS_1*%
%TO.N,GND*%
X42550000Y-42100000D03*
%TO.P,D12,2,DIN_2*%
%TO.N,Net-(D11-DOUT)*%
X42550000Y-38900000D03*
%TO.P,D12,3,VDD_3*%
%TO.N,+5V*%
X47450000Y-38900000D03*
%TO.P,D12,4,DOUT_4*%
%TO.N,Net-(D12-DOUT)*%
X47450000Y-42100000D03*
%TD*%
D13*
%TO.P,D4,1,VSS_1*%
%TO.N,GND*%
X73275000Y-8250000D03*
%TO.P,D4,2,DIN_2*%
%TO.N,Net-(D3-DOUT)*%
X73275000Y-9750000D03*
%TO.P,D4,3,VDD_3*%
%TO.N,+5V*%
X79225000Y-9750000D03*
%TO.P,D4,4,DOUT_4*%
%TO.N,Net-(D4-DOUT)*%
X79225000Y-8250000D03*
%TD*%
D19*
%TO.N,/BTN_UP*%
X36123600Y-17845800D03*
X48050500Y-15046800D03*
X4200000Y-15210000D03*
X86833700Y-13849700D03*
%TO.N,GND*%
X33219700Y-9844500D03*
X18000500Y-10750500D03*
X84822700Y-1200000D03*
X79429000Y-6176700D03*
X43016500Y-4600000D03*
X115921800Y-11454000D03*
X15558800Y-9750500D03*
X84859700Y-16575500D03*
X71531900Y6815000D03*
X51371300Y-9100000D03*
X66200300Y-18653900D03*
X77488800Y-4853300D03*
X47911300Y6800000D03*
X53911300Y6800000D03*
X50700000Y1400000D03*
X79907100Y-21051700D03*
X43200000Y1400000D03*
X75700000Y-42120000D03*
X69021000Y-2850000D03*
X102510100Y-1705800D03*
X17210400Y-7200000D03*
X38010700Y-42800000D03*
X78822700Y-1200000D03*
X96822700Y-1200000D03*
X72350000Y-17150000D03*
X5500500Y-14000500D03*
X35911300Y6800000D03*
X79138000Y-29400700D03*
X84500000Y-10600000D03*
X59911300Y6800000D03*
X107821900Y-3678400D03*
X41911300Y6800000D03*
X65547100Y-39722800D03*
X118800000Y-22271300D03*
X90822700Y-1200000D03*
X44010700Y-42800000D03*
X32287400Y5189000D03*
X73454700Y2569800D03*
X112405400Y-7009800D03*
X118800000Y-28271300D03*
%TO.N,/BTN_LEFT*%
X70859100Y-25305100D03*
X86822700Y-15718600D03*
X64432900Y-26323100D03*
X4200000Y-20290000D03*
%TO.N,/BTN_BACK*%
X64435300Y-41448600D03*
X38662800Y-24119000D03*
X73685000Y-41448600D03*
X92042100Y-30876700D03*
X31843600Y-21528600D03*
X18476300Y-19911000D03*
%TO.N,/BTN_DOWN*%
X115706100Y-27650000D03*
X5653500Y-22263000D03*
X71844600Y-40646900D03*
X67028700Y-36651100D03*
%TO.N,/BTN_S2*%
X49718900Y-15234600D03*
X36064100Y-24995300D03*
X18450000Y-24150000D03*
X65689100Y-14242100D03*
%TO.N,+3V3*%
X15883400Y-12670000D03*
%TO.N,/SCL*%
X18466300Y-14657500D03*
X52960800Y-17745700D03*
X30837400Y-15659700D03*
%TO.N,/SDA*%
X21686100Y-9136300D03*
X53893800Y-17738800D03*
%TO.N,/BTN_S4*%
X5400000Y-24000000D03*
X66323400Y-32451200D03*
%TO.N,+5V*%
X11908300Y-7590000D03*
X55098300Y-17400000D03*
X48750300Y-11273300D03*
%TO.N,/BTN_RIGHT*%
X93043400Y-26265100D03*
X30953300Y-21524500D03*
X36521300Y-23916900D03*
X4200000Y-22830000D03*
%TO.N,/BTN_OK*%
X35022700Y-19461600D03*
X48864400Y-14974200D03*
X4200000Y-24000000D03*
X86806500Y-14662000D03*
%TO.N,/BTN_S3*%
X66400900Y-29021900D03*
X17600000Y-23850000D03*
%TO.N,/BTN_S1*%
X21648700Y-21780800D03*
X34079800Y-19909400D03*
X71076400Y-10379600D03*
X46796900Y-14826900D03*
%TO.N,/LED_DIN*%
X18282400Y-16274500D03*
%TO.N,/TOUCH*%
X18500000Y-12670000D03*
X59800000Y-800000D03*
%TO.N,Net-(D6-DOUT)*%
X71937600Y-22334100D03*
X73762800Y-22350000D03*
%TO.N,Net-(D12-DOUT)*%
X37831700Y-23916900D03*
X31170000Y-17727900D03*
%TO.N,Net-(D10-DOUT)*%
X70303500Y-8982700D03*
X100939400Y-12230200D03*
X86849800Y-12505600D03*
X70595500Y-11045300D03*
%TO.N,/LED_D7_DOUT*%
X73766500Y-31050000D03*
X70993000Y-31050000D03*
%TO.N,Net-(D4-DOUT)*%
X72848100Y-21348700D03*
X66848000Y-13348500D03*
X70549100Y-7484900D03*
X69518100Y-21348700D03*
%TO.N,Net-(D11-DOUT)*%
X68466700Y-13711800D03*
X42398600Y-33950000D03*
X54774500Y-33950000D03*
X64423700Y-34355500D03*
X69966500Y-34355500D03*
X71540600Y-7689300D03*
%TD*%
%TO.N,/BTN_UP*%
D20*
X7344700Y-18354700D02*
X35614700Y-18354700D01*
X35614700Y-18354700D02*
X36123600Y-17845800D01*
X48050500Y-14826900D02*
X48050500Y-15046800D01*
X4200000Y-15210000D02*
X7344700Y-18354700D01*
X65892000Y-12270100D02*
X64315600Y-13846500D01*
X85254100Y-12270100D02*
X65892000Y-12270100D01*
X86833700Y-13849700D02*
X85254100Y-12270100D01*
X64315600Y-13846500D02*
X49030900Y-13846500D01*
X49030900Y-13846500D02*
X48050500Y-14826900D01*
%TO.N,GND*%
X75700000Y-42120000D02*
X77550000Y-42100000D01*
X72350000Y-17150000D02*
X73275000Y-16920000D01*
X83237500Y-9750000D02*
X84500000Y-10600000D01*
%TO.N,/BTN_LEFT*%
X80772500Y-15222500D02*
X86326600Y-15222500D01*
X51649800Y-26323100D02*
X44133100Y-18806400D01*
X71359100Y-14950000D02*
X80500000Y-14950000D01*
X44133100Y-18806400D02*
X5683600Y-18806400D01*
X70859100Y-25305100D02*
X70859100Y-17232400D01*
X80500000Y-14950000D02*
X80772500Y-15222500D01*
X70859100Y-15450000D02*
X71359100Y-14950000D01*
X64432900Y-26323100D02*
X51649800Y-26323100D01*
X5683600Y-18806400D02*
X4200000Y-20290000D01*
X86326600Y-15222500D02*
X86822700Y-15718600D01*
X70859100Y-17232400D02*
X70859100Y-15450000D01*
%TO.N,/BTN_BACK*%
X48300700Y-39726700D02*
X46564600Y-39726700D01*
X92042100Y-35066500D02*
X92042100Y-30876700D01*
X85835600Y-41273000D02*
X92042100Y-35066500D01*
X30298300Y-19911000D02*
X18476300Y-19911000D01*
X73685000Y-41448600D02*
X73860600Y-41273000D01*
X73860600Y-41273000D02*
X85835600Y-41273000D01*
X46373300Y-31829500D02*
X38662800Y-24119000D01*
X64435300Y-41448600D02*
X50022600Y-41448600D01*
X46373300Y-39535400D02*
X46373300Y-31829500D01*
X31843600Y-21528600D02*
X31843600Y-21456300D01*
X31843600Y-21456300D02*
X30298300Y-19911000D01*
X46564600Y-39726700D02*
X46373300Y-39535400D01*
X50022600Y-41448600D02*
X48300700Y-39726700D01*
%TO.N,/BTN_DOWN*%
X67431400Y-30988200D02*
X66912700Y-30469500D01*
X67041800Y-29281700D02*
X67041800Y-28714300D01*
X66912700Y-30469500D02*
X66912700Y-29410800D01*
X115726700Y-30366400D02*
X115726700Y-27670600D01*
X5997500Y-22607000D02*
X5653500Y-22263000D01*
X115726700Y-27670600D02*
X115706100Y-27650000D01*
X67041800Y-28714300D02*
X66717200Y-28389700D01*
X35688200Y-22453600D02*
X32443700Y-22453600D01*
X103146400Y-42946700D02*
X115726700Y-30366400D01*
X66912700Y-29410800D02*
X67041800Y-29281700D01*
X71844600Y-40646900D02*
X74144400Y-42946700D01*
X66717200Y-28389700D02*
X45206900Y-28389700D01*
X35755100Y-22386700D02*
X35688200Y-22453600D01*
X32290300Y-22607000D02*
X5997500Y-22607000D01*
X67431400Y-36248400D02*
X67431400Y-30988200D01*
X45206900Y-28389700D02*
X39203900Y-22386700D01*
X74144400Y-42946700D02*
X103146400Y-42946700D01*
X67028700Y-36651100D02*
X67431400Y-36248400D01*
X32443700Y-22453600D02*
X32290300Y-22607000D01*
X39203900Y-22386700D02*
X35755100Y-22386700D01*
%TO.N,/BTN_S2*%
X35218800Y-24150000D02*
X36064100Y-24995300D01*
X65689100Y-14242100D02*
X64696600Y-15234600D01*
X18450000Y-24150000D02*
X35218800Y-24150000D01*
X64696600Y-15234600D02*
X49718900Y-15234600D01*
%TO.N,+3V3*%
D21*
X21430700Y-8394000D02*
X40274000Y-8394000D01*
X31698400Y-15528400D02*
X46506200Y-15528400D01*
X40274000Y-8394000D02*
X41730000Y-9850000D01*
X17326000Y-12498700D02*
X17327000Y-12497700D01*
X46506200Y-15528400D02*
X46506400Y-15528600D01*
X17327000Y-12497700D02*
X21430700Y-8394000D01*
X16054700Y-12498700D02*
X17326000Y-12498700D01*
X46506400Y-15528600D02*
X47540000Y-15528600D01*
X48235900Y-15953400D02*
X67453400Y-15953400D01*
X47759900Y-15748500D02*
X48031000Y-15748500D01*
X15883400Y-12670000D02*
X16054700Y-12498700D01*
X19787200Y-14958000D02*
X31128000Y-14958000D01*
X67453400Y-15953400D02*
X68000000Y-16500000D01*
X31128000Y-14958000D02*
X31698400Y-15528400D01*
X17327000Y-12497700D02*
X19787200Y-14958000D01*
X48031000Y-15748500D02*
X48235900Y-15953400D01*
X47540000Y-15528600D02*
X47759900Y-15748500D01*
%TO.N,/SCL*%
D20*
X68000000Y-28995200D02*
X63983600Y-24978800D01*
X68000000Y-30000000D02*
X68000000Y-28995200D01*
X63983600Y-24978800D02*
X60193900Y-24978800D01*
X19468500Y-15659700D02*
X18466300Y-14657500D01*
X60193900Y-24978800D02*
X52960800Y-17745700D01*
X30837400Y-15659700D02*
X19468500Y-15659700D01*
%TO.N,/SDA*%
X42906700Y-10337500D02*
X42217500Y-11026700D01*
X23576500Y-11026700D02*
X21686100Y-9136300D01*
X57712200Y-21557200D02*
X53893800Y-17738800D01*
X68000000Y-25500000D02*
X64057200Y-21557200D01*
X45629000Y-8669000D02*
X43716700Y-8669000D01*
X42217500Y-11026700D02*
X23576500Y-11026700D01*
X64057200Y-21557200D02*
X57712200Y-21557200D01*
X42906700Y-9479000D02*
X42906700Y-10337500D01*
X43716700Y-8669000D02*
X42906700Y-9479000D01*
X46810000Y-9850000D02*
X45629000Y-8669000D01*
%TO.N,/BTN_S4*%
X5400000Y-24000000D02*
X6341300Y-23058700D01*
X39184100Y-23005700D02*
X39815800Y-23637400D01*
X39815800Y-23637400D02*
X39815800Y-23761000D01*
X38936900Y-23005700D02*
X39184100Y-23005700D01*
X32630800Y-22905300D02*
X35875300Y-22905300D01*
X35875300Y-22905300D02*
X35942200Y-22838400D01*
X6341300Y-23058700D02*
X32477400Y-23058700D01*
X38769600Y-22838400D02*
X38936900Y-23005700D01*
X32477400Y-23058700D02*
X32630800Y-22905300D01*
X35942200Y-22838400D02*
X38769600Y-22838400D01*
X48506000Y-32451200D02*
X66323400Y-32451200D01*
X39815800Y-23761000D02*
X48506000Y-32451200D01*
%TO.N,+5V*%
D22*
X54524500Y-16826200D02*
X55098300Y-17400000D01*
X88027200Y-13131900D02*
X88027200Y-12392200D01*
X45975000Y3250000D02*
X45962500Y3237500D01*
X69368900Y-24928900D02*
X69368900Y-31762700D01*
X82549900Y-19807400D02*
X81162500Y-18420000D01*
X72098200Y-37572300D02*
X69064800Y-37572300D01*
X84009100Y-19807400D02*
X88027200Y-15789300D01*
X45962500Y1200000D02*
X44619400Y-143100D01*
X34937500Y-2600000D02*
X34937500Y-2325000D01*
X82450000Y-38900000D02*
X81098300Y-38900000D01*
X13450000Y-7400000D02*
X12098300Y-7400000D01*
X114900000Y-24550000D02*
X113862500Y-23512500D01*
X39805600Y-143100D02*
X38462500Y1200000D01*
X82549900Y-19807400D02*
X82549900Y-25692600D01*
X82549900Y-25692600D02*
X81162500Y-27080000D01*
X38462500Y3237500D02*
X38462500Y1200000D01*
X45962500Y3237500D02*
X45962500Y1200000D01*
X48750300Y-133600D02*
X48750300Y-11273300D01*
X79225000Y-35750000D02*
X81098300Y-35750000D01*
X47296100Y-133600D02*
X45962500Y1200000D01*
X44619400Y-143100D02*
X39805600Y-143100D01*
X29370700Y-17176300D02*
X29720800Y-16826200D01*
X13450000Y-7400000D02*
X15462500Y-7400000D01*
X74543900Y-40018000D02*
X72098200Y-37572300D01*
X48750300Y-133600D02*
X47296100Y-133600D01*
X34937500Y-2325000D02*
X38462500Y1200000D01*
X50790200Y-37572300D02*
X49462500Y-38900000D01*
X82412500Y-8500000D02*
X81162500Y-9750000D01*
X79980300Y-40018000D02*
X74543900Y-40018000D01*
X29720800Y-16826200D02*
X54524500Y-16826200D01*
X61840000Y-17400000D02*
X69368900Y-24928900D01*
X47450000Y-38900000D02*
X49462500Y-38900000D01*
X106012500Y-14550000D02*
X106012500Y-13300000D01*
X11908300Y-7590000D02*
X11908300Y-11190600D01*
X79225000Y-9750000D02*
X81162500Y-9750000D01*
X69064800Y-37572300D02*
X50790200Y-37572300D01*
X105552200Y-13131900D02*
X105698300Y-12985800D01*
X53475000Y3250000D02*
X53475000Y1212500D01*
X79225000Y-27080000D02*
X81162500Y-27080000D01*
X81098300Y-35750000D02*
X81162500Y-35750000D01*
X88027200Y-13131900D02*
X105552200Y-13131900D01*
X69368900Y-31762700D02*
X69064800Y-32066800D01*
X105698300Y-11100000D02*
X105698300Y-12985800D01*
X82549900Y-19807400D02*
X84009100Y-19807400D01*
X107050000Y-11100000D02*
X105698300Y-11100000D01*
X80450000Y-1400000D02*
X82412500Y-1400000D01*
X82412500Y-1400000D02*
X82412500Y-8356900D01*
X53475000Y1212500D02*
X53462500Y1200000D01*
X83991900Y-8356900D02*
X82412500Y-8356900D01*
X12098300Y-7400000D02*
X11908300Y-7590000D01*
X81098300Y-38900000D02*
X79980300Y-40018000D01*
X105698300Y-12985800D02*
X106012500Y-13300000D01*
X88027200Y-15789300D02*
X88027200Y-13131900D01*
X113862500Y-23512500D02*
X113862500Y-22400000D01*
X113862500Y-22400000D02*
X106012500Y-14550000D01*
X81162500Y-35750000D02*
X81162500Y-27080000D01*
X81098300Y-35750000D02*
X81098300Y-38900000D01*
X88027200Y-12392200D02*
X83991900Y-8356900D01*
X52128900Y-133600D02*
X48750300Y-133600D01*
X17894000Y-17176300D02*
X29370700Y-17176300D01*
X55098300Y-17400000D02*
X61840000Y-17400000D01*
X82412500Y-8356900D02*
X82412500Y-8500000D01*
X38475000Y3250000D02*
X38462500Y3237500D01*
X69064800Y-32066800D02*
X69064800Y-37572300D01*
X11908300Y-11190600D02*
X17894000Y-17176300D01*
X82450000Y-38900000D02*
X84462500Y-38900000D01*
X79225000Y-18420000D02*
X81162500Y-18420000D01*
X53462500Y1200000D02*
X52128900Y-133600D01*
%TO.N,/BTN_RIGHT*%
D20*
X85500000Y-33808500D02*
X85500000Y-39516300D01*
X30552800Y-21124000D02*
X30953300Y-21524500D01*
X73494100Y-40020200D02*
X71585100Y-40020200D01*
X74218600Y-40744700D02*
X73494100Y-40020200D01*
X44077000Y-31472600D02*
X36521300Y-23916900D01*
X85500000Y-39516300D02*
X84271600Y-40744700D01*
X93043400Y-26265100D02*
X85500000Y-33808500D01*
X84271600Y-40744700D02*
X74218600Y-40744700D01*
X71585100Y-40020200D02*
X68678600Y-42926700D01*
X5906000Y-21124000D02*
X30552800Y-21124000D01*
X68678600Y-42926700D02*
X46559500Y-42926700D01*
X4200000Y-22830000D02*
X5906000Y-21124000D01*
X44077000Y-40444200D02*
X44077000Y-31472600D01*
X46559500Y-42926700D02*
X44077000Y-40444200D01*
%TO.N,/BTN_OK*%
X70303200Y-14450000D02*
X81000000Y-14450000D01*
X6814900Y-19258100D02*
X34819200Y-19258100D01*
X68363000Y-12721800D02*
X66588500Y-12721800D01*
X65929500Y-13380800D02*
X65420100Y-13380800D01*
X3518100Y-22554900D02*
X6814900Y-19258100D01*
X66588500Y-12721800D02*
X65929500Y-13380800D01*
X4200000Y-24000000D02*
X3518100Y-23318100D01*
X81000000Y-14450000D02*
X81212000Y-14662000D01*
X3518100Y-23318100D02*
X3518100Y-22554900D01*
X64502700Y-14298200D02*
X49540400Y-14298200D01*
X70303200Y-14450000D02*
X68363000Y-12721800D01*
X65420100Y-13380800D02*
X64502700Y-14298200D01*
X49540400Y-14298200D02*
X48864400Y-14974200D01*
X34819200Y-19258100D02*
X35022700Y-19461600D01*
X81212000Y-14662000D02*
X86806500Y-14662000D01*
%TO.N,/BTN_S3*%
X39364100Y-24071700D02*
X48378400Y-33086000D01*
X66575200Y-33086000D02*
X66979700Y-32681500D01*
X38526500Y-23290100D02*
X38693800Y-23457400D01*
X17600000Y-23850000D02*
X17939600Y-23510400D01*
X38997000Y-23457400D02*
X39364100Y-23824500D01*
X35909000Y-23510400D02*
X36129300Y-23290100D01*
X66400900Y-31642400D02*
X66400900Y-29021900D01*
X66979700Y-32221200D02*
X66400900Y-31642400D01*
X36129300Y-23290100D02*
X38526500Y-23290100D01*
X39364100Y-23824500D02*
X39364100Y-24071700D01*
X66979700Y-32681500D02*
X66979700Y-32221200D01*
X17939600Y-23510400D02*
X35909000Y-23510400D01*
X48378400Y-33086000D02*
X66575200Y-33086000D01*
X38693800Y-23457400D02*
X38997000Y-23457400D01*
%TO.N,/BTN_S1*%
X22023200Y-22155300D02*
X32103200Y-22155300D01*
X48580300Y-13043500D02*
X53728800Y-13043500D01*
X32103200Y-22155300D02*
X34079800Y-20178700D01*
X53728800Y-13043500D02*
X56392600Y-10379700D01*
X46796900Y-14826900D02*
X48580300Y-13043500D01*
X56392600Y-10379700D02*
X71076400Y-10379700D01*
X34079800Y-20178700D02*
X34079800Y-19909400D01*
X21648700Y-21780800D02*
X22023200Y-22155300D01*
X71076400Y-10379700D02*
X71076400Y-10379600D01*
%TO.N,/LED_DIN*%
X20891400Y-6715600D02*
X15256600Y-12350400D01*
X32000000Y900000D02*
X24384400Y-6715600D01*
X15256600Y-12350400D02*
X15256600Y-13248700D01*
X24384400Y-6715600D02*
X20891400Y-6715600D01*
X15256600Y-13248700D02*
X18282400Y-16274500D01*
%TO.N,/TOUCH*%
X19170000Y-12000000D02*
X52000000Y-12000000D01*
X18500000Y-12670000D02*
X19170000Y-12000000D01*
X59800000Y-4200000D02*
X59800000Y-800000D01*
X52000000Y-12000000D02*
X59800000Y-4200000D01*
%TO.N,Net-(D1-DOUT)*%
X39975000Y3250000D02*
X40025000Y3250000D01*
X38475000Y4750000D02*
X39975000Y3250000D01*
%TO.N,Net-(D2-DOUT)*%
X46025000Y4750000D02*
X45975000Y4750000D01*
X47525000Y3250000D02*
X46025000Y4750000D01*
%TO.N,Net-(D5-DOUT)*%
X72564300Y-22074500D02*
X72564300Y-22593700D01*
X71700000Y-21210000D02*
X72564300Y-22074500D01*
X72281600Y-26086600D02*
X73275000Y-27080000D01*
X72564300Y-22593700D02*
X72281600Y-22876400D01*
X73014700Y-15400000D02*
X71700000Y-16714700D01*
X72281600Y-22876400D02*
X72281600Y-26086600D01*
X79225000Y-16920000D02*
X79225000Y-15900000D01*
X78725000Y-15400000D02*
X73014700Y-15400000D01*
X79225000Y-15900000D02*
X78725000Y-15400000D01*
X71700000Y-16714700D02*
X71700000Y-21210000D01*
%TO.N,Net-(D6-DOUT)*%
X73762800Y-22350000D02*
X75995000Y-22350000D01*
X71762500Y-22509200D02*
X71937600Y-22334100D01*
X77975000Y-22350000D02*
X75995000Y-22350000D01*
X73275000Y-35750000D02*
X71762500Y-34237500D01*
X79225000Y-25580000D02*
X79225000Y-23600000D01*
X71762500Y-34237500D02*
X71762500Y-22509200D01*
X79225000Y-23600000D02*
X77975000Y-22350000D01*
%TO.N,Net-(D12-DOUT)*%
X45921600Y-32645500D02*
X45921600Y-41648300D01*
X37831700Y-23916900D02*
X37831700Y-24555600D01*
X31170000Y-17727900D02*
X30994900Y-17903000D01*
X8550000Y-7400000D02*
X9626700Y-7400000D01*
X47450000Y-42100000D02*
X46373300Y-42100000D01*
X9626700Y-9957900D02*
X9626700Y-7400000D01*
X37831700Y-24555600D02*
X45921600Y-32645500D01*
X45921600Y-41648300D02*
X46373300Y-42100000D01*
X30994900Y-17903000D02*
X17571800Y-17903000D01*
X17571800Y-17903000D02*
X9626700Y-9957900D01*
%TO.N,Net-(D10-DIN)*%
X111950000Y-11100000D02*
X113026700Y-11100000D01*
X118100000Y-24550000D02*
X118100000Y-16173300D01*
X118100000Y-16173300D02*
X113026700Y-11100000D01*
%TO.N,Net-(D10-DOUT)*%
X107050000Y-7900000D02*
X105973300Y-7900000D01*
X75550000Y-1400000D02*
X74473300Y-1400000D01*
X101643100Y-12230200D02*
X100939400Y-12230200D01*
X85389500Y-11300000D02*
X70595500Y-11300000D01*
X70303500Y-8125400D02*
X70303500Y-8982700D01*
X86849800Y-12505600D02*
X85389500Y-11300000D01*
X70595500Y-11045300D02*
X70595500Y-11300000D01*
X105973300Y-7900000D02*
X101643100Y-12230200D01*
X70303400Y-8125400D02*
X70303500Y-8125400D01*
X69922400Y-7744400D02*
X70303400Y-8125400D01*
X69922400Y-5950900D02*
X69922400Y-7744400D01*
X74473300Y-1400000D02*
X69922400Y-5950900D01*
%TO.N,/LED_D7_DOUT*%
X79225000Y-32300000D02*
X77975000Y-31050000D01*
X75030000Y-38900000D02*
X70993000Y-34863000D01*
X79225000Y-34250000D02*
X79225000Y-32300000D01*
X77975000Y-31050000D02*
X76025000Y-31050000D01*
X77550000Y-38900000D02*
X75030000Y-38900000D01*
X73766500Y-31050000D02*
X76025000Y-31050000D01*
X70993000Y-34863000D02*
X70993000Y-31050000D01*
%TO.N,Net-(D3-DOUT)*%
X55640000Y4750000D02*
X53475000Y4750000D01*
X70140000Y-9750000D02*
X55640000Y4750000D01*
X73275000Y-9750000D02*
X70140000Y-9750000D01*
%TO.N,Net-(D1-DIN)*%
X32525000Y2375000D02*
X32525000Y3250000D01*
X34000000Y900000D02*
X32525000Y2375000D01*
%TO.N,Net-(D4-DOUT)*%
X73275000Y-20921800D02*
X73275000Y-18420000D01*
X81565000Y-3949400D02*
X81343400Y-3727800D01*
X74306200Y-3727800D02*
X70549100Y-7484900D01*
X66848000Y-13348500D02*
X69518100Y-16018600D01*
X81565000Y-5910000D02*
X81565000Y-3949400D01*
X69518100Y-16018600D02*
X69518100Y-21348700D01*
X72848100Y-21348700D02*
X73275000Y-20921800D01*
X79225000Y-8250000D02*
X81565000Y-5910000D01*
X81343400Y-3727800D02*
X74306200Y-3727800D01*
%TO.N,Net-(D8-DOUT)*%
X103326700Y-42100000D02*
X82450000Y-42100000D01*
X114900000Y-30526700D02*
X103326700Y-42100000D01*
X114900000Y-29450000D02*
X114900000Y-30526700D01*
%TO.N,Net-(D11-DOUT)*%
X42550000Y-38900000D02*
X41473300Y-38900000D01*
X70163900Y-15409000D02*
X70163900Y-34158100D01*
X55180000Y-34355500D02*
X54774500Y-33950000D01*
X64423700Y-34355500D02*
X55180000Y-34355500D01*
X41473300Y-34875300D02*
X42398600Y-33950000D01*
X80450000Y-4600000D02*
X79373300Y-4600000D01*
X68466700Y-13711800D02*
X70163900Y-15409000D01*
X41473300Y-38900000D02*
X41473300Y-34875300D01*
X70163900Y-34158100D02*
X69966500Y-34355500D01*
X78094900Y-5878400D02*
X79373300Y-4600000D01*
X71540600Y-7689300D02*
X73351500Y-5878400D01*
X73351500Y-5878400D02*
X78094900Y-5878400D01*
%TD*%
%TA.AperFunction,Conductor*%
%TO.N,GND*%
G36*
X35271824Y7461810D02*
G01*
X35301978Y7427011D01*
X35311922Y7357853D01*
X35292286Y7306609D01*
X35205766Y7177123D01*
X35205761Y7177113D01*
X35153109Y7050000D01*
X36669490Y7050000D01*
X36616838Y7177113D01*
X36616833Y7177123D01*
X36530314Y7306609D01*
X36509436Y7373287D01*
X36527921Y7440667D01*
X36551099Y7461486D01*
X36513086Y7499500D01*
X41309514Y7499500D01*
X41271824Y7461810D01*
X41301978Y7427011D01*
X41311922Y7357853D01*
X41292286Y7306609D01*
X41205766Y7177123D01*
X41205761Y7177113D01*
X41153109Y7050000D01*
X42669490Y7050000D01*
X42616838Y7177113D01*
X42616833Y7177123D01*
X42530314Y7306609D01*
X42509436Y7373287D01*
X42527921Y7440667D01*
X42551099Y7461486D01*
X42513086Y7499500D01*
X47309514Y7499500D01*
X47271824Y7461810D01*
X47301978Y7427011D01*
X47311922Y7357853D01*
X47292286Y7306609D01*
X47205766Y7177123D01*
X47205761Y7177113D01*
X47153109Y7050000D01*
X48669490Y7050000D01*
X48616838Y7177113D01*
X48616833Y7177123D01*
X48530314Y7306609D01*
X48509436Y7373287D01*
X48527921Y7440667D01*
X48551099Y7461486D01*
X48513086Y7499500D01*
X53309514Y7499500D01*
X53271824Y7461810D01*
X53301978Y7427011D01*
X53311922Y7357853D01*
X53292286Y7306609D01*
X53205766Y7177123D01*
X53205761Y7177113D01*
X53153109Y7050000D01*
X54669490Y7050000D01*
X54616838Y7177113D01*
X54616833Y7177123D01*
X54530314Y7306609D01*
X54509436Y7373287D01*
X54527921Y7440667D01*
X54551099Y7461486D01*
X54513086Y7499500D01*
X59309514Y7499500D01*
X59271824Y7461810D01*
X59301978Y7427011D01*
X59311922Y7357853D01*
X59292286Y7306609D01*
X59205766Y7177123D01*
X59205761Y7177113D01*
X59153109Y7050000D01*
X59787300Y7050000D01*
X59854339Y7030315D01*
X59900094Y6977511D01*
X59911300Y6926000D01*
X59911300Y6800000D01*
X60037300Y6800000D01*
X60104339Y6780315D01*
X60150094Y6727511D01*
X60161300Y6676000D01*
X60161300Y6041809D01*
X60219857Y6066064D01*
X60289327Y6073533D01*
X60351806Y6042258D01*
X60374993Y6003177D01*
X60441311Y6047489D01*
X60301500Y5710100D01*
X60294535Y5688000D01*
X60170401Y5294103D01*
X60170397Y5294088D01*
X60076000Y4868204D01*
X60075996Y4868177D01*
X60019001Y4435813D01*
X60018999Y4435792D01*
X60000000Y4000007D01*
X60000000Y3999992D01*
X60018999Y3564207D01*
X60019001Y3564186D01*
X60075996Y3131822D01*
X60076000Y3131795D01*
X60170397Y2705911D01*
X60170401Y2705896D01*
X60301497Y2289908D01*
X60301501Y2289895D01*
X60468501Y1886896D01*
X60669898Y1500002D01*
X60669904Y1499992D01*
X60904196Y1132105D01*
X60904216Y1132078D01*
X61169793Y786108D01*
X61169819Y786076D01*
X61464497Y464501D01*
X61464501Y464497D01*
X61786076Y169819D01*
X61786108Y169793D01*
X62063068Y-42809D01*
X62132100Y-95800D01*
X62500000Y-330100D01*
X62626766Y-396088D01*
X62832793Y-503335D01*
X62886900Y-531500D01*
X63052202Y-600000D01*
X61521037Y-600000D01*
X58551043Y2369994D01*
X59113898Y2369994D01*
X59963841Y1520051D01*
X60126234Y1682444D01*
X60112712Y1708422D01*
X60110325Y1713260D01*
X60105280Y1724076D01*
X60103103Y1729023D01*
X59931523Y2143078D01*
X59929557Y2148132D01*
X59925453Y2159406D01*
X59923707Y2164551D01*
X59789012Y2591961D01*
X59787505Y2597132D01*
X59784413Y2608669D01*
X59783124Y2613936D01*
X59705963Y2962059D01*
X59113898Y2369994D01*
X58551043Y2369994D01*
X57419672Y3501365D01*
X57982527Y3501365D01*
X58832470Y2651422D01*
X59575161Y3394113D01*
X58725217Y4244055D01*
X57982527Y3501365D01*
X57419672Y3501365D01*
X56288301Y4632736D01*
X56851157Y4632736D01*
X57701099Y3782792D01*
X58443789Y4525483D01*
X59006646Y4525483D01*
X59604790Y3927338D01*
X59602118Y3988629D01*
X59602000Y3994030D01*
X59602000Y4005970D01*
X59602118Y4011371D01*
X59621639Y4459122D01*
X59621993Y4464530D01*
X59623038Y4476473D01*
X59623630Y4481870D01*
X59682194Y4926133D01*
X59683017Y4931476D01*
X59685090Y4943223D01*
X59686141Y4948507D01*
X59759174Y5278011D01*
X59006646Y4525483D01*
X58443789Y4525483D01*
X57593847Y5375426D01*
X56851157Y4632736D01*
X56288301Y4632736D01*
X55870563Y5050474D01*
X55870562Y5050475D01*
X55784938Y5099910D01*
X55766625Y5104817D01*
X55730001Y5114631D01*
X55708263Y5120455D01*
X55689436Y5125500D01*
X55689435Y5125500D01*
X55689433Y5125500D01*
X54397884Y5125500D01*
X54330845Y5145185D01*
X54298115Y5175864D01*
X54220725Y5280725D01*
X54110245Y5362263D01*
X54021475Y5393325D01*
X53980640Y5407614D01*
X53949868Y5410500D01*
X53949864Y5410500D01*
X53000136Y5410500D01*
X53000132Y5410500D01*
X52969360Y5407614D01*
X52969358Y5407614D01*
X52915006Y5388595D01*
X52845227Y5385033D01*
X52784600Y5419761D01*
X52760054Y5456844D01*
X52759012Y5459278D01*
X52699335Y5598708D01*
X52659988Y5656854D01*
X55612533Y5656854D01*
X55750492Y5518895D01*
X55754317Y5518392D01*
X55762314Y5517072D01*
X55771944Y5515157D01*
X55779852Y5513313D01*
X55833009Y5499070D01*
X55833011Y5499069D01*
X55900543Y5480973D01*
X55908311Y5478617D01*
X55917607Y5475461D01*
X55925192Y5472606D01*
X55949284Y5462628D01*
X55956679Y5459278D01*
X55965490Y5454933D01*
X55972648Y5451107D01*
X56080854Y5388633D01*
X56087735Y5384354D01*
X56095899Y5378900D01*
X56102504Y5374167D01*
X56123191Y5358293D01*
X56129460Y5353149D01*
X56136845Y5346673D01*
X56142770Y5341123D01*
X56569729Y4914164D01*
X57312419Y5656854D01*
X57875275Y5656854D01*
X58725218Y4806911D01*
X59567978Y5649671D01*
X59372845Y5730499D01*
X59367282Y5732965D01*
X59360626Y5736113D01*
X59355194Y5738847D01*
X59337954Y5748061D01*
X59332652Y5751065D01*
X59326334Y5754852D01*
X59321193Y5758107D01*
X59174541Y5856097D01*
X59169564Y5859602D01*
X59163649Y5863989D01*
X59158853Y5867732D01*
X59143742Y5880133D01*
X59139132Y5884110D01*
X59133675Y5889056D01*
X59129268Y5893252D01*
X59004552Y6017968D01*
X59000356Y6022375D01*
X58995410Y6027832D01*
X58991433Y6032442D01*
X58979032Y6047553D01*
X58975289Y6052349D01*
X58970902Y6058264D01*
X58967397Y6063241D01*
X58869407Y6209893D01*
X58866152Y6215034D01*
X58862365Y6221352D01*
X58859361Y6226654D01*
X58850147Y6243894D01*
X58847413Y6249326D01*
X58844265Y6255982D01*
X58841799Y6261545D01*
X58750814Y6481198D01*
X58725217Y6506796D01*
X57875275Y5656854D01*
X57312419Y5656854D01*
X56462476Y6506796D01*
X55612533Y5656854D01*
X52659988Y5656854D01*
X52592201Y5757029D01*
X52457029Y5892201D01*
X52298708Y5999335D01*
X52122967Y6074554D01*
X51936162Y6115138D01*
X51745052Y6119619D01*
X51556551Y6087833D01*
X51556549Y6087832D01*
X51556547Y6087832D01*
X51556544Y6087831D01*
X51434560Y6042258D01*
X51377477Y6020932D01*
X51373745Y6018654D01*
X51309149Y6000500D01*
X49690851Y6000500D01*
X49626246Y6018660D01*
X49622531Y6020927D01*
X49622523Y6020932D01*
X49461295Y6081166D01*
X49443455Y6087831D01*
X49443452Y6087832D01*
X49443451Y6087832D01*
X49443449Y6087833D01*
X49254948Y6119619D01*
X49063838Y6115138D01*
X49063833Y6115137D01*
X48877037Y6074555D01*
X48877036Y6074554D01*
X48877033Y6074554D01*
X48701292Y5999335D01*
X48542971Y5892201D01*
X48407799Y5757029D01*
X48300665Y5598708D01*
X48300663Y5598705D01*
X48300661Y5598701D01*
X48298345Y5594459D01*
X48248945Y5545049D01*
X48227818Y5535942D01*
X48224989Y5535023D01*
X48206076Y5530483D01*
X48023253Y5501527D01*
X48003855Y5500000D01*
X47818744Y5500000D01*
X47799346Y5501527D01*
X47775000Y5505382D01*
X47775000Y4874000D01*
X47755315Y4806961D01*
X47702511Y4761206D01*
X47651000Y4750000D01*
X47399000Y4750000D01*
X47331961Y4769685D01*
X47286206Y4822489D01*
X47275000Y4874000D01*
X47275000Y5660000D01*
X47048023Y5660000D01*
X46976985Y5653544D01*
X46813536Y5602612D01*
X46667018Y5514038D01*
X46594187Y5441206D01*
X46532864Y5407721D01*
X46488230Y5407742D01*
X46488152Y5406910D01*
X46449868Y5410500D01*
X46449864Y5410500D01*
X45500136Y5410500D01*
X45500132Y5410500D01*
X45469360Y5407614D01*
X45469358Y5407614D01*
X45415006Y5388595D01*
X45345227Y5385033D01*
X45284600Y5419761D01*
X45260054Y5456844D01*
X45259012Y5459278D01*
X45199335Y5598708D01*
X45092201Y5757029D01*
X44957029Y5892201D01*
X44798708Y5999335D01*
X44622967Y6074554D01*
X44436162Y6115138D01*
X44245052Y6119619D01*
X44056551Y6087833D01*
X44056549Y6087832D01*
X44056547Y6087832D01*
X44056544Y6087831D01*
X43934560Y6042258D01*
X43877477Y6020932D01*
X43873745Y6018654D01*
X43809149Y6000500D01*
X43065892Y6000500D01*
X42370987Y6000500D01*
X42444526Y6049637D01*
X42424292Y6072989D01*
X42414348Y6142147D01*
X42443373Y6205703D01*
X42449405Y6212181D01*
X42529705Y6292481D01*
X42529708Y6292485D01*
X42616833Y6422876D01*
X42616838Y6422886D01*
X42669491Y6550000D01*
X41153109Y6550000D01*
X41205761Y6422886D01*
X41205766Y6422876D01*
X41292891Y6292485D01*
X41292895Y6292480D01*
X41341149Y6244226D01*
X41374633Y6182903D01*
X41369648Y6113211D01*
X41340734Y6074587D01*
X41354937Y6065096D01*
X41201292Y5999335D01*
X41042971Y5892201D01*
X40907799Y5757029D01*
X40848548Y5669469D01*
X40843297Y5661709D01*
X40789423Y5617219D01*
X40720048Y5608918D01*
X40703709Y5612818D01*
X40573012Y5653544D01*
X40501977Y5660000D01*
X40275000Y5660000D01*
X40275000Y4874000D01*
X40255315Y4806961D01*
X40202511Y4761206D01*
X40151000Y4750000D01*
X39899000Y4750000D01*
X39831961Y4769685D01*
X39786206Y4822489D01*
X39775000Y4874000D01*
X39775000Y5660000D01*
X39548023Y5660000D01*
X39476985Y5653544D01*
X39313536Y5602612D01*
X39167018Y5514038D01*
X39094187Y5441206D01*
X39032864Y5407721D01*
X38988230Y5407742D01*
X38988152Y5406910D01*
X38949868Y5410500D01*
X38949864Y5410500D01*
X38000136Y5410500D01*
X38000132Y5410500D01*
X37969360Y5407614D01*
X37969358Y5407614D01*
X37915006Y5388595D01*
X37845227Y5385033D01*
X37784600Y5419761D01*
X37760054Y5456844D01*
X37759012Y5459278D01*
X37699335Y5598708D01*
X37592201Y5757029D01*
X37457029Y5892201D01*
X37298708Y5999335D01*
X37229147Y6029108D01*
X37882854Y6029108D01*
X37884409Y6027478D01*
X37889213Y6022193D01*
X37893074Y6017737D01*
X37905148Y6003114D01*
X37908801Y5998470D01*
X37913084Y5992748D01*
X37916510Y5987936D01*
X38034273Y5813908D01*
X38037466Y5808938D01*
X38037733Y5808500D01*
X38898903Y5808500D01*
X38899559Y5809117D01*
X38906347Y5815130D01*
X38912103Y5819926D01*
X38931049Y5834767D01*
X38937074Y5839200D01*
X38944532Y5844348D01*
X38950823Y5848416D01*
X38993265Y5874073D01*
X38360542Y6506796D01*
X37882854Y6029108D01*
X37229147Y6029108D01*
X37122967Y6074554D01*
X36936162Y6115138D01*
X36745052Y6119619D01*
X36556551Y6087833D01*
X36432113Y6041343D01*
X36492771Y6081874D01*
X36502189Y6089603D01*
X36552869Y6140283D01*
X36532296Y6157254D01*
X36510991Y6223797D01*
X36529044Y6291294D01*
X36531853Y6295695D01*
X36616833Y6422876D01*
X36616838Y6422886D01*
X36669491Y6550000D01*
X35153109Y6550000D01*
X35205761Y6422886D01*
X35205766Y6422876D01*
X35292891Y6292485D01*
X35292894Y6292481D01*
X35373195Y6212181D01*
X35406680Y6150858D01*
X35401696Y6081166D01*
X35378087Y6049628D01*
X35451613Y6000500D01*
X34690851Y6000500D01*
X34626246Y6018660D01*
X34622531Y6020927D01*
X34622523Y6020932D01*
X34461295Y6081166D01*
X34443455Y6087831D01*
X34443452Y6087832D01*
X34443451Y6087832D01*
X34443449Y6087833D01*
X34254948Y6119619D01*
X34063838Y6115138D01*
X34063833Y6115137D01*
X33877037Y6074555D01*
X33877036Y6074554D01*
X33877033Y6074554D01*
X33701292Y5999335D01*
X33542971Y5892201D01*
X33407799Y5757029D01*
X33300665Y5598708D01*
X33225446Y5422967D01*
X33201218Y5311448D01*
X33178728Y5424509D01*
X33142266Y5412847D01*
X33074774Y5430918D01*
X33027765Y5482609D01*
X33024731Y5489359D01*
X32992939Y5566112D01*
X32992938Y5566114D01*
X32930206Y5660000D01*
X32775000Y5660000D01*
X32775000Y4874000D01*
X32755315Y4806961D01*
X32702511Y4761206D01*
X32651000Y4750000D01*
X32537400Y4750000D01*
X32537400Y4430809D01*
X32664513Y4483461D01*
X32664523Y4483466D01*
X32794914Y4570591D01*
X32794918Y4570594D01*
X32905805Y4681481D01*
X32905808Y4681485D01*
X32992933Y4811876D01*
X32992937Y4811884D01*
X32996464Y4820399D01*
X33040303Y4874804D01*
X33106596Y4896872D01*
X33157026Y4884002D01*
X33169844Y4914947D01*
X33173381Y4926606D01*
X33187978Y4999993D01*
X33212167Y4856551D01*
X33279068Y4677477D01*
X33294530Y4652143D01*
X33294534Y4652130D01*
X33299499Y4643995D01*
X33299499Y4634465D01*
X33299500Y4634461D01*
X33299500Y4584994D01*
X33299500Y4413984D01*
X33279815Y4346945D01*
X33263181Y4326303D01*
X33141193Y4204315D01*
X33126397Y4191678D01*
X32976644Y4082876D01*
X32960054Y4072709D01*
X32795123Y3988673D01*
X32777146Y3981227D01*
X32601096Y3924025D01*
X32582176Y3919483D01*
X32535100Y3912027D01*
X32515702Y3910500D01*
X32059096Y3910500D01*
X32039698Y3912027D01*
X31992623Y3919483D01*
X31973703Y3924025D01*
X31797653Y3981227D01*
X31779676Y3988673D01*
X31614749Y4072707D01*
X31598159Y4082873D01*
X31531106Y4131588D01*
X31545958Y4107022D01*
X31667018Y3985961D01*
X31733018Y3946063D01*
X31780206Y3894535D01*
X31792044Y3825675D01*
X31773970Y3779836D01*
X31777749Y3778658D01*
X31697737Y3670245D01*
X31659211Y3560146D01*
X31659210Y3560147D01*
X31652385Y3540641D01*
X31652385Y3540639D01*
X31649500Y3509867D01*
X31649500Y2990132D01*
X31652385Y2959360D01*
X31652385Y2959358D01*
X31697736Y2829756D01*
X31779275Y2719275D01*
X31889756Y2637736D01*
X32019359Y2592385D01*
X32037078Y2590724D01*
X32101987Y2564866D01*
X32142611Y2508021D01*
X32149500Y2467266D01*
X32149500Y2325566D01*
X32149499Y2325566D01*
X32149500Y2325564D01*
X32154365Y2307406D01*
X32154525Y2306811D01*
X32154524Y2306810D01*
X32175089Y2230063D01*
X32175091Y2230058D01*
X32216330Y2158631D01*
X32224525Y2144437D01*
X32306782Y2062180D01*
X32340266Y2000856D01*
X32335282Y1931165D01*
X32293410Y1875231D01*
X32227945Y1850815D01*
X32219121Y1850499D01*
X31602128Y1850499D01*
X31553757Y1845299D01*
X31542516Y1844091D01*
X31407671Y1793797D01*
X31407664Y1793793D01*
X31292455Y1707547D01*
X31292452Y1707544D01*
X31206206Y1592335D01*
X31206202Y1592328D01*
X31155908Y1457482D01*
X31149958Y1402130D01*
X31149501Y1397876D01*
X31149500Y1397864D01*
X31149500Y631900D01*
X31129815Y564861D01*
X31113181Y544219D01*
X29968962Y-600000D01*
X28000000Y-600000D01*
X28000000Y-500500D01*
X28432779Y-500500D01*
X28451867Y-502554D01*
X28457867Y-503057D01*
X28508907Y-500638D01*
X28514775Y-500500D01*
X28565894Y-500500D01*
X28573953Y-499439D01*
X28574203Y-501339D01*
X28605189Y-499077D01*
X28611495Y-499819D01*
X28646600Y-494702D01*
X28658605Y-493546D01*
X28694027Y-491869D01*
X28707767Y-487480D01*
X28727615Y-482896D01*
X28742203Y-480770D01*
X28756208Y-479535D01*
X28786611Y-478587D01*
X28805287Y-472953D01*
X28823220Y-468964D01*
X28842521Y-466152D01*
X28870449Y-454128D01*
X28883659Y-449309D01*
X29019790Y-408242D01*
X29027880Y-406098D01*
X29071532Y-396088D01*
X29075982Y-393730D01*
X29098245Y-384576D01*
X29103066Y-383122D01*
X29103675Y-382745D01*
X29141140Y-359526D01*
X29148396Y-355361D01*
X29287377Y-281723D01*
X29296522Y-277348D01*
X29333546Y-261467D01*
X29341091Y-255525D01*
X29359749Y-243377D01*
X29368232Y-238884D01*
X29397731Y-211455D01*
X29405440Y-204855D01*
X29534074Y-103567D01*
X29544523Y-96181D01*
X29572914Y-78240D01*
X29583998Y-66230D01*
X29598401Y-52914D01*
X29611232Y-42813D01*
X29631334Y-15924D01*
X29639517Y-6081D01*
X29761617Y126198D01*
X29773037Y137088D01*
X29793000Y153835D01*
X29793000Y153836D01*
X29793003Y153838D01*
X29806698Y173390D01*
X29817140Y186351D01*
X29818014Y187298D01*
X29833330Y203891D01*
X29845444Y226957D01*
X29853657Y240434D01*
X29882215Y281206D01*
X29973910Y412121D01*
X29985755Y426577D01*
X29998660Y440103D01*
X30013640Y467516D01*
X30020882Y479183D01*
X30038796Y504759D01*
X30045189Y522317D01*
X30052889Y539345D01*
X30147563Y712603D01*
X30175762Y764207D01*
X30187576Y781993D01*
X30194997Y791312D01*
X30195000Y791316D01*
X30195001Y791317D01*
X30210167Y826141D01*
X30215024Y836059D01*
X30233241Y869396D01*
X30236053Y880976D01*
X30242863Y901216D01*
X30326384Y1092992D01*
X30372558Y1199015D01*
X30384091Y1219793D01*
X30387363Y1224548D01*
X30402100Y1266093D01*
X30405272Y1274131D01*
X30418244Y1303917D01*
X30422873Y1314545D01*
X30423730Y1320257D01*
X30429491Y1343307D01*
X30571496Y1743622D01*
X30582586Y1766807D01*
X30582699Y1767059D01*
X30582700Y1767060D01*
X30596933Y1814839D01*
X30598905Y1820885D01*
X30615572Y1867870D01*
X30615628Y1868136D01*
X30620340Y1893415D01*
X30786113Y2449893D01*
X30791511Y2462459D01*
X30790871Y2462724D01*
X30793965Y2470230D01*
X30793969Y2470237D01*
X30798739Y2488162D01*
X30808552Y2525028D01*
X30809541Y2528537D01*
X30816997Y2553566D01*
X30825736Y2582900D01*
X30825736Y2582901D01*
X30827020Y2590927D01*
X30827704Y2590817D01*
X30829666Y2604357D01*
X30879556Y2791802D01*
X31029790Y3356260D01*
X31030265Y3357668D01*
X31049034Y3428562D01*
X31049076Y3428721D01*
X31067631Y3498434D01*
X31067910Y3499857D01*
X31078708Y3540641D01*
X31260352Y4226724D01*
X31437708Y4835873D01*
X31459976Y4782115D01*
X31503358Y4802046D01*
X31572539Y4792260D01*
X31624385Y4748241D01*
X31668989Y4681487D01*
X31668994Y4681481D01*
X31779881Y4570594D01*
X31779885Y4570591D01*
X31910276Y4483466D01*
X31910286Y4483461D01*
X32037399Y4430809D01*
X32037400Y4430809D01*
X32037400Y5659034D01*
X32037399Y5659034D01*
X31976993Y5653546D01*
X31976989Y5653545D01*
X31922123Y5636448D01*
X31852263Y5635296D01*
X31792870Y5672097D01*
X31770473Y5719073D01*
X31769483Y5718765D01*
X31755803Y5712608D01*
X31727076Y5695242D01*
X31735536Y5718236D01*
X31872274Y6045343D01*
X32015901Y6342214D01*
X32019721Y6349469D01*
X32478008Y6349469D01*
X32562778Y6336043D01*
X32738828Y6278841D01*
X32903759Y6194805D01*
X32936455Y6171049D01*
X33553631Y6788225D01*
X34116487Y6788225D01*
X34407136Y6497574D01*
X34518976Y6478716D01*
X34524766Y6477597D01*
X34531744Y6476076D01*
X34537489Y6474680D01*
X34555803Y6469763D01*
X34561454Y6468101D01*
X34568261Y6465922D01*
X34573854Y6463983D01*
X34749130Y6398500D01*
X34785070Y6398500D01*
X34745662Y6493638D01*
X34736820Y6553246D01*
X34744186Y6628031D01*
X34746744Y6635182D01*
X34735300Y6707444D01*
X34735300Y6892555D01*
X34746745Y6964816D01*
X37075854Y6964816D01*
X37087300Y6892555D01*
X37087300Y6707444D01*
X37075854Y6635183D01*
X37078414Y6628031D01*
X37085780Y6553246D01*
X37076938Y6493638D01*
X37076253Y6491986D01*
X37216730Y6461468D01*
X37222475Y6460076D01*
X37229381Y6458227D01*
X37235047Y6456565D01*
X37253111Y6450794D01*
X37258684Y6448866D01*
X37265375Y6446372D01*
X37270858Y6444178D01*
X37464032Y6361498D01*
X37469400Y6359048D01*
X37475828Y6355927D01*
X37481083Y6353219D01*
X37497729Y6344132D01*
X37502838Y6341183D01*
X37508938Y6337466D01*
X37513908Y6334272D01*
X37580261Y6289371D01*
X38079115Y6788225D01*
X38641971Y6788225D01*
X39388474Y6041720D01*
X39389019Y6041844D01*
X39409668Y6045951D01*
X39416113Y6047057D01*
X39423963Y6048192D01*
X39430485Y6048959D01*
X39516488Y6056774D01*
X39519268Y6056995D01*
X39522653Y6057226D01*
X39525471Y6057386D01*
X39534480Y6057795D01*
X39537300Y6057891D01*
X39540704Y6057968D01*
X39543508Y6058000D01*
X39611632Y6058000D01*
X40341857Y6788225D01*
X43167454Y6788225D01*
X43557179Y6398500D01*
X43750869Y6398500D01*
X43926146Y6463983D01*
X43931739Y6465922D01*
X43938546Y6468101D01*
X43944197Y6469763D01*
X43962511Y6474680D01*
X43968256Y6476076D01*
X43975234Y6477597D01*
X43981024Y6478716D01*
X44188224Y6513655D01*
X44194073Y6514498D01*
X44201167Y6515349D01*
X44207037Y6515912D01*
X44225952Y6517273D01*
X44231849Y6517557D01*
X44238992Y6517730D01*
X44244901Y6517732D01*
X44454970Y6512806D01*
X44460864Y6512527D01*
X44467989Y6512020D01*
X44473869Y6511461D01*
X44492698Y6509216D01*
X44498543Y6508377D01*
X44505591Y6507194D01*
X44511390Y6506078D01*
X44572020Y6492905D01*
X44867340Y6788225D01*
X45430196Y6788225D01*
X46280139Y5938282D01*
X46483862Y6142005D01*
X48161300Y6142005D01*
X48307947Y6107513D01*
X48307949Y6107513D01*
X48418810Y6181588D01*
X48418818Y6181594D01*
X48529705Y6292481D01*
X48529708Y6292485D01*
X48616833Y6422876D01*
X48616838Y6422886D01*
X48669491Y6550000D01*
X48161300Y6550000D01*
X48161300Y6142005D01*
X46483862Y6142005D01*
X46771973Y6430116D01*
X46745662Y6493639D01*
X46737302Y6550000D01*
X47153109Y6550000D01*
X47205761Y6422886D01*
X47205766Y6422876D01*
X47292891Y6292485D01*
X47292894Y6292481D01*
X47403782Y6181593D01*
X47436100Y6160000D01*
X47661300Y6160000D01*
X47661300Y6550000D01*
X47153109Y6550000D01*
X46737302Y6550000D01*
X46736820Y6553246D01*
X46744186Y6628031D01*
X46746744Y6635182D01*
X46735300Y6707444D01*
X46735300Y6788225D01*
X49955679Y6788225D01*
X50345404Y6398500D01*
X51250871Y6398500D01*
X51274767Y6407427D01*
X51655565Y6788225D01*
X52218421Y6788225D01*
X53068364Y5938282D01*
X53076301Y5946219D01*
X53004552Y6017968D01*
X53000356Y6022375D01*
X52995410Y6027832D01*
X52991433Y6032442D01*
X52979032Y6047553D01*
X52975289Y6052349D01*
X52970902Y6058264D01*
X52967397Y6063241D01*
X52869407Y6209893D01*
X52866152Y6215034D01*
X52862365Y6221352D01*
X52859361Y6226654D01*
X52850147Y6243894D01*
X52847413Y6249326D01*
X52844265Y6255982D01*
X52841799Y6261545D01*
X52745662Y6493638D01*
X52737301Y6550000D01*
X53153109Y6550000D01*
X53205761Y6422886D01*
X53205766Y6422876D01*
X53292891Y6292485D01*
X53292894Y6292481D01*
X53403781Y6181594D01*
X53403785Y6181591D01*
X53534176Y6094466D01*
X53534186Y6094461D01*
X53661299Y6041809D01*
X53661300Y6041809D01*
X54161300Y6041809D01*
X54288413Y6094461D01*
X54288423Y6094466D01*
X54418814Y6181591D01*
X54418818Y6181594D01*
X54517889Y6280665D01*
X54988721Y6280665D01*
X55331105Y5938281D01*
X56181048Y6788225D01*
X56743904Y6788225D01*
X57593847Y5938282D01*
X58205565Y6550000D01*
X59153109Y6550000D01*
X59205761Y6422886D01*
X59205766Y6422876D01*
X59292891Y6292485D01*
X59292894Y6292481D01*
X59403781Y6181594D01*
X59403785Y6181591D01*
X59534176Y6094466D01*
X59534186Y6094461D01*
X59661299Y6041809D01*
X59661300Y6041809D01*
X59661300Y6550000D01*
X59153109Y6550000D01*
X58205565Y6550000D01*
X58443790Y6788225D01*
X58130515Y7101500D01*
X57057179Y7101500D01*
X56743904Y6788225D01*
X56181048Y6788225D01*
X55867773Y7101500D01*
X55077659Y7101500D01*
X55085780Y7046754D01*
X55078414Y6971969D01*
X55075854Y6964816D01*
X55087300Y6892555D01*
X55087300Y6707444D01*
X55075854Y6635183D01*
X55078414Y6628031D01*
X55085780Y6553246D01*
X55076938Y6493638D01*
X54988721Y6280665D01*
X54517889Y6280665D01*
X54529705Y6292481D01*
X54529708Y6292485D01*
X54616833Y6422876D01*
X54616838Y6422886D01*
X54669491Y6550000D01*
X54161300Y6550000D01*
X54161300Y6041809D01*
X53661300Y6041809D01*
X53661300Y6550000D01*
X53153109Y6550000D01*
X52737301Y6550000D01*
X52736820Y6553246D01*
X52744186Y6628031D01*
X52746744Y6635182D01*
X52735300Y6707444D01*
X52735300Y6892555D01*
X52746745Y6964817D01*
X52744186Y6971969D01*
X52736820Y7046754D01*
X52744941Y7101500D01*
X52531696Y7101500D01*
X52218421Y6788225D01*
X51655565Y6788225D01*
X51342290Y7101500D01*
X50268954Y7101500D01*
X49955679Y6788225D01*
X46735300Y6788225D01*
X46735300Y6892555D01*
X46746745Y6964817D01*
X46744186Y6971969D01*
X46736820Y7046754D01*
X46744941Y7101500D01*
X45743471Y7101500D01*
X45430196Y6788225D01*
X44867340Y6788225D01*
X44554065Y7101500D01*
X43480729Y7101500D01*
X43167454Y6788225D01*
X40341857Y6788225D01*
X40028582Y7101500D01*
X38955246Y7101500D01*
X38641971Y6788225D01*
X38079115Y6788225D01*
X37765840Y7101500D01*
X37077659Y7101500D01*
X37085780Y7046754D01*
X37078414Y6971969D01*
X37075854Y6964816D01*
X34746745Y6964816D01*
X34746745Y6964817D01*
X34744186Y6971969D01*
X34736820Y7046754D01*
X34744941Y7101500D01*
X34429762Y7101500D01*
X34116487Y6788225D01*
X33553631Y6788225D01*
X33268422Y7073432D01*
X33258134Y7071214D01*
X33189587Y7049992D01*
X33123723Y7023105D01*
X33058889Y6989934D01*
X32993787Y6949564D01*
X32927707Y6901083D01*
X32860268Y6843593D01*
X32800719Y6785432D01*
X32650619Y6609494D01*
X32509303Y6404284D01*
X32478008Y6349469D01*
X32019721Y6349469D01*
X32019836Y6349687D01*
X32169397Y6611653D01*
X32174953Y6620497D01*
X32330858Y6846892D01*
X32338647Y6857037D01*
X32351775Y6872424D01*
X32506028Y7053231D01*
X32513721Y7061460D01*
X32588813Y7134801D01*
X32594991Y7140441D01*
X32677124Y7210458D01*
X32684205Y7216061D01*
X32766967Y7276781D01*
X32774970Y7282186D01*
X32858718Y7334118D01*
X32867586Y7339125D01*
X32952853Y7382751D01*
X32962469Y7387164D01*
X33050250Y7422997D01*
X33060442Y7426647D01*
X33151944Y7454975D01*
X33162478Y7457736D01*
X33259182Y7478589D01*
X33269800Y7480400D01*
X33373196Y7493444D01*
X33383642Y7494315D01*
X33500283Y7499092D01*
X33507703Y7499396D01*
X33512775Y7499500D01*
X35309514Y7499500D01*
X35271824Y7461810D01*
G37*
%TD.AperFunction*%
%TA.AperFunction,Conductor*%
G36*
X37779756Y2247644D02*
G01*
X37810284Y2184796D01*
X37812000Y2164236D01*
X37812000Y2127962D01*
X37792315Y2060923D01*
X37772693Y2039848D01*
X37773725Y2038817D01*
X37767452Y2032544D01*
X37681206Y1917335D01*
X37681202Y1917328D01*
X37630908Y1782482D01*
X37624501Y1722883D01*
X37624500Y1722864D01*
X37624500Y1333308D01*
X37604815Y1266269D01*
X37588181Y1245627D01*
X35742554Y-600000D01*
X31031037Y-600000D01*
X31405036Y-226000D01*
X34946273Y-226000D01*
X35553698Y-226000D01*
X35798035Y18337D01*
X35248499Y567872D01*
X35248500Y396795D01*
X35248455Y393465D01*
X35248347Y389445D01*
X35248214Y386133D01*
X35247643Y375489D01*
X35247421Y372176D01*
X35247099Y368178D01*
X35246789Y364878D01*
X35238481Y287600D01*
X35237411Y279923D01*
X35235829Y270686D01*
X35234287Y263108D01*
X35228565Y238888D01*
X35226546Y231398D01*
X35223824Y222426D01*
X35221347Y215093D01*
X35161731Y55254D01*
X35158345Y47078D01*
X35153894Y37331D01*
X35149931Y29414D01*
X35136295Y4441D01*
X35131774Y-3178D01*
X35125981Y-12191D01*
X35120935Y-19457D01*
X35017634Y-157448D01*
X35012081Y-164339D01*
X35005065Y-172436D01*
X34999033Y-178915D01*
X34978915Y-199033D01*
X34972436Y-205065D01*
X34964339Y-212081D01*
X34957448Y-217634D01*
X34946273Y-226000D01*
X31405036Y-226000D01*
X31544220Y-86816D01*
X31605541Y-53333D01*
X31631890Y-50499D01*
X32397872Y-50499D01*
X32457483Y-44091D01*
X32592328Y6202D01*
X32592335Y6206D01*
X32707544Y92452D01*
X32707547Y92455D01*
X32793793Y207664D01*
X32793797Y207671D01*
X32844091Y342517D01*
X32845314Y353895D01*
X32850500Y402127D01*
X32850499Y1219100D01*
X32870183Y1286139D01*
X32922987Y1331894D01*
X32992146Y1341838D01*
X33055702Y1312813D01*
X33062180Y1306781D01*
X33113181Y1255780D01*
X33146666Y1194457D01*
X33149500Y1168099D01*
X33149500Y402129D01*
X33149501Y402123D01*
X33155908Y342516D01*
X33206202Y207671D01*
X33206206Y207664D01*
X33292452Y92455D01*
X33292455Y92452D01*
X33407664Y6206D01*
X33407671Y6202D01*
X33542517Y-44091D01*
X33542516Y-44091D01*
X33549444Y-44835D01*
X33602127Y-50500D01*
X34397872Y-50499D01*
X34457483Y-44091D01*
X34592328Y6202D01*
X34592335Y6206D01*
X34707544Y92452D01*
X34707547Y92455D01*
X34793793Y207664D01*
X34793797Y207671D01*
X34844091Y342517D01*
X34845314Y353895D01*
X34850500Y402127D01*
X34850499Y1132012D01*
X35248499Y1132012D01*
X35248499Y1130729D01*
X36079463Y299765D01*
X36929406Y1149708D01*
X36573411Y1505702D01*
X36481018Y1521283D01*
X36475210Y1522406D01*
X36468228Y1523929D01*
X36462499Y1525322D01*
X36444183Y1530240D01*
X36438525Y1531904D01*
X36431723Y1534082D01*
X36426140Y1536018D01*
X36250868Y1601500D01*
X35717987Y1601500D01*
X35248499Y1132012D01*
X34850499Y1132012D01*
X34850499Y1397872D01*
X34844091Y1457483D01*
X34793796Y1592331D01*
X34707546Y1707546D01*
X34616127Y1775982D01*
X34574257Y1831915D01*
X34569273Y1901607D01*
X34602758Y1962930D01*
X34625738Y1981030D01*
X34626150Y1981282D01*
X34690851Y1999500D01*
X35434108Y1999500D01*
X36309146Y1999500D01*
X36373742Y1981346D01*
X36377473Y1979068D01*
X36556547Y1912166D01*
X36745050Y1880380D01*
X36936161Y1884860D01*
X37029563Y1905151D01*
X37122967Y1925443D01*
X37122973Y1925445D01*
X37298705Y2000661D01*
X37298706Y2000661D01*
X37298709Y2000663D01*
X37457030Y2107797D01*
X37592203Y2242970D01*
X37592205Y2242973D01*
X37592383Y2243188D01*
X37592500Y2243267D01*
X37596382Y2247149D01*
X37597130Y2246400D01*
X37650247Y2282349D01*
X37720097Y2284010D01*
X37779756Y2247644D01*
G37*
%TD.AperFunction*%
%TA.AperFunction,Conductor*%
G36*
X38533730Y204815D02*
G01*
X38554372Y188181D01*
X39342553Y-600000D01*
X37582446Y-600000D01*
X38370627Y188181D01*
X38431950Y221666D01*
X38458308Y224500D01*
X38466691Y224500D01*
X38533730Y204815D01*
G37*
%TD.AperFunction*%
%TA.AperFunction,Conductor*%
G36*
X46033730Y204815D02*
G01*
X46054372Y188181D01*
X46625300Y-382745D01*
X46790824Y-548269D01*
X46842555Y-600000D01*
X45082447Y-600000D01*
X45870627Y188181D01*
X45931950Y221666D01*
X45958308Y224500D01*
X45966691Y224500D01*
X46033730Y204815D01*
G37*
%TD.AperFunction*%
%TA.AperFunction,Conductor*%
G36*
X55500140Y4354815D02*
G01*
X55520782Y4338181D01*
X59896782Y-37819D01*
X59930267Y-99142D01*
X59925283Y-168834D01*
X59883411Y-224767D01*
X59817947Y-249184D01*
X59809101Y-249500D01*
X59727525Y-249500D01*
X59603839Y-282642D01*
X59587511Y-287017D01*
X59461988Y-359488D01*
X59461982Y-359493D01*
X59359493Y-461982D01*
X59359488Y-461988D01*
X59287017Y-587511D01*
X59283671Y-600000D01*
X52582447Y-600000D01*
X53370626Y188181D01*
X53431949Y221666D01*
X53458307Y224500D01*
X53847870Y224500D01*
X53847876Y224501D01*
X53907483Y230908D01*
X54042328Y281202D01*
X54042335Y281206D01*
X54133774Y349658D01*
X54133773Y349658D01*
X54157546Y367454D01*
X54243796Y482669D01*
X54294091Y617517D01*
X54300500Y677127D01*
X54300499Y1722872D01*
X54299933Y1728136D01*
X54326000Y1728136D01*
X54326001Y671865D01*
X54326322Y665561D01*
X54335645Y574289D01*
X54358515Y582820D01*
X54426788Y567969D01*
X54476194Y518565D01*
X54485069Y498141D01*
X54515642Y405878D01*
X54515643Y405875D01*
X54607684Y256654D01*
X54731654Y132684D01*
X54880875Y40643D01*
X54880880Y40641D01*
X55047302Y-14505D01*
X55047309Y-14506D01*
X55150019Y-24999D01*
X55287499Y-24999D01*
X55787500Y-24999D01*
X55924972Y-24999D01*
X55924986Y-24998D01*
X56025250Y-14755D01*
X56758659Y-14755D01*
X56969904Y-226000D01*
X58217790Y-226000D01*
X58443790Y0D01*
X57593847Y849943D01*
X56829307Y85403D01*
X56799979Y37854D01*
X56796014Y31825D01*
X56791006Y24673D01*
X56786698Y18887D01*
X56772325Y710D01*
X56767686Y-4818D01*
X56761884Y-11337D01*
X56758659Y-14755D01*
X56025250Y-14755D01*
X56027697Y-14505D01*
X56194119Y40641D01*
X56194124Y40643D01*
X56343345Y132684D01*
X56467315Y256654D01*
X56559356Y405875D01*
X56559358Y405880D01*
X56614505Y572302D01*
X56614506Y572309D01*
X56624999Y675013D01*
X56625000Y675026D01*
X56625000Y950000D01*
X55787500Y950000D01*
X55787500Y-24999D01*
X55287499Y-24999D01*
X55287500Y-24998D01*
X55287500Y1131371D01*
X57875275Y1131371D01*
X58725218Y281428D01*
X58869948Y426158D01*
X58020005Y1276101D01*
X57875275Y1131371D01*
X55287500Y1131371D01*
X55287500Y1450000D01*
X55787500Y1450000D01*
X56624999Y1450000D01*
X56624999Y1724971D01*
X56624998Y1724986D01*
X56614505Y1827697D01*
X56559358Y1994119D01*
X56559356Y1994124D01*
X56467315Y2143345D01*
X56343345Y2267315D01*
X56194124Y2359356D01*
X56194119Y2359358D01*
X56027697Y2414505D01*
X56027690Y2414506D01*
X55924980Y2424999D01*
X55787500Y2424999D01*
X55787500Y1450000D01*
X55287500Y1450000D01*
X55287500Y2424999D01*
X55150028Y2424999D01*
X55150013Y2424998D01*
X55047302Y2414505D01*
X54880880Y2359358D01*
X54880875Y2359356D01*
X54731654Y2267315D01*
X54607684Y2143345D01*
X54515643Y1994124D01*
X54515641Y1994119D01*
X54485069Y1901859D01*
X54445296Y1844414D01*
X54380780Y1817591D01*
X54335641Y1825673D01*
X54326321Y1734441D01*
X54326000Y1728136D01*
X54299933Y1728136D01*
X54294091Y1782483D01*
X54243796Y1917331D01*
X54157546Y2032546D01*
X54133774Y2050340D01*
X54141037Y2066331D01*
X54128334Y2089597D01*
X54125500Y2115955D01*
X54125500Y2586397D01*
X54145185Y2653436D01*
X54175866Y2686167D01*
X54220721Y2719272D01*
X54220725Y2719275D01*
X54302263Y2829755D01*
X54313600Y2862156D01*
X54347614Y2959358D01*
X54347614Y2959360D01*
X54350500Y2990132D01*
X54350500Y3509867D01*
X54347614Y3540639D01*
X54347614Y3540641D01*
X54315054Y3633690D01*
X54302263Y3670245D01*
X54220725Y3780725D01*
X54110245Y3862263D01*
X54069474Y3876529D01*
X54051100Y3882959D01*
X53994324Y3923680D01*
X53968577Y3988633D01*
X53982033Y4057195D01*
X54030421Y4107597D01*
X54051100Y4117041D01*
X54110243Y4137736D01*
X54110245Y4137737D01*
X54220725Y4219275D01*
X54298115Y4324134D01*
X54353761Y4366384D01*
X54397884Y4374500D01*
X55433101Y4374500D01*
X55500140Y4354815D01*
G37*
%TD.AperFunction*%
%TA.AperFunction,Conductor*%
G36*
X70880091Y7464477D02*
G01*
X70912556Y7427011D01*
X70922500Y7357853D01*
X70902864Y7306609D01*
X70826366Y7192123D01*
X70826361Y7192113D01*
X70773709Y7065000D01*
X72297209Y7065000D01*
X72334699Y7096332D01*
X72404024Y7105039D01*
X72408636Y7102832D01*
X72386873Y7155372D01*
X72391338Y7151897D01*
X72560998Y6980041D01*
X72707900Y6791582D01*
X72707900Y6791581D01*
X72731299Y6761563D01*
X72738581Y6751164D01*
X72911157Y6475709D01*
X72916541Y6466210D01*
X73095350Y6115596D01*
X73099225Y6107247D01*
X73284621Y5665496D01*
X73287327Y5658456D01*
X73482187Y5101442D01*
X73483982Y5095893D01*
X73698278Y4376424D01*
X73699255Y4372962D01*
X73887786Y3665600D01*
X73887787Y3665599D01*
X73951122Y3427969D01*
X73977759Y3326954D01*
X73933634Y3356438D01*
X73906014Y3315745D01*
X73841749Y3288327D01*
X73779738Y3296908D01*
X73704700Y3327989D01*
X73704700Y1811609D01*
X73831813Y1864261D01*
X73831823Y1864266D01*
X73962214Y1951391D01*
X73962218Y1951394D01*
X74073108Y2062284D01*
X74101006Y2104037D01*
X74154618Y2148842D01*
X74223943Y2157549D01*
X74270224Y2135406D01*
X74272467Y2139602D01*
X74290762Y2183771D01*
X74303228Y2139933D01*
X74303846Y2129214D01*
X74321206Y2076708D01*
X74336336Y2023504D01*
X74341846Y2014286D01*
X74392784Y1860230D01*
X74502811Y1527473D01*
X74508107Y1503090D01*
X74508327Y1502187D01*
X74526432Y1455526D01*
X74528558Y1449605D01*
X74544258Y1402127D01*
X74544663Y1401289D01*
X74556083Y1379114D01*
X74615175Y1226833D01*
X74619912Y1209212D01*
X74621851Y1202623D01*
X74642624Y1155722D01*
X74644847Y1150367D01*
X74663392Y1102576D01*
X74666686Y1096562D01*
X74675827Y1080761D01*
X74736929Y942812D01*
X74744703Y919029D01*
X74745243Y916551D01*
X74745245Y916546D01*
X74766936Y874524D01*
X74770123Y867872D01*
X74789275Y824636D01*
X74789280Y824627D01*
X74790871Y822656D01*
X74804529Y801699D01*
X74870484Y673931D01*
X74879111Y652543D01*
X74881269Y645316D01*
X74903456Y609290D01*
X74908055Y601149D01*
X74927468Y563544D01*
X74927472Y563538D01*
X74932556Y557951D01*
X74946422Y539525D01*
X75019055Y421589D01*
X75028370Y403194D01*
X75033545Y390442D01*
X75033549Y390434D01*
X75044846Y375489D01*
X75055336Y361609D01*
X75061992Y351874D01*
X75080943Y321103D01*
X75090951Y311648D01*
X75104712Y296287D01*
X75186783Y187711D01*
X75196409Y172887D01*
X75206686Y154277D01*
X75206690Y154272D01*
X75226569Y133621D01*
X75236150Y122402D01*
X75253430Y99541D01*
X75253432Y99539D01*
X75270201Y86478D01*
X75283335Y74651D01*
X75316793Y39895D01*
X75378628Y-24341D01*
X75387957Y-35228D01*
X75405950Y-58866D01*
X75405951Y-58867D01*
X75405953Y-58869D01*
X75421934Y-71230D01*
X75435396Y-83312D01*
X75449414Y-97874D01*
X75474864Y-113221D01*
X75486688Y-121319D01*
X75598748Y-207999D01*
X75599332Y-208451D01*
X75607766Y-215598D01*
X75635649Y-241448D01*
X75646140Y-246987D01*
X75664112Y-258559D01*
X75673496Y-265818D01*
X75696582Y-275486D01*
X75708571Y-280507D01*
X75718568Y-285228D01*
X75851038Y-355170D01*
X75858520Y-359459D01*
X75896049Y-382746D01*
X75901482Y-384388D01*
X75923496Y-393427D01*
X75928530Y-396085D01*
X75947912Y-400500D01*
X75965898Y-404597D01*
X76026891Y-438679D01*
X76059776Y-500326D01*
X76054111Y-569966D01*
X76031167Y-600000D01*
X66947798Y-600000D01*
X67113100Y-531500D01*
X67500000Y-330100D01*
X67663459Y-226000D01*
X68351911Y-226000D01*
X69531499Y-226000D01*
X69757498Y0D01*
X70320355Y0D01*
X70546355Y-226000D01*
X71794241Y-226000D01*
X72020240Y0D01*
X72583096Y0D01*
X72809096Y-226000D01*
X74056982Y-226000D01*
X74282982Y0D01*
X73433039Y849943D01*
X72583096Y0D01*
X72020240Y0D01*
X71170297Y849942D01*
X70320355Y0D01*
X69757498Y0D01*
X69175367Y582130D01*
X69142282Y539029D01*
X69138912Y534830D01*
X69131242Y525689D01*
X69127672Y521619D01*
X68824895Y191205D01*
X68821155Y187298D01*
X68812702Y178845D01*
X68808795Y175105D01*
X68478381Y-127672D01*
X68474311Y-131242D01*
X68465170Y-138912D01*
X68460971Y-142282D01*
X68351911Y-226000D01*
X67663459Y-226000D01*
X67867900Y-95800D01*
X68213900Y169800D01*
X68213903Y169802D01*
X68213923Y169819D01*
X68535498Y464497D01*
X68535502Y464501D01*
X68830180Y786076D01*
X68830206Y786108D01*
X68860924Y826124D01*
X68918176Y900707D01*
X69419646Y900707D01*
X70038926Y281427D01*
X70888870Y1131371D01*
X71451725Y1131371D01*
X72301668Y281428D01*
X73151611Y1131371D01*
X73714467Y1131371D01*
X74564410Y281428D01*
X74608341Y325359D01*
X74608103Y325679D01*
X74593224Y347085D01*
X74588813Y353895D01*
X74583748Y362307D01*
X74579795Y369387D01*
X74559145Y409385D01*
X74535543Y447713D01*
X74531520Y454753D01*
X74526929Y463432D01*
X74523372Y470724D01*
X74512716Y494514D01*
X74509646Y502016D01*
X74506227Y511218D01*
X74505580Y513148D01*
X74461812Y597935D01*
X74460757Y599436D01*
X74456313Y606211D01*
X74442737Y628460D01*
X74438737Y635527D01*
X74434183Y644224D01*
X74430661Y651520D01*
X74409529Y699220D01*
X74385599Y745583D01*
X74382114Y752914D01*
X74378191Y761915D01*
X74375198Y769446D01*
X74366366Y793972D01*
X74363868Y801692D01*
X74363362Y803450D01*
X74320720Y899723D01*
X74320572Y899974D01*
X74308050Y922839D01*
X74304390Y930075D01*
X74300247Y938976D01*
X74297066Y946440D01*
X74276123Y1000403D01*
X74252670Y1053359D01*
X74249628Y1060885D01*
X74246249Y1070100D01*
X74243710Y1077792D01*
X74236352Y1102803D01*
X74236278Y1103087D01*
X74193161Y1214201D01*
X74191584Y1217211D01*
X74180243Y1240677D01*
X74176955Y1248090D01*
X74173271Y1257187D01*
X74170475Y1264797D01*
X74152862Y1318054D01*
X74132565Y1370371D01*
X74129881Y1378020D01*
X74126936Y1387384D01*
X74124757Y1395198D01*
X74118579Y1420523D01*
X74117882Y1423845D01*
X74090314Y1507218D01*
X73714467Y1131371D01*
X73151611Y1131371D01*
X72301668Y1981313D01*
X71451725Y1131371D01*
X70888870Y1131371D01*
X70038927Y1981314D01*
X69974919Y1917306D01*
X69896897Y1729023D01*
X69894720Y1724076D01*
X69889675Y1713260D01*
X69887288Y1708422D01*
X69680379Y1310940D01*
X69677787Y1306214D01*
X69671819Y1295873D01*
X69669011Y1291244D01*
X69428281Y913250D01*
X69425278Y908754D01*
X69419646Y900707D01*
X68918176Y900707D01*
X69095800Y1132100D01*
X69281600Y1423845D01*
X69330095Y1499992D01*
X69330101Y1500002D01*
X69340538Y1520051D01*
X69509384Y1844414D01*
X69531498Y1886896D01*
X69534507Y1894156D01*
X69687246Y2262742D01*
X70320355Y2262742D01*
X71170297Y1412799D01*
X72020240Y2262742D01*
X71963182Y2319800D01*
X72696509Y2319800D01*
X72749161Y2192686D01*
X72749166Y2192676D01*
X72836291Y2062285D01*
X72836294Y2062281D01*
X72947181Y1951394D01*
X72947185Y1951391D01*
X73077576Y1864266D01*
X73077586Y1864261D01*
X73204699Y1811609D01*
X73204700Y1811609D01*
X73204700Y2319800D01*
X72696509Y2319800D01*
X71963182Y2319800D01*
X71170297Y3112684D01*
X70320355Y2262742D01*
X69687246Y2262742D01*
X69698500Y2289900D01*
X69829600Y2705900D01*
X69840023Y2752925D01*
X70247682Y2752925D01*
X70888870Y3394113D01*
X71451726Y3394113D01*
X72278700Y2567138D01*
X72278700Y2662355D01*
X72290145Y2734617D01*
X72287586Y2741769D01*
X72280220Y2816554D01*
X72280701Y2819800D01*
X72696509Y2819800D01*
X73204700Y2819800D01*
X73204700Y3327990D01*
X73204699Y3327990D01*
X73077590Y3275340D01*
X73077572Y3275330D01*
X72947189Y3188211D01*
X72947181Y3188205D01*
X72836294Y3077318D01*
X72836291Y3077314D01*
X72749166Y2946923D01*
X72749161Y2946913D01*
X72696509Y2819800D01*
X72280701Y2819800D01*
X72289062Y2876162D01*
X72385199Y3108255D01*
X72387665Y3113818D01*
X72390813Y3120474D01*
X72393547Y3125906D01*
X72402761Y3143146D01*
X72405765Y3148448D01*
X72409552Y3154766D01*
X72412807Y3159907D01*
X72510797Y3306559D01*
X72514302Y3311536D01*
X72518689Y3317451D01*
X72522432Y3322247D01*
X72534833Y3337358D01*
X72538810Y3341968D01*
X72543756Y3347425D01*
X72547952Y3351832D01*
X72672668Y3476548D01*
X72677075Y3480744D01*
X72682532Y3485690D01*
X72687142Y3489667D01*
X72702253Y3502068D01*
X72707049Y3505811D01*
X72712964Y3510198D01*
X72717941Y3513703D01*
X72864594Y3611693D01*
X72869735Y3614948D01*
X72876053Y3618735D01*
X72881355Y3621739D01*
X72898595Y3630953D01*
X72904033Y3633690D01*
X72909464Y3636258D01*
X72301668Y4244055D01*
X71451726Y3394113D01*
X70888870Y3394113D01*
X70393556Y3889424D01*
X70378361Y3540878D01*
X70378007Y3535470D01*
X70376962Y3523527D01*
X70376370Y3518130D01*
X70317806Y3073867D01*
X70316983Y3068524D01*
X70314910Y3056777D01*
X70313859Y3051493D01*
X70247682Y2752925D01*
X69840023Y2752925D01*
X69924000Y3131800D01*
X69927028Y3154766D01*
X69968510Y3469449D01*
X69981000Y3564200D01*
X69996832Y3927338D01*
X70000000Y3999992D01*
X70000000Y4000007D01*
X69984026Y4366384D01*
X69981000Y4435800D01*
X69963324Y4569893D01*
X70364765Y4569893D01*
X70376370Y4481871D01*
X70376962Y4476473D01*
X70377690Y4468146D01*
X71170297Y3675540D01*
X72020240Y4525483D01*
X72583096Y4525483D01*
X73362778Y3745800D01*
X73454516Y3745800D01*
X73315706Y4266611D01*
X73104378Y4976118D01*
X73086068Y5028455D01*
X72583096Y4525483D01*
X72020240Y4525483D01*
X71170297Y5375425D01*
X70364765Y4569893D01*
X69963324Y4569893D01*
X69924000Y4868200D01*
X69829600Y5294100D01*
X69698500Y5710100D01*
X69531500Y6113100D01*
X69416827Y6333392D01*
X69865522Y6333392D01*
X69887288Y6291579D01*
X69889675Y6286740D01*
X69894720Y6275924D01*
X69896897Y6270977D01*
X70068477Y5856922D01*
X70070443Y5851868D01*
X70074547Y5840594D01*
X70076293Y5835449D01*
X70210988Y5408039D01*
X70212495Y5402868D01*
X70215587Y5391331D01*
X70216876Y5386064D01*
X70289667Y5057651D01*
X70871016Y5639000D01*
X71469580Y5639000D01*
X72301668Y4806911D01*
X72940194Y5445437D01*
X72914404Y5519158D01*
X72736170Y5943844D01*
X72602484Y6205979D01*
X72577565Y6230898D01*
X72577048Y6230034D01*
X72573793Y6224893D01*
X72475803Y6078241D01*
X72472298Y6073264D01*
X72467911Y6067349D01*
X72464168Y6062553D01*
X72451767Y6047442D01*
X72447790Y6042832D01*
X72442844Y6037375D01*
X72438648Y6032968D01*
X72313932Y5908252D01*
X72309525Y5904056D01*
X72304068Y5899110D01*
X72299458Y5895133D01*
X72284347Y5882732D01*
X72279551Y5878989D01*
X72273636Y5874602D01*
X72268659Y5871097D01*
X72122007Y5773107D01*
X72116866Y5769852D01*
X72110548Y5766065D01*
X72105246Y5763061D01*
X72088006Y5753847D01*
X72082574Y5751113D01*
X72075918Y5747965D01*
X72070355Y5745499D01*
X71838262Y5649362D01*
X71778654Y5640520D01*
X71703869Y5647886D01*
X71696717Y5650445D01*
X71624455Y5639000D01*
X71469580Y5639000D01*
X70871016Y5639000D01*
X70888870Y5656854D01*
X70038927Y6506797D01*
X69865522Y6333392D01*
X69416827Y6333392D01*
X69330100Y6500000D01*
X69288704Y6565000D01*
X70773709Y6565000D01*
X70826361Y6437886D01*
X70826366Y6437876D01*
X70913491Y6307485D01*
X70913494Y6307481D01*
X71024381Y6196594D01*
X71024385Y6196591D01*
X71154776Y6109466D01*
X71154786Y6109461D01*
X71281899Y6056809D01*
X71281900Y6056809D01*
X71781900Y6056809D01*
X71909013Y6109461D01*
X71909023Y6109466D01*
X72039414Y6196591D01*
X72039418Y6196594D01*
X72150305Y6307481D01*
X72150308Y6307485D01*
X72237433Y6437876D01*
X72237438Y6437886D01*
X72290091Y6565000D01*
X71781900Y6565000D01*
X71781900Y6056809D01*
X71281900Y6056809D01*
X71281900Y6565000D01*
X70773709Y6565000D01*
X69288704Y6565000D01*
X69095800Y6867900D01*
X68830200Y7213900D01*
X68772579Y7276781D01*
X68758885Y7291725D01*
X68728106Y7354450D01*
X68736124Y7423858D01*
X68780395Y7477913D01*
X68846862Y7499452D01*
X68850306Y7499500D01*
X70915114Y7499500D01*
X70880091Y7464477D01*
G37*
%TD.AperFunction*%
%TA.AperFunction,Conductor*%
G36*
X78000000Y-600000D02*
G01*
X76444707Y-600000D01*
X76445976Y-582260D01*
X76487848Y-526327D01*
X76535795Y-504429D01*
X76540823Y-503335D01*
X76567186Y-500500D01*
X77877299Y-500500D01*
X78000000Y-500500D01*
X78000000Y-600000D01*
G37*
%TD.AperFunction*%
%TA.AperFunction,Conductor*%
G36*
X45279756Y2247644D02*
G01*
X45310284Y2184796D01*
X45312000Y2164236D01*
X45312000Y2127962D01*
X45292315Y2060923D01*
X45272693Y2039848D01*
X45273725Y2038817D01*
X45267452Y2032544D01*
X45181206Y1917335D01*
X45181202Y1917328D01*
X45130908Y1782482D01*
X45124501Y1722883D01*
X45124500Y1722864D01*
X45124500Y1333308D01*
X45104815Y1266269D01*
X45088181Y1245627D01*
X44386273Y543719D01*
X44324950Y510234D01*
X44298592Y507400D01*
X43429119Y507400D01*
X43462394Y514019D01*
X43474053Y517556D01*
X43601430Y570317D01*
X43593137Y579889D01*
X43583193Y649047D01*
X43612218Y712603D01*
X43637040Y734502D01*
X43707515Y781591D01*
X43818405Y892481D01*
X43818408Y892485D01*
X43905533Y1022876D01*
X43905538Y1022886D01*
X43958191Y1150000D01*
X42441809Y1150000D01*
X42494461Y1022886D01*
X42494466Y1022876D01*
X42581591Y892485D01*
X42581594Y892481D01*
X42692484Y781591D01*
X42762960Y734502D01*
X42807765Y680890D01*
X42816472Y611565D01*
X42797040Y570950D01*
X42925947Y517556D01*
X42937606Y514019D01*
X42970881Y507400D01*
X41723628Y507400D01*
X41725540Y513169D01*
X41678150Y527085D01*
X41632395Y579889D01*
X41621831Y644003D01*
X41624999Y675014D01*
X41625000Y675026D01*
X41625000Y950000D01*
X40661500Y950000D01*
X40594461Y969685D01*
X40548706Y1022489D01*
X40537500Y1074000D01*
X40537500Y1326000D01*
X40557185Y1393039D01*
X40609989Y1438794D01*
X40661500Y1450000D01*
X41624999Y1450000D01*
X41624999Y1724971D01*
X41624998Y1724979D01*
X41623061Y1743942D01*
X41635829Y1812635D01*
X41683709Y1863521D01*
X41729349Y1875340D01*
X41727465Y1881025D01*
X41754948Y1880381D01*
X41943449Y1912167D01*
X41992720Y1930574D01*
X41992724Y1930574D01*
X42122513Y1979063D01*
X42122521Y1979067D01*
X42122523Y1979068D01*
X42126249Y1981342D01*
X42184726Y1997778D01*
X42185603Y1999500D01*
X42498214Y1999500D01*
X42489603Y1990889D01*
X42481874Y1981471D01*
X42479608Y1978080D01*
X42523860Y1927011D01*
X42533804Y1857853D01*
X42514169Y1806610D01*
X42494465Y1777121D01*
X42494461Y1777113D01*
X42441809Y1650000D01*
X43958190Y1650000D01*
X43919791Y1742705D01*
X43912322Y1812174D01*
X43943597Y1874654D01*
X43976467Y1894156D01*
X43933788Y1958029D01*
X44056548Y1912166D01*
X44245050Y1880380D01*
X44274733Y1881075D01*
X44274734Y1881075D01*
X44431820Y1884758D01*
X44436161Y1884860D01*
X44529563Y1905151D01*
X44622967Y1925443D01*
X44622973Y1925445D01*
X44798705Y2000661D01*
X44798706Y2000661D01*
X44798709Y2000663D01*
X44957030Y2107797D01*
X45092203Y2242970D01*
X45092205Y2242973D01*
X45092383Y2243188D01*
X45092500Y2243267D01*
X45096382Y2247149D01*
X45097130Y2246400D01*
X45150247Y2282349D01*
X45220097Y2284010D01*
X45279756Y2247644D01*
G37*
%TD.AperFunction*%
%TA.AperFunction,Conductor*%
G36*
X52783902Y2273513D02*
G01*
X52820272Y2213856D01*
X52824500Y2181752D01*
X52824500Y2137320D01*
X52804815Y2070281D01*
X52774808Y2038051D01*
X52767454Y2032546D01*
X52681204Y1917331D01*
X52681204Y1917330D01*
X52681202Y1917328D01*
X52630908Y1782482D01*
X52624501Y1722883D01*
X52624500Y1722864D01*
X52624500Y1333307D01*
X52604815Y1266268D01*
X52588181Y1245626D01*
X51895773Y553219D01*
X51834450Y519734D01*
X51808092Y516900D01*
X50971891Y516900D01*
X50974053Y517556D01*
X51117951Y577160D01*
X51107355Y589389D01*
X51097411Y658547D01*
X51126436Y722103D01*
X51151258Y744002D01*
X51207515Y781591D01*
X51318405Y892481D01*
X51318408Y892485D01*
X51405533Y1022876D01*
X51405538Y1022886D01*
X51458191Y1150000D01*
X49941809Y1150000D01*
X49994461Y1022886D01*
X49994466Y1022876D01*
X50081591Y892485D01*
X50081594Y892481D01*
X50192484Y781591D01*
X50248742Y744002D01*
X50293547Y690390D01*
X50302254Y621065D01*
X50281380Y577436D01*
X50425947Y517556D01*
X50428109Y516900D01*
X49226777Y516900D01*
X49228495Y522086D01*
X49179121Y536585D01*
X49133366Y589389D01*
X49122802Y653501D01*
X49124999Y675009D01*
X49125000Y675026D01*
X49125000Y950000D01*
X48161500Y950000D01*
X48094461Y969685D01*
X48048706Y1022489D01*
X48037500Y1074000D01*
X48037500Y1326000D01*
X48057185Y1393039D01*
X48109989Y1438794D01*
X48161500Y1450000D01*
X49124999Y1450000D01*
X49124999Y1724971D01*
X49124998Y1724979D01*
X49123061Y1743942D01*
X49135829Y1812635D01*
X49183709Y1863521D01*
X49229349Y1875340D01*
X49227465Y1881025D01*
X49254948Y1880381D01*
X49443449Y1912167D01*
X49492720Y1930574D01*
X49492724Y1930574D01*
X49622513Y1979063D01*
X49622521Y1979067D01*
X49622523Y1979068D01*
X49626249Y1981342D01*
X49684726Y1997778D01*
X49685603Y1999500D01*
X49998214Y1999500D01*
X49989603Y1990889D01*
X49981874Y1981471D01*
X49979608Y1978080D01*
X50023860Y1927011D01*
X50033804Y1857853D01*
X50014169Y1806610D01*
X49994465Y1777121D01*
X49994461Y1777113D01*
X49941809Y1650000D01*
X51458190Y1650000D01*
X51419791Y1742705D01*
X51412322Y1812174D01*
X51443597Y1874654D01*
X51476467Y1894156D01*
X51433788Y1958029D01*
X51556548Y1912166D01*
X51745050Y1880380D01*
X51774733Y1881075D01*
X51774734Y1881075D01*
X51931820Y1884758D01*
X51936161Y1884860D01*
X52029563Y1905151D01*
X52122967Y1925443D01*
X52122973Y1925445D01*
X52298705Y2000661D01*
X52298706Y2000661D01*
X52298709Y2000663D01*
X52457030Y2107797D01*
X52592203Y2242970D01*
X52597803Y2251246D01*
X52651677Y2295736D01*
X52721052Y2304037D01*
X52783902Y2273513D01*
G37*
%TD.AperFunction*%
%TD*%
%TA.AperFunction,Conductor*%
%TO.N,GND*%
G36*
X35078940Y-24545185D02*
G01*
X35099582Y-24561819D01*
X35477281Y-24939518D01*
X35510766Y-25000841D01*
X35513600Y-25027199D01*
X35513600Y-25067775D01*
X35538247Y-25159756D01*
X35551117Y-25207788D01*
X35623588Y-25333311D01*
X35623590Y-25333313D01*
X35623591Y-25333315D01*
X35726085Y-25435809D01*
X35726086Y-25435810D01*
X35726088Y-25435811D01*
X35851611Y-25508282D01*
X35851612Y-25508282D01*
X35851615Y-25508284D01*
X35991625Y-25545800D01*
X35991628Y-25545800D01*
X36136572Y-25545800D01*
X36136575Y-25545800D01*
X36276585Y-25508284D01*
X36402115Y-25435809D01*
X36504609Y-25333315D01*
X36577084Y-25207785D01*
X36614600Y-25067775D01*
X36614600Y-24922825D01*
X36594702Y-24848565D01*
X36596365Y-24778721D01*
X36635527Y-24720858D01*
X36699755Y-24693353D01*
X36768657Y-24704939D01*
X36802158Y-24728795D01*
X43665181Y-31591818D01*
X43698666Y-31653141D01*
X43701500Y-31679499D01*
X43701500Y-38141225D01*
X43681815Y-38208264D01*
X43629011Y-38254019D01*
X43559853Y-38263963D01*
X43496297Y-38234938D01*
X43489752Y-38227519D01*
X43489237Y-38228035D01*
X43480603Y-38219401D01*
X43480601Y-38219400D01*
X43480601Y-38219399D01*
X43397740Y-38164034D01*
X43397739Y-38164033D01*
X43397735Y-38164032D01*
X43324677Y-38149500D01*
X43324674Y-38149500D01*
X41972800Y-38149500D01*
X41905761Y-38129815D01*
X41860006Y-38077011D01*
X41848800Y-38025500D01*
X41848800Y-35082199D01*
X41868485Y-35015160D01*
X41885119Y-34994518D01*
X42342819Y-34536819D01*
X42404142Y-34503334D01*
X42430500Y-34500500D01*
X42471072Y-34500500D01*
X42471075Y-34500500D01*
X42611085Y-34462984D01*
X42736615Y-34390509D01*
X42839109Y-34288015D01*
X42911584Y-34162485D01*
X42949100Y-34022475D01*
X42949100Y-33877525D01*
X42911584Y-33737515D01*
X42879424Y-33681813D01*
X42839111Y-33611988D01*
X42839106Y-33611982D01*
X42736617Y-33509493D01*
X42736611Y-33509488D01*
X42611088Y-33437017D01*
X42611089Y-33437017D01*
X42599606Y-33433940D01*
X42471075Y-33399500D01*
X42326125Y-33399500D01*
X42197593Y-33433940D01*
X42186111Y-33437017D01*
X42060588Y-33509488D01*
X42060582Y-33509493D01*
X41958093Y-33611982D01*
X41958088Y-33611988D01*
X41885617Y-33737511D01*
X41885616Y-33737515D01*
X41848100Y-33877525D01*
X41848100Y-33877527D01*
X41848100Y-33918100D01*
X41828415Y-33985139D01*
X41811781Y-34005781D01*
X41242738Y-34574825D01*
X41172826Y-34644736D01*
X41123391Y-34730359D01*
X41123391Y-34730360D01*
X41123390Y-34730362D01*
X41097800Y-34825865D01*
X41097800Y-38949435D01*
X41123390Y-39044938D01*
X41172825Y-39130562D01*
X41242738Y-39200475D01*
X41328362Y-39249910D01*
X41423865Y-39275500D01*
X41425500Y-39275500D01*
X41426827Y-39275889D01*
X41431925Y-39276561D01*
X41431820Y-39277355D01*
X41492539Y-39295185D01*
X41538294Y-39347989D01*
X41549500Y-39399500D01*
X41549500Y-39424678D01*
X41564032Y-39497735D01*
X41564033Y-39497739D01*
X41582405Y-39525235D01*
X41619399Y-39580601D01*
X41702259Y-39635965D01*
X41702260Y-39635966D01*
X41702264Y-39635967D01*
X41775321Y-39650499D01*
X41775324Y-39650500D01*
X41775326Y-39650500D01*
X43324676Y-39650500D01*
X43324677Y-39650499D01*
X43397740Y-39635966D01*
X43480601Y-39580601D01*
X43480603Y-39580597D01*
X43489237Y-39571965D01*
X43492246Y-39574974D01*
X43527951Y-39545104D01*
X43597272Y-39536360D01*
X43660315Y-39566483D01*
X43697065Y-39625907D01*
X43701500Y-39658774D01*
X43701500Y-40493636D01*
X43714277Y-40541323D01*
X43714291Y-40541373D01*
X43714295Y-40541386D01*
X43727090Y-40589138D01*
X43772909Y-40668499D01*
X43776526Y-40674763D01*
X43776527Y-40674764D01*
X43776529Y-40674767D01*
X45040734Y-41938971D01*
X46259025Y-43157262D01*
X46328938Y-43227175D01*
X46399845Y-43268113D01*
X46448060Y-43318681D01*
X46461282Y-43387288D01*
X46435314Y-43452153D01*
X46378399Y-43492680D01*
X46337844Y-43499500D01*
X26003067Y-43499500D01*
X25996980Y-43499351D01*
X25663086Y-43482941D01*
X25650976Y-43481747D01*
X25323311Y-43433135D01*
X25311377Y-43430761D01*
X24990081Y-43350275D01*
X24978436Y-43346743D01*
X24666552Y-43235145D01*
X24655310Y-43230488D01*
X24355875Y-43088862D01*
X24345149Y-43083129D01*
X24061027Y-42912830D01*
X24050916Y-42906074D01*
X23784844Y-42708740D01*
X23775460Y-42701038D01*
X23716770Y-42647844D01*
X41300000Y-42647844D01*
X41306401Y-42707372D01*
X41306403Y-42707379D01*
X41356645Y-42842086D01*
X41356649Y-42842093D01*
X41442809Y-42957187D01*
X41442812Y-42957190D01*
X41557906Y-43043350D01*
X41557913Y-43043354D01*
X41692620Y-43093596D01*
X41692627Y-43093598D01*
X41752155Y-43099999D01*
X41752172Y-43100000D01*
X42300000Y-43100000D01*
X42800000Y-43100000D01*
X43347828Y-43100000D01*
X43347844Y-43099999D01*
X43407372Y-43093598D01*
X43407379Y-43093596D01*
X43542086Y-43043354D01*
X43542093Y-43043350D01*
X43657187Y-42957190D01*
X43657190Y-42957187D01*
X43743350Y-42842093D01*
X43743354Y-42842086D01*
X43793596Y-42707379D01*
X43793598Y-42707372D01*
X43799999Y-42647844D01*
X43800000Y-42647827D01*
X43800000Y-42350000D01*
X42800000Y-42350000D01*
X42800000Y-43100000D01*
X42300000Y-43100000D01*
X42300000Y-42350000D01*
X41300000Y-42350000D01*
X41300000Y-42647844D01*
X23716770Y-42647844D01*
X23530013Y-42478577D01*
X23521422Y-42469986D01*
X23298951Y-42224528D01*
X23291261Y-42215158D01*
X23093921Y-41949078D01*
X23087168Y-41938971D01*
X23057282Y-41889110D01*
X22916866Y-41654843D01*
X22911143Y-41644137D01*
X22867637Y-41552155D01*
X41300000Y-41552155D01*
X41300000Y-41850000D01*
X42300000Y-41850000D01*
X42800000Y-41850000D01*
X43800000Y-41850000D01*
X43800000Y-41552172D01*
X43799999Y-41552155D01*
X43793598Y-41492627D01*
X43793596Y-41492620D01*
X43743354Y-41357913D01*
X43743350Y-41357906D01*
X43657190Y-41242812D01*
X43657187Y-41242809D01*
X43542093Y-41156649D01*
X43542086Y-41156645D01*
X43407379Y-41106403D01*
X43407372Y-41106401D01*
X43347844Y-41100000D01*
X42800000Y-41100000D01*
X42800000Y-41850000D01*
X42300000Y-41850000D01*
X42300000Y-41100000D01*
X41752155Y-41100000D01*
X41692627Y-41106401D01*
X41692620Y-41106403D01*
X41557913Y-41156645D01*
X41557906Y-41156649D01*
X41442812Y-41242809D01*
X41442809Y-41242812D01*
X41356649Y-41357906D01*
X41356645Y-41357913D01*
X41306403Y-41492620D01*
X41306401Y-41492627D01*
X41300000Y-41552155D01*
X22867637Y-41552155D01*
X22769509Y-41344686D01*
X22764854Y-41333447D01*
X22744197Y-41275718D01*
X22653256Y-41021563D01*
X22649724Y-41009918D01*
X22638391Y-40964677D01*
X22569236Y-40688612D01*
X22566864Y-40676688D01*
X22518252Y-40349023D01*
X22517059Y-40336931D01*
X22500649Y-40003019D01*
X22500500Y-39996932D01*
X22500500Y-30997274D01*
X22500503Y-30962049D01*
X22500511Y-30868920D01*
X22498306Y-30852158D01*
X22466302Y-30608920D01*
X22466300Y-30608911D01*
X22466300Y-30608909D01*
X22398440Y-30355589D01*
X22398438Y-30355584D01*
X22398435Y-30355575D01*
X22298096Y-30113304D01*
X22298089Y-30113289D01*
X22180425Y-29909476D01*
X22166973Y-29886174D01*
X22023726Y-29699485D01*
X21998533Y-29634315D01*
X22012572Y-29565871D01*
X22061387Y-29515882D01*
X22122103Y-29500000D01*
X25000000Y-29500000D01*
X25000000Y-24649500D01*
X25019685Y-24582461D01*
X25072489Y-24536706D01*
X25124000Y-24525500D01*
X35011901Y-24525500D01*
X35078940Y-24545185D01*
G37*
%TD.AperFunction*%
%TA.AperFunction,Conductor*%
G36*
X98001314Y-500528D02*
G01*
X98909856Y-519823D01*
X98915036Y-520043D01*
X99820672Y-577798D01*
X99825897Y-578244D01*
X100728204Y-674377D01*
X100733371Y-675038D01*
X101630849Y-809390D01*
X101635989Y-810272D01*
X102526925Y-982585D01*
X102532013Y-983681D01*
X103414879Y-1193663D01*
X103419886Y-1194967D01*
X104293000Y-1442216D01*
X104297995Y-1443746D01*
X105159862Y-1727838D01*
X105164749Y-1729565D01*
X105966215Y-2032029D01*
X106013726Y-2049959D01*
X106018610Y-2051921D01*
X106074175Y-2075631D01*
X106795220Y-2383307D01*
X106853211Y-2408052D01*
X106858005Y-2410218D01*
X107676770Y-2801464D01*
X107681433Y-2803815D01*
X108010218Y-2978436D01*
X108482827Y-3229443D01*
X108487422Y-3232010D01*
X109270039Y-3691270D01*
X109274515Y-3694026D01*
X109737913Y-3993100D01*
X110036932Y-4186085D01*
X110041293Y-4189033D01*
X110666315Y-4631088D01*
X110782124Y-4712995D01*
X110786353Y-4716123D01*
X111409430Y-5197740D01*
X111504283Y-5271058D01*
X111508378Y-5274365D01*
X112202124Y-5859281D01*
X112206067Y-5862751D01*
X112680019Y-6298078D01*
X112874352Y-6476574D01*
X112878152Y-6480216D01*
X113519783Y-7121847D01*
X113523425Y-7125647D01*
X113556086Y-7161206D01*
X114056849Y-7706400D01*
X114137240Y-7793923D01*
X114140718Y-7797875D01*
X114725634Y-8491621D01*
X114728941Y-8495716D01*
X115283874Y-9213643D01*
X115287004Y-9217875D01*
X115810966Y-9958706D01*
X115813914Y-9963067D01*
X116305969Y-10725477D01*
X116308729Y-10729960D01*
X116767989Y-11512577D01*
X116770556Y-11517172D01*
X117196174Y-12318547D01*
X117198544Y-12323247D01*
X117589779Y-13141991D01*
X117591947Y-13146788D01*
X117948078Y-13981389D01*
X117950040Y-13986273D01*
X118075792Y-14319488D01*
X118260033Y-14807690D01*
X118270420Y-14835212D01*
X118272170Y-14840165D01*
X118386868Y-15188129D01*
X118556247Y-15701985D01*
X118557788Y-15707018D01*
X118583299Y-15797105D01*
X118582626Y-15866971D01*
X118544286Y-15925383D01*
X118480454Y-15953793D01*
X118411394Y-15943183D01*
X118376310Y-15918572D01*
X113257263Y-10799526D01*
X113257262Y-10799525D01*
X113194582Y-10763337D01*
X113171640Y-10750091D01*
X113171639Y-10750090D01*
X113095206Y-10729610D01*
X113076136Y-10724500D01*
X113076135Y-10724500D01*
X113076134Y-10724500D01*
X113074500Y-10724500D01*
X113073170Y-10724109D01*
X113068077Y-10723439D01*
X113068181Y-10722644D01*
X113007461Y-10704815D01*
X112961706Y-10652011D01*
X112950500Y-10600500D01*
X112950500Y-10575323D01*
X112950499Y-10575321D01*
X112935967Y-10502264D01*
X112935966Y-10502260D01*
X112934463Y-10500010D01*
X112880601Y-10419399D01*
X112824139Y-10381673D01*
X112797739Y-10364033D01*
X112797735Y-10364032D01*
X112724677Y-10349500D01*
X112724674Y-10349500D01*
X111175326Y-10349500D01*
X111175323Y-10349500D01*
X111102264Y-10364032D01*
X111102260Y-10364033D01*
X111019399Y-10419399D01*
X110964033Y-10502260D01*
X110964032Y-10502264D01*
X110949500Y-10575321D01*
X110949500Y-11624678D01*
X110964032Y-11697735D01*
X110964033Y-11697739D01*
X110972361Y-11710203D01*
X111019399Y-11780601D01*
X111100837Y-11835015D01*
X111102260Y-11835966D01*
X111102264Y-11835967D01*
X111175321Y-11850499D01*
X111175324Y-11850500D01*
X111175326Y-11850500D01*
X112724676Y-11850500D01*
X112724677Y-11850499D01*
X112797740Y-11835966D01*
X112880601Y-11780601D01*
X112915082Y-11728994D01*
X112968694Y-11684189D01*
X113038019Y-11675480D01*
X113101046Y-11705634D01*
X113105866Y-11710203D01*
X117688181Y-16292518D01*
X117721666Y-16353841D01*
X117724500Y-16380199D01*
X117724500Y-23425500D01*
X117704815Y-23492539D01*
X117652011Y-23538294D01*
X117600500Y-23549500D01*
X117575323Y-23549500D01*
X117502264Y-23564032D01*
X117502260Y-23564033D01*
X117419399Y-23619399D01*
X117364033Y-23702260D01*
X117364032Y-23702264D01*
X117349500Y-23775321D01*
X117349500Y-25324678D01*
X117364032Y-25397735D01*
X117364033Y-25397739D01*
X117364034Y-25397740D01*
X117419399Y-25480601D01*
X117482913Y-25523039D01*
X117502260Y-25535966D01*
X117502264Y-25535967D01*
X117575321Y-25550499D01*
X117575324Y-25550500D01*
X117575326Y-25550500D01*
X118624676Y-25550500D01*
X118624677Y-25550499D01*
X118697740Y-25535966D01*
X118780601Y-25480601D01*
X118835966Y-25397740D01*
X118850500Y-25324674D01*
X118850500Y-23775326D01*
X118850500Y-23775323D01*
X118850499Y-23775321D01*
X118835967Y-23702264D01*
X118835966Y-23702260D01*
X118811471Y-23665600D01*
X118780601Y-23619399D01*
X118697740Y-23564034D01*
X118697739Y-23564033D01*
X118697735Y-23564032D01*
X118624677Y-23549500D01*
X118624674Y-23549500D01*
X118599500Y-23549500D01*
X118532461Y-23529815D01*
X118486706Y-23477011D01*
X118475500Y-23425500D01*
X118475500Y-16309414D01*
X118495185Y-16242375D01*
X118547989Y-16196620D01*
X118617147Y-16186676D01*
X118680703Y-16215701D01*
X118718477Y-16274479D01*
X118718798Y-16275593D01*
X118797737Y-16554353D01*
X118805020Y-16580069D01*
X118806344Y-16585153D01*
X118880353Y-16896323D01*
X119016311Y-17467957D01*
X119017420Y-17473103D01*
X119189723Y-18363986D01*
X119190613Y-18369174D01*
X119324957Y-19266601D01*
X119325625Y-19271822D01*
X119421754Y-20174092D01*
X119422201Y-20179337D01*
X119479954Y-21084924D01*
X119480177Y-21090183D01*
X119499472Y-21998677D01*
X119499500Y-22001310D01*
X119499500Y-39996932D01*
X119499351Y-40003019D01*
X119482941Y-40336913D01*
X119481747Y-40349023D01*
X119433135Y-40676688D01*
X119430761Y-40688622D01*
X119350275Y-41009918D01*
X119346743Y-41021563D01*
X119235145Y-41333447D01*
X119230488Y-41344689D01*
X119088862Y-41644124D01*
X119083126Y-41654856D01*
X118912831Y-41938971D01*
X118906071Y-41949088D01*
X118852986Y-42020664D01*
X118708747Y-42215145D01*
X118701034Y-42224544D01*
X118478584Y-42469979D01*
X118469979Y-42478584D01*
X118224544Y-42701034D01*
X118215145Y-42708747D01*
X118044635Y-42835207D01*
X117949088Y-42906071D01*
X117938971Y-42912831D01*
X117654856Y-43083126D01*
X117644124Y-43088862D01*
X117344689Y-43230488D01*
X117333447Y-43235145D01*
X117021563Y-43346743D01*
X117009918Y-43350275D01*
X116688622Y-43430761D01*
X116676688Y-43433135D01*
X116349023Y-43481747D01*
X116336913Y-43482941D01*
X116003020Y-43499351D01*
X115996933Y-43499500D01*
X103402696Y-43499500D01*
X103335657Y-43479815D01*
X103289902Y-43427011D01*
X103279958Y-43357853D01*
X103308983Y-43294297D01*
X103340691Y-43268115D01*
X103376962Y-43247175D01*
X103446875Y-43177262D01*
X103446874Y-43177262D01*
X103505443Y-43118693D01*
X103505442Y-43118693D01*
X116027175Y-30596963D01*
X116063752Y-30533608D01*
X116076610Y-30511338D01*
X116102200Y-30415835D01*
X116102200Y-30247844D01*
X117100000Y-30247844D01*
X117106401Y-30307372D01*
X117106403Y-30307379D01*
X117156645Y-30442086D01*
X117156649Y-30442093D01*
X117242809Y-30557187D01*
X117242812Y-30557190D01*
X117357906Y-30643350D01*
X117357913Y-30643354D01*
X117492620Y-30693596D01*
X117492627Y-30693598D01*
X117552155Y-30699999D01*
X117552172Y-30700000D01*
X117850000Y-30700000D01*
X118350000Y-30700000D01*
X118647828Y-30700000D01*
X118647844Y-30699999D01*
X118707372Y-30693598D01*
X118707379Y-30693596D01*
X118842086Y-30643354D01*
X118842093Y-30643350D01*
X118957187Y-30557190D01*
X118957190Y-30557187D01*
X119043350Y-30442093D01*
X119043354Y-30442086D01*
X119093596Y-30307379D01*
X119093598Y-30307372D01*
X119099999Y-30247844D01*
X119100000Y-30247827D01*
X119100000Y-29700000D01*
X118350000Y-29700000D01*
X118350000Y-30700000D01*
X117850000Y-30700000D01*
X117850000Y-29700000D01*
X117100000Y-29700000D01*
X117100000Y-30247844D01*
X116102200Y-30247844D01*
X116102200Y-28652155D01*
X117100000Y-28652155D01*
X117100000Y-29200000D01*
X117850000Y-29200000D01*
X118350000Y-29200000D01*
X119100000Y-29200000D01*
X119100000Y-28652172D01*
X119099999Y-28652155D01*
X119093598Y-28592627D01*
X119093596Y-28592620D01*
X119043354Y-28457913D01*
X119043350Y-28457906D01*
X118957190Y-28342812D01*
X118957187Y-28342809D01*
X118842093Y-28256649D01*
X118842086Y-28256645D01*
X118707379Y-28206403D01*
X118707372Y-28206401D01*
X118647844Y-28200000D01*
X118350000Y-28200000D01*
X118350000Y-29200000D01*
X117850000Y-29200000D01*
X117850000Y-28200000D01*
X117552155Y-28200000D01*
X117492627Y-28206401D01*
X117492620Y-28206403D01*
X117357913Y-28256645D01*
X117357906Y-28256649D01*
X117242812Y-28342809D01*
X117242809Y-28342812D01*
X117156649Y-28457906D01*
X117156645Y-28457913D01*
X117106403Y-28592620D01*
X117106401Y-28592627D01*
X117100000Y-28652155D01*
X116102200Y-28652155D01*
X116102200Y-28083786D01*
X116121885Y-28016747D01*
X116138519Y-27996105D01*
X116140109Y-27994515D01*
X116146609Y-27988015D01*
X116219084Y-27862485D01*
X116256600Y-27722475D01*
X116256600Y-27577525D01*
X116219084Y-27437515D01*
X116188690Y-27384872D01*
X116146611Y-27311988D01*
X116146606Y-27311982D01*
X116044117Y-27209493D01*
X116044111Y-27209488D01*
X115918588Y-27137017D01*
X115918589Y-27137017D01*
X115907106Y-27133940D01*
X115778575Y-27099500D01*
X115633625Y-27099500D01*
X115505093Y-27133940D01*
X115493611Y-27137017D01*
X115368088Y-27209488D01*
X115368082Y-27209493D01*
X115265593Y-27311982D01*
X115265588Y-27311988D01*
X115193117Y-27437511D01*
X115193116Y-27437515D01*
X115155600Y-27577525D01*
X115155600Y-27722475D01*
X115177048Y-27802519D01*
X115193117Y-27862488D01*
X115265588Y-27988011D01*
X115265593Y-27988017D01*
X115314881Y-28037305D01*
X115348366Y-28098628D01*
X115351200Y-28124986D01*
X115351200Y-28325500D01*
X115331515Y-28392539D01*
X115278711Y-28438294D01*
X115227200Y-28449500D01*
X114375323Y-28449500D01*
X114302264Y-28464032D01*
X114302260Y-28464033D01*
X114219399Y-28519399D01*
X114164033Y-28602260D01*
X114164032Y-28602264D01*
X114149500Y-28675321D01*
X114149500Y-30224678D01*
X114164032Y-30297735D01*
X114164033Y-30297739D01*
X114164034Y-30297740D01*
X114219399Y-30380601D01*
X114271005Y-30415082D01*
X114315810Y-30468692D01*
X114324519Y-30538017D01*
X114294365Y-30601045D01*
X114289796Y-30605865D01*
X103207482Y-41688181D01*
X103146159Y-41721666D01*
X103119801Y-41724500D01*
X86214499Y-41724500D01*
X86147460Y-41704815D01*
X86101705Y-41652011D01*
X86091761Y-41582853D01*
X86120786Y-41519297D01*
X86126818Y-41512819D01*
X89172098Y-38467539D01*
X92342574Y-35297063D01*
X92372792Y-35244724D01*
X92392010Y-35211438D01*
X92417600Y-35115935D01*
X92417600Y-31331086D01*
X92437285Y-31264047D01*
X92453919Y-31243405D01*
X92482609Y-31214715D01*
X92555084Y-31089185D01*
X92592600Y-30949175D01*
X92592600Y-30804225D01*
X92555084Y-30664215D01*
X92540053Y-30638181D01*
X92482611Y-30538688D01*
X92482606Y-30538682D01*
X92380117Y-30436193D01*
X92380111Y-30436188D01*
X92254588Y-30363717D01*
X92254589Y-30363717D01*
X92231357Y-30357492D01*
X92114575Y-30326200D01*
X91969625Y-30326200D01*
X91852843Y-30357492D01*
X91829611Y-30363717D01*
X91704088Y-30436188D01*
X91704082Y-30436193D01*
X91601593Y-30538682D01*
X91601588Y-30538688D01*
X91529117Y-30664211D01*
X91529116Y-30664215D01*
X91491600Y-30804225D01*
X91491600Y-30949175D01*
X91522868Y-31065868D01*
X91529117Y-31089188D01*
X91601588Y-31214711D01*
X91601593Y-31214717D01*
X91630281Y-31243405D01*
X91663766Y-31304728D01*
X91666600Y-31331086D01*
X91666600Y-34859600D01*
X91646915Y-34926639D01*
X91630281Y-34947281D01*
X87836680Y-38740882D01*
X87775357Y-38774367D01*
X87705665Y-38769383D01*
X87649732Y-38727511D01*
X87625315Y-38662047D01*
X87624999Y-38653201D01*
X87624999Y-38375028D01*
X87624998Y-38375013D01*
X87614505Y-38272302D01*
X87559358Y-38105880D01*
X87559356Y-38105875D01*
X87467315Y-37956654D01*
X87343345Y-37832684D01*
X87194124Y-37740643D01*
X87194119Y-37740641D01*
X87027697Y-37685494D01*
X87027690Y-37685493D01*
X86924986Y-37675000D01*
X86787500Y-37675000D01*
X86787500Y-38776000D01*
X86767815Y-38843039D01*
X86715011Y-38888794D01*
X86663500Y-38900000D01*
X86411500Y-38900000D01*
X86344461Y-38880315D01*
X86298706Y-38827511D01*
X86287500Y-38776000D01*
X86287500Y-37675000D01*
X86150027Y-37675000D01*
X86150012Y-37675001D01*
X86047302Y-37685494D01*
X86038499Y-37688411D01*
X85968670Y-37690809D01*
X85908630Y-37655075D01*
X85877440Y-37592553D01*
X85875500Y-37570703D01*
X85875500Y-34015399D01*
X85895185Y-33948360D01*
X85911819Y-33927718D01*
X92987618Y-26851919D01*
X93048941Y-26818434D01*
X93075299Y-26815600D01*
X93115872Y-26815600D01*
X93115875Y-26815600D01*
X93255885Y-26778084D01*
X93381415Y-26705609D01*
X93483909Y-26603115D01*
X93556384Y-26477585D01*
X93593900Y-26337575D01*
X93593900Y-26192625D01*
X93556384Y-26052615D01*
X93526426Y-26000727D01*
X93483911Y-25927088D01*
X93483906Y-25927082D01*
X93381417Y-25824593D01*
X93381411Y-25824588D01*
X93255888Y-25752117D01*
X93255889Y-25752117D01*
X93223226Y-25743365D01*
X93115875Y-25714600D01*
X92970925Y-25714600D01*
X92863574Y-25743365D01*
X92830911Y-25752117D01*
X92705388Y-25824588D01*
X92705382Y-25824593D01*
X92602893Y-25927082D01*
X92602888Y-25927088D01*
X92530417Y-26052611D01*
X92530416Y-26052615D01*
X92492900Y-26192625D01*
X92492900Y-26192627D01*
X92492900Y-26233201D01*
X92473215Y-26300240D01*
X92456581Y-26320882D01*
X85199526Y-33577936D01*
X85150089Y-33663562D01*
X85145200Y-33681812D01*
X85145200Y-33681813D01*
X85125993Y-33753494D01*
X85125992Y-33753495D01*
X85124500Y-33759062D01*
X85124500Y-37833257D01*
X85104815Y-37900296D01*
X85052011Y-37946051D01*
X84982853Y-37955995D01*
X84957168Y-37949439D01*
X84907488Y-37930910D01*
X84907484Y-37930909D01*
X84907483Y-37930909D01*
X84847873Y-37924500D01*
X84847863Y-37924500D01*
X84077129Y-37924500D01*
X84077123Y-37924501D01*
X84017516Y-37930908D01*
X83882671Y-37981202D01*
X83882664Y-37981206D01*
X83767455Y-38067452D01*
X83767452Y-38067455D01*
X83681207Y-38182663D01*
X83679973Y-38184924D01*
X83678150Y-38186746D01*
X83675888Y-38189769D01*
X83675453Y-38189443D01*
X83630569Y-38234331D01*
X83571139Y-38249500D01*
X83462065Y-38249500D01*
X83395026Y-38229815D01*
X83389375Y-38225261D01*
X83331731Y-38186746D01*
X83297740Y-38164034D01*
X83297738Y-38164033D01*
X83297735Y-38164032D01*
X83224677Y-38149500D01*
X83224674Y-38149500D01*
X81872800Y-38149500D01*
X81805761Y-38129815D01*
X81760006Y-38077011D01*
X81748800Y-38025500D01*
X81748800Y-36726022D01*
X81768485Y-36658983D01*
X81798486Y-36626758D01*
X81857546Y-36582546D01*
X81943796Y-36467331D01*
X81951180Y-36447532D01*
X81993050Y-36391598D01*
X82058514Y-36367179D01*
X82126787Y-36382029D01*
X82176194Y-36431433D01*
X82185069Y-36451859D01*
X82215641Y-36544119D01*
X82215643Y-36544124D01*
X82307684Y-36693345D01*
X82431654Y-36817315D01*
X82580875Y-36909356D01*
X82580880Y-36909358D01*
X82747302Y-36964505D01*
X82747309Y-36964506D01*
X82850019Y-36974999D01*
X82987499Y-36974999D01*
X83487500Y-36974999D01*
X83624972Y-36974999D01*
X83624986Y-36974998D01*
X83727697Y-36964505D01*
X83894119Y-36909358D01*
X83894124Y-36909356D01*
X84043345Y-36817315D01*
X84167315Y-36693345D01*
X84259356Y-36544124D01*
X84259358Y-36544119D01*
X84314505Y-36377697D01*
X84314506Y-36377690D01*
X84324999Y-36274986D01*
X84325000Y-36274973D01*
X84325000Y-36000000D01*
X83487500Y-36000000D01*
X83487500Y-36974999D01*
X82987499Y-36974999D01*
X82987500Y-36974998D01*
X82987500Y-35500000D01*
X83487500Y-35500000D01*
X84324999Y-35500000D01*
X84324999Y-35225028D01*
X84324998Y-35225013D01*
X84314505Y-35122302D01*
X84259358Y-34955880D01*
X84259356Y-34955875D01*
X84167315Y-34806654D01*
X84043345Y-34682684D01*
X83894124Y-34590643D01*
X83894119Y-34590641D01*
X83727697Y-34535494D01*
X83727690Y-34535493D01*
X83624986Y-34525000D01*
X83487500Y-34525000D01*
X83487500Y-35500000D01*
X82987500Y-35500000D01*
X82987500Y-34525000D01*
X82850027Y-34525000D01*
X82850012Y-34525001D01*
X82747302Y-34535494D01*
X82580880Y-34590641D01*
X82580875Y-34590643D01*
X82431654Y-34682684D01*
X82307684Y-34806654D01*
X82215643Y-34955875D01*
X82215642Y-34955878D01*
X82185069Y-35048141D01*
X82145296Y-35105585D01*
X82080780Y-35132408D01*
X82012004Y-35120093D01*
X81960804Y-35072549D01*
X81951181Y-35052468D01*
X81943798Y-35032673D01*
X81943793Y-35032664D01*
X81857547Y-34917455D01*
X81851276Y-34911184D01*
X81853466Y-34908993D01*
X81820804Y-34865332D01*
X81813000Y-34822037D01*
X81813000Y-28007962D01*
X81832685Y-27940923D01*
X81852306Y-27919848D01*
X81851275Y-27918817D01*
X81857542Y-27912548D01*
X81857546Y-27912546D01*
X81943796Y-27797331D01*
X81951180Y-27777532D01*
X81993050Y-27721598D01*
X82058514Y-27697179D01*
X82126787Y-27712029D01*
X82176194Y-27761433D01*
X82185069Y-27781859D01*
X82215641Y-27874119D01*
X82215643Y-27874124D01*
X82307684Y-28023345D01*
X82431654Y-28147315D01*
X82580875Y-28239356D01*
X82580880Y-28239358D01*
X82747302Y-28294505D01*
X82747309Y-28294506D01*
X82850019Y-28304999D01*
X82987499Y-28304999D01*
X83487500Y-28304999D01*
X83624972Y-28304999D01*
X83624986Y-28304998D01*
X83727697Y-28294505D01*
X83894119Y-28239358D01*
X83894124Y-28239356D01*
X84043345Y-28147315D01*
X84167315Y-28023345D01*
X84259356Y-27874124D01*
X84259358Y-27874119D01*
X84314505Y-27707697D01*
X84314506Y-27707690D01*
X84324999Y-27604986D01*
X84325000Y-27604973D01*
X84325000Y-27330000D01*
X83487500Y-27330000D01*
X83487500Y-28304999D01*
X82987499Y-28304999D01*
X82987500Y-28304998D01*
X82987500Y-26830000D01*
X83487500Y-26830000D01*
X84324999Y-26830000D01*
X84324999Y-26555028D01*
X84324998Y-26555013D01*
X84314505Y-26452302D01*
X84259358Y-26285880D01*
X84259356Y-26285875D01*
X84167315Y-26136654D01*
X84043345Y-26012684D01*
X83894124Y-25920643D01*
X83894119Y-25920641D01*
X83727697Y-25865494D01*
X83727690Y-25865493D01*
X83624986Y-25855000D01*
X83487500Y-25855000D01*
X83487500Y-26830000D01*
X82987500Y-26830000D01*
X82987500Y-26226308D01*
X83007185Y-26159269D01*
X83023819Y-26138627D01*
X83025792Y-26136654D01*
X83055177Y-26107269D01*
X83126365Y-26000727D01*
X83175401Y-25882344D01*
X83178609Y-25866218D01*
X83178753Y-25865494D01*
X83195870Y-25779446D01*
X83195870Y-25779445D01*
X83200399Y-25756673D01*
X83200400Y-25756671D01*
X83200400Y-20581900D01*
X83220085Y-20514861D01*
X83272889Y-20469106D01*
X83324400Y-20457900D01*
X84073171Y-20457900D01*
X84157715Y-20441082D01*
X84198844Y-20432901D01*
X84317227Y-20383865D01*
X84423769Y-20312677D01*
X88532477Y-16203969D01*
X88603666Y-16097426D01*
X88632389Y-16028079D01*
X88652701Y-15979044D01*
X88658837Y-15948199D01*
X88677700Y-15853371D01*
X88677700Y-13906400D01*
X88697385Y-13839361D01*
X88750189Y-13793606D01*
X88801700Y-13782400D01*
X105059145Y-13782400D01*
X105126184Y-13802085D01*
X105171939Y-13854889D01*
X105179821Y-13877880D01*
X105180908Y-13882483D01*
X105231202Y-14017328D01*
X105231206Y-14017335D01*
X105317452Y-14132544D01*
X105323725Y-14138817D01*
X105321529Y-14141012D01*
X105354178Y-14184619D01*
X105362000Y-14227962D01*
X105362000Y-14614070D01*
X105369053Y-14649526D01*
X105378500Y-14697016D01*
X105380841Y-14708785D01*
X105386999Y-14739744D01*
X105427567Y-14837685D01*
X105436035Y-14858127D01*
X105446965Y-14874485D01*
X105507226Y-14964673D01*
X105507227Y-14964674D01*
X112988181Y-22445627D01*
X113021666Y-22506950D01*
X113024500Y-22533308D01*
X113024500Y-22922870D01*
X113024501Y-22922876D01*
X113030908Y-22982483D01*
X113081202Y-23117328D01*
X113081206Y-23117335D01*
X113167452Y-23232544D01*
X113173725Y-23238817D01*
X113171529Y-23241012D01*
X113204178Y-23284619D01*
X113212000Y-23327962D01*
X113212000Y-23576569D01*
X113212000Y-23576571D01*
X113211999Y-23576571D01*
X113233834Y-23686334D01*
X113236998Y-23702239D01*
X113237000Y-23702246D01*
X113272319Y-23787515D01*
X113286035Y-23820627D01*
X113354085Y-23922472D01*
X113357226Y-23927173D01*
X113357227Y-23927174D01*
X114113181Y-24683127D01*
X114146666Y-24744450D01*
X114149500Y-24770808D01*
X114149500Y-25324678D01*
X114164032Y-25397735D01*
X114164033Y-25397739D01*
X114164034Y-25397740D01*
X114219399Y-25480601D01*
X114282913Y-25523039D01*
X114302260Y-25535966D01*
X114302264Y-25535967D01*
X114375321Y-25550499D01*
X114375324Y-25550500D01*
X114375326Y-25550500D01*
X115424676Y-25550500D01*
X115424677Y-25550499D01*
X115497740Y-25535966D01*
X115580601Y-25480601D01*
X115635966Y-25397740D01*
X115650500Y-25324674D01*
X115650500Y-23775326D01*
X115644628Y-23745806D01*
X115650854Y-23676217D01*
X115678565Y-23633933D01*
X115687499Y-23624999D01*
X116187500Y-23624999D01*
X116324972Y-23624999D01*
X116324986Y-23624998D01*
X116427697Y-23614505D01*
X116594119Y-23559358D01*
X116594124Y-23559356D01*
X116743345Y-23467315D01*
X116867315Y-23343345D01*
X116959356Y-23194124D01*
X116959358Y-23194119D01*
X117014505Y-23027697D01*
X117014506Y-23027690D01*
X117024999Y-22924986D01*
X117025000Y-22924973D01*
X117025000Y-22650000D01*
X116187500Y-22650000D01*
X116187500Y-23624999D01*
X115687499Y-23624999D01*
X115687500Y-23624998D01*
X115687500Y-22150000D01*
X116187500Y-22150000D01*
X117024999Y-22150000D01*
X117024999Y-21875028D01*
X117024998Y-21875013D01*
X117014505Y-21772302D01*
X116959358Y-21605880D01*
X116959356Y-21605875D01*
X116867315Y-21456654D01*
X116743345Y-21332684D01*
X116594124Y-21240643D01*
X116594119Y-21240641D01*
X116427697Y-21185494D01*
X116427690Y-21185493D01*
X116324986Y-21175000D01*
X116187500Y-21175000D01*
X116187500Y-22150000D01*
X115687500Y-22150000D01*
X115687500Y-21175000D01*
X115550027Y-21175000D01*
X115550012Y-21175001D01*
X115447302Y-21185494D01*
X115280880Y-21240641D01*
X115280875Y-21240643D01*
X115131654Y-21332684D01*
X115007684Y-21456654D01*
X114915643Y-21605875D01*
X114915642Y-21605878D01*
X114885069Y-21698141D01*
X114845296Y-21755585D01*
X114780780Y-21782408D01*
X114712004Y-21770093D01*
X114660804Y-21722549D01*
X114651181Y-21702468D01*
X114643798Y-21682673D01*
X114643793Y-21682664D01*
X114557547Y-21567455D01*
X114557544Y-21567452D01*
X114442335Y-21481206D01*
X114442328Y-21481202D01*
X114307482Y-21430908D01*
X114307483Y-21430908D01*
X114247883Y-21424501D01*
X114247881Y-21424500D01*
X114247873Y-21424500D01*
X114247865Y-21424500D01*
X113858308Y-21424500D01*
X113791269Y-21404815D01*
X113770627Y-21388181D01*
X106699319Y-14316873D01*
X106665834Y-14255550D01*
X106663000Y-14229192D01*
X106663000Y-14227962D01*
X106682685Y-14160923D01*
X106702306Y-14139848D01*
X106701275Y-14138817D01*
X106707542Y-14132548D01*
X106707546Y-14132546D01*
X106793796Y-14017331D01*
X106801180Y-13997532D01*
X106843050Y-13941598D01*
X106908514Y-13917179D01*
X106976787Y-13932029D01*
X107026194Y-13981433D01*
X107035069Y-14001859D01*
X107065641Y-14094119D01*
X107065643Y-14094124D01*
X107157684Y-14243345D01*
X107281654Y-14367315D01*
X107430875Y-14459356D01*
X107430880Y-14459358D01*
X107597302Y-14514505D01*
X107597309Y-14514506D01*
X107700019Y-14524999D01*
X107837499Y-14524999D01*
X108337500Y-14524999D01*
X108474972Y-14524999D01*
X108474986Y-14524998D01*
X108577697Y-14514505D01*
X108744119Y-14459358D01*
X108744124Y-14459356D01*
X108893345Y-14367315D01*
X109017315Y-14243345D01*
X109109356Y-14094124D01*
X109109358Y-14094119D01*
X109164505Y-13927697D01*
X109164506Y-13927690D01*
X109174999Y-13824986D01*
X109175000Y-13824973D01*
X109175000Y-13550000D01*
X108337500Y-13550000D01*
X108337500Y-14524999D01*
X107837499Y-14524999D01*
X107837500Y-14524998D01*
X107837500Y-13050000D01*
X108337500Y-13050000D01*
X109174999Y-13050000D01*
X109174999Y-12775028D01*
X109174998Y-12775013D01*
X109164505Y-12672302D01*
X109109358Y-12505880D01*
X109109356Y-12505875D01*
X109017315Y-12356654D01*
X108893345Y-12232684D01*
X108744124Y-12140643D01*
X108744119Y-12140641D01*
X108577697Y-12085494D01*
X108577690Y-12085493D01*
X108474986Y-12075000D01*
X108337500Y-12075000D01*
X108337500Y-13050000D01*
X107837500Y-13050000D01*
X107837500Y-12075000D01*
X107812158Y-12049658D01*
X107780756Y-11992147D01*
X107778674Y-11988335D01*
X107783658Y-11918643D01*
X107799162Y-11897932D01*
X107825530Y-11862709D01*
X107825543Y-11862703D01*
X107875649Y-11840360D01*
X107897740Y-11835966D01*
X107980601Y-11780601D01*
X108035966Y-11697740D01*
X108050500Y-11624674D01*
X108050500Y-10575326D01*
X108050500Y-10575323D01*
X108050499Y-10575321D01*
X108035967Y-10502264D01*
X108035966Y-10502260D01*
X108034463Y-10500010D01*
X107980601Y-10419399D01*
X107924139Y-10381673D01*
X107897739Y-10364033D01*
X107897735Y-10364032D01*
X107824677Y-10349500D01*
X107824674Y-10349500D01*
X106275326Y-10349500D01*
X106275323Y-10349500D01*
X106202264Y-10364032D01*
X106202260Y-10364034D01*
X106109244Y-10426184D01*
X106107254Y-10423206D01*
X106064293Y-10446666D01*
X106037935Y-10449500D01*
X105634229Y-10449500D01*
X105508561Y-10474497D01*
X105508555Y-10474499D01*
X105390175Y-10523533D01*
X105390166Y-10523538D01*
X105283631Y-10594723D01*
X105283627Y-10594726D01*
X105193026Y-10685327D01*
X105193023Y-10685331D01*
X105121838Y-10791866D01*
X105121833Y-10791875D01*
X105072799Y-10910255D01*
X105072797Y-10910261D01*
X105047800Y-11035928D01*
X105047800Y-12357400D01*
X105028115Y-12424439D01*
X104975311Y-12470194D01*
X104923800Y-12481400D01*
X102222299Y-12481400D01*
X102155260Y-12461715D01*
X102109505Y-12408911D01*
X102099561Y-12339753D01*
X102128586Y-12276197D01*
X102134618Y-12269719D01*
X104012739Y-10391598D01*
X105894135Y-8510201D01*
X105955456Y-8476718D01*
X106025148Y-8481702D01*
X106081081Y-8523574D01*
X106084916Y-8528993D01*
X106108379Y-8564109D01*
X106119399Y-8580601D01*
X106202260Y-8635966D01*
X106202264Y-8635967D01*
X106275321Y-8650499D01*
X106275324Y-8650500D01*
X106275326Y-8650500D01*
X107824676Y-8650500D01*
X107824677Y-8650499D01*
X107897740Y-8635966D01*
X107980601Y-8580601D01*
X108035966Y-8497740D01*
X108045891Y-8447844D01*
X110700000Y-8447844D01*
X110706401Y-8507372D01*
X110706403Y-8507379D01*
X110756645Y-8642086D01*
X110756649Y-8642093D01*
X110842809Y-8757187D01*
X110842812Y-8757190D01*
X110957906Y-8843350D01*
X110957913Y-8843354D01*
X111092620Y-8893596D01*
X111092627Y-8893598D01*
X111152155Y-8899999D01*
X111152172Y-8900000D01*
X111700000Y-8900000D01*
X112200000Y-8900000D01*
X112747828Y-8900000D01*
X112747844Y-8899999D01*
X112807372Y-8893598D01*
X112807379Y-8893596D01*
X112942086Y-8843354D01*
X112942093Y-8843350D01*
X113057187Y-8757190D01*
X113057190Y-8757187D01*
X113143350Y-8642093D01*
X113143354Y-8642086D01*
X113193596Y-8507379D01*
X113193598Y-8507372D01*
X113199999Y-8447844D01*
X113200000Y-8447827D01*
X113200000Y-8150000D01*
X112200000Y-8150000D01*
X112200000Y-8900000D01*
X111700000Y-8900000D01*
X111700000Y-8150000D01*
X110700000Y-8150000D01*
X110700000Y-8447844D01*
X108045891Y-8447844D01*
X108050500Y-8424674D01*
X108050500Y-7375326D01*
X108050047Y-7373048D01*
X108050047Y-7373045D01*
X108050046Y-7373042D01*
X108045891Y-7352155D01*
X110700000Y-7352155D01*
X110700000Y-7650000D01*
X111700000Y-7650000D01*
X112200000Y-7650000D01*
X113200000Y-7650000D01*
X113200000Y-7352172D01*
X113199999Y-7352155D01*
X113193598Y-7292627D01*
X113193596Y-7292620D01*
X113143354Y-7157913D01*
X113143350Y-7157906D01*
X113057190Y-7042812D01*
X113057187Y-7042809D01*
X112942093Y-6956649D01*
X112942086Y-6956645D01*
X112807379Y-6906403D01*
X112807372Y-6906401D01*
X112747844Y-6900000D01*
X112200000Y-6900000D01*
X112200000Y-7650000D01*
X111700000Y-7650000D01*
X111700000Y-6900000D01*
X111152155Y-6900000D01*
X111092627Y-6906401D01*
X111092620Y-6906403D01*
X110957913Y-6956645D01*
X110957906Y-6956649D01*
X110842812Y-7042809D01*
X110842809Y-7042812D01*
X110756649Y-7157906D01*
X110756645Y-7157913D01*
X110706403Y-7292620D01*
X110706401Y-7292627D01*
X110700000Y-7352155D01*
X108045891Y-7352155D01*
X108035967Y-7302264D01*
X108035966Y-7302260D01*
X107980601Y-7219399D01*
X107925235Y-7182405D01*
X107897739Y-7164033D01*
X107897735Y-7164032D01*
X107824677Y-7149500D01*
X107824674Y-7149500D01*
X106275326Y-7149500D01*
X106275323Y-7149500D01*
X106202264Y-7164032D01*
X106202260Y-7164033D01*
X106119399Y-7219399D01*
X106064033Y-7302260D01*
X106064032Y-7302264D01*
X106049500Y-7375321D01*
X106049500Y-7400500D01*
X106029815Y-7467539D01*
X105977011Y-7513294D01*
X105931880Y-7523111D01*
X105931924Y-7523439D01*
X105928005Y-7523954D01*
X105925500Y-7524500D01*
X105923864Y-7524500D01*
X105828361Y-7550089D01*
X105742738Y-7599525D01*
X105742735Y-7599527D01*
X101523882Y-11818381D01*
X101462559Y-11851866D01*
X101436201Y-11854700D01*
X101393786Y-11854700D01*
X101326747Y-11835015D01*
X101306105Y-11818381D01*
X101277417Y-11789693D01*
X101277411Y-11789688D01*
X101151888Y-11717217D01*
X101151889Y-11717217D01*
X101125712Y-11710203D01*
X101011875Y-11679700D01*
X100866925Y-11679700D01*
X100753088Y-11710203D01*
X100726911Y-11717217D01*
X100601388Y-11789688D01*
X100601382Y-11789693D01*
X100498893Y-11892182D01*
X100498888Y-11892188D01*
X100426417Y-12017711D01*
X100426416Y-12017715D01*
X100388900Y-12157725D01*
X100388900Y-12302675D01*
X100394412Y-12323247D01*
X100394964Y-12325305D01*
X100393302Y-12395155D01*
X100354141Y-12453018D01*
X100289913Y-12480523D01*
X100275190Y-12481400D01*
X88801700Y-12481400D01*
X88734661Y-12461715D01*
X88688906Y-12408911D01*
X88677700Y-12357400D01*
X88677700Y-12328128D01*
X88652702Y-12202461D01*
X88652701Y-12202460D01*
X88652701Y-12202456D01*
X88603665Y-12084073D01*
X88603664Y-12084072D01*
X88603660Y-12084064D01*
X88580849Y-12049926D01*
X88580847Y-12049924D01*
X88532477Y-11977531D01*
X88532475Y-11977529D01*
X88532473Y-11977526D01*
X84406573Y-7851626D01*
X84406569Y-7851623D01*
X84300027Y-7780435D01*
X84259958Y-7763838D01*
X84181646Y-7731400D01*
X84181644Y-7731399D01*
X84178702Y-7730813D01*
X84178698Y-7730811D01*
X84178698Y-7730813D01*
X84055971Y-7706400D01*
X84055969Y-7706400D01*
X83187000Y-7706400D01*
X83119961Y-7686715D01*
X83074206Y-7633911D01*
X83063000Y-7582400D01*
X83063000Y-2327962D01*
X83082685Y-2260923D01*
X83102306Y-2239848D01*
X83101275Y-2238817D01*
X83107542Y-2232548D01*
X83107546Y-2232546D01*
X83193796Y-2117331D01*
X83201180Y-2097532D01*
X83243050Y-2041598D01*
X83308514Y-2017179D01*
X83376787Y-2032029D01*
X83426194Y-2081433D01*
X83435069Y-2101859D01*
X83465641Y-2194119D01*
X83465643Y-2194124D01*
X83557684Y-2343345D01*
X83681654Y-2467315D01*
X83830875Y-2559356D01*
X83830880Y-2559358D01*
X83997302Y-2614505D01*
X83997309Y-2614506D01*
X84100019Y-2624999D01*
X84237499Y-2624999D01*
X84737500Y-2624999D01*
X84874972Y-2624999D01*
X84874986Y-2624998D01*
X84977697Y-2614505D01*
X85144119Y-2559358D01*
X85144124Y-2559356D01*
X85293345Y-2467315D01*
X85417315Y-2343345D01*
X85509356Y-2194124D01*
X85509358Y-2194119D01*
X85564505Y-2027697D01*
X85564506Y-2027690D01*
X85574999Y-1924986D01*
X85575000Y-1924973D01*
X85575000Y-1650000D01*
X84737500Y-1650000D01*
X84737500Y-2624999D01*
X84237499Y-2624999D01*
X84237500Y-2624998D01*
X84237500Y-1524000D01*
X84257185Y-1456961D01*
X84309989Y-1411206D01*
X84361500Y-1400000D01*
X84487500Y-1400000D01*
X84487500Y-1274000D01*
X84507185Y-1206961D01*
X84559989Y-1161206D01*
X84611500Y-1150000D01*
X85574999Y-1150000D01*
X85574999Y-875028D01*
X85574998Y-875013D01*
X85564505Y-772302D01*
X85528453Y-663504D01*
X85526051Y-593676D01*
X85561783Y-533634D01*
X85624303Y-502441D01*
X85646159Y-500500D01*
X97934104Y-500500D01*
X97998681Y-500500D01*
X98001314Y-500528D01*
G37*
%TD.AperFunction*%
%TA.AperFunction,Conductor*%
G36*
X76243039Y-41668185D02*
G01*
X76288794Y-41720989D01*
X76300000Y-41772500D01*
X76300000Y-41850000D01*
X78800000Y-41850000D01*
X78800000Y-41772500D01*
X78819685Y-41705461D01*
X78872489Y-41659706D01*
X78924000Y-41648500D01*
X81325500Y-41648500D01*
X81392539Y-41668185D01*
X81438294Y-41720989D01*
X81449500Y-41772500D01*
X81449500Y-42447200D01*
X81429815Y-42514239D01*
X81377011Y-42559994D01*
X81325500Y-42571200D01*
X78924000Y-42571200D01*
X78856961Y-42551515D01*
X78811206Y-42498711D01*
X78800000Y-42447200D01*
X78800000Y-42350000D01*
X76300000Y-42350000D01*
X76300000Y-42447200D01*
X76280315Y-42514239D01*
X76227511Y-42559994D01*
X76176000Y-42571200D01*
X74351299Y-42571200D01*
X74284260Y-42551515D01*
X74263618Y-42534881D01*
X73880416Y-42151679D01*
X73846931Y-42090356D01*
X73851915Y-42020664D01*
X73893787Y-41964731D01*
X73906086Y-41956617D01*
X74023015Y-41889109D01*
X74125509Y-41786615D01*
X74169454Y-41710499D01*
X74220021Y-41662284D01*
X74276841Y-41648500D01*
X76176000Y-41648500D01*
X76243039Y-41668185D01*
G37*
%TD.AperFunction*%
%TA.AperFunction,Conductor*%
G36*
X71844431Y-38242485D02*
G01*
X71865073Y-38259119D01*
X73038973Y-39433019D01*
X73072458Y-39494342D01*
X73067474Y-39564034D01*
X73025602Y-39619967D01*
X72960138Y-39644384D01*
X72951292Y-39644700D01*
X71535664Y-39644700D01*
X71440163Y-39670289D01*
X71440160Y-39670290D01*
X71354540Y-39719722D01*
X71354535Y-39719726D01*
X68559382Y-42514881D01*
X68498059Y-42548366D01*
X68471701Y-42551200D01*
X48574500Y-42551200D01*
X48507461Y-42531515D01*
X48461706Y-42478711D01*
X48450500Y-42427200D01*
X48450500Y-41575323D01*
X48450499Y-41575321D01*
X48435967Y-41502264D01*
X48435966Y-41502260D01*
X48429620Y-41492763D01*
X48380601Y-41419399D01*
X48297740Y-41364034D01*
X48297739Y-41364033D01*
X48297735Y-41364032D01*
X48224677Y-41349500D01*
X48224674Y-41349500D01*
X46675326Y-41349500D01*
X46675323Y-41349500D01*
X46602264Y-41364032D01*
X46602260Y-41364033D01*
X46519396Y-41419401D01*
X46510763Y-41428035D01*
X46508261Y-41425533D01*
X46470585Y-41457018D01*
X46401260Y-41465722D01*
X46338234Y-41435565D01*
X46301517Y-41376121D01*
X46297100Y-41343320D01*
X46297100Y-40205369D01*
X46316785Y-40138330D01*
X46369589Y-40092575D01*
X46438747Y-40082631D01*
X46453184Y-40085592D01*
X46467413Y-40089405D01*
X46515164Y-40102200D01*
X46515165Y-40102200D01*
X48093801Y-40102200D01*
X48160840Y-40121885D01*
X48181482Y-40138519D01*
X49722125Y-41679162D01*
X49792038Y-41749075D01*
X49857063Y-41786617D01*
X49877662Y-41798510D01*
X49925411Y-41811305D01*
X49925412Y-41811305D01*
X49935503Y-41814008D01*
X49973164Y-41824100D01*
X49973165Y-41824100D01*
X63980914Y-41824100D01*
X64047953Y-41843785D01*
X64068595Y-41860419D01*
X64097285Y-41889109D01*
X64097286Y-41889110D01*
X64097288Y-41889111D01*
X64222811Y-41961582D01*
X64222812Y-41961582D01*
X64222815Y-41961584D01*
X64362825Y-41999100D01*
X64362828Y-41999100D01*
X64507772Y-41999100D01*
X64507775Y-41999100D01*
X64647785Y-41961584D01*
X64773315Y-41889109D01*
X64875809Y-41786615D01*
X64948284Y-41661085D01*
X64985800Y-41521075D01*
X64985800Y-41376125D01*
X64948284Y-41236115D01*
X64924947Y-41195695D01*
X64875811Y-41110588D01*
X64875806Y-41110582D01*
X64773317Y-41008093D01*
X64773311Y-41008088D01*
X64647788Y-40935617D01*
X64647789Y-40935617D01*
X64636306Y-40932540D01*
X64507775Y-40898100D01*
X64362825Y-40898100D01*
X64234293Y-40932540D01*
X64222811Y-40935617D01*
X64097288Y-41008088D01*
X64097282Y-41008093D01*
X64068595Y-41036781D01*
X64007272Y-41070266D01*
X63980914Y-41073100D01*
X50229499Y-41073100D01*
X50162460Y-41053415D01*
X50141818Y-41036781D01*
X49192217Y-40087180D01*
X49158732Y-40025857D01*
X49163716Y-39956165D01*
X49205588Y-39900232D01*
X49271052Y-39875815D01*
X49279877Y-39875499D01*
X49847872Y-39875499D01*
X49907483Y-39869091D01*
X50042331Y-39818796D01*
X50157546Y-39732546D01*
X50243796Y-39617331D01*
X50251180Y-39597532D01*
X50293050Y-39541598D01*
X50358514Y-39517179D01*
X50426787Y-39532029D01*
X50476194Y-39581433D01*
X50485069Y-39601859D01*
X50515641Y-39694119D01*
X50515643Y-39694124D01*
X50607684Y-39843345D01*
X50731654Y-39967315D01*
X50880875Y-40059356D01*
X50880880Y-40059358D01*
X51047302Y-40114505D01*
X51047309Y-40114506D01*
X51150019Y-40124999D01*
X51287499Y-40124999D01*
X51787500Y-40124999D01*
X51924972Y-40124999D01*
X51924986Y-40124998D01*
X52027697Y-40114505D01*
X52194119Y-40059358D01*
X52194124Y-40059356D01*
X52343345Y-39967315D01*
X52467315Y-39843345D01*
X52559356Y-39694124D01*
X52559358Y-39694119D01*
X52614505Y-39527697D01*
X52614506Y-39527690D01*
X52624999Y-39424986D01*
X52625000Y-39424973D01*
X52625000Y-39150000D01*
X51787500Y-39150000D01*
X51787500Y-40124999D01*
X51287499Y-40124999D01*
X51287500Y-40124998D01*
X51287500Y-39024000D01*
X51307185Y-38956961D01*
X51359989Y-38911206D01*
X51411500Y-38900000D01*
X51537500Y-38900000D01*
X51537500Y-38774000D01*
X51557185Y-38706961D01*
X51609989Y-38661206D01*
X51661500Y-38650000D01*
X52624999Y-38650000D01*
X52624999Y-38375028D01*
X52624998Y-38375020D01*
X52623403Y-38359405D01*
X52636171Y-38290712D01*
X52684051Y-38239826D01*
X52746761Y-38222800D01*
X69000731Y-38222800D01*
X69128869Y-38222800D01*
X71777392Y-38222800D01*
X71844431Y-38242485D01*
G37*
%TD.AperFunction*%
%TA.AperFunction,Conductor*%
G36*
X72343203Y-26679686D02*
G01*
X72349669Y-26685707D01*
X72365533Y-26701571D01*
X72399018Y-26762893D01*
X72401310Y-26800827D01*
X72399500Y-26820130D01*
X72399500Y-27339867D01*
X72402385Y-27370639D01*
X72402385Y-27370641D01*
X72447736Y-27500243D01*
X72447737Y-27500245D01*
X72529275Y-27610725D01*
X72639755Y-27692263D01*
X72682957Y-27707380D01*
X72769359Y-27737614D01*
X72800132Y-27740500D01*
X72800136Y-27740500D01*
X73749868Y-27740500D01*
X73770380Y-27738576D01*
X73780639Y-27737614D01*
X73834995Y-27718593D01*
X73904769Y-27715031D01*
X73965398Y-27749758D01*
X73989945Y-27786843D01*
X74046431Y-27918817D01*
X74050665Y-27928708D01*
X74157799Y-28087029D01*
X74292971Y-28222201D01*
X74451292Y-28329335D01*
X74627033Y-28404554D01*
X74627036Y-28404554D01*
X74627037Y-28404555D01*
X74813833Y-28445137D01*
X74813838Y-28445138D01*
X75004948Y-28449619D01*
X75193449Y-28417833D01*
X75193452Y-28417832D01*
X75193455Y-28417831D01*
X75261153Y-28392539D01*
X75372523Y-28350932D01*
X75373257Y-28350483D01*
X75376246Y-28348660D01*
X75440851Y-28330500D01*
X76184108Y-28330500D01*
X77059148Y-28330500D01*
X77123745Y-28348655D01*
X77127474Y-28350931D01*
X77306548Y-28417834D01*
X77495050Y-28449620D01*
X77686161Y-28445140D01*
X77872966Y-28404557D01*
X78048709Y-28329337D01*
X78207030Y-28222203D01*
X78342203Y-28087030D01*
X78449337Y-27928709D01*
X78510056Y-27786843D01*
X78554531Y-27732959D01*
X78621079Y-27711673D01*
X78665007Y-27718594D01*
X78719361Y-27737614D01*
X78729619Y-27738576D01*
X78750132Y-27740500D01*
X78750136Y-27740500D01*
X79699868Y-27740500D01*
X79713541Y-27739217D01*
X79730639Y-27737614D01*
X79730753Y-27737573D01*
X79731087Y-27737458D01*
X79732285Y-27737254D01*
X79738010Y-27736004D01*
X79738068Y-27736271D01*
X79772039Y-27730500D01*
X80271139Y-27730500D01*
X80338178Y-27750185D01*
X80375637Y-27790418D01*
X80375888Y-27790231D01*
X80377635Y-27792565D01*
X80379973Y-27795076D01*
X80381207Y-27797336D01*
X80467452Y-27912544D01*
X80473725Y-27918817D01*
X80471529Y-27921012D01*
X80504178Y-27964619D01*
X80512000Y-28007962D01*
X80512000Y-34822037D01*
X80492315Y-34889076D01*
X80472696Y-34910156D01*
X80473724Y-34911184D01*
X80467452Y-34917455D01*
X80381207Y-35032663D01*
X80379973Y-35034924D01*
X80378150Y-35036746D01*
X80375888Y-35039769D01*
X80375453Y-35039443D01*
X80330569Y-35084331D01*
X80271139Y-35099500D01*
X79911362Y-35099500D01*
X79844323Y-35079815D01*
X79798568Y-35027011D01*
X79788624Y-34957853D01*
X79817649Y-34894297D01*
X79853420Y-34865870D01*
X79860242Y-34862264D01*
X79860245Y-34862263D01*
X79970725Y-34780725D01*
X80052263Y-34670245D01*
X80085652Y-34574825D01*
X80097614Y-34540641D01*
X80097614Y-34540639D01*
X80100500Y-34509867D01*
X80100500Y-33990132D01*
X80097614Y-33959360D01*
X80097614Y-33959358D01*
X80063600Y-33862156D01*
X80052263Y-33829755D01*
X79970725Y-33719275D01*
X79860245Y-33637737D01*
X79860243Y-33637736D01*
X79730640Y-33592385D01*
X79712922Y-33590724D01*
X79648013Y-33564866D01*
X79607389Y-33508021D01*
X79600500Y-33467266D01*
X79600500Y-32250567D01*
X79600500Y-32250565D01*
X79574910Y-32155062D01*
X79525475Y-32069438D01*
X79455562Y-31999525D01*
X78205563Y-30749526D01*
X78205562Y-30749525D01*
X78119940Y-30700091D01*
X78119939Y-30700090D01*
X78032993Y-30676793D01*
X78032993Y-30676792D01*
X78032990Y-30676792D01*
X78024437Y-30674500D01*
X78024436Y-30674500D01*
X78024435Y-30674500D01*
X76074435Y-30674500D01*
X74220886Y-30674500D01*
X74153847Y-30654815D01*
X74133205Y-30638181D01*
X74104517Y-30609493D01*
X74104511Y-30609488D01*
X73978988Y-30537017D01*
X73978989Y-30537017D01*
X73966240Y-30533601D01*
X73838975Y-30499500D01*
X73694025Y-30499500D01*
X73566760Y-30533601D01*
X73554011Y-30537017D01*
X73428488Y-30609488D01*
X73428482Y-30609493D01*
X73325993Y-30711982D01*
X73325988Y-30711988D01*
X73253517Y-30837511D01*
X73253516Y-30837515D01*
X73216000Y-30977525D01*
X73216000Y-31122475D01*
X73253516Y-31262485D01*
X73253517Y-31262488D01*
X73325988Y-31388011D01*
X73325990Y-31388013D01*
X73325991Y-31388015D01*
X73428485Y-31490509D01*
X73428486Y-31490510D01*
X73428488Y-31490511D01*
X73554011Y-31562982D01*
X73554012Y-31562982D01*
X73554015Y-31562984D01*
X73694025Y-31600500D01*
X73694028Y-31600500D01*
X73838972Y-31600500D01*
X73838975Y-31600500D01*
X73978985Y-31562984D01*
X74104515Y-31490509D01*
X74133205Y-31461819D01*
X74194528Y-31428334D01*
X74220886Y-31425500D01*
X75975565Y-31425500D01*
X77768101Y-31425500D01*
X77835140Y-31445185D01*
X77855782Y-31461819D01*
X78813181Y-32419218D01*
X78846666Y-32480541D01*
X78849500Y-32506899D01*
X78849500Y-33467266D01*
X78829815Y-33534305D01*
X78777011Y-33580060D01*
X78737078Y-33590724D01*
X78719360Y-33592385D01*
X78719359Y-33592385D01*
X78665004Y-33611405D01*
X78595225Y-33614966D01*
X78534599Y-33580236D01*
X78510054Y-33543155D01*
X78478907Y-33470383D01*
X78449335Y-33401292D01*
X78342201Y-33242971D01*
X78207029Y-33107799D01*
X78048708Y-33000665D01*
X78048705Y-33000663D01*
X78048704Y-33000663D01*
X77872962Y-32925444D01*
X77686166Y-32884862D01*
X77495052Y-32880381D01*
X77306547Y-32912167D01*
X77306544Y-32912168D01*
X77127481Y-32979065D01*
X77127478Y-32979067D01*
X77125526Y-32980258D01*
X77123748Y-32981343D01*
X77059149Y-32999500D01*
X75440851Y-32999500D01*
X75376249Y-32981342D01*
X75372523Y-32979068D01*
X75372522Y-32979067D01*
X75372521Y-32979067D01*
X75372513Y-32979063D01*
X75193455Y-32912168D01*
X75193452Y-32912167D01*
X75052073Y-32888327D01*
X75004948Y-32880381D01*
X75004947Y-32880381D01*
X74813833Y-32884862D01*
X74627037Y-32925444D01*
X74451295Y-33000663D01*
X74292974Y-33107796D01*
X74292966Y-33107803D01*
X74157803Y-33242966D01*
X74157791Y-33242981D01*
X74093296Y-33338290D01*
X74039422Y-33382780D01*
X73970047Y-33391081D01*
X73953710Y-33387182D01*
X73823009Y-33346454D01*
X73751977Y-33340000D01*
X73525000Y-33340000D01*
X73525000Y-34126000D01*
X73505315Y-34193039D01*
X73452511Y-34238794D01*
X73401000Y-34250000D01*
X73149000Y-34250000D01*
X73081961Y-34230315D01*
X73036206Y-34177511D01*
X73025000Y-34126000D01*
X73025000Y-33340000D01*
X72798023Y-33340000D01*
X72726985Y-33346455D01*
X72563536Y-33397387D01*
X72417016Y-33485962D01*
X72417015Y-33485963D01*
X72349681Y-33553298D01*
X72288358Y-33586783D01*
X72218666Y-33581799D01*
X72162733Y-33539927D01*
X72138316Y-33474463D01*
X72138000Y-33465617D01*
X72138000Y-26773399D01*
X72157685Y-26706360D01*
X72210489Y-26660605D01*
X72279647Y-26650661D01*
X72343203Y-26679686D01*
G37*
%TD.AperFunction*%
%TA.AperFunction,Conductor*%
G36*
X7605975Y-6520185D02*
G01*
X7651730Y-6572989D01*
X7661674Y-6642147D01*
X7632649Y-6705703D01*
X7626617Y-6712181D01*
X7619401Y-6719396D01*
X7564033Y-6802260D01*
X7564032Y-6802264D01*
X7549500Y-6875321D01*
X7549500Y-7924678D01*
X7564032Y-7997735D01*
X7564033Y-7997739D01*
X7579955Y-8021568D01*
X7619399Y-8080601D01*
X7674378Y-8117336D01*
X7702260Y-8135966D01*
X7702264Y-8135967D01*
X7775321Y-8150499D01*
X7775324Y-8150500D01*
X7775326Y-8150500D01*
X9127200Y-8150500D01*
X9194239Y-8170185D01*
X9239994Y-8222989D01*
X9251200Y-8274500D01*
X9251200Y-9476000D01*
X9231515Y-9543039D01*
X9178711Y-9588794D01*
X9127200Y-9600000D01*
X8800000Y-9600000D01*
X8800000Y-11600000D01*
X9347828Y-11600000D01*
X9347844Y-11599999D01*
X9407372Y-11593598D01*
X9407379Y-11593596D01*
X9542086Y-11543354D01*
X9542093Y-11543350D01*
X9657187Y-11457190D01*
X9657190Y-11457187D01*
X9743350Y-11342093D01*
X9743354Y-11342086D01*
X9793596Y-11207379D01*
X9793598Y-11207372D01*
X9799999Y-11147844D01*
X9800000Y-11147827D01*
X9800000Y-10961599D01*
X9819685Y-10894560D01*
X9872489Y-10848805D01*
X9941647Y-10838861D01*
X10005203Y-10867886D01*
X10011681Y-10873918D01*
X16905282Y-17767519D01*
X16938767Y-17828842D01*
X16933783Y-17898534D01*
X16891911Y-17954467D01*
X16826447Y-17978884D01*
X16817601Y-17979200D01*
X7551599Y-17979200D01*
X7484560Y-17959515D01*
X7463918Y-17942881D01*
X4786819Y-15265782D01*
X4753334Y-15204459D01*
X4750500Y-15178101D01*
X4750500Y-15137527D01*
X4750500Y-15137525D01*
X4712984Y-14997515D01*
X4711830Y-14995517D01*
X4640511Y-14871988D01*
X4640506Y-14871982D01*
X4538017Y-14769493D01*
X4538011Y-14769488D01*
X4412488Y-14697017D01*
X4412489Y-14697017D01*
X4364282Y-14684100D01*
X4272475Y-14659500D01*
X4127525Y-14659500D01*
X4035718Y-14684100D01*
X3987511Y-14697017D01*
X3861988Y-14769488D01*
X3861982Y-14769493D01*
X3759493Y-14871982D01*
X3759488Y-14871988D01*
X3687017Y-14997511D01*
X3687016Y-14997515D01*
X3649500Y-15137525D01*
X3649500Y-15282475D01*
X3685626Y-15417296D01*
X3687017Y-15422488D01*
X3759488Y-15548011D01*
X3759490Y-15548013D01*
X3759491Y-15548015D01*
X3861985Y-15650509D01*
X3861986Y-15650510D01*
X3861988Y-15650511D01*
X3987511Y-15722982D01*
X3987512Y-15722982D01*
X3987515Y-15722984D01*
X4127525Y-15760500D01*
X4168101Y-15760500D01*
X4235140Y-15780185D01*
X4255782Y-15796819D01*
X6678182Y-18219219D01*
X6711667Y-18280542D01*
X6706683Y-18350234D01*
X6664811Y-18406167D01*
X6599347Y-18430584D01*
X6590501Y-18430900D01*
X5634163Y-18430900D01*
X5614216Y-18436244D01*
X5614217Y-18436245D01*
X5538660Y-18456490D01*
X5538659Y-18456491D01*
X5453036Y-18505926D01*
X4255782Y-19703181D01*
X4194459Y-19736666D01*
X4168101Y-19739500D01*
X4127525Y-19739500D01*
X3998993Y-19773940D01*
X3987511Y-19777017D01*
X3861988Y-19849488D01*
X3861982Y-19849493D01*
X3759493Y-19951982D01*
X3759488Y-19951988D01*
X3687017Y-20077511D01*
X3687016Y-20077515D01*
X3649500Y-20217525D01*
X3649500Y-20362475D01*
X3676034Y-20461500D01*
X3687017Y-20502488D01*
X3759488Y-20628011D01*
X3759490Y-20628013D01*
X3759491Y-20628015D01*
X3861985Y-20730509D01*
X3861986Y-20730510D01*
X3861988Y-20730511D01*
X3987511Y-20802982D01*
X3987512Y-20802982D01*
X3987515Y-20802984D01*
X4127525Y-20840500D01*
X4127528Y-20840500D01*
X4272471Y-20840500D01*
X4272475Y-20840500D01*
X4411484Y-20803252D01*
X4481328Y-20804915D01*
X4539191Y-20844077D01*
X4566696Y-20908305D01*
X4555110Y-20977207D01*
X4531254Y-21010708D01*
X3287538Y-22254425D01*
X3217626Y-22324336D01*
X3168191Y-22409959D01*
X3168189Y-22409964D01*
X3155914Y-22455772D01*
X3155915Y-22455773D01*
X3145422Y-22494934D01*
X3145421Y-22494938D01*
X3142600Y-22505464D01*
X3142600Y-23367536D01*
X3147414Y-23385500D01*
X3147415Y-23385503D01*
X3168190Y-23463039D01*
X3168191Y-23463040D01*
X3217622Y-23548657D01*
X3217626Y-23548663D01*
X3613181Y-23944218D01*
X3646666Y-24005541D01*
X3649500Y-24031899D01*
X3649500Y-24072475D01*
X3687016Y-24212485D01*
X3745626Y-24314001D01*
X3762099Y-24381899D01*
X3739247Y-24447926D01*
X3684326Y-24491117D01*
X3638239Y-24500000D01*
X1000000Y-24500000D01*
X1000000Y-28851101D01*
X980315Y-28918140D01*
X927511Y-28963895D01*
X858353Y-28973839D01*
X835044Y-28968142D01*
X796470Y-28954644D01*
X786268Y-28948233D01*
X777999Y-28946435D01*
X771453Y-28942596D01*
X700402Y-28897951D01*
X678694Y-28880639D01*
X619360Y-28821305D01*
X602048Y-28799597D01*
X580435Y-28765200D01*
X557401Y-28728543D01*
X545355Y-28703528D01*
X535486Y-28675326D01*
X517639Y-28624324D01*
X511461Y-28597255D01*
X510939Y-28592627D01*
X504404Y-28534637D01*
X501280Y-28506908D01*
X500500Y-28493023D01*
X500500Y-11147844D01*
X7300000Y-11147844D01*
X7306401Y-11207372D01*
X7306403Y-11207379D01*
X7356645Y-11342086D01*
X7356649Y-11342093D01*
X7442809Y-11457187D01*
X7442812Y-11457190D01*
X7557906Y-11543350D01*
X7557913Y-11543354D01*
X7692620Y-11593596D01*
X7692627Y-11593598D01*
X7752155Y-11599999D01*
X7752172Y-11600000D01*
X8300000Y-11600000D01*
X8300000Y-10850000D01*
X7300000Y-10850000D01*
X7300000Y-11147844D01*
X500500Y-11147844D01*
X500500Y-10052155D01*
X7300000Y-10052155D01*
X7300000Y-10350000D01*
X8300000Y-10350000D01*
X8300000Y-9600000D01*
X7752155Y-9600000D01*
X7692627Y-9606401D01*
X7692620Y-9606403D01*
X7557913Y-9656645D01*
X7557906Y-9656649D01*
X7442812Y-9742809D01*
X7442809Y-9742812D01*
X7356649Y-9857906D01*
X7356645Y-9857913D01*
X7306403Y-9992620D01*
X7306401Y-9992627D01*
X7300000Y-10052155D01*
X500500Y-10052155D01*
X500500Y-7006976D01*
X501280Y-6993091D01*
X505909Y-6952011D01*
X511461Y-6902741D01*
X515440Y-6891371D01*
X515354Y-6882909D01*
X517640Y-6875674D01*
X517764Y-6875321D01*
X545356Y-6796466D01*
X557399Y-6771459D01*
X602052Y-6700396D01*
X619356Y-6678698D01*
X678698Y-6619356D01*
X700396Y-6602052D01*
X771459Y-6557399D01*
X796466Y-6545356D01*
X875677Y-6517639D01*
X902739Y-6511461D01*
X970274Y-6503851D01*
X993092Y-6501280D01*
X1006977Y-6500500D01*
X7538936Y-6500500D01*
X7605975Y-6520185D01*
G37*
%TD.AperFunction*%
%TA.AperFunction,Conductor*%
G36*
X78665007Y-19058594D02*
G01*
X78719361Y-19077614D01*
X78729619Y-19078576D01*
X78750132Y-19080500D01*
X78750136Y-19080500D01*
X79699868Y-19080500D01*
X79713541Y-19079217D01*
X79730639Y-19077614D01*
X79730753Y-19077573D01*
X79731087Y-19077458D01*
X79732285Y-19077254D01*
X79738010Y-19076004D01*
X79738068Y-19076271D01*
X79772039Y-19070500D01*
X80271139Y-19070500D01*
X80338178Y-19090185D01*
X80375637Y-19130418D01*
X80375888Y-19130231D01*
X80377635Y-19132565D01*
X80379973Y-19135076D01*
X80381207Y-19137336D01*
X80467452Y-19252544D01*
X80467455Y-19252547D01*
X80582664Y-19338793D01*
X80582671Y-19338797D01*
X80627618Y-19355561D01*
X80717517Y-19389091D01*
X80777127Y-19395500D01*
X81166691Y-19395499D01*
X81233730Y-19415183D01*
X81254372Y-19431818D01*
X81863081Y-20040527D01*
X81896566Y-20101850D01*
X81899400Y-20128208D01*
X81899400Y-25371791D01*
X81879715Y-25438830D01*
X81863081Y-25459472D01*
X81254371Y-26068181D01*
X81193048Y-26101666D01*
X81166690Y-26104500D01*
X80777129Y-26104500D01*
X80777123Y-26104501D01*
X80717516Y-26110908D01*
X80582671Y-26161202D01*
X80582664Y-26161206D01*
X80467455Y-26247452D01*
X80467452Y-26247455D01*
X80381207Y-26362663D01*
X80379973Y-26364924D01*
X80378150Y-26366746D01*
X80375888Y-26369769D01*
X80375453Y-26369443D01*
X80330569Y-26414331D01*
X80271139Y-26429500D01*
X79911362Y-26429500D01*
X79844323Y-26409815D01*
X79798568Y-26357011D01*
X79788624Y-26287853D01*
X79817649Y-26224297D01*
X79853420Y-26195870D01*
X79860242Y-26192264D01*
X79860245Y-26192263D01*
X79970725Y-26110725D01*
X80052263Y-26000245D01*
X80083393Y-25911281D01*
X80097614Y-25870641D01*
X80097614Y-25870639D01*
X80100500Y-25839867D01*
X80100500Y-25320132D01*
X80097614Y-25289360D01*
X80097614Y-25289358D01*
X80052263Y-25159756D01*
X80052263Y-25159755D01*
X79970725Y-25049275D01*
X79860245Y-24967737D01*
X79860243Y-24967736D01*
X79730640Y-24922385D01*
X79712922Y-24920724D01*
X79648013Y-24894866D01*
X79607389Y-24838021D01*
X79600500Y-24797266D01*
X79600500Y-23550566D01*
X79599990Y-23548663D01*
X79580625Y-23476391D01*
X79574910Y-23455062D01*
X79525475Y-23369438D01*
X79455562Y-23299525D01*
X78205563Y-22049526D01*
X78205562Y-22049525D01*
X78119940Y-22000091D01*
X78119939Y-22000090D01*
X78032993Y-21976793D01*
X78032993Y-21976792D01*
X78032990Y-21976792D01*
X78024437Y-21974500D01*
X78024436Y-21974500D01*
X78024435Y-21974500D01*
X76044435Y-21974500D01*
X74217186Y-21974500D01*
X74150147Y-21954815D01*
X74129505Y-21938181D01*
X74100817Y-21909493D01*
X74100811Y-21909488D01*
X73975288Y-21837017D01*
X73975289Y-21837017D01*
X73963806Y-21833940D01*
X73835275Y-21799500D01*
X73690325Y-21799500D01*
X73561793Y-21833940D01*
X73550311Y-21837017D01*
X73424788Y-21909488D01*
X73424782Y-21909493D01*
X73322293Y-22011982D01*
X73322288Y-22011988D01*
X73249817Y-22137511D01*
X73249816Y-22137515D01*
X73212300Y-22277525D01*
X73212300Y-22422475D01*
X73241998Y-22533308D01*
X73249817Y-22562488D01*
X73296379Y-22643134D01*
X73322291Y-22688015D01*
X73424785Y-22790509D01*
X73424786Y-22790510D01*
X73424788Y-22790511D01*
X73550311Y-22862982D01*
X73550312Y-22862982D01*
X73550315Y-22862984D01*
X73690325Y-22900500D01*
X73690328Y-22900500D01*
X73835272Y-22900500D01*
X73835275Y-22900500D01*
X73975285Y-22862984D01*
X74100815Y-22790509D01*
X74129505Y-22761819D01*
X74190828Y-22728334D01*
X74217186Y-22725500D01*
X75945565Y-22725500D01*
X77768101Y-22725500D01*
X77835140Y-22745185D01*
X77855782Y-22761819D01*
X78813181Y-23719218D01*
X78846666Y-23780541D01*
X78849500Y-23806899D01*
X78849500Y-24797266D01*
X78829815Y-24864305D01*
X78777011Y-24910060D01*
X78737078Y-24920724D01*
X78719360Y-24922385D01*
X78719359Y-24922385D01*
X78665004Y-24941405D01*
X78595225Y-24944966D01*
X78534599Y-24910236D01*
X78510054Y-24873155D01*
X78489910Y-24826091D01*
X78449335Y-24731292D01*
X78342201Y-24572971D01*
X78207029Y-24437799D01*
X78195332Y-24429884D01*
X78151909Y-24400500D01*
X78048708Y-24330665D01*
X78048705Y-24330663D01*
X78048704Y-24330663D01*
X77872962Y-24255444D01*
X77686166Y-24214862D01*
X77495052Y-24210381D01*
X77306547Y-24242167D01*
X77306544Y-24242168D01*
X77127481Y-24309065D01*
X77127478Y-24309067D01*
X77125526Y-24310258D01*
X77123748Y-24311343D01*
X77059149Y-24329500D01*
X75440851Y-24329500D01*
X75376249Y-24311342D01*
X75372523Y-24309068D01*
X75372522Y-24309067D01*
X75372521Y-24309067D01*
X75372513Y-24309063D01*
X75193455Y-24242168D01*
X75193452Y-24242167D01*
X75052073Y-24218327D01*
X75004948Y-24210381D01*
X75004947Y-24210381D01*
X74813833Y-24214862D01*
X74627037Y-24255444D01*
X74451295Y-24330663D01*
X74292974Y-24437796D01*
X74292966Y-24437803D01*
X74157803Y-24572966D01*
X74157791Y-24572981D01*
X74093296Y-24668290D01*
X74039422Y-24712780D01*
X73970047Y-24721081D01*
X73953710Y-24717182D01*
X73823009Y-24676454D01*
X73751977Y-24670000D01*
X73525000Y-24670000D01*
X73525000Y-25456000D01*
X73505315Y-25523039D01*
X73452511Y-25568794D01*
X73401000Y-25580000D01*
X73149000Y-25580000D01*
X73081961Y-25560315D01*
X73036206Y-25507511D01*
X73025000Y-25456000D01*
X73025000Y-24670000D01*
X72798022Y-24670000D01*
X72792321Y-24670518D01*
X72723775Y-24656981D01*
X72673430Y-24608534D01*
X72657100Y-24547027D01*
X72657100Y-23083299D01*
X72676785Y-23016260D01*
X72693419Y-22995618D01*
X72775815Y-22913222D01*
X72864774Y-22824263D01*
X72864775Y-22824262D01*
X72914210Y-22738638D01*
X72923623Y-22703509D01*
X72927774Y-22688016D01*
X72927774Y-22688015D01*
X72939800Y-22643136D01*
X72939800Y-22544264D01*
X72939800Y-22065888D01*
X72939805Y-22025107D01*
X72939805Y-22025106D01*
X72939803Y-22025091D01*
X72939800Y-22025073D01*
X72939800Y-22025065D01*
X72939140Y-22022602D01*
X72939192Y-22020375D01*
X72938821Y-22017503D01*
X72938768Y-22017230D01*
X72938726Y-22016909D01*
X72939276Y-22016836D01*
X72940799Y-21952755D01*
X72979959Y-21894890D01*
X73026814Y-21870732D01*
X73060585Y-21861684D01*
X73186115Y-21789209D01*
X73288609Y-21686715D01*
X73361084Y-21561185D01*
X73398600Y-21421175D01*
X73398600Y-21380599D01*
X73418285Y-21313560D01*
X73434913Y-21292923D01*
X73575475Y-21152363D01*
X73624911Y-21066737D01*
X73650500Y-20971236D01*
X73650500Y-20872364D01*
X73650500Y-19202733D01*
X73654094Y-19190490D01*
X73653038Y-19177775D01*
X73663751Y-19157604D01*
X73670185Y-19135694D01*
X73679826Y-19127339D01*
X73685812Y-19116070D01*
X73705731Y-19104892D01*
X73722989Y-19089939D01*
X73740909Y-19085153D01*
X73746745Y-19081879D01*
X73751993Y-19082193D01*
X73762921Y-19079275D01*
X73780639Y-19077614D01*
X73834995Y-19058593D01*
X73904769Y-19055031D01*
X73965398Y-19089758D01*
X73989945Y-19126843D01*
X74043746Y-19252544D01*
X74050665Y-19268708D01*
X74126379Y-19380598D01*
X74130781Y-19387103D01*
X74157799Y-19427029D01*
X74292971Y-19562201D01*
X74451292Y-19669335D01*
X74627033Y-19744554D01*
X74627036Y-19744554D01*
X74627037Y-19744555D01*
X74813833Y-19785137D01*
X74813838Y-19785138D01*
X75004948Y-19789619D01*
X75193449Y-19757833D01*
X75193452Y-19757832D01*
X75193455Y-19757831D01*
X75250107Y-19736666D01*
X75372523Y-19690932D01*
X75373257Y-19690483D01*
X75376246Y-19688660D01*
X75440851Y-19670500D01*
X76184108Y-19670500D01*
X77059148Y-19670500D01*
X77123745Y-19688655D01*
X77127474Y-19690931D01*
X77306548Y-19757834D01*
X77495050Y-19789620D01*
X77686161Y-19785140D01*
X77872966Y-19744557D01*
X78048709Y-19669337D01*
X78207030Y-19562203D01*
X78342203Y-19427030D01*
X78449337Y-19268709D01*
X78510056Y-19126843D01*
X78554531Y-19072959D01*
X78621079Y-19051673D01*
X78665007Y-19058594D01*
G37*
%TD.AperFunction*%
%TA.AperFunction,Conductor*%
G36*
X66942539Y-16423585D02*
G01*
X66988294Y-16476389D01*
X66999500Y-16527900D01*
X66999500Y-16598541D01*
X66999500Y-16598543D01*
X66999499Y-16598543D01*
X67037947Y-16791829D01*
X67037950Y-16791839D01*
X67113364Y-16973907D01*
X67113371Y-16973920D01*
X67222860Y-17137781D01*
X67222863Y-17137785D01*
X67362214Y-17277136D01*
X67362218Y-17277139D01*
X67526079Y-17386628D01*
X67526092Y-17386635D01*
X67681268Y-17450910D01*
X67708165Y-17462051D01*
X67708169Y-17462051D01*
X67708170Y-17462052D01*
X67901456Y-17500500D01*
X67901459Y-17500500D01*
X68098543Y-17500500D01*
X68249274Y-17470517D01*
X68291835Y-17462051D01*
X68473914Y-17386632D01*
X68637782Y-17277139D01*
X68777139Y-17137782D01*
X68886632Y-16973914D01*
X68904039Y-16931888D01*
X68947879Y-16877486D01*
X69014173Y-16855421D01*
X69081872Y-16872700D01*
X69129483Y-16923836D01*
X69142600Y-16979342D01*
X69142600Y-20183515D01*
X69122915Y-20250554D01*
X69070111Y-20296309D01*
X69054478Y-20299072D01*
X68353553Y-20999999D01*
X68353553Y-21000000D01*
X69051863Y-21698310D01*
X69089664Y-21706250D01*
X69118700Y-21727824D01*
X69180085Y-21789209D01*
X69180086Y-21789210D01*
X69180088Y-21789211D01*
X69305611Y-21861682D01*
X69305612Y-21861682D01*
X69305615Y-21861684D01*
X69445625Y-21899200D01*
X69445628Y-21899200D01*
X69590573Y-21899200D01*
X69590575Y-21899200D01*
X69632306Y-21888018D01*
X69702155Y-21889680D01*
X69760018Y-21928841D01*
X69787523Y-21993070D01*
X69788400Y-22007792D01*
X69788400Y-24129092D01*
X69768715Y-24196131D01*
X69715911Y-24241886D01*
X69646753Y-24251830D01*
X69583197Y-24222805D01*
X69576719Y-24216773D01*
X67821627Y-22461681D01*
X67788142Y-22400358D01*
X67793126Y-22330666D01*
X67834998Y-22274733D01*
X67900462Y-22250316D01*
X67909308Y-22250000D01*
X68098382Y-22250000D01*
X68292705Y-22219221D01*
X68479835Y-22158418D01*
X68655143Y-22069095D01*
X68690125Y-22043678D01*
X68690126Y-22043678D01*
X67823223Y-21176777D01*
X66956320Y-20309872D01*
X66956320Y-20309873D01*
X66930902Y-20344859D01*
X66930899Y-20344863D01*
X66841582Y-20520161D01*
X66780778Y-20707294D01*
X66750000Y-20901617D01*
X66750000Y-21090691D01*
X66730315Y-21157730D01*
X66677511Y-21203485D01*
X66608353Y-21213429D01*
X66544797Y-21184404D01*
X66538319Y-21178372D01*
X65316267Y-19956320D01*
X67309872Y-19956320D01*
X68000000Y-20646446D01*
X68000001Y-20646446D01*
X68690125Y-19956320D01*
X68690125Y-19956319D01*
X68655145Y-19930905D01*
X68479835Y-19841581D01*
X68292705Y-19780778D01*
X68098382Y-19750000D01*
X67901618Y-19750000D01*
X67707294Y-19780778D01*
X67520161Y-19841582D01*
X67344863Y-19930899D01*
X67344859Y-19930902D01*
X67309873Y-19956320D01*
X67309872Y-19956320D01*
X65316267Y-19956320D01*
X62254673Y-16894726D01*
X62254669Y-16894723D01*
X62148127Y-16823535D01*
X62123777Y-16813449D01*
X62029744Y-16774499D01*
X62029738Y-16774497D01*
X61904071Y-16749500D01*
X61904069Y-16749500D01*
X55419108Y-16749500D01*
X55352069Y-16729815D01*
X55331427Y-16713181D01*
X55233827Y-16615581D01*
X55200342Y-16554258D01*
X55205326Y-16484566D01*
X55247198Y-16428633D01*
X55312662Y-16404216D01*
X55321508Y-16403900D01*
X66875500Y-16403900D01*
X66942539Y-16423585D01*
G37*
%TD.AperFunction*%
%TA.AperFunction,Conductor*%
G36*
X80360140Y-15345185D02*
G01*
X80380782Y-15361819D01*
X80472025Y-15453062D01*
X80541938Y-15522975D01*
X80627562Y-15572410D01*
X80663976Y-15582167D01*
X80723064Y-15598000D01*
X80723065Y-15598000D01*
X86119701Y-15598000D01*
X86186740Y-15617685D01*
X86207382Y-15634319D01*
X86235881Y-15662818D01*
X86269366Y-15724141D01*
X86272200Y-15750499D01*
X86272200Y-15791075D01*
X86306363Y-15918572D01*
X86309717Y-15931088D01*
X86382188Y-16056611D01*
X86382190Y-16056613D01*
X86382191Y-16056615D01*
X86484685Y-16159109D01*
X86504978Y-16170825D01*
X86553193Y-16221391D01*
X86566417Y-16289998D01*
X86540449Y-16354863D01*
X86530659Y-16365893D01*
X84536680Y-18359873D01*
X84475357Y-18393358D01*
X84405665Y-18388374D01*
X84349732Y-18346502D01*
X84325315Y-18281038D01*
X84324999Y-18272192D01*
X84324999Y-17895028D01*
X84324998Y-17895013D01*
X84314505Y-17792302D01*
X84259358Y-17625880D01*
X84259356Y-17625875D01*
X84167315Y-17476654D01*
X84043345Y-17352684D01*
X83894124Y-17260643D01*
X83894119Y-17260641D01*
X83727697Y-17205494D01*
X83727690Y-17205493D01*
X83624986Y-17195000D01*
X83487500Y-17195000D01*
X83487500Y-18296000D01*
X83467815Y-18363039D01*
X83415011Y-18408794D01*
X83363500Y-18420000D01*
X83111500Y-18420000D01*
X83044461Y-18400315D01*
X82998706Y-18347511D01*
X82987500Y-18296000D01*
X82987500Y-17195000D01*
X82850027Y-17195000D01*
X82850012Y-17195001D01*
X82747302Y-17205494D01*
X82580880Y-17260641D01*
X82580875Y-17260643D01*
X82431654Y-17352684D01*
X82307684Y-17476654D01*
X82215643Y-17625875D01*
X82215642Y-17625878D01*
X82185069Y-17718141D01*
X82145296Y-17775585D01*
X82080780Y-17802408D01*
X82012004Y-17790093D01*
X81960804Y-17742549D01*
X81951181Y-17722468D01*
X81943798Y-17702673D01*
X81943793Y-17702664D01*
X81857547Y-17587455D01*
X81857544Y-17587452D01*
X81742335Y-17501206D01*
X81742328Y-17501202D01*
X81607486Y-17450910D01*
X81607485Y-17450909D01*
X81607483Y-17450909D01*
X81547873Y-17444500D01*
X81547863Y-17444500D01*
X80777129Y-17444500D01*
X80777123Y-17444501D01*
X80717516Y-17450908D01*
X80582671Y-17501202D01*
X80582664Y-17501206D01*
X80467455Y-17587452D01*
X80467452Y-17587455D01*
X80381207Y-17702663D01*
X80379973Y-17704924D01*
X80378150Y-17706746D01*
X80375888Y-17709769D01*
X80375453Y-17709443D01*
X80330569Y-17754331D01*
X80271139Y-17769500D01*
X79911362Y-17769500D01*
X79844323Y-17749815D01*
X79798568Y-17697011D01*
X79788624Y-17627853D01*
X79817649Y-17564297D01*
X79853420Y-17535870D01*
X79860242Y-17532264D01*
X79860245Y-17532263D01*
X79970725Y-17450725D01*
X80052263Y-17340245D01*
X80080118Y-17260641D01*
X80097614Y-17210641D01*
X80097614Y-17210639D01*
X80100500Y-17179867D01*
X80100500Y-16660132D01*
X80097614Y-16629360D01*
X80097614Y-16629358D01*
X80062111Y-16527900D01*
X80052263Y-16499755D01*
X79970725Y-16389275D01*
X79860245Y-16307737D01*
X79860243Y-16307736D01*
X79730640Y-16262385D01*
X79712922Y-16260724D01*
X79648013Y-16234866D01*
X79607389Y-16178021D01*
X79600500Y-16137266D01*
X79600500Y-15850567D01*
X79600499Y-15850563D01*
X79593784Y-15825499D01*
X79574912Y-15755065D01*
X79574911Y-15755064D01*
X79574911Y-15755063D01*
X79525475Y-15669437D01*
X79393219Y-15537181D01*
X79359734Y-15475858D01*
X79364718Y-15406166D01*
X79406590Y-15350233D01*
X79472054Y-15325816D01*
X79480900Y-15325500D01*
X80293101Y-15325500D01*
X80360140Y-15345185D01*
G37*
%TD.AperFunction*%
%TA.AperFunction,Conductor*%
G36*
X20343139Y-6520185D02*
G01*
X20388894Y-6572989D01*
X20398838Y-6642147D01*
X20369813Y-6705703D01*
X20363781Y-6712181D01*
X18769496Y-8306465D01*
X18708173Y-8339950D01*
X18638481Y-8334966D01*
X18582548Y-8293094D01*
X18558131Y-8227630D01*
X18564109Y-8179779D01*
X18614505Y-8027694D01*
X18614506Y-8027690D01*
X18624999Y-7924986D01*
X18625000Y-7924973D01*
X18625000Y-7650000D01*
X17787500Y-7650000D01*
X17787500Y-8624999D01*
X17924972Y-8624999D01*
X17924986Y-8624998D01*
X18027695Y-8614506D01*
X18179779Y-8564109D01*
X18249607Y-8561707D01*
X18309650Y-8597438D01*
X18340843Y-8659958D01*
X18333283Y-8729418D01*
X18306465Y-8769496D01*
X15026038Y-12049925D01*
X14956127Y-12119835D01*
X14906689Y-12205462D01*
X14906688Y-12205465D01*
X14899963Y-12230560D01*
X14899964Y-12230561D01*
X14887737Y-12276197D01*
X14881232Y-12300474D01*
X14881100Y-12300965D01*
X14881100Y-12300966D01*
X14881100Y-12944092D01*
X14861415Y-13011131D01*
X14808611Y-13056886D01*
X14739453Y-13066830D01*
X14675897Y-13037805D01*
X14669419Y-13031773D01*
X13199827Y-11562181D01*
X13166342Y-11500858D01*
X13171326Y-11431166D01*
X13213198Y-11375233D01*
X13278662Y-11350816D01*
X13287508Y-11350500D01*
X14224676Y-11350500D01*
X14224677Y-11350499D01*
X14297740Y-11335966D01*
X14380601Y-11280601D01*
X14435966Y-11197740D01*
X14450500Y-11124674D01*
X14450500Y-10075326D01*
X14450500Y-10075323D01*
X14450499Y-10075321D01*
X14435967Y-10002264D01*
X14435966Y-10002260D01*
X14434122Y-9999500D01*
X14380601Y-9919399D01*
X14297740Y-9864034D01*
X14297739Y-9864033D01*
X14297735Y-9864032D01*
X14224677Y-9849500D01*
X14224674Y-9849500D01*
X12682800Y-9849500D01*
X12615761Y-9829815D01*
X12570006Y-9777011D01*
X12558800Y-9725500D01*
X12558800Y-8274500D01*
X12578485Y-8207461D01*
X12631289Y-8161706D01*
X12682800Y-8150500D01*
X14224676Y-8150500D01*
X14224677Y-8150499D01*
X14297740Y-8135966D01*
X14380601Y-8080601D01*
X14380600Y-8080601D01*
X14390756Y-8073816D01*
X14392745Y-8076793D01*
X14435707Y-8053334D01*
X14462065Y-8050500D01*
X14571139Y-8050500D01*
X14638178Y-8070185D01*
X14675637Y-8110418D01*
X14675888Y-8110231D01*
X14677635Y-8112565D01*
X14679973Y-8115076D01*
X14681207Y-8117336D01*
X14767452Y-8232544D01*
X14767455Y-8232547D01*
X14882664Y-8318793D01*
X14882671Y-8318797D01*
X14926023Y-8334966D01*
X15017517Y-8369091D01*
X15077127Y-8375500D01*
X15847872Y-8375499D01*
X15907483Y-8369091D01*
X16042331Y-8318796D01*
X16157546Y-8232546D01*
X16243796Y-8117331D01*
X16251180Y-8097532D01*
X16293050Y-8041598D01*
X16358514Y-8017179D01*
X16426787Y-8032029D01*
X16476194Y-8081433D01*
X16485069Y-8101859D01*
X16515641Y-8194119D01*
X16515643Y-8194124D01*
X16607684Y-8343345D01*
X16731654Y-8467315D01*
X16880875Y-8559356D01*
X16880880Y-8559358D01*
X17047302Y-8614505D01*
X17047309Y-8614506D01*
X17150019Y-8624999D01*
X17287499Y-8624999D01*
X17287500Y-8624998D01*
X17287500Y-7524000D01*
X17307185Y-7456961D01*
X17359989Y-7411206D01*
X17411500Y-7400000D01*
X17537500Y-7400000D01*
X17537500Y-7274000D01*
X17557185Y-7206961D01*
X17609989Y-7161206D01*
X17661500Y-7150000D01*
X18624999Y-7150000D01*
X18624999Y-6875028D01*
X18624998Y-6875013D01*
X18614505Y-6772302D01*
X18578453Y-6663504D01*
X18576051Y-6593676D01*
X18611783Y-6533634D01*
X18674303Y-6502441D01*
X18696159Y-6500500D01*
X20276100Y-6500500D01*
X20343139Y-6520185D01*
G37*
%TD.AperFunction*%
%TA.AperFunction,Conductor*%
G36*
X34929371Y-1413181D02*
G01*
X34868048Y-1446666D01*
X34841690Y-1449500D01*
X34477130Y-1449500D01*
X34477123Y-1449501D01*
X34417516Y-1455908D01*
X34282671Y-1506202D01*
X34282664Y-1506206D01*
X34167455Y-1592452D01*
X34167452Y-1592455D01*
X34081206Y-1707664D01*
X34081202Y-1707671D01*
X34030908Y-1842517D01*
X34024501Y-1902116D01*
X34024500Y-1902135D01*
X34024500Y-3297870D01*
X34024501Y-3297876D01*
X34030908Y-3357483D01*
X34081202Y-3492328D01*
X34081206Y-3492335D01*
X34167452Y-3607544D01*
X34167455Y-3607547D01*
X34282664Y-3693793D01*
X34282671Y-3693797D01*
X34417517Y-3744091D01*
X34417516Y-3744091D01*
X34424444Y-3744835D01*
X34477127Y-3750500D01*
X35397872Y-3750499D01*
X35457483Y-3744091D01*
X35592331Y-3693796D01*
X35707546Y-3607546D01*
X35793796Y-3492331D01*
X35844091Y-3357483D01*
X35850273Y-3299986D01*
X36900001Y-3299986D01*
X36910494Y-3402697D01*
X36965641Y-3569119D01*
X36965643Y-3569124D01*
X37057684Y-3718345D01*
X37181654Y-3842315D01*
X37330875Y-3934356D01*
X37330880Y-3934358D01*
X37497302Y-3989505D01*
X37497309Y-3989506D01*
X37600019Y-3999999D01*
X37812499Y-3999999D01*
X38312500Y-3999999D01*
X38524972Y-3999999D01*
X38524986Y-3999998D01*
X38627697Y-3989505D01*
X38794119Y-3934358D01*
X38794124Y-3934356D01*
X38943345Y-3842315D01*
X39067315Y-3718345D01*
X39159356Y-3569124D01*
X39159358Y-3569119D01*
X39214505Y-3402697D01*
X39214506Y-3402690D01*
X39224999Y-3299986D01*
X39225000Y-3299973D01*
X39225000Y-2850000D01*
X38312500Y-2850000D01*
X38312500Y-3999999D01*
X37812499Y-3999999D01*
X37812500Y-3999998D01*
X37812500Y-2850000D01*
X36900001Y-2850000D01*
X36900001Y-3299986D01*
X35850273Y-3299986D01*
X35850500Y-3297873D01*
X35850499Y-2383306D01*
X35870184Y-2316268D01*
X35886813Y-2295631D01*
X36282431Y-1900013D01*
X36900000Y-1900013D01*
X36900000Y-2350000D01*
X37812500Y-2350000D01*
X38312500Y-2350000D01*
X39224999Y-2350000D01*
X39224999Y-1900028D01*
X39224998Y-1900013D01*
X39214505Y-1797302D01*
X39159358Y-1630880D01*
X39159356Y-1630875D01*
X39067315Y-1481654D01*
X38943345Y-1357684D01*
X38794124Y-1265643D01*
X38794119Y-1265641D01*
X38627697Y-1210494D01*
X38627690Y-1210493D01*
X38524986Y-1200000D01*
X38312500Y-1200000D01*
X38312500Y-2350000D01*
X37812500Y-2350000D01*
X37812500Y-1200000D01*
X37600029Y-1200000D01*
X37600012Y-1200001D01*
X37497302Y-1210494D01*
X37330880Y-1265641D01*
X37330875Y-1265643D01*
X37181654Y-1357684D01*
X37057684Y-1481654D01*
X36965643Y-1630875D01*
X36965641Y-1630880D01*
X36910494Y-1797302D01*
X36910493Y-1797309D01*
X36900000Y-1900013D01*
X36282431Y-1900013D01*
X37582445Y-600000D01*
X39342553Y-600000D01*
X39390927Y-648374D01*
X39392612Y-649500D01*
X39442254Y-682669D01*
X39497473Y-719565D01*
X39615856Y-768601D01*
X39615860Y-768601D01*
X39615861Y-768602D01*
X39741528Y-793600D01*
X39741531Y-793600D01*
X44683471Y-793600D01*
X44790538Y-772302D01*
X44809144Y-768601D01*
X44927527Y-719565D01*
X44941745Y-710065D01*
X44948274Y-705703D01*
X44972519Y-689502D01*
X45034069Y-648377D01*
X45082446Y-600000D01*
X46842555Y-600000D01*
X46881432Y-638877D01*
X46987966Y-710061D01*
X46987973Y-710065D01*
X47106356Y-759101D01*
X47106360Y-759101D01*
X47106361Y-759102D01*
X47232028Y-784100D01*
X47232031Y-784100D01*
X47975800Y-784100D01*
X48042839Y-803785D01*
X48088594Y-856589D01*
X48099800Y-908100D01*
X48099800Y-9475400D01*
X48080115Y-9542439D01*
X48027311Y-9588194D01*
X47958153Y-9598138D01*
X47894597Y-9569113D01*
X47857869Y-9513718D01*
X47829873Y-9427555D01*
X47751232Y-9273212D01*
X47649414Y-9133072D01*
X47526928Y-9010586D01*
X47386788Y-8908768D01*
X47232445Y-8830127D01*
X47067701Y-8776598D01*
X47067699Y-8776597D01*
X47067698Y-8776597D01*
X46929019Y-8754633D01*
X46896611Y-8749500D01*
X46723389Y-8749500D01*
X46691192Y-8754599D01*
X46552301Y-8776597D01*
X46409713Y-8822927D01*
X46339872Y-8824922D01*
X46283714Y-8792677D01*
X45859564Y-8368527D01*
X45859563Y-8368526D01*
X45859562Y-8368525D01*
X45773938Y-8319090D01*
X45701395Y-8299652D01*
X45701394Y-8299651D01*
X45678436Y-8293500D01*
X45678435Y-8293500D01*
X43766136Y-8293500D01*
X43667264Y-8293500D01*
X43667263Y-8293500D01*
X43644305Y-8299651D01*
X43644305Y-8299652D01*
X43571762Y-8319090D01*
X43571761Y-8319090D01*
X43571759Y-8319091D01*
X43486135Y-8368527D01*
X42733183Y-9121479D01*
X42671860Y-9154964D01*
X42602168Y-9149980D01*
X42557821Y-9121479D01*
X42446930Y-9010588D01*
X42446928Y-9010586D01*
X42306788Y-8908768D01*
X42152445Y-8830127D01*
X41987701Y-8776598D01*
X41987699Y-8776597D01*
X41987698Y-8776597D01*
X41849019Y-8754633D01*
X41816611Y-8749500D01*
X41643389Y-8749500D01*
X41610981Y-8754633D01*
X41472297Y-8776598D01*
X41472294Y-8776598D01*
X41409767Y-8796915D01*
X41339926Y-8798910D01*
X41283768Y-8766665D01*
X40550616Y-8033513D01*
X40550614Y-8033511D01*
X40488905Y-7997883D01*
X40447888Y-7974201D01*
X40435310Y-7970831D01*
X40423673Y-7967713D01*
X40423670Y-7967712D01*
X40376033Y-7954948D01*
X40333309Y-7943500D01*
X21371391Y-7943500D01*
X21281025Y-7967713D01*
X21281024Y-7967712D01*
X21256816Y-7974199D01*
X21256813Y-7974200D01*
X21154086Y-8033511D01*
X21154083Y-8033513D01*
X17175716Y-12011881D01*
X17114393Y-12045366D01*
X17088035Y-12048200D01*
X16389199Y-12048200D01*
X16322160Y-12028515D01*
X16276405Y-11975711D01*
X16266461Y-11906553D01*
X16295486Y-11842997D01*
X16301518Y-11836519D01*
X21010618Y-7127419D01*
X21071941Y-7093934D01*
X21098299Y-7091100D01*
X24433835Y-7091100D01*
X24433836Y-7091100D01*
X24475290Y-7079992D01*
X24486398Y-7077016D01*
X24505329Y-7071943D01*
X24529338Y-7065510D01*
X24614962Y-7016075D01*
X24684875Y-6946162D01*
X24684874Y-6946162D01*
X24743443Y-6887593D01*
X24743442Y-6887593D01*
X31031036Y-600000D01*
X35742553Y-600000D01*
X34929371Y-1413181D01*
G37*
%TD.AperFunction*%
%TA.AperFunction,Conductor*%
G36*
X59249500Y-727525D02*
G01*
X59249500Y-872475D01*
X59272051Y-956635D01*
X59287017Y-1012488D01*
X59359488Y-1138011D01*
X59359493Y-1138017D01*
X59388181Y-1166705D01*
X59421666Y-1228028D01*
X59424500Y-1254386D01*
X59424500Y-3993100D01*
X59404815Y-4060139D01*
X59388181Y-4080781D01*
X51880782Y-11588181D01*
X51819459Y-11621666D01*
X51793101Y-11624500D01*
X49494018Y-11624500D01*
X49426979Y-11604815D01*
X49381224Y-11552011D01*
X49371280Y-11482853D01*
X49375360Y-11464496D01*
X49375795Y-11463056D01*
X49375801Y-11463044D01*
X49392994Y-11376610D01*
X49400800Y-11337371D01*
X49400800Y-908100D01*
X49420485Y-841061D01*
X49473289Y-795306D01*
X49524800Y-784100D01*
X52192971Y-784100D01*
X52279407Y-766906D01*
X52318644Y-759101D01*
X52437027Y-710065D01*
X52543569Y-638877D01*
X52582446Y-600000D01*
X59283671Y-600000D01*
X59249500Y-727525D01*
G37*
%TD.AperFunction*%
%TA.AperFunction,Conductor*%
G36*
X84530201Y-9815594D02*
G01*
X84536680Y-9821626D01*
X85427873Y-10712819D01*
X85461358Y-10774142D01*
X85456374Y-10843834D01*
X85414502Y-10899767D01*
X85349038Y-10924184D01*
X85340192Y-10924500D01*
X84235523Y-10924500D01*
X84168484Y-10904815D01*
X84122729Y-10852011D01*
X84112785Y-10782853D01*
X84141810Y-10719297D01*
X84147842Y-10712819D01*
X84167315Y-10693345D01*
X84259356Y-10544124D01*
X84259358Y-10544119D01*
X84314505Y-10377697D01*
X84314506Y-10377690D01*
X84324999Y-10274986D01*
X84324999Y-9909307D01*
X84344683Y-9842268D01*
X84397487Y-9796513D01*
X84466646Y-9786569D01*
X84530201Y-9815594D01*
G37*
%TD.AperFunction*%
%TA.AperFunction,Conductor*%
G36*
X37783039Y-8864185D02*
G01*
X37828794Y-8916989D01*
X37840000Y-8968500D01*
X37840000Y-9600000D01*
X38756988Y-9600000D01*
X38724075Y-9657007D01*
X38690000Y-9784174D01*
X38690000Y-9915826D01*
X38724075Y-10042993D01*
X38756988Y-10100000D01*
X37840000Y-10100000D01*
X37840000Y-10527200D01*
X37820315Y-10594239D01*
X37767511Y-10639994D01*
X37716000Y-10651200D01*
X23783399Y-10651200D01*
X23716360Y-10631515D01*
X23695718Y-10614881D01*
X22272919Y-9192082D01*
X22239434Y-9130759D01*
X22236600Y-9104401D01*
X22236600Y-9063828D01*
X22236600Y-9063825D01*
X22219656Y-9000590D01*
X22221319Y-8930745D01*
X22260481Y-8872882D01*
X22324709Y-8845377D01*
X22339431Y-8844500D01*
X37716000Y-8844500D01*
X37783039Y-8864185D01*
G37*
%TD.AperFunction*%
%TA.AperFunction,Conductor*%
G36*
X79425148Y-5181702D02*
G01*
X79481081Y-5223574D01*
X79484916Y-5228993D01*
X79513022Y-5271058D01*
X79519399Y-5280601D01*
X79601663Y-5335567D01*
X79602260Y-5335966D01*
X79602264Y-5335967D01*
X79675321Y-5350499D01*
X79675324Y-5350500D01*
X79675326Y-5350500D01*
X81065500Y-5350500D01*
X81132539Y-5370185D01*
X81178294Y-5422989D01*
X81189500Y-5474500D01*
X81189500Y-5703100D01*
X81169815Y-5770139D01*
X81153181Y-5790781D01*
X79390782Y-7553181D01*
X79329459Y-7586666D01*
X79303101Y-7589500D01*
X78750132Y-7589500D01*
X78719360Y-7592385D01*
X78719359Y-7592385D01*
X78665004Y-7611405D01*
X78595225Y-7614966D01*
X78534599Y-7580236D01*
X78510054Y-7543155D01*
X78449336Y-7401295D01*
X78449335Y-7401292D01*
X78342201Y-7242971D01*
X78207029Y-7107799D01*
X78194803Y-7099526D01*
X78160598Y-7076379D01*
X78048708Y-7000665D01*
X78048705Y-7000663D01*
X78048704Y-7000663D01*
X77893193Y-6934103D01*
X77872967Y-6925446D01*
X77872966Y-6925445D01*
X77872962Y-6925444D01*
X77686166Y-6884862D01*
X77495052Y-6880381D01*
X77306547Y-6912167D01*
X77306544Y-6912168D01*
X77127481Y-6979065D01*
X77127478Y-6979067D01*
X77125526Y-6980258D01*
X77123748Y-6981343D01*
X77059149Y-6999500D01*
X75440851Y-6999500D01*
X75376249Y-6981342D01*
X75372523Y-6979068D01*
X75372522Y-6979067D01*
X75372521Y-6979067D01*
X75372513Y-6979063D01*
X75193455Y-6912168D01*
X75193452Y-6912167D01*
X75047605Y-6887574D01*
X75004948Y-6880381D01*
X75004947Y-6880381D01*
X74813833Y-6884862D01*
X74627037Y-6925444D01*
X74451295Y-7000663D01*
X74292974Y-7107796D01*
X74292966Y-7107803D01*
X74157803Y-7242966D01*
X74157791Y-7242981D01*
X74093296Y-7338290D01*
X74039422Y-7382780D01*
X73970047Y-7391081D01*
X73953710Y-7387182D01*
X73823009Y-7346454D01*
X73751977Y-7340000D01*
X73525000Y-7340000D01*
X73525000Y-8126000D01*
X73505315Y-8193039D01*
X73452511Y-8238794D01*
X73401000Y-8250000D01*
X73275000Y-8250000D01*
X73275000Y-8376000D01*
X73255315Y-8443039D01*
X73202511Y-8488794D01*
X73151000Y-8500000D01*
X72150000Y-8500000D01*
X72150000Y-8511977D01*
X72156455Y-8583014D01*
X72207387Y-8746463D01*
X72295962Y-8892983D01*
X72417015Y-9014036D01*
X72417019Y-9014039D01*
X72483017Y-9053936D01*
X72530205Y-9105463D01*
X72542044Y-9174322D01*
X72518638Y-9233686D01*
X72451885Y-9324134D01*
X72396239Y-9366384D01*
X72352116Y-9374500D01*
X70927731Y-9374500D01*
X70860692Y-9354815D01*
X70814937Y-9302011D01*
X70804993Y-9232853D01*
X70815177Y-9203446D01*
X70813372Y-9202699D01*
X70816482Y-9195189D01*
X70816482Y-9195187D01*
X70816484Y-9195185D01*
X70854000Y-9055175D01*
X70854000Y-8910225D01*
X70816484Y-8770215D01*
X70814434Y-8766665D01*
X70744011Y-8644688D01*
X70744006Y-8644682D01*
X70715319Y-8615995D01*
X70681834Y-8554672D01*
X70679000Y-8528314D01*
X70679000Y-8114946D01*
X70698685Y-8047907D01*
X70751489Y-8002152D01*
X70755547Y-8000385D01*
X70761578Y-7997885D01*
X70761585Y-7997884D01*
X70887115Y-7925409D01*
X70887115Y-7925408D01*
X70894154Y-7921345D01*
X70895752Y-7924114D01*
X70946899Y-7904328D01*
X71015346Y-7918352D01*
X71064630Y-7965895D01*
X71100091Y-8027315D01*
X71202585Y-8129809D01*
X71202586Y-8129810D01*
X71202588Y-8129811D01*
X71328111Y-8202282D01*
X71328112Y-8202282D01*
X71328115Y-8202284D01*
X71468125Y-8239800D01*
X71468128Y-8239800D01*
X71613072Y-8239800D01*
X71613075Y-8239800D01*
X71753085Y-8202284D01*
X71878615Y-8129809D01*
X71981109Y-8027315D01*
X71981109Y-8027314D01*
X71986856Y-8021568D01*
X71988047Y-8022759D01*
X72036635Y-7987273D01*
X72106381Y-7983111D01*
X72136882Y-8000000D01*
X73025000Y-8000000D01*
X73025000Y-7340000D01*
X72798023Y-7340000D01*
X72724313Y-7346698D01*
X72655767Y-7333161D01*
X72605421Y-7284715D01*
X72589260Y-7216740D01*
X72612414Y-7150818D01*
X72625404Y-7135532D01*
X73470718Y-6290219D01*
X73532041Y-6256734D01*
X73558399Y-6253900D01*
X78144335Y-6253900D01*
X78144336Y-6253900D01*
X78192086Y-6241105D01*
X78239838Y-6228310D01*
X78325462Y-6178875D01*
X78395375Y-6108962D01*
X78395374Y-6108962D01*
X78453943Y-6050393D01*
X79294134Y-5210201D01*
X79355456Y-5176718D01*
X79425148Y-5181702D01*
G37*
%TD.AperFunction*%
%TA.AperFunction,Conductor*%
G36*
X63289900Y-698500D02*
G01*
X63705900Y-829600D01*
X64025776Y-900500D01*
X64073766Y-911137D01*
X64131800Y-924000D01*
X64131815Y-924002D01*
X64131822Y-924003D01*
X64301623Y-946386D01*
X64564200Y-981000D01*
X64767573Y-989866D01*
X64999992Y-1000000D01*
X65000000Y-1000000D01*
X65000008Y-1000000D01*
X65217900Y-990500D01*
X65435800Y-981000D01*
X65868200Y-924000D01*
X66294100Y-829600D01*
X66710100Y-698500D01*
X66947798Y-600000D01*
X76031167Y-600000D01*
X76011696Y-625488D01*
X75945996Y-649265D01*
X75938358Y-649500D01*
X74775323Y-649500D01*
X74702264Y-664032D01*
X74702260Y-664033D01*
X74619399Y-719399D01*
X74564033Y-802260D01*
X74564032Y-802264D01*
X74549500Y-875321D01*
X74549500Y-900500D01*
X74529815Y-967539D01*
X74477011Y-1013294D01*
X74431880Y-1023111D01*
X74431924Y-1023439D01*
X74428005Y-1023954D01*
X74425500Y-1024500D01*
X74423864Y-1024500D01*
X74328361Y-1050089D01*
X74242738Y-1099525D01*
X74242735Y-1099527D01*
X69621926Y-5720336D01*
X69572491Y-5805959D01*
X69572491Y-5805960D01*
X69572490Y-5805962D01*
X69546900Y-5901465D01*
X69546900Y-5901467D01*
X69546900Y-7793838D01*
X69555577Y-7826222D01*
X69572488Y-7889334D01*
X69572489Y-7889337D01*
X69592568Y-7924114D01*
X69621334Y-7973938D01*
X69621339Y-7973946D01*
X69621338Y-7973946D01*
X69621926Y-7974963D01*
X69891681Y-8244718D01*
X69925166Y-8306041D01*
X69928000Y-8332399D01*
X69928000Y-8528314D01*
X69908315Y-8595353D01*
X69891681Y-8615995D01*
X69862993Y-8644682D01*
X69862991Y-8644685D01*
X69834981Y-8693198D01*
X69784412Y-8741412D01*
X69715805Y-8754633D01*
X69650941Y-8728664D01*
X69639914Y-8718876D01*
X65307357Y-4386319D01*
X61521037Y-600000D01*
X63052202Y-600000D01*
X63289900Y-698500D01*
G37*
%TD.AperFunction*%
%TA.AperFunction,Conductor*%
G36*
X79505975Y-520185D02*
G01*
X79551730Y-572989D01*
X79561674Y-642147D01*
X79532649Y-705703D01*
X79526617Y-712181D01*
X79519401Y-719396D01*
X79464033Y-802260D01*
X79464032Y-802264D01*
X79449500Y-875321D01*
X79449500Y-1924678D01*
X79464032Y-1997735D01*
X79464033Y-1997739D01*
X79481295Y-2023574D01*
X79519399Y-2080601D01*
X79574378Y-2117336D01*
X79602260Y-2135966D01*
X79602264Y-2135967D01*
X79675321Y-2150499D01*
X79675324Y-2150500D01*
X79675326Y-2150500D01*
X81224676Y-2150500D01*
X81224677Y-2150499D01*
X81297740Y-2135966D01*
X81380601Y-2080601D01*
X81380600Y-2080601D01*
X81390756Y-2073816D01*
X81391969Y-2075631D01*
X81408950Y-2067944D01*
X81435707Y-2053334D01*
X81440470Y-2053674D01*
X81444821Y-2051705D01*
X81462065Y-2050500D01*
X81521139Y-2050500D01*
X81588178Y-2070185D01*
X81625637Y-2110418D01*
X81625888Y-2110231D01*
X81627635Y-2112565D01*
X81629973Y-2115076D01*
X81631207Y-2117336D01*
X81717452Y-2232544D01*
X81718836Y-2233928D01*
X81719510Y-2234516D01*
X81719661Y-2234753D01*
X81723725Y-2238817D01*
X81722827Y-2239714D01*
X81735906Y-2260214D01*
X81754178Y-2284619D01*
X81755243Y-2290522D01*
X81757091Y-2293418D01*
X81757067Y-2300629D01*
X81762000Y-2327962D01*
X81762000Y-3321115D01*
X81742315Y-3388154D01*
X81689511Y-3433909D01*
X81620353Y-3443853D01*
X81576000Y-3428502D01*
X81573962Y-3427325D01*
X81488338Y-3377890D01*
X81440586Y-3365095D01*
X81440584Y-3365094D01*
X81440582Y-3365093D01*
X81392836Y-3352300D01*
X81392835Y-3352300D01*
X74355636Y-3352300D01*
X74256764Y-3352300D01*
X74161263Y-3377889D01*
X74161260Y-3377890D01*
X74075640Y-3427322D01*
X74075635Y-3427326D01*
X70604882Y-6898081D01*
X70543559Y-6931566D01*
X70517201Y-6934400D01*
X70476620Y-6934400D01*
X70453991Y-6940464D01*
X70384141Y-6938800D01*
X70326280Y-6899637D01*
X70298777Y-6835408D01*
X70297900Y-6820689D01*
X70297900Y-6157799D01*
X70317585Y-6090760D01*
X70334219Y-6070118D01*
X72359875Y-4044462D01*
X74394135Y-2010201D01*
X74455456Y-1976718D01*
X74525148Y-1981702D01*
X74581081Y-2023574D01*
X74584916Y-2028993D01*
X74600091Y-2051705D01*
X74619399Y-2080601D01*
X74674366Y-2117328D01*
X74702260Y-2135966D01*
X74702264Y-2135967D01*
X74775321Y-2150499D01*
X74775324Y-2150500D01*
X74775326Y-2150500D01*
X76324676Y-2150500D01*
X76324677Y-2150499D01*
X76397740Y-2135966D01*
X76480601Y-2080601D01*
X76535966Y-1997740D01*
X76550500Y-1924674D01*
X76550500Y-875326D01*
X76550500Y-875323D01*
X76550499Y-875321D01*
X76535967Y-802264D01*
X76535966Y-802260D01*
X76480601Y-719399D01*
X76480599Y-719397D01*
X76480598Y-719396D01*
X76474477Y-713275D01*
X76440992Y-651952D01*
X76444707Y-600000D01*
X78000000Y-600000D01*
X78000000Y-500500D01*
X79438936Y-500500D01*
X79505975Y-520185D01*
G37*
%TD.AperFunction*%
%TA.AperFunction,Conductor*%
G36*
X28000000Y-600000D02*
G01*
X29968962Y-600000D01*
X24265182Y-6303781D01*
X24203859Y-6337266D01*
X24177501Y-6340100D01*
X21753469Y-6340100D01*
X21686430Y-6320415D01*
X21640675Y-6267611D01*
X21630731Y-6198453D01*
X21659756Y-6134897D01*
X21677979Y-6117727D01*
X21821877Y-6007314D01*
X22007314Y-5821877D01*
X22166958Y-5613819D01*
X22298078Y-5386703D01*
X22398428Y-5144413D01*
X22398429Y-5144408D01*
X22398431Y-5144404D01*
X22466290Y-4891104D01*
X22466292Y-4891098D01*
X22500508Y-4631091D01*
X22500500Y-4499967D01*
X22500500Y-4003067D01*
X22500649Y-3996980D01*
X22510158Y-3803494D01*
X22517059Y-3663066D01*
X22518252Y-3650976D01*
X22566864Y-3323311D01*
X22569235Y-3311391D01*
X22649725Y-2990075D01*
X22653256Y-2978436D01*
X22699213Y-2850000D01*
X22764858Y-2666541D01*
X22769506Y-2655320D01*
X22911143Y-2355862D01*
X22916861Y-2345164D01*
X23087177Y-2061013D01*
X23093915Y-2050930D01*
X23291269Y-1784831D01*
X23298951Y-1775471D01*
X23521432Y-1530002D01*
X23530002Y-1521432D01*
X23775471Y-1298951D01*
X23784831Y-1291269D01*
X24050930Y-1093915D01*
X24061013Y-1087177D01*
X24345164Y-916861D01*
X24355862Y-911143D01*
X24655320Y-769506D01*
X24666541Y-764858D01*
X24978441Y-653254D01*
X24990075Y-649725D01*
X25311391Y-569235D01*
X25323311Y-566864D01*
X25650976Y-518252D01*
X25663066Y-517059D01*
X25996980Y-500648D01*
X26003067Y-500500D01*
X28000000Y-500500D01*
X28000000Y-600000D01*
G37*
%TD.AperFunction*%
%TA.AperFunction,Conductor*%
G36*
X79106639Y-4122985D02*
G01*
X79152394Y-4175789D01*
X79162338Y-4244947D01*
X79133313Y-4308503D01*
X79127280Y-4314981D01*
X78551159Y-4891104D01*
X77975682Y-5466581D01*
X77914359Y-5500066D01*
X77888001Y-5502900D01*
X76861968Y-5502900D01*
X76794929Y-5483215D01*
X76749174Y-5430411D01*
X76739230Y-5361253D01*
X76745786Y-5335567D01*
X76793596Y-5207379D01*
X76793598Y-5207372D01*
X76799999Y-5147844D01*
X76800000Y-5147827D01*
X76800000Y-4850000D01*
X74300000Y-4850000D01*
X74300000Y-5147844D01*
X74306401Y-5207372D01*
X74306403Y-5207379D01*
X74354214Y-5335567D01*
X74359198Y-5405259D01*
X74325713Y-5466582D01*
X74264390Y-5500066D01*
X74238032Y-5502900D01*
X73361499Y-5502900D01*
X73294460Y-5483215D01*
X73248705Y-5430411D01*
X73238761Y-5361253D01*
X73267786Y-5297697D01*
X73273818Y-5291219D01*
X73673939Y-4891098D01*
X74178719Y-4386318D01*
X74240041Y-4352834D01*
X74266399Y-4350000D01*
X76800000Y-4350000D01*
X76800000Y-4227300D01*
X76819685Y-4160261D01*
X76872489Y-4114506D01*
X76924000Y-4103300D01*
X79039600Y-4103300D01*
X79106639Y-4122985D01*
G37*
%TD.AperFunction*%
%TD*%
M02*
