M48
; DRILL file KiCad 10.0.6 date 2026-10-05T17:23:51
; FORMAT={-:-/ absolute / metric / decimal}
; #@! TF.CreationDate,2026-10-05T17:23:51+02:00
; #@! TF.GenerationSoftware,Kicad,Pcbnew,10.0.6
; #@! TF.FileFunction,Plated,1,2,PTH
FMAT,2
METRIC
; #@! TA.AperFunction,Plated,PTH,ViaDrill
T1C0.300
; #@! TA.AperFunction,Plated,PTH,ComponentDrill
T2C1.000
%
G90
G05
T1
X4.2Y-15.21
X4.2Y-20.29
X4.2Y-22.83
X4.2Y-24.0
X5.4Y-24.0
X5.5Y-14.0
X5.653Y-22.263
X11.908Y-7.59
X15.559Y-9.75
X15.883Y-12.67
X17.21Y-7.2
X17.6Y-23.85
X18.0Y-10.75
X18.282Y-16.274
X18.45Y-24.15
X18.466Y-14.657
X18.476Y-19.911
X18.5Y-12.67
X21.649Y-21.781
X21.686Y-9.136
X30.837Y-15.66
X30.953Y-21.524
X31.17Y-17.728
X31.844Y-21.529
X32.287Y5.189
X33.22Y-9.845
X34.08Y-19.909
X35.023Y-19.462
X35.911Y6.8
X36.064Y-24.995
X36.124Y-17.846
X36.521Y-23.917
X37.832Y-23.917
X38.011Y-42.8
X38.663Y-24.119
X41.911Y6.8
X42.399Y-33.95
X43.017Y-4.6
X43.2Y1.4
X44.011Y-42.8
X46.797Y-14.827
X47.911Y6.8
X48.05Y-15.047
X48.75Y-11.273
X48.864Y-14.974
X49.719Y-15.235
X50.7Y1.4
X51.371Y-9.1
X52.961Y-17.746
X53.894Y-17.739
X53.911Y6.8
X54.774Y-33.95
X55.098Y-17.4
X59.8Y-0.8
X59.911Y6.8
X64.424Y-34.355
X64.433Y-26.323
X64.435Y-41.449
X65.547Y-39.723
X65.689Y-14.242
X66.2Y-18.654
X66.323Y-32.451
X66.401Y-29.022
X66.848Y-13.348
X67.029Y-36.651
X68.467Y-13.712
X69.021Y-2.85
X69.518Y-21.349
X69.966Y-34.355
X70.303Y-8.983
X70.549Y-7.485
X70.596Y-11.045
X70.859Y-25.305
X70.993Y-31.05
X71.076Y-10.38
X71.532Y6.815
X71.541Y-7.689
X71.845Y-40.647
X71.938Y-22.334
X72.35Y-17.15
X72.848Y-21.349
X73.455Y2.57
X73.685Y-41.449
X73.763Y-22.35
X73.766Y-31.05
X75.7Y-42.12
X77.489Y-4.853
X78.823Y-1.2
X79.138Y-29.401
X79.429Y-6.177
X79.907Y-21.052
X84.5Y-10.6
X84.823Y-1.2
X84.86Y-16.575
X86.806Y-14.662
X86.823Y-15.719
X86.834Y-13.85
X86.85Y-12.506
X90.823Y-1.2
X92.042Y-30.877
X93.043Y-26.265
X96.823Y-1.2
X100.939Y-12.23
X102.51Y-1.706
X107.822Y-3.678
X112.405Y-7.01
X115.706Y-27.65
X115.922Y-11.454
X118.8Y-22.271
X118.8Y-28.271
T2
X39.19Y-9.85
X41.73Y-9.85
X44.27Y-9.85
X46.81Y-9.85
M30
