%TF.GenerationSoftware,KiCad,Pcbnew,10.0.6*%
%TF.CreationDate,2026-10-05T17:23:51+02:00*%
%TF.ProjectId,planch,706c616e-6368-42e6-9b69-6361645f7063,1*%
%TF.SameCoordinates,Original*%
%TF.FileFunction,Legend,Top*%
%TF.FilePolarity,Positive*%
%FSLAX46Y46*%
G04 Gerber Fmt 4.6, Leading zero omitted, Abs format (unit mm)*
G04 Created by KiCad (PCBNEW 10.0.6) date 2026-10-05 17:23:51*
%MOMM*%
%LPD*%
G01*
G04 APERTURE LIST*
G04 Aperture macros list*
%AMRoundRect*
0 Rectangle with rounded corners*
0 $1 Rounding radius*
0 $2 $3 $4 $5 $6 $7 $8 $9 X,Y pos of 4 corners*
0 Add a 4 corners polygon primitive as box body*
4,1,4,$2,$3,$4,$5,$6,$7,$8,$9,$2,$3,0*
0 Add four circle primitives for the rounded corners*
1,1,$1+$1,$2,$3*
1,1,$1+$1,$4,$5*
1,1,$1+$1,$6,$7*
1,1,$1+$1,$8,$9*
0 Add four rect primitives between the rounded corners*
20,1,$1+$1,$2,$3,$4,$5,0*
20,1,$1+$1,$4,$5,$6,$7,0*
20,1,$1+$1,$6,$7,$8,$9,0*
20,1,$1+$1,$8,$9,$2,$3,0*%
G04 Aperture macros list end*
%ADD10C,0.200000*%
%ADD11RoundRect,0.250000X-0.525000X-0.400000X0.525000X-0.400000X0.525000X0.400000X-0.525000X0.400000X0*%
%ADD12R,1.700000X1.700000*%
%ADD13C,1.700000*%
%ADD14RoundRect,0.400000X-0.800000X-0.400000X0.800000X-0.400000X0.800000X0.400000X-0.800000X0.400000X0*%
G04 APERTURE END LIST*
D10*
X27500000Y-8300000D02*
G75*
G02*
X29800000Y-6000000I2300160J-160D01*
G01*
X27500000Y-35700000D02*
X27500000Y-8300000D01*
X29800000Y-6000000D02*
X56200000Y-6000000D01*
X29800000Y-38000000D02*
G75*
G02*
X27500000Y-35700000I160J2300160D01*
G01*
X56200000Y-6000000D02*
G75*
G02*
X58500000Y-8300000I-200J-2300200D01*
G01*
X56200000Y-38000000D02*
X29800000Y-38000000D01*
X58500000Y-8300000D02*
X58500000Y-35700000D01*
X58500000Y-35700000D02*
G75*
G02*
X56200000Y-38000000I-2300160J160D01*
G01*
X60800000Y-33300000D02*
X60800000Y-36700000D01*
X60800000Y-36700000D02*
X61900000Y-36700000D01*
X61000000Y-9000000D02*
X60500000Y-9000000D01*
X61440000Y-7940000D02*
X61090000Y-7590000D01*
X61440000Y-10060000D02*
X61090000Y-10410000D01*
X61700000Y-35000000D02*
X64200000Y-35000000D01*
X61900000Y-33300000D02*
X60800000Y-33300000D01*
X62500000Y-7500000D02*
X62500000Y-7000000D01*
X63500000Y-9000000D02*
G75*
G02*
X61500000Y-9000000I-1000000J0D01*
G01*
X61500000Y-9000000D02*
G75*
G02*
X63500000Y-9000000I1000000J0D01*
G01*
X62500000Y-10500000D02*
X62500000Y-11000000D01*
X62500000Y-24400000D02*
X62500000Y-26330000D01*
X63300000Y-15850000D02*
X63300000Y-15850000D01*
X63300000Y-19490000D02*
G75*
G02*
X63300000Y-15850000I-545500J1820000D01*
G01*
X63300000Y-19490000D02*
G75*
G02*
X63300000Y-15850000I1047740J1820000D01*
G01*
X63400000Y-34200000D02*
X64200000Y-35000000D01*
X63560000Y-7940000D02*
X63910000Y-7590000D01*
X63560000Y-10060000D02*
X63910000Y-10410000D01*
X63630000Y-25200000D02*
G75*
G02*
X61370000Y-25200000I-1130000J-1132717D01*
G01*
X63700000Y5200000D02*
G75*
G02*
X66300000Y5200000I1300000J-1385491D01*
G01*
X64000000Y-9000000D02*
X64500000Y-9000000D01*
X64200000Y-35000000D02*
X63400000Y-35800000D01*
X66000000Y4000000D02*
G75*
G02*
X64000000Y4000000I-1000000J0D01*
G01*
X64000000Y4000000D02*
G75*
G02*
X66000000Y4000000I1000000J0D01*
G01*
X68500000Y4000000D02*
G75*
G02*
X61500000Y4000000I-3500000J0D01*
G01*
X61500000Y4000000D02*
G75*
G02*
X68500000Y4000000I3500000J0D01*
G01*
X82825000Y-22000000D02*
X84175000Y-23350000D01*
X84175000Y-20650000D02*
X82825000Y-22000000D01*
X96650000Y-8175000D02*
X98000000Y-6825000D01*
X96650000Y-35825000D02*
X98000000Y-37175000D01*
X98000000Y-6825000D02*
X99350000Y-8175000D01*
X98000000Y-37175000D02*
X99350000Y-35825000D01*
X98000000Y-38000000D02*
G75*
G02*
X114000000Y-22000000I5J15999995D01*
G01*
X106250000Y-36600000D02*
X107050000Y-37400000D01*
X107050000Y-35800000D02*
X106250000Y-36600000D01*
X110250000Y-36600000D02*
X106250000Y-36600000D01*
X110650000Y-38000000D02*
X98000000Y-38000000D01*
X111825000Y-20650000D02*
X113175000Y-22000000D01*
X113175000Y-22000000D02*
X111825000Y-23350000D01*
X114000000Y-22000000D02*
X114000000Y-34650000D01*
X114000000Y-34650000D02*
G75*
G02*
X110650000Y-38000000I-3350000J0D01*
G01*
%LPC*%
D11*
%TO.C,SW1*%
X94020000Y-9500000D03*
X101980000Y-9500000D03*
X94020000Y-14000000D03*
X101980000Y-14000000D03*
%TD*%
%TO.C,SW3*%
X83770000Y-19750000D03*
X91730000Y-19750000D03*
X83770000Y-24250000D03*
X91730000Y-24250000D03*
%TD*%
%TO.C,SW6*%
X104270000Y-30000000D03*
X112230000Y-30000000D03*
X104270000Y-34500000D03*
X112230000Y-34500000D03*
%TD*%
%TO.C,SW2*%
X94020000Y-30000000D03*
X101980000Y-30000000D03*
X94020000Y-34500000D03*
X101980000Y-34500000D03*
%TD*%
%TO.C,SW8*%
X65020000Y-15420000D03*
X72980000Y-15420000D03*
X65020000Y-19920000D03*
X72980000Y-19920000D03*
%TD*%
D12*
%TO.C,U2*%
X39190000Y-9850000D03*
D13*
X41730000Y-9850000D03*
X44270000Y-9850000D03*
X46810000Y-9850000D03*
%TD*%
D11*
%TO.C,SW10*%
X65020000Y-32750000D03*
X72980000Y-32750000D03*
X65020000Y-37250000D03*
X72980000Y-37250000D03*
%TD*%
D14*
%TO.C,U1*%
X1800000Y-7590000D03*
X1800000Y-10130000D03*
X1800000Y-12670000D03*
X1800000Y-15210000D03*
X1800000Y-17750000D03*
X1800000Y-20290000D03*
X1800000Y-22830000D03*
X1800000Y-25370000D03*
X1800000Y-27910000D03*
X20200000Y-27910000D03*
X20200000Y-25370000D03*
X20200000Y-22830000D03*
X20200000Y-20290000D03*
X20200000Y-17750000D03*
X20200000Y-15210000D03*
X20200000Y-12670000D03*
X20200000Y-10130000D03*
X20200000Y-7590000D03*
%TD*%
D11*
%TO.C,SW4*%
X104270000Y-19750000D03*
X112230000Y-19750000D03*
X104270000Y-24250000D03*
X112230000Y-24250000D03*
%TD*%
%TO.C,SW7*%
X65020000Y-6750000D03*
X72980000Y-6750000D03*
X65020000Y-11250000D03*
X72980000Y-11250000D03*
%TD*%
%TO.C,SW5*%
X94020000Y-19750000D03*
X101980000Y-19750000D03*
X94020000Y-24250000D03*
X101980000Y-24250000D03*
%TD*%
%TO.C,SW9*%
X65020000Y-24080000D03*
X72980000Y-24080000D03*
X65020000Y-28580000D03*
X72980000Y-28580000D03*
%TD*%
%LPD*%
M02*
