%TF.GenerationSoftware,KiCad,Pcbnew,10.0.6*%
%TF.CreationDate,2026-10-05T17:23:51+02:00*%
%TF.ProjectId,planch,706c616e-6368-42e6-9b69-6361645f7063,1*%
%TF.SameCoordinates,Original*%
%TF.FileFunction,Drillmap*%
%TF.FilePolarity,Positive*%
%FSLAX45Y45*%
G04 Gerber Fmt 4.5, Leading zero omitted, Abs format (unit mm)*
G04 Created by KiCad (PCBNEW 10.0.6) date 2026-10-05 17:23:51*
%MOMM*%
%LPD*%
G01*
G04 APERTURE LIST*
%ADD10C,0.100000*%
%ADD11C,0.120000*%
%ADD12C,0.200000*%
G04 APERTURE END LIST*
D10*
X0Y-700000D02*
G75*
G02*
X100000Y-600000I100002J-2D01*
G01*
X0Y-2850000D02*
X0Y-700000D01*
X100000Y-600000D02*
X2050000Y-600000D01*
X100000Y-2950000D02*
G75*
G02*
X0Y-2850000I2J100002D01*
G01*
X2050000Y-2950000D02*
X100000Y-2950000D01*
X2050000Y-2950000D02*
G75*
G02*
X2200000Y-3100000I10J-149990D01*
G01*
X2200000Y-400000D02*
G75*
G02*
X2600000Y0I400010J-10D01*
G01*
X2200000Y-450000D02*
G75*
G02*
X2050000Y-600000I-149990J-10D01*
G01*
X2200000Y-450000D02*
X2200000Y-400000D01*
X2200000Y-4000000D02*
X2200000Y-3100000D01*
X2600000Y0D02*
X2850000Y0D01*
X2600000Y-4400000D02*
G75*
G02*
X2200000Y-4000000I10J400010D01*
G01*
X2850000Y0D02*
X2850476Y1D01*
X2850951Y4D01*
X2851425Y9D01*
X2851899Y16D01*
X2852371Y25D01*
X2852843Y36D01*
X2853313Y49D01*
X2853783Y64D01*
X2854252Y81D01*
X2854720Y99D01*
X2855188Y120D01*
X2855654Y143D01*
X2856120Y168D01*
X2856584Y194D01*
X2857048Y223D01*
X2857511Y254D01*
X2857974Y286D01*
X2858435Y321D01*
X2858896Y357D01*
X2859356Y396D01*
X2859815Y436D01*
X2860274Y478D01*
X2860731Y522D01*
X2861188Y569D01*
X2861644Y617D01*
X2862099Y667D01*
X2862554Y718D01*
X2863008Y772D01*
X2863461Y828D01*
X2863913Y886D01*
X2864365Y945D01*
X2864816Y1007D01*
X2865266Y1070D01*
X2865715Y1136D01*
X2866164Y1203D01*
X2866612Y1272D01*
X2867060Y1343D01*
X2867506Y1416D01*
X2867952Y1491D01*
X2868398Y1568D01*
X2868842Y1647D01*
X2869286Y1728D01*
X2870173Y1895D01*
X2871056Y2070D01*
X2871937Y2252D01*
X2872816Y2442D01*
X2873692Y2640D01*
X2874565Y2845D01*
X2875436Y3058D01*
X2876305Y3279D01*
X2877172Y3507D01*
X2878037Y3743D01*
X2878899Y3987D01*
X2879759Y4238D01*
X2880617Y4498D01*
X2881473Y4764D01*
X2882327Y5039D01*
X2883179Y5321D01*
X2884029Y5611D01*
X2884877Y5909D01*
X2885724Y6215D01*
X2886568Y6529D01*
X2887411Y6850D01*
X2888252Y7180D01*
X2889091Y7517D01*
X2889929Y7862D01*
X2890765Y8215D01*
X2891600Y8577D01*
X2892432Y8946D01*
X2893264Y9323D01*
X2894094Y9709D01*
X2894922Y10102D01*
X2895749Y10504D01*
X2896575Y10914D01*
X2897400Y11332D01*
X2898223Y11759D01*
X2899045Y12194D01*
X2899865Y12637D01*
X2900685Y13089D01*
X2901503Y13549D01*
X2902320Y14018D01*
X2903136Y14495D01*
X2903951Y14982D01*
X2904765Y15476D01*
X2905578Y15980D01*
X2906390Y16492D01*
X2907201Y17013D01*
X2908011Y17543D01*
X2908820Y18082D01*
X2909629Y18631D01*
X2910436Y19188D01*
X2911243Y19754D01*
X2912049Y20330D01*
X2912854Y20915D01*
X2913659Y21509D01*
X2914463Y22112D01*
X2915266Y22726D01*
X2916069Y23348D01*
X2916871Y23981D01*
X2917672Y24623D01*
X2918473Y25275D01*
X2919273Y25937D01*
X2920073Y26609D01*
X2920872Y27291D01*
X2921671Y27983D01*
X2922470Y28685D01*
X2923268Y29397D01*
X2924065Y30120D01*
X2924863Y30853D01*
X2925660Y31597D01*
X2926456Y32352D01*
X2927252Y33117D01*
X2928049Y33893D01*
X2928844Y34680D01*
X2929640Y35478D01*
X2930435Y36288D01*
X2931231Y37108D01*
X2932026Y37940D01*
X2932821Y38783D01*
X2933615Y39637D01*
X2934410Y40504D01*
X2935205Y41382D01*
X2935999Y42272D01*
X2936794Y43174D01*
X2937588Y44087D01*
X2938383Y45013D01*
X2939177Y45952D01*
X2939972Y46903D01*
X2940766Y47866D01*
X2941561Y48842D01*
X2942356Y49831D01*
X2943151Y50833D01*
X2943946Y51848D01*
X2944741Y52876D01*
X2945536Y53917D01*
X2946332Y54972D01*
X2947127Y56040D01*
X2947923Y57122D01*
X2948720Y58218D01*
X2949516Y59328D01*
X2950313Y60451D01*
X2951110Y61590D01*
X2951908Y62742D01*
X2952706Y63910D01*
X2953504Y65092D01*
X2954303Y66289D01*
X2955102Y67500D01*
X2955901Y68728D01*
X2956701Y69970D01*
X2957502Y71228D01*
X2958303Y72502D01*
X2959104Y73791D01*
X2959907Y75097D01*
X2960709Y76419D01*
X2961513Y77757D01*
X2962317Y79112D01*
X2963121Y80484D01*
X2963927Y81873D01*
X2964733Y83279D01*
X2965540Y84702D01*
X2966347Y86143D01*
X2967156Y87602D01*
X2967965Y89079D01*
X2968775Y90574D01*
X2969586Y92087D01*
X2970399Y93619D01*
X2971212Y95170D01*
X2972026Y96740D01*
X2972841Y98330D01*
X2973657Y99939D01*
X2974474Y101568D01*
X2975293Y103218D01*
X2976112Y104887D01*
X2976933Y106578D01*
X2977756Y108289D01*
X2978579Y110022D01*
X2979404Y111776D01*
X2980231Y113552D01*
X2981059Y115351D01*
X2981888Y117172D01*
X2982719Y119015D01*
X2983552Y120882D01*
X2984387Y122772D01*
X2985223Y124686D01*
X2986061Y126625D01*
X2986902Y128588D01*
X2987744Y130576D01*
X2988588Y132590D01*
X2989435Y134629D01*
X2990283Y136694D01*
X2991134Y138787D01*
X2991988Y140906D01*
X2992844Y143053D01*
X2993703Y145229D01*
X2994564Y147433D01*
X2995428Y149666D01*
X2996296Y151929D01*
X2997166Y154222D01*
X2998040Y156547D01*
X2998917Y158903D01*
X2999797Y161291D01*
X3000681Y163712D01*
X3001569Y166167D01*
X3002461Y168657D01*
X3003357Y171181D01*
X3004257Y173742D01*
X3005162Y176340D01*
X3006072Y178975D01*
X3006986Y181650D01*
X3007906Y184364D01*
X3008832Y187120D01*
X3009763Y189917D01*
X3010700Y192759D01*
X3011643Y195644D01*
X3012594Y198576D01*
X3013551Y201556D01*
X3014516Y204584D01*
X3015488Y207664D01*
X3016469Y210797D01*
X3017459Y213984D01*
X3018458Y217228D01*
X3019467Y220532D01*
X3020486Y223897D01*
X3021517Y227327D01*
X3022560Y230824D01*
X3023616Y234393D01*
X3024685Y238036D01*
X3025770Y241758D01*
X3026870Y245564D01*
X3027988Y249458D01*
X3029125Y253447D01*
X3030282Y257537D01*
X3031462Y261736D01*
X3032667Y266053D01*
X3033899Y270498D01*
X3035162Y275083D01*
X3036459Y279823D01*
X3037796Y284736D01*
X3039178Y289843D01*
X3040611Y295174D01*
X3042107Y300765D01*
X3043677Y306664D01*
X3045339Y312940D01*
X3047120Y319696D01*
X3049064Y327097D01*
X3051248Y335444D01*
X3053850Y345418D01*
X3056515Y355645D01*
X3059127Y365670D01*
X3061747Y375715D01*
X3063062Y380743D01*
X3064380Y385774D01*
X3065701Y390807D01*
X3067027Y395841D01*
X3068356Y400875D01*
X3069691Y405910D01*
X3071030Y410943D01*
X3072374Y415976D01*
X3073724Y421005D01*
X3075079Y426032D01*
X3076441Y431056D01*
X3077809Y436074D01*
X3078496Y438582D01*
X3079184Y441088D01*
X3079874Y443593D01*
X3080566Y446096D01*
X3081260Y448598D01*
X3081956Y451098D01*
X3082654Y453596D01*
X3083353Y456092D01*
X3084055Y458586D01*
X3084759Y461078D01*
X3085465Y463568D01*
X3086173Y466056D01*
X3086883Y468541D01*
X3087596Y471024D01*
X3088310Y473505D01*
X3089027Y475982D01*
X3089747Y478458D01*
X3090469Y480930D01*
X3091193Y483400D01*
X3091919Y485866D01*
X3092649Y488330D01*
X3093380Y490790D01*
X3094115Y493247D01*
X3094852Y495701D01*
X3095591Y498151D01*
X3096334Y500598D01*
X3097079Y503042D01*
X3097827Y505482D01*
X3098578Y507917D01*
X3099331Y510350D01*
X3100088Y512778D01*
X3100847Y515202D01*
X3101610Y517622D01*
X3102375Y520038D01*
X3103144Y522450D01*
X3103916Y524857D01*
X3104691Y527260D01*
X3105469Y529658D01*
X3106250Y532051D01*
X3107035Y534440D01*
X3107823Y536824D01*
X3108614Y539203D01*
X3109409Y541578D01*
X3110207Y543947D01*
X3111009Y546310D01*
X3111814Y548669D01*
X3112623Y551022D01*
X3113435Y553370D01*
X3114251Y555712D01*
X3115071Y558049D01*
X3115894Y560380D01*
X3116722Y562705D01*
X3117553Y565025D01*
X3118387Y567338D01*
X3119226Y569645D01*
X3120069Y571946D01*
X3120915Y574241D01*
X3121766Y576530D01*
X3122621Y578812D01*
X3123480Y581088D01*
X3124342Y583357D01*
X3125210Y585619D01*
X3126081Y587875D01*
X3126956Y590124D01*
X3127836Y592366D01*
X3128721Y594600D01*
X3129609Y596828D01*
X3130502Y599048D01*
X3131400Y601262D01*
X3132301Y603467D01*
X3133208Y605666D01*
X3134119Y607857D01*
X3135035Y610040D01*
X3135955Y612215D01*
X3136880Y614383D01*
X3137810Y616542D01*
X3138744Y618694D01*
X3139684Y620837D01*
X3140628Y622973D01*
X3141577Y625100D01*
X3142531Y627218D01*
X3143010Y628275D01*
X3143490Y629329D01*
X3143972Y630381D01*
X3144454Y631430D01*
X3144938Y632478D01*
X3145424Y633523D01*
X3145910Y634567D01*
X3146398Y635608D01*
X3146887Y636647D01*
X3147377Y637683D01*
X3147869Y638718D01*
X3148362Y639750D01*
X3148856Y640780D01*
X3149352Y641808D01*
X3149848Y642833D01*
X3150347Y643856D01*
X3150846Y644877D01*
X3151347Y645896D01*
X3151849Y646912D01*
X3152353Y647926D01*
X3152858Y648938D01*
X3153364Y649947D01*
X3153871Y650954D01*
X3154380Y651958D01*
X3154891Y652960D01*
X3155402Y653960D01*
X3155916Y654958D01*
X3156430Y655952D01*
X3156946Y656945D01*
X3157463Y657935D01*
X3157982Y658923D01*
X3158502Y659908D01*
X3159023Y660891D01*
X3159546Y661871D01*
X3160070Y662849D01*
X3160596Y663824D01*
X3161123Y664797D01*
X3161652Y665767D01*
X3162182Y666735D01*
X3162713Y667700D01*
X3163246Y668662D01*
X3163780Y669622D01*
X3164316Y670580D01*
X3164853Y671535D01*
X3165392Y672487D01*
X3165932Y673437D01*
X3166474Y674384D01*
X3167017Y675328D01*
X3167562Y676270D01*
X3168108Y677209D01*
X3168656Y678145D01*
X3169205Y679079D01*
X3169755Y680010D01*
X3170308Y680939D01*
X3170861Y681864D01*
X3171416Y682787D01*
X3171973Y683707D01*
X3172531Y684625D01*
X3173091Y685540D01*
X3173653Y686452D01*
X3174216Y687361D01*
X3174780Y688267D01*
X3175346Y689171D01*
X3175914Y690071D01*
X3176483Y690969D01*
X3177054Y691864D01*
X3177626Y692757D01*
X3178200Y693646D01*
X3178775Y694533D01*
X3179352Y695416D01*
X3179931Y696297D01*
X3180511Y697175D01*
X3181093Y698050D01*
X3181677Y698922D01*
X3182262Y699791D01*
X3182849Y700657D01*
X3183437Y701520D01*
X3184027Y702381D01*
X3184619Y703238D01*
X3185212Y704092D01*
X3185807Y704944D01*
X3186404Y705792D01*
X3187002Y706637D01*
X3187602Y707479D01*
X3188203Y708319D01*
X3188807Y709155D01*
X3189412Y709988D01*
X3190018Y710818D01*
X3190627Y711645D01*
X3191237Y712468D01*
X3191848Y713289D01*
X3192462Y714107D01*
X3193077Y714921D01*
X3193694Y715732D01*
X3194313Y716541D01*
X3194933Y717346D01*
X3195555Y718147D01*
X3196179Y718946D01*
X3196804Y719741D01*
X3197432Y720534D01*
X3198061Y721323D01*
X3198691Y722108D01*
X3199324Y722891D01*
X3199958Y723670D01*
X3200594Y724446D01*
X3201232Y725219D01*
X3201872Y725988D01*
X3202513Y726754D01*
X3203157Y727517D01*
X3203802Y728277D01*
X3204448Y729033D01*
X3205097Y729786D01*
X3205747Y730535D01*
X3206400Y731281D01*
X3207054Y732024D01*
X3207710Y732763D01*
X3208367Y733499D01*
X3209027Y734232D01*
X3209689Y734961D01*
X3210352Y735687D01*
X3211017Y736409D01*
X3211684Y737128D01*
X3212353Y737843D01*
X3213024Y738555D01*
X3213696Y739263D01*
X3214371Y739968D01*
X3215047Y740670D01*
X3215725Y741368D01*
X3216405Y742062D01*
X3217087Y742753D01*
X3217771Y743440D01*
X3218457Y744124D01*
X3219145Y744804D01*
X3219835Y745480D01*
X3220526Y746153D01*
X3221220Y746822D01*
X3221915Y747488D01*
X3222613Y748150D01*
X3223312Y748809D01*
X3224013Y749463D01*
X3224717Y750114D01*
X3225422Y750762D01*
X3226129Y751406D01*
X3226838Y752046D01*
X3227549Y752682D01*
X3228262Y753314D01*
X3228977Y753943D01*
X3229695Y754569D01*
X3230414Y755190D01*
X3231135Y755808D01*
X3231858Y756421D01*
X3232583Y757031D01*
X3233310Y757638D01*
X3234039Y758240D01*
X3234770Y758839D01*
X3235503Y759434D01*
X3236239Y760025D01*
X3236976Y760612D01*
X3237715Y761195D01*
X3238457Y761774D01*
X3239200Y762350D01*
X3239945Y762921D01*
X3240693Y763489D01*
X3241443Y764053D01*
X3242194Y764613D01*
X3242948Y765169D01*
X3243704Y765721D01*
X3244462Y766269D01*
X3245222Y766813D01*
X3245984Y767353D01*
X3246748Y767889D01*
X3247514Y768421D01*
X3248283Y768949D01*
X3249054Y769473D01*
X3249826Y769993D01*
X3250601Y770509D01*
X3251378Y771020D01*
X3252157Y771528D01*
X3252938Y772032D01*
X3253722Y772531D01*
X3254507Y773027D01*
X3255295Y773518D01*
X3256085Y774006D01*
X3256877Y774489D01*
X3257671Y774968D01*
X3258468Y775442D01*
X3259267Y775913D01*
X3260067Y776379D01*
X3260870Y776842D01*
X3261676Y777300D01*
X3262483Y777753D01*
X3263293Y778203D01*
X3264104Y778648D01*
X3264919Y779089D01*
X3265735Y779526D01*
X3266553Y779959D01*
X3267374Y780387D01*
X3268197Y780811D01*
X3269022Y781231D01*
X3269850Y781646D01*
X3270680Y782057D01*
X3271512Y782464D01*
X3272346Y782866D01*
X3273183Y783264D01*
X3274022Y783658D01*
X3274863Y784047D01*
X3275706Y784432D01*
X3276552Y784812D01*
X3277400Y785188D01*
X3278250Y785560D01*
X3279103Y785927D01*
X3279958Y786289D01*
X3280815Y786648D01*
X3281675Y787001D01*
X3282537Y787351D01*
X3283401Y787695D01*
X3284267Y788036D01*
X3285136Y788371D01*
X3286008Y788703D01*
X3286881Y789029D01*
X3287757Y789351D01*
X3288636Y789669D01*
X3289516Y789982D01*
X3290399Y790290D01*
X3291285Y790594D01*
X3292173Y790893D01*
X3293063Y791188D01*
X3293956Y791478D01*
X3294851Y791763D01*
X3295748Y792044D01*
X3296648Y792320D01*
X3297550Y792591D01*
X3298455Y792858D01*
X3299362Y793120D01*
X3300272Y793377D01*
X3301184Y793630D01*
X3302098Y793878D01*
X3303015Y794121D01*
X3303934Y794359D01*
X3304856Y794593D01*
X3305780Y794821D01*
X3306707Y795045D01*
X3307636Y795265D01*
X3308568Y795479D01*
X3309502Y795689D01*
X3310439Y795893D01*
X3311378Y796093D01*
X3312319Y796289D01*
X3313264Y796479D01*
X3314210Y796664D01*
X3315159Y796845D01*
X3316111Y797020D01*
X3317065Y797191D01*
X3318022Y797357D01*
X3318981Y797518D01*
X3319943Y797673D01*
X3320907Y797824D01*
X3321874Y797970D01*
X3322843Y798111D01*
X3323815Y798247D01*
X3324790Y798379D01*
X3325767Y798505D01*
X3326746Y798626D01*
X3327729Y798742D01*
X3328714Y798853D01*
X3329701Y798959D01*
X3330691Y799059D01*
X3331684Y799155D01*
X3332679Y799246D01*
X3333676Y799332D01*
X3334677Y799412D01*
X3335680Y799487D01*
X3336686Y799558D01*
X3337694Y799623D01*
X3338705Y799683D01*
X3339718Y799738D01*
X3340735Y799787D01*
X3341753Y799832D01*
X3342775Y799871D01*
X3343799Y799905D01*
X3344826Y799934D01*
X3345855Y799958D01*
X3346887Y799976D01*
X3347922Y799989D01*
X3348960Y799997D01*
X3350000Y800000D01*
X3350000Y800000D02*
X7150000Y800000D01*
X7150000Y800000D02*
X7150640Y799999D01*
X7151280Y799996D01*
X7151918Y799991D01*
X7152555Y799984D01*
X7153191Y799975D01*
X7153826Y799964D01*
X7154460Y799951D01*
X7155093Y799936D01*
X7155725Y799919D01*
X7156356Y799900D01*
X7156985Y799880D01*
X7157614Y799857D01*
X7158241Y799832D01*
X7158868Y799805D01*
X7159493Y799777D01*
X7160117Y799746D01*
X7160740Y799714D01*
X7161363Y799679D01*
X7161984Y799643D01*
X7162604Y799604D01*
X7163223Y799564D01*
X7163841Y799522D01*
X7164459Y799477D01*
X7165075Y799431D01*
X7165690Y799383D01*
X7166304Y799333D01*
X7166917Y799281D01*
X7167529Y799227D01*
X7168140Y799172D01*
X7168751Y799114D01*
X7169360Y799054D01*
X7169968Y798993D01*
X7170575Y798929D01*
X7171182Y798864D01*
X7171787Y798797D01*
X7172392Y798728D01*
X7172995Y798657D01*
X7173598Y798584D01*
X7174199Y798509D01*
X7174800Y798432D01*
X7175400Y798353D01*
X7175999Y798273D01*
X7176596Y798191D01*
X7177193Y798106D01*
X7177790Y798020D01*
X7178385Y797932D01*
X7178979Y797842D01*
X7179572Y797750D01*
X7180165Y797656D01*
X7180757Y797561D01*
X7181347Y797463D01*
X7181937Y797364D01*
X7182526Y797262D01*
X7183115Y797159D01*
X7183702Y797054D01*
X7184288Y796947D01*
X7184874Y796838D01*
X7185459Y796728D01*
X7186043Y796615D01*
X7186626Y796501D01*
X7187208Y796384D01*
X7187789Y796266D01*
X7188370Y796146D01*
X7188950Y796024D01*
X7190107Y795775D01*
X7191260Y795518D01*
X7192411Y795254D01*
X7193559Y794982D01*
X7194703Y794702D01*
X7195844Y794416D01*
X7196983Y794121D01*
X7198118Y793820D01*
X7199250Y793510D01*
X7200379Y793194D01*
X7201506Y792869D01*
X7202629Y792538D01*
X7203750Y792198D01*
X7204868Y791852D01*
X7205983Y791498D01*
X7207095Y791136D01*
X7208205Y790767D01*
X7209312Y790390D01*
X7210416Y790006D01*
X7211517Y789614D01*
X7212616Y789215D01*
X7213713Y788808D01*
X7214807Y788393D01*
X7215898Y787971D01*
X7216987Y787541D01*
X7218074Y787104D01*
X7219158Y786659D01*
X7220240Y786206D01*
X7221319Y785746D01*
X7222396Y785277D01*
X7223471Y784802D01*
X7224544Y784318D01*
X7225614Y783827D01*
X7226682Y783328D01*
X7227748Y782821D01*
X7228812Y782306D01*
X7229873Y781784D01*
X7230933Y781253D01*
X7231990Y780715D01*
X7233046Y780168D01*
X7234099Y779614D01*
X7235151Y779052D01*
X7236200Y778482D01*
X7237248Y777903D01*
X7238294Y777317D01*
X7239337Y776722D01*
X7240379Y776120D01*
X7241419Y775509D01*
X7242458Y774890D01*
X7243494Y774263D01*
X7244529Y773627D01*
X7245562Y772983D01*
X7246593Y772331D01*
X7247623Y771670D01*
X7248651Y771001D01*
X7249677Y770324D01*
X7250702Y769638D01*
X7251725Y768943D01*
X7252746Y768240D01*
X7253766Y767528D01*
X7254785Y766808D01*
X7255802Y766079D01*
X7256817Y765341D01*
X7257831Y764594D01*
X7258844Y763838D01*
X7259855Y763074D01*
X7260864Y762300D01*
X7261873Y761518D01*
X7262880Y760726D01*
X7263885Y759925D01*
X7264889Y759116D01*
X7265892Y758297D01*
X7266894Y757468D01*
X7267894Y756631D01*
X7268893Y755784D01*
X7269891Y754927D01*
X7270888Y754061D01*
X7271883Y753186D01*
X7272878Y752301D01*
X7273871Y751406D01*
X7274863Y750501D01*
X7275853Y749587D01*
X7276843Y748663D01*
X7277832Y747729D01*
X7278819Y746785D01*
X7279806Y745831D01*
X7280791Y744867D01*
X7281775Y743892D01*
X7282759Y742908D01*
X7283741Y741913D01*
X7284722Y740908D01*
X7285703Y739892D01*
X7286682Y738866D01*
X7287661Y737829D01*
X7288638Y736781D01*
X7289615Y735723D01*
X7290590Y734654D01*
X7291565Y733574D01*
X7292539Y732483D01*
X7293512Y731381D01*
X7294485Y730268D01*
X7295456Y729144D01*
X7296427Y728009D01*
X7297396Y726862D01*
X7298365Y725703D01*
X7299334Y724533D01*
X7300301Y723352D01*
X7301268Y722159D01*
X7302234Y720954D01*
X7303199Y719737D01*
X7304164Y718508D01*
X7305128Y717267D01*
X7306091Y716014D01*
X7307054Y714749D01*
X7308015Y713471D01*
X7308977Y712181D01*
X7309937Y710878D01*
X7310897Y709563D01*
X7311857Y708235D01*
X7312816Y706894D01*
X7313774Y705540D01*
X7314732Y704173D01*
X7315689Y702793D01*
X7316646Y701399D01*
X7317602Y699993D01*
X7318558Y698572D01*
X7319513Y697139D01*
X7320467Y695691D01*
X7321422Y694230D01*
X7322376Y692754D01*
X7323329Y691265D01*
X7324282Y689761D01*
X7325235Y688243D01*
X7326187Y686711D01*
X7327139Y685164D01*
X7328090Y683603D01*
X7329042Y682026D01*
X7329993Y680435D01*
X7330943Y678828D01*
X7331894Y677206D01*
X7332844Y675569D01*
X7333794Y673917D01*
X7334743Y672248D01*
X7335693Y670564D01*
X7336642Y668864D01*
X7337591Y667148D01*
X7338540Y665415D01*
X7339489Y663666D01*
X7340438Y661901D01*
X7341387Y660118D01*
X7342336Y658319D01*
X7343284Y656503D01*
X7344233Y654669D01*
X7345182Y652818D01*
X7346131Y650949D01*
X7347080Y649062D01*
X7348029Y647158D01*
X7348978Y645235D01*
X7349928Y643293D01*
X7350877Y641333D01*
X7351827Y639355D01*
X7352777Y637357D01*
X7353728Y635339D01*
X7354679Y633303D01*
X7355630Y631246D01*
X7356582Y629170D01*
X7357534Y627073D01*
X7358487Y624956D01*
X7359440Y622818D01*
X7360394Y620660D01*
X7361349Y618479D01*
X7362304Y616278D01*
X7363260Y614054D01*
X7364217Y611809D01*
X7365175Y609541D01*
X7366134Y607250D01*
X7367094Y604936D01*
X7368055Y602599D01*
X7369017Y600238D01*
X7369980Y597852D01*
X7370944Y595443D01*
X7371910Y593008D01*
X7372877Y590549D01*
X7373846Y588063D01*
X7374816Y585551D01*
X7375788Y583013D01*
X7376762Y580448D01*
X7377738Y577856D01*
X7378716Y575235D01*
X7379696Y572586D01*
X7380678Y569908D01*
X7381663Y567200D01*
X7382650Y564462D01*
X7383639Y561693D01*
X7384632Y558892D01*
X7385627Y556060D01*
X7386626Y553194D01*
X7387628Y550295D01*
X7388633Y547362D01*
X7389642Y544393D01*
X7390655Y541388D01*
X7391671Y538346D01*
X7392693Y535266D01*
X7393719Y532146D01*
X7394749Y528987D01*
X7395785Y525786D01*
X7396826Y522542D01*
X7397873Y519254D01*
X7398926Y515921D01*
X7399986Y512541D01*
X7401053Y509111D01*
X7402127Y505632D01*
X7403209Y502100D01*
X7404299Y498513D01*
X7405398Y494869D01*
X7406507Y491166D01*
X7407627Y487400D01*
X7408757Y483569D01*
X7409900Y479670D01*
X7411055Y475698D01*
X7412225Y471649D01*
X7413409Y467520D01*
X7414610Y463303D01*
X7415830Y458994D01*
X7417069Y454586D01*
X7418330Y450070D01*
X7419616Y445438D01*
X7420928Y440678D01*
X7422272Y435778D01*
X7423650Y430722D01*
X7425067Y425490D01*
X7426531Y420059D01*
X7428048Y414397D01*
X7429631Y408463D01*
X7431293Y402201D01*
X7433055Y395530D01*
X7434951Y388322D01*
X7437037Y380363D01*
X7439425Y371223D01*
X7442419Y359736D01*
X7443485Y355645D01*
X7445731Y347022D01*
X7447974Y338421D01*
X7450216Y329846D01*
X7451337Y325569D01*
X7452458Y321300D01*
X7453579Y317040D01*
X7454701Y312788D01*
X7455824Y308545D01*
X7456948Y304312D01*
X7458073Y300089D01*
X7459200Y295877D01*
X7460329Y291676D01*
X7461459Y287486D01*
X7462591Y283308D01*
X7463726Y279142D01*
X7464864Y274989D01*
X7466004Y270850D01*
X7467147Y266724D01*
X7468293Y262613D01*
X7469442Y258516D01*
X7470595Y254434D01*
X7471173Y252399D01*
X7471752Y250368D01*
X7472332Y248340D01*
X7472913Y246317D01*
X7473495Y244298D01*
X7474078Y242284D01*
X7474662Y240273D01*
X7475247Y238267D01*
X7475834Y236265D01*
X7476421Y234267D01*
X7477010Y232274D01*
X7477600Y230286D01*
X7478191Y228302D01*
X7478784Y226322D01*
X7479378Y224348D01*
X7479973Y222378D01*
X7480569Y220412D01*
X7481167Y218452D01*
X7481767Y216497D01*
X7482367Y214546D01*
X7482970Y212601D01*
X7483573Y210661D01*
X7484179Y208725D01*
X7484785Y206795D01*
X7485394Y204871D01*
X7486004Y202951D01*
X7486615Y201037D01*
X7487228Y199129D01*
X7487843Y197225D01*
X7488460Y195328D01*
X7489078Y193436D01*
X7489698Y191549D01*
X7490320Y189669D01*
X7490943Y187794D01*
X7491569Y185925D01*
X7492196Y184061D01*
X7492825Y182204D01*
X7493456Y180353D01*
X7494089Y178507D01*
X7494724Y176668D01*
X7495361Y174835D01*
X7496000Y173009D01*
X7496641Y171188D01*
X7497284Y169374D01*
X7497929Y167566D01*
X7498576Y165765D01*
X7499225Y163970D01*
X7499877Y162182D01*
X7500530Y160400D01*
X7501186Y158625D01*
X7501844Y156857D01*
X7502505Y155095D01*
X7503167Y153340D01*
X7503832Y151593D01*
X7504500Y149852D01*
X7505170Y148118D01*
X7505842Y146391D01*
X7506516Y144672D01*
X7507193Y142959D01*
X7507873Y141254D01*
X7508555Y139556D01*
X7509239Y137866D01*
X7509926Y136183D01*
X7510616Y134507D01*
X7511308Y132839D01*
X7512003Y131178D01*
X7512700Y129525D01*
X7513400Y127880D01*
X7514103Y126242D01*
X7514809Y124613D01*
X7515517Y122991D01*
X7516228Y121377D01*
X7516942Y119771D01*
X7517659Y118173D01*
X7518379Y116583D01*
X7519101Y115002D01*
X7519827Y113428D01*
X7520555Y111863D01*
X7521286Y110306D01*
X7522021Y108758D01*
X7522758Y107218D01*
X7523499Y105686D01*
X7524242Y104163D01*
X7524989Y102649D01*
X7525738Y101143D01*
X7526491Y99646D01*
X7527247Y98158D01*
X7528006Y96678D01*
X7528769Y95208D01*
X7529535Y93746D01*
X7530304Y92293D01*
X7531076Y90850D01*
X7531851Y89415D01*
X7532630Y87990D01*
X7533413Y86574D01*
X7534199Y85167D01*
X7534988Y83770D01*
X7535780Y82382D01*
X7536576Y81003D01*
X7537376Y79634D01*
X7538179Y78274D01*
X7538582Y77598D01*
X7538986Y76925D01*
X7539391Y76253D01*
X7539796Y75584D01*
X7540203Y74918D01*
X7540610Y74254D01*
X7541019Y73592D01*
X7541428Y72933D01*
X7541838Y72276D01*
X7542249Y71622D01*
X7542661Y70971D01*
X7543074Y70321D01*
X7543488Y69675D01*
X7543903Y69030D01*
X7544318Y68389D01*
X7544735Y67749D01*
X7545153Y67113D01*
X7545571Y66479D01*
X7545991Y65847D01*
X7546411Y65218D01*
X7546833Y64591D01*
X7547255Y63967D01*
X7547678Y63346D01*
X7548103Y62727D01*
X7548528Y62111D01*
X7548954Y61497D01*
X7549381Y60886D01*
X7549810Y60277D01*
X7550239Y59671D01*
X7550669Y59068D01*
X7551100Y58467D01*
X7551532Y57869D01*
X7551965Y57274D01*
X7552400Y56681D01*
X7552835Y56091D01*
X7553271Y55503D01*
X7553708Y54919D01*
X7554146Y54336D01*
X7554585Y53757D01*
X7555025Y53180D01*
X7555467Y52606D01*
X7555909Y52035D01*
X7556352Y51466D01*
X7556796Y50900D01*
X7557242Y50337D01*
X7557688Y49776D01*
X7558136Y49218D01*
X7558584Y48663D01*
X7559033Y48111D01*
X7559484Y47561D01*
X7559936Y47015D01*
X7560388Y46470D01*
X7560842Y45929D01*
X7561297Y45391D01*
X7561753Y44855D01*
X7562209Y44322D01*
X7562667Y43792D01*
X7563126Y43265D01*
X7563587Y42740D01*
X7564048Y42219D01*
X7564510Y41700D01*
X7564973Y41184D01*
X7565438Y40671D01*
X7565904Y40160D01*
X7566370Y39653D01*
X7566838Y39148D01*
X7567307Y38647D01*
X7567777Y38148D01*
X7568248Y37652D01*
X7568720Y37159D01*
X7569193Y36669D01*
X7569668Y36182D01*
X7570143Y35697D01*
X7570620Y35216D01*
X7571098Y34738D01*
X7571577Y34262D01*
X7572057Y33790D01*
X7572538Y33320D01*
X7573021Y32853D01*
X7573504Y32390D01*
X7573989Y31929D01*
X7574475Y31471D01*
X7574962Y31016D01*
X7575450Y30565D01*
X7575939Y30116D01*
X7576430Y29670D01*
X7576921Y29228D01*
X7577414Y28788D01*
X7577908Y28351D01*
X7578403Y27918D01*
X7578900Y27487D01*
X7579397Y27059D01*
X7579896Y26635D01*
X7580396Y26214D01*
X7580897Y25795D01*
X7581399Y25380D01*
X7581903Y24968D01*
X7582408Y24559D01*
X7582913Y24153D01*
X7583421Y23750D01*
X7583929Y23350D01*
X7584439Y22954D01*
X7584949Y22560D01*
X7585461Y22170D01*
X7585975Y21783D01*
X7586489Y21399D01*
X7587005Y21018D01*
X7587522Y20640D01*
X7588040Y20266D01*
X7588559Y19894D01*
X7589080Y19526D01*
X7589602Y19161D01*
X7590125Y18799D01*
X7590650Y18441D01*
X7591175Y18085D01*
X7591702Y17733D01*
X7592231Y17384D01*
X7592760Y17038D01*
X7593291Y16696D01*
X7593823Y16357D01*
X7594356Y16021D01*
X7594891Y15688D01*
X7595427Y15359D01*
X7595964Y15033D01*
X7596503Y14710D01*
X7597042Y14390D01*
X7597583Y14074D01*
X7598126Y13761D01*
X7598670Y13451D01*
X7599215Y13145D01*
X7599761Y12842D01*
X7600309Y12543D01*
X7600857Y12246D01*
X7601408Y11953D01*
X7601959Y11664D01*
X7602512Y11378D01*
X7603067Y11095D01*
X7603622Y10815D01*
X7604179Y10539D01*
X7604737Y10267D01*
X7605297Y9997D01*
X7605858Y9731D01*
X7606420Y9469D01*
X7606984Y9210D01*
X7607549Y8954D01*
X7608115Y8702D01*
X7608683Y8453D01*
X7609252Y8208D01*
X7609823Y7966D01*
X7610395Y7728D01*
X7610968Y7493D01*
X7611542Y7261D01*
X7612118Y7033D01*
X7612696Y6809D01*
X7613275Y6588D01*
X7613855Y6370D01*
X7614436Y6157D01*
X7615019Y5946D01*
X7615604Y5739D01*
X7616190Y5536D01*
X7616777Y5336D01*
X7617365Y5140D01*
X7617955Y4947D01*
X7618547Y4758D01*
X7619140Y4572D01*
X7619734Y4390D01*
X7620330Y4212D01*
X7620927Y4037D01*
X7621525Y3866D01*
X7622125Y3698D01*
X7622727Y3534D01*
X7623330Y3374D01*
X7623934Y3217D01*
X7624540Y3064D01*
X7625147Y2915D01*
X7625756Y2769D01*
X7626366Y2627D01*
X7626978Y2488D01*
X7627591Y2353D01*
X7628205Y2222D01*
X7628822Y2095D01*
X7629439Y1971D01*
X7630058Y1851D01*
X7630679Y1734D01*
X7631301Y1621D01*
X7631924Y1512D01*
X7632549Y1407D01*
X7633176Y1306D01*
X7633804Y1208D01*
X7634433Y1114D01*
X7635064Y1024D01*
X7635696Y937D01*
X7636330Y854D01*
X7636966Y775D01*
X7637603Y700D01*
X7638242Y629D01*
X7638882Y561D01*
X7639523Y497D01*
X7640166Y437D01*
X7640811Y381D01*
X7641457Y329D01*
X7642105Y281D01*
X7642754Y236D01*
X7643405Y195D01*
X7644058Y158D01*
X7644712Y125D01*
X7645367Y96D01*
X7646024Y70D01*
X7646683Y49D01*
X7647343Y31D01*
X7648005Y18D01*
X7648668Y8D01*
X7649333Y2D01*
X7650000Y0D01*
X7650000Y0D02*
X9800000Y0D01*
X9800000Y0D02*
G75*
G02*
X12000000Y-2200000I-17J-2200017D01*
G01*
X11600000Y-4400000D02*
X2600000Y-4400000D01*
X12000000Y-2200000D02*
X12000000Y-4000000D01*
X12000000Y-4000000D02*
G75*
G02*
X11600000Y-4400000I-400010J10D01*
G01*
D11*
X4130000Y400000D02*
X4130000Y470035D01*
X4130000Y400000D02*
X4130000Y329965D01*
X4300000Y550000D02*
X4209965Y550000D01*
X4300000Y550000D02*
X4390035Y550000D01*
X4300000Y250000D02*
X4209965Y250000D01*
X4300000Y250000D02*
X4390035Y250000D01*
X4470000Y400000D02*
X4470000Y470035D01*
X4470000Y400000D02*
X4470000Y329965D01*
X4125607Y485665D02*
G75*
G02*
X4130000Y470035I-25606J-15630D01*
G01*
X4125607Y485665D02*
G75*
G02*
X4194335Y554393I42678J26050D01*
G01*
X4130000Y329965D02*
G75*
G02*
X4125607Y314335I-29999J0D01*
G01*
X4194335Y245607D02*
G75*
G02*
X4125607Y314335I-26050J42678D01*
G01*
X4194335Y245607D02*
G75*
G02*
X4209965Y250000I15630J-25606D01*
G01*
X4209965Y550000D02*
G75*
G02*
X4194335Y554393I0J29999D01*
G01*
X4390035Y250000D02*
G75*
G02*
X4405666Y245607I0J-30002D01*
G01*
X4405666Y554393D02*
G75*
G02*
X4390035Y550002I-15626J25607D01*
G01*
X4405666Y554393D02*
G75*
G02*
X4474393Y485665I26051J-42677D01*
G01*
X4470000Y470035D02*
G75*
G02*
X4474394Y485665I29968J9D01*
G01*
X4474393Y314335D02*
G75*
G02*
X4405666Y245607I-42677J-26051D01*
G01*
X4474393Y314335D02*
G75*
G02*
X4470002Y329965I25607J15626D01*
G01*
X7455000Y-2633000D02*
X7455000Y-2562965D01*
X7455000Y-2633000D02*
X7455000Y-2703035D01*
X7625000Y-2483000D02*
X7534965Y-2483000D01*
X7625000Y-2483000D02*
X7715035Y-2483000D01*
X7625000Y-2783000D02*
X7534965Y-2783000D01*
X7625000Y-2783000D02*
X7715035Y-2783000D01*
X7795000Y-2633000D02*
X7795000Y-2562965D01*
X7795000Y-2633000D02*
X7795000Y-2703035D01*
X7450607Y-2547335D02*
G75*
G02*
X7455000Y-2562965I-25606J-15630D01*
G01*
X7450607Y-2547335D02*
G75*
G02*
X7519334Y-2478607I42678J26050D01*
G01*
X7455000Y-2703035D02*
G75*
G02*
X7450607Y-2718666I-29999J0D01*
G01*
X7519334Y-2787393D02*
G75*
G02*
X7450607Y-2718666I-26050J42678D01*
G01*
X7519334Y-2787393D02*
G75*
G02*
X7534965Y-2783000I15630J-25606D01*
G01*
X7534965Y-2483000D02*
G75*
G02*
X7519334Y-2478607I0J29999D01*
G01*
X7715035Y-2783000D02*
G75*
G02*
X7730666Y-2787393I0J-30002D01*
G01*
X7730665Y-2478607D02*
G75*
G02*
X7715035Y-2482998I-15626J25607D01*
G01*
X7730665Y-2478607D02*
G75*
G02*
X7799393Y-2547335I26051J-42677D01*
G01*
X7795000Y-2562965D02*
G75*
G02*
X7799393Y-2547335I29968J9D01*
G01*
X7799393Y-2718666D02*
G75*
G02*
X7730665Y-2787393I-42677J-26051D01*
G01*
X7799393Y-2718666D02*
G75*
G02*
X7795002Y-2703035I25607J15626D01*
G01*
X7455000Y-3500000D02*
X7455000Y-3429965D01*
X7455000Y-3500000D02*
X7455000Y-3570035D01*
X7625000Y-3350000D02*
X7534965Y-3350000D01*
X7625000Y-3350000D02*
X7715035Y-3350000D01*
X7625000Y-3650000D02*
X7534965Y-3650000D01*
X7625000Y-3650000D02*
X7715035Y-3650000D01*
X7795000Y-3500000D02*
X7795000Y-3429965D01*
X7795000Y-3500000D02*
X7795000Y-3570035D01*
X7450607Y-3414334D02*
G75*
G02*
X7455000Y-3429965I-25606J-15630D01*
G01*
X7450607Y-3414334D02*
G75*
G02*
X7519334Y-3345607I42678J26050D01*
G01*
X7455000Y-3570035D02*
G75*
G02*
X7450607Y-3585665I-29999J0D01*
G01*
X7519334Y-3654393D02*
G75*
G02*
X7450607Y-3585665I-26050J42678D01*
G01*
X7519334Y-3654393D02*
G75*
G02*
X7534965Y-3650000I15630J-25606D01*
G01*
X7534965Y-3350000D02*
G75*
G02*
X7519334Y-3345607I0J29999D01*
G01*
X7715035Y-3650000D02*
G75*
G02*
X7730666Y-3654393I0J-30002D01*
G01*
X7730665Y-3345607D02*
G75*
G02*
X7715035Y-3349998I-15626J25607D01*
G01*
X7730665Y-3345607D02*
G75*
G02*
X7799393Y-3414334I26051J-42677D01*
G01*
X7795000Y-3429965D02*
G75*
G02*
X7799393Y-3414335I29968J9D01*
G01*
X7799393Y-3585665D02*
G75*
G02*
X7730665Y-3654393I-42677J-26051D01*
G01*
X7799393Y-3585665D02*
G75*
G02*
X7795002Y-3570035I25607J15626D01*
G01*
X4880000Y400000D02*
X4880000Y470035D01*
X4880000Y400000D02*
X4880000Y329965D01*
X5050000Y550000D02*
X4959965Y550000D01*
X5050000Y550000D02*
X5140035Y550000D01*
X5050000Y250000D02*
X4959965Y250000D01*
X5050000Y250000D02*
X5140035Y250000D01*
X5220000Y400000D02*
X5220000Y470035D01*
X5220000Y400000D02*
X5220000Y329965D01*
X4875607Y485665D02*
G75*
G02*
X4880000Y470035I-25606J-15630D01*
G01*
X4875607Y485665D02*
G75*
G02*
X4944335Y554393I42678J26050D01*
G01*
X4880000Y329965D02*
G75*
G02*
X4875607Y314335I-29999J0D01*
G01*
X4944335Y245607D02*
G75*
G02*
X4875607Y314335I-26050J42678D01*
G01*
X4944335Y245607D02*
G75*
G02*
X4959965Y250000I15630J-25606D01*
G01*
X4959965Y550000D02*
G75*
G02*
X4944335Y554393I0J29999D01*
G01*
X5140035Y250000D02*
G75*
G02*
X5155666Y245607I0J-30002D01*
G01*
X5155666Y554393D02*
G75*
G02*
X5140035Y550002I-15626J25607D01*
G01*
X5155666Y554393D02*
G75*
G02*
X5224393Y485665I26051J-42677D01*
G01*
X5220000Y470035D02*
G75*
G02*
X5224394Y485665I29968J9D01*
G01*
X5224393Y314335D02*
G75*
G02*
X5155666Y245607I-42677J-26051D01*
G01*
X5224393Y314335D02*
G75*
G02*
X5220002Y329965I25607J15626D01*
G01*
X7455000Y-1767000D02*
X7455000Y-1696965D01*
X7455000Y-1767000D02*
X7455000Y-1837035D01*
X7625000Y-1617000D02*
X7534965Y-1617000D01*
X7625000Y-1617000D02*
X7715035Y-1617000D01*
X7625000Y-1917000D02*
X7534965Y-1917000D01*
X7625000Y-1917000D02*
X7715035Y-1917000D01*
X7795000Y-1767000D02*
X7795000Y-1696965D01*
X7795000Y-1767000D02*
X7795000Y-1837035D01*
X7450607Y-1681334D02*
G75*
G02*
X7455000Y-1696965I-25606J-15630D01*
G01*
X7450607Y-1681334D02*
G75*
G02*
X7519334Y-1612607I42678J26050D01*
G01*
X7455000Y-1837035D02*
G75*
G02*
X7450607Y-1852665I-29999J0D01*
G01*
X7519334Y-1921393D02*
G75*
G02*
X7450607Y-1852665I-26050J42678D01*
G01*
X7519334Y-1921393D02*
G75*
G02*
X7534965Y-1917000I15630J-25606D01*
G01*
X7534965Y-1617000D02*
G75*
G02*
X7519334Y-1612607I0J29999D01*
G01*
X7715035Y-1917000D02*
G75*
G02*
X7730666Y-1921393I0J-30002D01*
G01*
X7730665Y-1612607D02*
G75*
G02*
X7715035Y-1616998I-15626J25607D01*
G01*
X7730665Y-1612607D02*
G75*
G02*
X7799393Y-1681334I26051J-42677D01*
G01*
X7795000Y-1696965D02*
G75*
G02*
X7799393Y-1681335I29968J9D01*
G01*
X7799393Y-1852665D02*
G75*
G02*
X7730665Y-1921393I-42677J-26051D01*
G01*
X7799393Y-1852665D02*
G75*
G02*
X7795002Y-1837035I25607J15626D01*
G01*
X3380000Y400000D02*
X3380000Y470035D01*
X3380000Y400000D02*
X3380000Y329965D01*
X3550000Y550000D02*
X3459965Y550000D01*
X3550000Y550000D02*
X3640035Y550000D01*
X3550000Y250000D02*
X3459965Y250000D01*
X3550000Y250000D02*
X3640035Y250000D01*
X3720000Y400000D02*
X3720000Y470035D01*
X3720000Y400000D02*
X3720000Y329965D01*
X3375607Y485665D02*
G75*
G02*
X3380000Y470035I-25606J-15630D01*
G01*
X3375607Y485665D02*
G75*
G02*
X3444334Y554393I42678J26050D01*
G01*
X3380000Y329965D02*
G75*
G02*
X3375607Y314335I-29999J0D01*
G01*
X3444334Y245607D02*
G75*
G02*
X3375607Y314335I-26050J42678D01*
G01*
X3444334Y245607D02*
G75*
G02*
X3459965Y250000I15630J-25606D01*
G01*
X3459965Y550000D02*
G75*
G02*
X3444334Y554393I0J29999D01*
G01*
X3640035Y250000D02*
G75*
G02*
X3655666Y245607I0J-30002D01*
G01*
X3655665Y554393D02*
G75*
G02*
X3640035Y550002I-15626J25607D01*
G01*
X3655665Y554393D02*
G75*
G02*
X3724393Y485665I26051J-42677D01*
G01*
X3720000Y470035D02*
G75*
G02*
X3724393Y485665I29968J9D01*
G01*
X3724393Y314335D02*
G75*
G02*
X3655665Y245607I-42677J-26051D01*
G01*
X3724393Y314335D02*
G75*
G02*
X3720002Y329965I25607J15626D01*
G01*
X7455000Y-900000D02*
X7455000Y-829965D01*
X7455000Y-900000D02*
X7455000Y-970035D01*
X7625000Y-750000D02*
X7534965Y-750000D01*
X7625000Y-750000D02*
X7715035Y-750000D01*
X7625000Y-1050000D02*
X7534965Y-1050000D01*
X7625000Y-1050000D02*
X7715035Y-1050000D01*
X7795000Y-900000D02*
X7795000Y-829965D01*
X7795000Y-900000D02*
X7795000Y-970035D01*
X7450607Y-814334D02*
G75*
G02*
X7455000Y-829965I-25606J-15630D01*
G01*
X7450607Y-814334D02*
G75*
G02*
X7519334Y-745607I42678J26050D01*
G01*
X7455000Y-970035D02*
G75*
G02*
X7450607Y-985665I-29999J0D01*
G01*
X7519334Y-1054393D02*
G75*
G02*
X7450607Y-985665I-26050J42678D01*
G01*
X7519334Y-1054393D02*
G75*
G02*
X7534965Y-1050000I15630J-25606D01*
G01*
X7534965Y-750000D02*
G75*
G02*
X7519334Y-745607I0J29999D01*
G01*
X7715035Y-1050000D02*
G75*
G02*
X7730666Y-1054393I0J-30002D01*
G01*
X7730665Y-745607D02*
G75*
G02*
X7715035Y-749998I-15626J25607D01*
G01*
X7730665Y-745607D02*
G75*
G02*
X7799393Y-814334I26051J-42677D01*
G01*
X7795000Y-829965D02*
G75*
G02*
X7799393Y-814335I29968J9D01*
G01*
X7799393Y-985665D02*
G75*
G02*
X7730665Y-1054393I-42677J-26051D01*
G01*
X7799393Y-985665D02*
G75*
G02*
X7795002Y-970035I25607J15626D01*
G01*
D12*
D10*
X405000Y-1506000D02*
X435000Y-1536000D01*
X435000Y-1506000D02*
X405000Y-1536000D01*
X405000Y-2014000D02*
X435000Y-2044000D01*
X435000Y-2014000D02*
X405000Y-2044000D01*
X405000Y-2268000D02*
X435000Y-2298000D01*
X435000Y-2268000D02*
X405000Y-2298000D01*
X405000Y-2385000D02*
X435000Y-2415000D01*
X435000Y-2385000D02*
X405000Y-2415000D01*
X525000Y-2385000D02*
X555000Y-2415000D01*
X555000Y-2385000D02*
X525000Y-2415000D01*
X535050Y-1385050D02*
X565050Y-1415050D01*
X565050Y-1385050D02*
X535050Y-1415050D01*
X550350Y-2211300D02*
X580350Y-2241300D01*
X580350Y-2211300D02*
X550350Y-2241300D01*
X1175830Y-744000D02*
X1205830Y-774000D01*
X1205830Y-744000D02*
X1175830Y-774000D01*
X1540880Y-960050D02*
X1570880Y-990050D01*
X1570880Y-960050D02*
X1540880Y-990050D01*
X1573340Y-1252000D02*
X1603340Y-1282000D01*
X1603340Y-1252000D02*
X1573340Y-1282000D01*
X1706040Y-705000D02*
X1736040Y-735000D01*
X1736040Y-705000D02*
X1706040Y-735000D01*
X1745000Y-2370000D02*
X1775000Y-2400000D01*
X1775000Y-2370000D02*
X1745000Y-2400000D01*
X1785050Y-1060050D02*
X1815050Y-1090050D01*
X1815050Y-1060050D02*
X1785050Y-1090050D01*
X1813240Y-1612450D02*
X1843240Y-1642450D01*
X1843240Y-1612450D02*
X1813240Y-1642450D01*
X1830000Y-2400000D02*
X1860000Y-2430000D01*
X1860000Y-2400000D02*
X1830000Y-2430000D01*
X1831630Y-1450750D02*
X1861630Y-1480750D01*
X1861630Y-1450750D02*
X1831630Y-1480750D01*
X1832630Y-1976100D02*
X1862630Y-2006100D01*
X1862630Y-1976100D02*
X1832630Y-2006100D01*
X1835000Y-1252000D02*
X1865000Y-1282000D01*
X1865000Y-1252000D02*
X1835000Y-1282000D01*
X2149870Y-2163080D02*
X2179870Y-2193080D01*
X2179870Y-2163080D02*
X2149870Y-2193080D01*
X2153610Y-898630D02*
X2183610Y-928630D01*
X2183610Y-898630D02*
X2153610Y-928630D01*
X3068740Y-1550970D02*
X3098740Y-1580970D01*
X3098740Y-1550970D02*
X3068740Y-1580970D01*
X3080330Y-2137450D02*
X3110330Y-2167450D01*
X3110330Y-2137450D02*
X3080330Y-2167450D01*
X3102000Y-1757790D02*
X3132000Y-1787790D01*
X3132000Y-1757790D02*
X3102000Y-1787790D01*
X3169360Y-2137860D02*
X3199360Y-2167860D01*
X3199360Y-2137860D02*
X3169360Y-2167860D01*
X3213740Y533900D02*
X3243740Y503900D01*
X3243740Y533900D02*
X3213740Y503900D01*
X3306970Y-969450D02*
X3336970Y-999450D01*
X3336970Y-969450D02*
X3306970Y-999450D01*
X3392980Y-1975940D02*
X3422980Y-2005940D01*
X3422980Y-1975940D02*
X3392980Y-2005940D01*
X3487270Y-1931160D02*
X3517270Y-1961160D01*
X3517270Y-1931160D02*
X3487270Y-1961160D01*
X3576130Y695000D02*
X3606130Y665000D01*
X3606130Y695000D02*
X3576130Y665000D01*
X3591410Y-2484530D02*
X3621410Y-2514530D01*
X3621410Y-2484530D02*
X3591410Y-2514530D01*
X3597360Y-1769580D02*
X3627360Y-1799580D01*
X3627360Y-1769580D02*
X3597360Y-1799580D01*
X3637130Y-2376690D02*
X3667130Y-2406690D01*
X3667130Y-2376690D02*
X3637130Y-2406690D01*
X3768170Y-2376690D02*
X3798170Y-2406690D01*
X3798170Y-2376690D02*
X3768170Y-2406690D01*
X3786070Y-4265000D02*
X3816070Y-4295000D01*
X3816070Y-4265000D02*
X3786070Y-4295000D01*
X3851280Y-2396900D02*
X3881280Y-2426900D01*
X3881280Y-2396900D02*
X3851280Y-2426900D01*
X4176130Y695000D02*
X4206130Y665000D01*
X4206130Y695000D02*
X4176130Y665000D01*
X4224860Y-3380000D02*
X4254860Y-3410000D01*
X4254860Y-3380000D02*
X4224860Y-3410000D01*
X4286650Y-445000D02*
X4316650Y-475000D01*
X4316650Y-445000D02*
X4286650Y-475000D01*
X4305000Y155000D02*
X4335000Y125000D01*
X4335000Y155000D02*
X4305000Y125000D01*
X4386070Y-4265000D02*
X4416070Y-4295000D01*
X4416070Y-4265000D02*
X4386070Y-4295000D01*
X4664690Y-1467690D02*
X4694690Y-1497690D01*
X4694690Y-1467690D02*
X4664690Y-1497690D01*
X4776130Y695000D02*
X4806130Y665000D01*
X4806130Y695000D02*
X4776130Y665000D01*
X4790050Y-1489680D02*
X4820050Y-1519680D01*
X4820050Y-1489680D02*
X4790050Y-1519680D01*
X4860030Y-1112330D02*
X4890030Y-1142330D01*
X4890030Y-1112330D02*
X4860030Y-1142330D01*
X4871440Y-1482420D02*
X4901440Y-1512420D01*
X4901440Y-1482420D02*
X4871440Y-1512420D01*
X4956890Y-1508460D02*
X4986890Y-1538460D01*
X4986890Y-1508460D02*
X4956890Y-1538460D01*
X5055000Y155000D02*
X5085000Y125000D01*
X5085000Y155000D02*
X5055000Y125000D01*
X5122130Y-895000D02*
X5152130Y-925000D01*
X5152130Y-895000D02*
X5122130Y-925000D01*
X5281080Y-1759570D02*
X5311080Y-1789570D01*
X5311080Y-1759570D02*
X5281080Y-1789570D01*
X5374380Y-1758880D02*
X5404380Y-1788880D01*
X5404380Y-1758880D02*
X5374380Y-1788880D01*
X5376130Y695000D02*
X5406130Y665000D01*
X5406130Y695000D02*
X5376130Y665000D01*
X5462450Y-3380000D02*
X5492450Y-3410000D01*
X5492450Y-3380000D02*
X5462450Y-3410000D01*
X5494830Y-1725000D02*
X5524830Y-1755000D01*
X5524830Y-1725000D02*
X5494830Y-1755000D01*
X5965000Y-65000D02*
X5995000Y-95000D01*
X5995000Y-65000D02*
X5965000Y-95000D01*
X5976130Y695000D02*
X6006130Y665000D01*
X6006130Y695000D02*
X5976130Y665000D01*
X6427370Y-3420550D02*
X6457370Y-3450550D01*
X6457370Y-3420550D02*
X6427370Y-3450550D01*
X6428290Y-2617310D02*
X6458290Y-2647310D01*
X6458290Y-2617310D02*
X6428290Y-2647310D01*
X6428530Y-4129860D02*
X6458530Y-4159860D01*
X6458530Y-4129860D02*
X6428530Y-4159860D01*
X6539710Y-3957280D02*
X6569710Y-3987280D01*
X6569710Y-3957280D02*
X6539710Y-3987280D01*
X6553910Y-1409210D02*
X6583910Y-1439210D01*
X6583910Y-1409210D02*
X6553910Y-1439210D01*
X6605030Y-1850390D02*
X6635030Y-1880390D01*
X6635030Y-1850390D02*
X6605030Y-1880390D01*
X6617340Y-3230120D02*
X6647340Y-3260120D01*
X6647340Y-3230120D02*
X6617340Y-3260120D01*
X6625090Y-2887190D02*
X6655090Y-2917190D01*
X6655090Y-2887190D02*
X6625090Y-2917190D01*
X6669800Y-1319850D02*
X6699800Y-1349850D01*
X6699800Y-1319850D02*
X6669800Y-1349850D01*
X6687870Y-3650110D02*
X6717870Y-3680110D01*
X6717870Y-3650110D02*
X6687870Y-3680110D01*
X6831670Y-1356180D02*
X6861670Y-1386180D01*
X6861670Y-1356180D02*
X6831670Y-1386180D01*
X6887100Y-270000D02*
X6917100Y-300000D01*
X6917100Y-270000D02*
X6887100Y-300000D01*
X6936810Y-2119870D02*
X6966810Y-2149870D01*
X6966810Y-2119870D02*
X6936810Y-2149870D01*
X6981650Y-3420550D02*
X7011650Y-3450550D01*
X7011650Y-3420550D02*
X6981650Y-3450550D01*
X7015350Y-883270D02*
X7045350Y-913270D01*
X7045350Y-883270D02*
X7015350Y-913270D01*
X7039910Y-733490D02*
X7069910Y-763490D01*
X7069910Y-733490D02*
X7039910Y-763490D01*
X7044550Y-1089530D02*
X7074550Y-1119530D01*
X7074550Y-1089530D02*
X7044550Y-1119530D01*
X7070910Y-2515510D02*
X7100910Y-2545510D01*
X7100910Y-2515510D02*
X7070910Y-2545510D01*
X7084300Y-3090000D02*
X7114300Y-3120000D01*
X7114300Y-3090000D02*
X7084300Y-3120000D01*
X7092640Y-1022960D02*
X7122640Y-1052960D01*
X7122640Y-1022960D02*
X7092640Y-1052960D01*
X7138190Y696500D02*
X7168190Y666500D01*
X7168190Y696500D02*
X7138190Y666500D01*
X7139060Y-753930D02*
X7169060Y-783930D01*
X7169060Y-753930D02*
X7139060Y-783930D01*
X7169460Y-4049690D02*
X7199460Y-4079690D01*
X7199460Y-4049690D02*
X7169460Y-4079690D01*
X7178760Y-2218410D02*
X7208760Y-2248410D01*
X7208760Y-2218410D02*
X7178760Y-2248410D01*
X7220000Y-1700000D02*
X7250000Y-1730000D01*
X7250000Y-1700000D02*
X7220000Y-1730000D01*
X7269810Y-2119870D02*
X7299810Y-2149870D01*
X7299810Y-2119870D02*
X7269810Y-2149870D01*
X7330470Y271980D02*
X7360470Y241980D01*
X7360470Y271980D02*
X7330470Y241980D01*
X7353500Y-4129860D02*
X7383500Y-4159860D01*
X7383500Y-4129860D02*
X7353500Y-4159860D01*
X7361280Y-2220000D02*
X7391280Y-2250000D01*
X7391280Y-2220000D02*
X7361280Y-2250000D01*
X7361650Y-3090000D02*
X7391650Y-3120000D01*
X7391650Y-3090000D02*
X7361650Y-3120000D01*
X7555000Y-4197000D02*
X7585000Y-4227000D01*
X7585000Y-4197000D02*
X7555000Y-4227000D01*
X7733880Y-470330D02*
X7763880Y-500330D01*
X7763880Y-470330D02*
X7733880Y-500330D01*
X7867270Y-105000D02*
X7897270Y-135000D01*
X7897270Y-105000D02*
X7867270Y-135000D01*
X7898800Y-2925070D02*
X7928800Y-2955070D01*
X7928800Y-2925070D02*
X7898800Y-2955070D01*
X7927900Y-602670D02*
X7957900Y-632670D01*
X7957900Y-602670D02*
X7927900Y-632670D01*
X7975710Y-2090170D02*
X8005710Y-2120170D01*
X8005710Y-2090170D02*
X7975710Y-2120170D01*
X8435000Y-1045000D02*
X8465000Y-1075000D01*
X8465000Y-1045000D02*
X8435000Y-1075000D01*
X8467270Y-105000D02*
X8497270Y-135000D01*
X8497270Y-105000D02*
X8467270Y-135000D01*
X8470970Y-1642550D02*
X8500970Y-1672550D01*
X8500970Y-1642550D02*
X8470970Y-1672550D01*
X8665650Y-1451200D02*
X8695650Y-1481200D01*
X8695650Y-1451200D02*
X8665650Y-1481200D01*
X8667270Y-1556860D02*
X8697270Y-1586860D01*
X8697270Y-1556860D02*
X8667270Y-1586860D01*
X8668370Y-1369970D02*
X8698370Y-1399970D01*
X8698370Y-1369970D02*
X8668370Y-1399970D01*
X8669980Y-1235560D02*
X8699980Y-1265560D01*
X8699980Y-1235560D02*
X8669980Y-1265560D01*
X9067270Y-105000D02*
X9097270Y-135000D01*
X9097270Y-105000D02*
X9067270Y-135000D01*
X9189210Y-3072670D02*
X9219210Y-3102670D01*
X9219210Y-3072670D02*
X9189210Y-3102670D01*
X9289340Y-2611510D02*
X9319340Y-2641510D01*
X9319340Y-2611510D02*
X9289340Y-2641510D01*
X9667270Y-105000D02*
X9697270Y-135000D01*
X9697270Y-105000D02*
X9667270Y-135000D01*
X10078940Y-1208020D02*
X10108940Y-1238020D01*
X10108940Y-1208020D02*
X10078940Y-1238020D01*
X10236010Y-155580D02*
X10266010Y-185580D01*
X10266010Y-155580D02*
X10236010Y-185580D01*
X10767190Y-352840D02*
X10797190Y-382840D01*
X10797190Y-352840D02*
X10767190Y-382840D01*
X11225540Y-685980D02*
X11255540Y-715980D01*
X11255540Y-685980D02*
X11225540Y-715980D01*
X11555610Y-2750000D02*
X11585610Y-2780000D01*
X11585610Y-2750000D02*
X11555610Y-2780000D01*
X11577180Y-1130400D02*
X11607180Y-1160400D01*
X11607180Y-1130400D02*
X11577180Y-1160400D01*
X11865000Y-2212130D02*
X11895000Y-2242130D01*
X11895000Y-2212130D02*
X11865000Y-2242130D01*
X11865000Y-2812130D02*
X11895000Y-2842130D01*
X11895000Y-2812130D02*
X11865000Y-2842130D01*
X3969000Y-985000D02*
G75*
G02*
X3869000Y-985000I-50000J0D01*
G01*
X3869000Y-985000D02*
G75*
G02*
X3969000Y-985000I50000J0D01*
G01*
X4223000Y-985000D02*
G75*
G02*
X4123000Y-985000I-50000J0D01*
G01*
X4123000Y-985000D02*
G75*
G02*
X4223000Y-985000I50000J0D01*
G01*
X4477000Y-985000D02*
G75*
G02*
X4377000Y-985000I-50000J0D01*
G01*
X4377000Y-985000D02*
G75*
G02*
X4477000Y-985000I50000J0D01*
G01*
X4731000Y-985000D02*
G75*
G02*
X4631000Y-985000I-50000J0D01*
G01*
X4631000Y-985000D02*
G75*
G02*
X4731000Y-985000I50000J0D01*
G01*
D12*
X255777Y-4716484D02*
X255777Y-4516484D01*
X255777Y-4516484D02*
X303396Y-4516484D01*
X303396Y-4516484D02*
X331967Y-4526008D01*
X331967Y-4526008D02*
X351015Y-4545055D01*
X351015Y-4545055D02*
X360539Y-4564103D01*
X360539Y-4564103D02*
X370062Y-4602198D01*
X370062Y-4602198D02*
X370062Y-4630770D01*
X370062Y-4630770D02*
X360539Y-4668865D01*
X360539Y-4668865D02*
X351015Y-4687912D01*
X351015Y-4687912D02*
X331967Y-4706960D01*
X331967Y-4706960D02*
X303396Y-4716484D01*
X303396Y-4716484D02*
X255777Y-4716484D01*
X455777Y-4716484D02*
X455777Y-4583150D01*
X455777Y-4621246D02*
X465301Y-4602198D01*
X465301Y-4602198D02*
X474824Y-4592674D01*
X474824Y-4592674D02*
X493872Y-4583150D01*
X493872Y-4583150D02*
X512920Y-4583150D01*
X579586Y-4716484D02*
X579586Y-4583150D01*
X579586Y-4516484D02*
X570063Y-4526008D01*
X570063Y-4526008D02*
X579586Y-4535531D01*
X579586Y-4535531D02*
X589110Y-4526008D01*
X589110Y-4526008D02*
X579586Y-4516484D01*
X579586Y-4516484D02*
X579586Y-4535531D01*
X703396Y-4716484D02*
X684348Y-4706960D01*
X684348Y-4706960D02*
X674824Y-4687912D01*
X674824Y-4687912D02*
X674824Y-4516484D01*
X808158Y-4716484D02*
X789110Y-4706960D01*
X789110Y-4706960D02*
X779586Y-4687912D01*
X779586Y-4687912D02*
X779586Y-4516484D01*
X1036729Y-4716484D02*
X1036729Y-4516484D01*
X1036729Y-4516484D02*
X1103396Y-4659341D01*
X1103396Y-4659341D02*
X1170063Y-4516484D01*
X1170063Y-4516484D02*
X1170063Y-4716484D01*
X1351015Y-4716484D02*
X1351015Y-4611722D01*
X1351015Y-4611722D02*
X1341491Y-4592674D01*
X1341491Y-4592674D02*
X1322444Y-4583150D01*
X1322444Y-4583150D02*
X1284348Y-4583150D01*
X1284348Y-4583150D02*
X1265301Y-4592674D01*
X1351015Y-4706960D02*
X1331967Y-4716484D01*
X1331967Y-4716484D02*
X1284348Y-4716484D01*
X1284348Y-4716484D02*
X1265301Y-4706960D01*
X1265301Y-4706960D02*
X1255777Y-4687912D01*
X1255777Y-4687912D02*
X1255777Y-4668865D01*
X1255777Y-4668865D02*
X1265301Y-4649817D01*
X1265301Y-4649817D02*
X1284348Y-4640293D01*
X1284348Y-4640293D02*
X1331967Y-4640293D01*
X1331967Y-4640293D02*
X1351015Y-4630770D01*
X1446253Y-4583150D02*
X1446253Y-4783150D01*
X1446253Y-4592674D02*
X1465301Y-4583150D01*
X1465301Y-4583150D02*
X1503396Y-4583150D01*
X1503396Y-4583150D02*
X1522443Y-4592674D01*
X1522443Y-4592674D02*
X1531967Y-4602198D01*
X1531967Y-4602198D02*
X1541491Y-4621246D01*
X1541491Y-4621246D02*
X1541491Y-4678389D01*
X1541491Y-4678389D02*
X1531967Y-4697436D01*
X1531967Y-4697436D02*
X1522443Y-4706960D01*
X1522443Y-4706960D02*
X1503396Y-4716484D01*
X1503396Y-4716484D02*
X1465301Y-4716484D01*
X1465301Y-4716484D02*
X1446253Y-4706960D01*
X1627205Y-4697436D02*
X1636729Y-4706960D01*
X1636729Y-4706960D02*
X1627205Y-4716484D01*
X1627205Y-4716484D02*
X1617682Y-4706960D01*
X1617682Y-4706960D02*
X1627205Y-4697436D01*
X1627205Y-4697436D02*
X1627205Y-4716484D01*
X1627205Y-4592674D02*
X1636729Y-4602198D01*
X1636729Y-4602198D02*
X1627205Y-4611722D01*
X1627205Y-4611722D02*
X1617682Y-4602198D01*
X1617682Y-4602198D02*
X1627205Y-4592674D01*
X1627205Y-4592674D02*
X1627205Y-4611722D01*
D10*
X-35000Y-5030000D02*
X-5000Y-5060000D01*
X-5000Y-5030000D02*
X-35000Y-5060000D01*
D12*
X293872Y-4936484D02*
X312920Y-4936484D01*
X312920Y-4936484D02*
X331967Y-4946008D01*
X331967Y-4946008D02*
X341491Y-4955531D01*
X341491Y-4955531D02*
X351015Y-4974579D01*
X351015Y-4974579D02*
X360539Y-5012674D01*
X360539Y-5012674D02*
X360539Y-5060293D01*
X360539Y-5060293D02*
X351015Y-5098389D01*
X351015Y-5098389D02*
X341491Y-5117436D01*
X341491Y-5117436D02*
X331967Y-5126960D01*
X331967Y-5126960D02*
X312920Y-5136484D01*
X312920Y-5136484D02*
X293872Y-5136484D01*
X293872Y-5136484D02*
X274824Y-5126960D01*
X274824Y-5126960D02*
X265301Y-5117436D01*
X265301Y-5117436D02*
X255777Y-5098389D01*
X255777Y-5098389D02*
X246253Y-5060293D01*
X246253Y-5060293D02*
X246253Y-5012674D01*
X246253Y-5012674D02*
X255777Y-4974579D01*
X255777Y-4974579D02*
X265301Y-4955531D01*
X265301Y-4955531D02*
X274824Y-4946008D01*
X274824Y-4946008D02*
X293872Y-4936484D01*
X455777Y-5126960D02*
X455777Y-5136484D01*
X455777Y-5136484D02*
X446253Y-5155531D01*
X446253Y-5155531D02*
X436729Y-5165055D01*
X522443Y-4936484D02*
X646253Y-4936484D01*
X646253Y-4936484D02*
X579586Y-5012674D01*
X579586Y-5012674D02*
X608158Y-5012674D01*
X608158Y-5012674D02*
X627205Y-5022198D01*
X627205Y-5022198D02*
X636729Y-5031722D01*
X636729Y-5031722D02*
X646253Y-5050770D01*
X646253Y-5050770D02*
X646253Y-5098389D01*
X646253Y-5098389D02*
X636729Y-5117436D01*
X636729Y-5117436D02*
X627205Y-5126960D01*
X627205Y-5126960D02*
X608158Y-5136484D01*
X608158Y-5136484D02*
X551015Y-5136484D01*
X551015Y-5136484D02*
X531967Y-5126960D01*
X531967Y-5126960D02*
X522443Y-5117436D01*
X770062Y-4936484D02*
X789110Y-4936484D01*
X789110Y-4936484D02*
X808158Y-4946008D01*
X808158Y-4946008D02*
X817682Y-4955531D01*
X817682Y-4955531D02*
X827205Y-4974579D01*
X827205Y-4974579D02*
X836729Y-5012674D01*
X836729Y-5012674D02*
X836729Y-5060293D01*
X836729Y-5060293D02*
X827205Y-5098389D01*
X827205Y-5098389D02*
X817682Y-5117436D01*
X817682Y-5117436D02*
X808158Y-5126960D01*
X808158Y-5126960D02*
X789110Y-5136484D01*
X789110Y-5136484D02*
X770062Y-5136484D01*
X770062Y-5136484D02*
X751015Y-5126960D01*
X751015Y-5126960D02*
X741491Y-5117436D01*
X741491Y-5117436D02*
X731967Y-5098389D01*
X731967Y-5098389D02*
X722443Y-5060293D01*
X722443Y-5060293D02*
X722443Y-5012674D01*
X722443Y-5012674D02*
X731967Y-4974579D01*
X731967Y-4974579D02*
X741491Y-4955531D01*
X741491Y-4955531D02*
X751015Y-4946008D01*
X751015Y-4946008D02*
X770062Y-4936484D01*
X960539Y-4936484D02*
X979586Y-4936484D01*
X979586Y-4936484D02*
X998634Y-4946008D01*
X998634Y-4946008D02*
X1008158Y-4955531D01*
X1008158Y-4955531D02*
X1017682Y-4974579D01*
X1017682Y-4974579D02*
X1027205Y-5012674D01*
X1027205Y-5012674D02*
X1027205Y-5060293D01*
X1027205Y-5060293D02*
X1017682Y-5098389D01*
X1017682Y-5098389D02*
X1008158Y-5117436D01*
X1008158Y-5117436D02*
X998634Y-5126960D01*
X998634Y-5126960D02*
X979586Y-5136484D01*
X979586Y-5136484D02*
X960539Y-5136484D01*
X960539Y-5136484D02*
X941491Y-5126960D01*
X941491Y-5126960D02*
X931967Y-5117436D01*
X931967Y-5117436D02*
X922443Y-5098389D01*
X922443Y-5098389D02*
X912920Y-5060293D01*
X912920Y-5060293D02*
X912920Y-5012674D01*
X912920Y-5012674D02*
X922443Y-4974579D01*
X922443Y-4974579D02*
X931967Y-4955531D01*
X931967Y-4955531D02*
X941491Y-4946008D01*
X941491Y-4946008D02*
X960539Y-4936484D01*
X1112920Y-5136484D02*
X1112920Y-5003150D01*
X1112920Y-5022198D02*
X1122444Y-5012674D01*
X1122444Y-5012674D02*
X1141491Y-5003150D01*
X1141491Y-5003150D02*
X1170063Y-5003150D01*
X1170063Y-5003150D02*
X1189110Y-5012674D01*
X1189110Y-5012674D02*
X1198634Y-5031722D01*
X1198634Y-5031722D02*
X1198634Y-5136484D01*
X1198634Y-5031722D02*
X1208158Y-5012674D01*
X1208158Y-5012674D02*
X1227205Y-5003150D01*
X1227205Y-5003150D02*
X1255777Y-5003150D01*
X1255777Y-5003150D02*
X1274825Y-5012674D01*
X1274825Y-5012674D02*
X1284348Y-5031722D01*
X1284348Y-5031722D02*
X1284348Y-5136484D01*
X1379586Y-5136484D02*
X1379586Y-5003150D01*
X1379586Y-5022198D02*
X1389110Y-5012674D01*
X1389110Y-5012674D02*
X1408158Y-5003150D01*
X1408158Y-5003150D02*
X1436729Y-5003150D01*
X1436729Y-5003150D02*
X1455777Y-5012674D01*
X1455777Y-5012674D02*
X1465301Y-5031722D01*
X1465301Y-5031722D02*
X1465301Y-5136484D01*
X1465301Y-5031722D02*
X1474824Y-5012674D01*
X1474824Y-5012674D02*
X1493872Y-5003150D01*
X1493872Y-5003150D02*
X1522443Y-5003150D01*
X1522443Y-5003150D02*
X1541491Y-5012674D01*
X1541491Y-5012674D02*
X1551015Y-5031722D01*
X1551015Y-5031722D02*
X1551015Y-5136484D01*
X1941491Y-4926960D02*
X1770063Y-5184103D01*
X2198634Y-4936484D02*
X2217682Y-4936484D01*
X2217682Y-4936484D02*
X2236729Y-4946008D01*
X2236729Y-4946008D02*
X2246253Y-4955531D01*
X2246253Y-4955531D02*
X2255777Y-4974579D01*
X2255777Y-4974579D02*
X2265301Y-5012674D01*
X2265301Y-5012674D02*
X2265301Y-5060293D01*
X2265301Y-5060293D02*
X2255777Y-5098389D01*
X2255777Y-5098389D02*
X2246253Y-5117436D01*
X2246253Y-5117436D02*
X2236729Y-5126960D01*
X2236729Y-5126960D02*
X2217682Y-5136484D01*
X2217682Y-5136484D02*
X2198634Y-5136484D01*
X2198634Y-5136484D02*
X2179587Y-5126960D01*
X2179587Y-5126960D02*
X2170063Y-5117436D01*
X2170063Y-5117436D02*
X2160539Y-5098389D01*
X2160539Y-5098389D02*
X2151015Y-5060293D01*
X2151015Y-5060293D02*
X2151015Y-5012674D01*
X2151015Y-5012674D02*
X2160539Y-4974579D01*
X2160539Y-4974579D02*
X2170063Y-4955531D01*
X2170063Y-4955531D02*
X2179587Y-4946008D01*
X2179587Y-4946008D02*
X2198634Y-4936484D01*
X2360539Y-5126960D02*
X2360539Y-5136484D01*
X2360539Y-5136484D02*
X2351015Y-5155531D01*
X2351015Y-5155531D02*
X2341491Y-5165055D01*
X2484348Y-4936484D02*
X2503396Y-4936484D01*
X2503396Y-4936484D02*
X2522444Y-4946008D01*
X2522444Y-4946008D02*
X2531968Y-4955531D01*
X2531968Y-4955531D02*
X2541491Y-4974579D01*
X2541491Y-4974579D02*
X2551015Y-5012674D01*
X2551015Y-5012674D02*
X2551015Y-5060293D01*
X2551015Y-5060293D02*
X2541491Y-5098389D01*
X2541491Y-5098389D02*
X2531968Y-5117436D01*
X2531968Y-5117436D02*
X2522444Y-5126960D01*
X2522444Y-5126960D02*
X2503396Y-5136484D01*
X2503396Y-5136484D02*
X2484348Y-5136484D01*
X2484348Y-5136484D02*
X2465301Y-5126960D01*
X2465301Y-5126960D02*
X2455777Y-5117436D01*
X2455777Y-5117436D02*
X2446253Y-5098389D01*
X2446253Y-5098389D02*
X2436729Y-5060293D01*
X2436729Y-5060293D02*
X2436729Y-5012674D01*
X2436729Y-5012674D02*
X2446253Y-4974579D01*
X2446253Y-4974579D02*
X2455777Y-4955531D01*
X2455777Y-4955531D02*
X2465301Y-4946008D01*
X2465301Y-4946008D02*
X2484348Y-4936484D01*
X2741491Y-5136484D02*
X2627206Y-5136484D01*
X2684348Y-5136484D02*
X2684348Y-4936484D01*
X2684348Y-4936484D02*
X2665301Y-4965055D01*
X2665301Y-4965055D02*
X2646253Y-4984103D01*
X2646253Y-4984103D02*
X2627206Y-4993627D01*
X2931967Y-5136484D02*
X2817682Y-5136484D01*
X2874825Y-5136484D02*
X2874825Y-4936484D01*
X2874825Y-4936484D02*
X2855777Y-4965055D01*
X2855777Y-4965055D02*
X2836729Y-4984103D01*
X2836729Y-4984103D02*
X2817682Y-4993627D01*
X3046253Y-5022198D02*
X3027206Y-5012674D01*
X3027206Y-5012674D02*
X3017682Y-5003150D01*
X3017682Y-5003150D02*
X3008158Y-4984103D01*
X3008158Y-4984103D02*
X3008158Y-4974579D01*
X3008158Y-4974579D02*
X3017682Y-4955531D01*
X3017682Y-4955531D02*
X3027206Y-4946008D01*
X3027206Y-4946008D02*
X3046253Y-4936484D01*
X3046253Y-4936484D02*
X3084348Y-4936484D01*
X3084348Y-4936484D02*
X3103396Y-4946008D01*
X3103396Y-4946008D02*
X3112920Y-4955531D01*
X3112920Y-4955531D02*
X3122444Y-4974579D01*
X3122444Y-4974579D02*
X3122444Y-4984103D01*
X3122444Y-4984103D02*
X3112920Y-5003150D01*
X3112920Y-5003150D02*
X3103396Y-5012674D01*
X3103396Y-5012674D02*
X3084348Y-5022198D01*
X3084348Y-5022198D02*
X3046253Y-5022198D01*
X3046253Y-5022198D02*
X3027206Y-5031722D01*
X3027206Y-5031722D02*
X3017682Y-5041246D01*
X3017682Y-5041246D02*
X3008158Y-5060293D01*
X3008158Y-5060293D02*
X3008158Y-5098389D01*
X3008158Y-5098389D02*
X3017682Y-5117436D01*
X3017682Y-5117436D02*
X3027206Y-5126960D01*
X3027206Y-5126960D02*
X3046253Y-5136484D01*
X3046253Y-5136484D02*
X3084348Y-5136484D01*
X3084348Y-5136484D02*
X3103396Y-5126960D01*
X3103396Y-5126960D02*
X3112920Y-5117436D01*
X3112920Y-5117436D02*
X3122444Y-5098389D01*
X3122444Y-5098389D02*
X3122444Y-5060293D01*
X3122444Y-5060293D02*
X3112920Y-5041246D01*
X3112920Y-5041246D02*
X3103396Y-5031722D01*
X3103396Y-5031722D02*
X3084348Y-5022198D01*
X3198634Y-4936484D02*
X3198634Y-4974579D01*
X3274825Y-4936484D02*
X3274825Y-4974579D01*
X3570063Y-5212674D02*
X3560539Y-5203150D01*
X3560539Y-5203150D02*
X3541491Y-5174579D01*
X3541491Y-5174579D02*
X3531968Y-5155531D01*
X3531968Y-5155531D02*
X3522444Y-5126960D01*
X3522444Y-5126960D02*
X3512920Y-5079341D01*
X3512920Y-5079341D02*
X3512920Y-5041246D01*
X3512920Y-5041246D02*
X3522444Y-4993627D01*
X3522444Y-4993627D02*
X3531968Y-4965055D01*
X3531968Y-4965055D02*
X3541491Y-4946008D01*
X3541491Y-4946008D02*
X3560539Y-4917436D01*
X3560539Y-4917436D02*
X3570063Y-4907912D01*
X3751015Y-5136484D02*
X3636729Y-5136484D01*
X3693872Y-5136484D02*
X3693872Y-4936484D01*
X3693872Y-4936484D02*
X3674825Y-4965055D01*
X3674825Y-4965055D02*
X3655777Y-4984103D01*
X3655777Y-4984103D02*
X3636729Y-4993627D01*
X3941491Y-5136484D02*
X3827206Y-5136484D01*
X3884348Y-5136484D02*
X3884348Y-4936484D01*
X3884348Y-4936484D02*
X3865301Y-4965055D01*
X3865301Y-4965055D02*
X3846253Y-4984103D01*
X3846253Y-4984103D02*
X3827206Y-4993627D01*
X4065301Y-4936484D02*
X4084349Y-4936484D01*
X4084349Y-4936484D02*
X4103396Y-4946008D01*
X4103396Y-4946008D02*
X4112920Y-4955531D01*
X4112920Y-4955531D02*
X4122444Y-4974579D01*
X4122444Y-4974579D02*
X4131968Y-5012674D01*
X4131968Y-5012674D02*
X4131968Y-5060293D01*
X4131968Y-5060293D02*
X4122444Y-5098389D01*
X4122444Y-5098389D02*
X4112920Y-5117436D01*
X4112920Y-5117436D02*
X4103396Y-5126960D01*
X4103396Y-5126960D02*
X4084349Y-5136484D01*
X4084349Y-5136484D02*
X4065301Y-5136484D01*
X4065301Y-5136484D02*
X4046253Y-5126960D01*
X4046253Y-5126960D02*
X4036729Y-5117436D01*
X4036729Y-5117436D02*
X4027206Y-5098389D01*
X4027206Y-5098389D02*
X4017682Y-5060293D01*
X4017682Y-5060293D02*
X4017682Y-5012674D01*
X4017682Y-5012674D02*
X4027206Y-4974579D01*
X4027206Y-4974579D02*
X4036729Y-4955531D01*
X4036729Y-4955531D02*
X4046253Y-4946008D01*
X4046253Y-4946008D02*
X4065301Y-4936484D01*
X4370063Y-5136484D02*
X4370063Y-4936484D01*
X4455777Y-5136484D02*
X4455777Y-5031722D01*
X4455777Y-5031722D02*
X4446253Y-5012674D01*
X4446253Y-5012674D02*
X4427206Y-5003150D01*
X4427206Y-5003150D02*
X4398634Y-5003150D01*
X4398634Y-5003150D02*
X4379587Y-5012674D01*
X4379587Y-5012674D02*
X4370063Y-5022198D01*
X4579587Y-5136484D02*
X4560539Y-5126960D01*
X4560539Y-5126960D02*
X4551015Y-5117436D01*
X4551015Y-5117436D02*
X4541492Y-5098389D01*
X4541492Y-5098389D02*
X4541492Y-5041246D01*
X4541492Y-5041246D02*
X4551015Y-5022198D01*
X4551015Y-5022198D02*
X4560539Y-5012674D01*
X4560539Y-5012674D02*
X4579587Y-5003150D01*
X4579587Y-5003150D02*
X4608158Y-5003150D01*
X4608158Y-5003150D02*
X4627206Y-5012674D01*
X4627206Y-5012674D02*
X4636730Y-5022198D01*
X4636730Y-5022198D02*
X4646253Y-5041246D01*
X4646253Y-5041246D02*
X4646253Y-5098389D01*
X4646253Y-5098389D02*
X4636730Y-5117436D01*
X4636730Y-5117436D02*
X4627206Y-5126960D01*
X4627206Y-5126960D02*
X4608158Y-5136484D01*
X4608158Y-5136484D02*
X4579587Y-5136484D01*
X4760539Y-5136484D02*
X4741492Y-5126960D01*
X4741492Y-5126960D02*
X4731968Y-5107912D01*
X4731968Y-5107912D02*
X4731968Y-4936484D01*
X4912920Y-5126960D02*
X4893873Y-5136484D01*
X4893873Y-5136484D02*
X4855777Y-5136484D01*
X4855777Y-5136484D02*
X4836730Y-5126960D01*
X4836730Y-5126960D02*
X4827206Y-5107912D01*
X4827206Y-5107912D02*
X4827206Y-5031722D01*
X4827206Y-5031722D02*
X4836730Y-5012674D01*
X4836730Y-5012674D02*
X4855777Y-5003150D01*
X4855777Y-5003150D02*
X4893873Y-5003150D01*
X4893873Y-5003150D02*
X4912920Y-5012674D01*
X4912920Y-5012674D02*
X4922444Y-5031722D01*
X4922444Y-5031722D02*
X4922444Y-5050770D01*
X4922444Y-5050770D02*
X4827206Y-5069817D01*
X4998634Y-5126960D02*
X5017682Y-5136484D01*
X5017682Y-5136484D02*
X5055777Y-5136484D01*
X5055777Y-5136484D02*
X5074825Y-5126960D01*
X5074825Y-5126960D02*
X5084349Y-5107912D01*
X5084349Y-5107912D02*
X5084349Y-5098389D01*
X5084349Y-5098389D02*
X5074825Y-5079341D01*
X5074825Y-5079341D02*
X5055777Y-5069817D01*
X5055777Y-5069817D02*
X5027206Y-5069817D01*
X5027206Y-5069817D02*
X5008158Y-5060293D01*
X5008158Y-5060293D02*
X4998634Y-5041246D01*
X4998634Y-5041246D02*
X4998634Y-5031722D01*
X4998634Y-5031722D02*
X5008158Y-5012674D01*
X5008158Y-5012674D02*
X5027206Y-5003150D01*
X5027206Y-5003150D02*
X5055777Y-5003150D01*
X5055777Y-5003150D02*
X5074825Y-5012674D01*
X5151015Y-5212674D02*
X5160539Y-5203150D01*
X5160539Y-5203150D02*
X5179587Y-5174579D01*
X5179587Y-5174579D02*
X5189111Y-5155531D01*
X5189111Y-5155531D02*
X5198634Y-5126960D01*
X5198634Y-5126960D02*
X5208158Y-5079341D01*
X5208158Y-5079341D02*
X5208158Y-5041246D01*
X5208158Y-5041246D02*
X5198634Y-4993627D01*
X5198634Y-4993627D02*
X5189111Y-4965055D01*
X5189111Y-4965055D02*
X5179587Y-4946008D01*
X5179587Y-4946008D02*
X5160539Y-4917436D01*
X5160539Y-4917436D02*
X5151015Y-4907912D01*
D10*
X-5000Y-5309000D02*
G75*
G02*
X-105000Y-5309000I-50000J0D01*
G01*
X-105000Y-5309000D02*
G75*
G02*
X-5000Y-5309000I50000J0D01*
G01*
D12*
X360539Y-5400484D02*
X246253Y-5400484D01*
X303396Y-5400484D02*
X303396Y-5200484D01*
X303396Y-5200484D02*
X284348Y-5229055D01*
X284348Y-5229055D02*
X265301Y-5248103D01*
X265301Y-5248103D02*
X246253Y-5257627D01*
X455777Y-5390960D02*
X455777Y-5400484D01*
X455777Y-5400484D02*
X446253Y-5419531D01*
X446253Y-5419531D02*
X436729Y-5429055D01*
X579586Y-5200484D02*
X598634Y-5200484D01*
X598634Y-5200484D02*
X617682Y-5210008D01*
X617682Y-5210008D02*
X627205Y-5219531D01*
X627205Y-5219531D02*
X636729Y-5238579D01*
X636729Y-5238579D02*
X646253Y-5276674D01*
X646253Y-5276674D02*
X646253Y-5324293D01*
X646253Y-5324293D02*
X636729Y-5362389D01*
X636729Y-5362389D02*
X627205Y-5381436D01*
X627205Y-5381436D02*
X617682Y-5390960D01*
X617682Y-5390960D02*
X598634Y-5400484D01*
X598634Y-5400484D02*
X579586Y-5400484D01*
X579586Y-5400484D02*
X560539Y-5390960D01*
X560539Y-5390960D02*
X551015Y-5381436D01*
X551015Y-5381436D02*
X541491Y-5362389D01*
X541491Y-5362389D02*
X531967Y-5324293D01*
X531967Y-5324293D02*
X531967Y-5276674D01*
X531967Y-5276674D02*
X541491Y-5238579D01*
X541491Y-5238579D02*
X551015Y-5219531D01*
X551015Y-5219531D02*
X560539Y-5210008D01*
X560539Y-5210008D02*
X579586Y-5200484D01*
X770062Y-5200484D02*
X789110Y-5200484D01*
X789110Y-5200484D02*
X808158Y-5210008D01*
X808158Y-5210008D02*
X817682Y-5219531D01*
X817682Y-5219531D02*
X827205Y-5238579D01*
X827205Y-5238579D02*
X836729Y-5276674D01*
X836729Y-5276674D02*
X836729Y-5324293D01*
X836729Y-5324293D02*
X827205Y-5362389D01*
X827205Y-5362389D02*
X817682Y-5381436D01*
X817682Y-5381436D02*
X808158Y-5390960D01*
X808158Y-5390960D02*
X789110Y-5400484D01*
X789110Y-5400484D02*
X770062Y-5400484D01*
X770062Y-5400484D02*
X751015Y-5390960D01*
X751015Y-5390960D02*
X741491Y-5381436D01*
X741491Y-5381436D02*
X731967Y-5362389D01*
X731967Y-5362389D02*
X722443Y-5324293D01*
X722443Y-5324293D02*
X722443Y-5276674D01*
X722443Y-5276674D02*
X731967Y-5238579D01*
X731967Y-5238579D02*
X741491Y-5219531D01*
X741491Y-5219531D02*
X751015Y-5210008D01*
X751015Y-5210008D02*
X770062Y-5200484D01*
X960539Y-5200484D02*
X979586Y-5200484D01*
X979586Y-5200484D02*
X998634Y-5210008D01*
X998634Y-5210008D02*
X1008158Y-5219531D01*
X1008158Y-5219531D02*
X1017682Y-5238579D01*
X1017682Y-5238579D02*
X1027205Y-5276674D01*
X1027205Y-5276674D02*
X1027205Y-5324293D01*
X1027205Y-5324293D02*
X1017682Y-5362389D01*
X1017682Y-5362389D02*
X1008158Y-5381436D01*
X1008158Y-5381436D02*
X998634Y-5390960D01*
X998634Y-5390960D02*
X979586Y-5400484D01*
X979586Y-5400484D02*
X960539Y-5400484D01*
X960539Y-5400484D02*
X941491Y-5390960D01*
X941491Y-5390960D02*
X931967Y-5381436D01*
X931967Y-5381436D02*
X922443Y-5362389D01*
X922443Y-5362389D02*
X912920Y-5324293D01*
X912920Y-5324293D02*
X912920Y-5276674D01*
X912920Y-5276674D02*
X922443Y-5238579D01*
X922443Y-5238579D02*
X931967Y-5219531D01*
X931967Y-5219531D02*
X941491Y-5210008D01*
X941491Y-5210008D02*
X960539Y-5200484D01*
X1112920Y-5400484D02*
X1112920Y-5267150D01*
X1112920Y-5286198D02*
X1122444Y-5276674D01*
X1122444Y-5276674D02*
X1141491Y-5267150D01*
X1141491Y-5267150D02*
X1170063Y-5267150D01*
X1170063Y-5267150D02*
X1189110Y-5276674D01*
X1189110Y-5276674D02*
X1198634Y-5295722D01*
X1198634Y-5295722D02*
X1198634Y-5400484D01*
X1198634Y-5295722D02*
X1208158Y-5276674D01*
X1208158Y-5276674D02*
X1227205Y-5267150D01*
X1227205Y-5267150D02*
X1255777Y-5267150D01*
X1255777Y-5267150D02*
X1274825Y-5276674D01*
X1274825Y-5276674D02*
X1284348Y-5295722D01*
X1284348Y-5295722D02*
X1284348Y-5400484D01*
X1379586Y-5400484D02*
X1379586Y-5267150D01*
X1379586Y-5286198D02*
X1389110Y-5276674D01*
X1389110Y-5276674D02*
X1408158Y-5267150D01*
X1408158Y-5267150D02*
X1436729Y-5267150D01*
X1436729Y-5267150D02*
X1455777Y-5276674D01*
X1455777Y-5276674D02*
X1465301Y-5295722D01*
X1465301Y-5295722D02*
X1465301Y-5400484D01*
X1465301Y-5295722D02*
X1474824Y-5276674D01*
X1474824Y-5276674D02*
X1493872Y-5267150D01*
X1493872Y-5267150D02*
X1522443Y-5267150D01*
X1522443Y-5267150D02*
X1541491Y-5276674D01*
X1541491Y-5276674D02*
X1551015Y-5295722D01*
X1551015Y-5295722D02*
X1551015Y-5400484D01*
X1941491Y-5190960D02*
X1770063Y-5448103D01*
X2198634Y-5200484D02*
X2217682Y-5200484D01*
X2217682Y-5200484D02*
X2236729Y-5210008D01*
X2236729Y-5210008D02*
X2246253Y-5219531D01*
X2246253Y-5219531D02*
X2255777Y-5238579D01*
X2255777Y-5238579D02*
X2265301Y-5276674D01*
X2265301Y-5276674D02*
X2265301Y-5324293D01*
X2265301Y-5324293D02*
X2255777Y-5362389D01*
X2255777Y-5362389D02*
X2246253Y-5381436D01*
X2246253Y-5381436D02*
X2236729Y-5390960D01*
X2236729Y-5390960D02*
X2217682Y-5400484D01*
X2217682Y-5400484D02*
X2198634Y-5400484D01*
X2198634Y-5400484D02*
X2179587Y-5390960D01*
X2179587Y-5390960D02*
X2170063Y-5381436D01*
X2170063Y-5381436D02*
X2160539Y-5362389D01*
X2160539Y-5362389D02*
X2151015Y-5324293D01*
X2151015Y-5324293D02*
X2151015Y-5276674D01*
X2151015Y-5276674D02*
X2160539Y-5238579D01*
X2160539Y-5238579D02*
X2170063Y-5219531D01*
X2170063Y-5219531D02*
X2179587Y-5210008D01*
X2179587Y-5210008D02*
X2198634Y-5200484D01*
X2360539Y-5390960D02*
X2360539Y-5400484D01*
X2360539Y-5400484D02*
X2351015Y-5419531D01*
X2351015Y-5419531D02*
X2341491Y-5429055D01*
X2484348Y-5200484D02*
X2503396Y-5200484D01*
X2503396Y-5200484D02*
X2522444Y-5210008D01*
X2522444Y-5210008D02*
X2531968Y-5219531D01*
X2531968Y-5219531D02*
X2541491Y-5238579D01*
X2541491Y-5238579D02*
X2551015Y-5276674D01*
X2551015Y-5276674D02*
X2551015Y-5324293D01*
X2551015Y-5324293D02*
X2541491Y-5362389D01*
X2541491Y-5362389D02*
X2531968Y-5381436D01*
X2531968Y-5381436D02*
X2522444Y-5390960D01*
X2522444Y-5390960D02*
X2503396Y-5400484D01*
X2503396Y-5400484D02*
X2484348Y-5400484D01*
X2484348Y-5400484D02*
X2465301Y-5390960D01*
X2465301Y-5390960D02*
X2455777Y-5381436D01*
X2455777Y-5381436D02*
X2446253Y-5362389D01*
X2446253Y-5362389D02*
X2436729Y-5324293D01*
X2436729Y-5324293D02*
X2436729Y-5276674D01*
X2436729Y-5276674D02*
X2446253Y-5238579D01*
X2446253Y-5238579D02*
X2455777Y-5219531D01*
X2455777Y-5219531D02*
X2465301Y-5210008D01*
X2465301Y-5210008D02*
X2484348Y-5200484D01*
X2617682Y-5200484D02*
X2741491Y-5200484D01*
X2741491Y-5200484D02*
X2674825Y-5276674D01*
X2674825Y-5276674D02*
X2703396Y-5276674D01*
X2703396Y-5276674D02*
X2722444Y-5286198D01*
X2722444Y-5286198D02*
X2731968Y-5295722D01*
X2731968Y-5295722D02*
X2741491Y-5314770D01*
X2741491Y-5314770D02*
X2741491Y-5362389D01*
X2741491Y-5362389D02*
X2731968Y-5381436D01*
X2731968Y-5381436D02*
X2722444Y-5390960D01*
X2722444Y-5390960D02*
X2703396Y-5400484D01*
X2703396Y-5400484D02*
X2646253Y-5400484D01*
X2646253Y-5400484D02*
X2627206Y-5390960D01*
X2627206Y-5390960D02*
X2617682Y-5381436D01*
X2836729Y-5400484D02*
X2874825Y-5400484D01*
X2874825Y-5400484D02*
X2893872Y-5390960D01*
X2893872Y-5390960D02*
X2903396Y-5381436D01*
X2903396Y-5381436D02*
X2922444Y-5352865D01*
X2922444Y-5352865D02*
X2931967Y-5314770D01*
X2931967Y-5314770D02*
X2931967Y-5238579D01*
X2931967Y-5238579D02*
X2922444Y-5219531D01*
X2922444Y-5219531D02*
X2912920Y-5210008D01*
X2912920Y-5210008D02*
X2893872Y-5200484D01*
X2893872Y-5200484D02*
X2855777Y-5200484D01*
X2855777Y-5200484D02*
X2836729Y-5210008D01*
X2836729Y-5210008D02*
X2827206Y-5219531D01*
X2827206Y-5219531D02*
X2817682Y-5238579D01*
X2817682Y-5238579D02*
X2817682Y-5286198D01*
X2817682Y-5286198D02*
X2827206Y-5305246D01*
X2827206Y-5305246D02*
X2836729Y-5314770D01*
X2836729Y-5314770D02*
X2855777Y-5324293D01*
X2855777Y-5324293D02*
X2893872Y-5324293D01*
X2893872Y-5324293D02*
X2912920Y-5314770D01*
X2912920Y-5314770D02*
X2922444Y-5305246D01*
X2922444Y-5305246D02*
X2931967Y-5286198D01*
X3103396Y-5267150D02*
X3103396Y-5400484D01*
X3055777Y-5190960D02*
X3008158Y-5333817D01*
X3008158Y-5333817D02*
X3131967Y-5333817D01*
X3198634Y-5200484D02*
X3198634Y-5238579D01*
X3274825Y-5200484D02*
X3274825Y-5238579D01*
X3570063Y-5476674D02*
X3560539Y-5467150D01*
X3560539Y-5467150D02*
X3541491Y-5438579D01*
X3541491Y-5438579D02*
X3531968Y-5419531D01*
X3531968Y-5419531D02*
X3522444Y-5390960D01*
X3522444Y-5390960D02*
X3512920Y-5343341D01*
X3512920Y-5343341D02*
X3512920Y-5305246D01*
X3512920Y-5305246D02*
X3522444Y-5257627D01*
X3522444Y-5257627D02*
X3531968Y-5229055D01*
X3531968Y-5229055D02*
X3541491Y-5210008D01*
X3541491Y-5210008D02*
X3560539Y-5181436D01*
X3560539Y-5181436D02*
X3570063Y-5171912D01*
X3731968Y-5267150D02*
X3731968Y-5400484D01*
X3684348Y-5190960D02*
X3636729Y-5333817D01*
X3636729Y-5333817D02*
X3760539Y-5333817D01*
X3989110Y-5400484D02*
X3989110Y-5200484D01*
X4074825Y-5400484D02*
X4074825Y-5295722D01*
X4074825Y-5295722D02*
X4065301Y-5276674D01*
X4065301Y-5276674D02*
X4046253Y-5267150D01*
X4046253Y-5267150D02*
X4017682Y-5267150D01*
X4017682Y-5267150D02*
X3998634Y-5276674D01*
X3998634Y-5276674D02*
X3989110Y-5286198D01*
X4198634Y-5400484D02*
X4179587Y-5390960D01*
X4179587Y-5390960D02*
X4170063Y-5381436D01*
X4170063Y-5381436D02*
X4160539Y-5362389D01*
X4160539Y-5362389D02*
X4160539Y-5305246D01*
X4160539Y-5305246D02*
X4170063Y-5286198D01*
X4170063Y-5286198D02*
X4179587Y-5276674D01*
X4179587Y-5276674D02*
X4198634Y-5267150D01*
X4198634Y-5267150D02*
X4227206Y-5267150D01*
X4227206Y-5267150D02*
X4246253Y-5276674D01*
X4246253Y-5276674D02*
X4255777Y-5286198D01*
X4255777Y-5286198D02*
X4265301Y-5305246D01*
X4265301Y-5305246D02*
X4265301Y-5362389D01*
X4265301Y-5362389D02*
X4255777Y-5381436D01*
X4255777Y-5381436D02*
X4246253Y-5390960D01*
X4246253Y-5390960D02*
X4227206Y-5400484D01*
X4227206Y-5400484D02*
X4198634Y-5400484D01*
X4379587Y-5400484D02*
X4360539Y-5390960D01*
X4360539Y-5390960D02*
X4351015Y-5371912D01*
X4351015Y-5371912D02*
X4351015Y-5200484D01*
X4531968Y-5390960D02*
X4512920Y-5400484D01*
X4512920Y-5400484D02*
X4474825Y-5400484D01*
X4474825Y-5400484D02*
X4455777Y-5390960D01*
X4455777Y-5390960D02*
X4446253Y-5371912D01*
X4446253Y-5371912D02*
X4446253Y-5295722D01*
X4446253Y-5295722D02*
X4455777Y-5276674D01*
X4455777Y-5276674D02*
X4474825Y-5267150D01*
X4474825Y-5267150D02*
X4512920Y-5267150D01*
X4512920Y-5267150D02*
X4531968Y-5276674D01*
X4531968Y-5276674D02*
X4541492Y-5295722D01*
X4541492Y-5295722D02*
X4541492Y-5314770D01*
X4541492Y-5314770D02*
X4446253Y-5333817D01*
X4617682Y-5390960D02*
X4636730Y-5400484D01*
X4636730Y-5400484D02*
X4674825Y-5400484D01*
X4674825Y-5400484D02*
X4693873Y-5390960D01*
X4693873Y-5390960D02*
X4703396Y-5371912D01*
X4703396Y-5371912D02*
X4703396Y-5362389D01*
X4703396Y-5362389D02*
X4693873Y-5343341D01*
X4693873Y-5343341D02*
X4674825Y-5333817D01*
X4674825Y-5333817D02*
X4646253Y-5333817D01*
X4646253Y-5333817D02*
X4627206Y-5324293D01*
X4627206Y-5324293D02*
X4617682Y-5305246D01*
X4617682Y-5305246D02*
X4617682Y-5295722D01*
X4617682Y-5295722D02*
X4627206Y-5276674D01*
X4627206Y-5276674D02*
X4646253Y-5267150D01*
X4646253Y-5267150D02*
X4674825Y-5267150D01*
X4674825Y-5267150D02*
X4693873Y-5276674D01*
X4770063Y-5476674D02*
X4779587Y-5467150D01*
X4779587Y-5467150D02*
X4798634Y-5438579D01*
X4798634Y-5438579D02*
X4808158Y-5419531D01*
X4808158Y-5419531D02*
X4817682Y-5390960D01*
X4817682Y-5390960D02*
X4827206Y-5343341D01*
X4827206Y-5343341D02*
X4827206Y-5305246D01*
X4827206Y-5305246D02*
X4817682Y-5257627D01*
X4817682Y-5257627D02*
X4808158Y-5229055D01*
X4808158Y-5229055D02*
X4798634Y-5210008D01*
X4798634Y-5210008D02*
X4779587Y-5181436D01*
X4779587Y-5181436D02*
X4770063Y-5171912D01*
M02*
