%TF.GenerationSoftware,KiCad,Pcbnew,10.0.6*%
%TF.CreationDate,2026-10-06T11:29:38+02:00*%
%TF.ProjectId,planch,706c616e-6368-42e6-9b69-6361645f7063,1*%
%TF.SameCoordinates,Original*%
%TF.FileFunction,Paste,Bot*%
%TF.FilePolarity,Positive*%
%FSLAX46Y46*%
G04 Gerber Fmt 4.6, Leading zero omitted, Abs format (unit mm)*
G04 Created by KiCad (PCBNEW 10.0.6) date 2026-10-06 11:29:38*
%MOMM*%
%LPD*%
G01*
G04 APERTURE LIST*
G04 Aperture macros list*
%AMRoundRect*
0 Rectangle with rounded corners*
0 $1 Rounding radius*
0 $2 $3 $4 $5 $6 $7 $8 $9 X,Y pos of 4 corners*
0 Add a 4 corners polygon primitive as box body*
4,1,4,$2,$3,$4,$5,$6,$7,$8,$9,$2,$3,0*
0 Add four circle primitives for the rounded corners*
1,1,$1+$1,$2,$3*
1,1,$1+$1,$4,$5*
1,1,$1+$1,$6,$7*
1,1,$1+$1,$8,$9*
0 Add four rect primitives between the rounded corners*
20,1,$1+$1,$2,$3,$4,$5,0*
20,1,$1+$1,$4,$5,$6,$7,0*
20,1,$1+$1,$6,$7,$8,$9,0*
20,1,$1+$1,$8,$9,$2,$3,0*%
G04 Aperture macros list end*
%ADD10RoundRect,0.250000X-0.337500X-0.475000X0.337500X-0.475000X0.337500X0.475000X-0.337500X0.475000X0*%
%ADD11RoundRect,0.205000X-0.420000X-0.205000X0.420000X-0.205000X0.420000X0.205000X-0.420000X0.205000X0*%
%ADD12R,1.500000X1.000000*%
%ADD13RoundRect,0.250000X-0.350000X-0.450000X0.350000X-0.450000X0.350000X0.450000X-0.350000X0.450000X0*%
%ADD14R,1.000000X1.500000*%
%ADD15RoundRect,0.250000X-0.412500X-0.650000X0.412500X-0.650000X0.412500X0.650000X-0.412500X0.650000X0*%
G04 APERTURE END LIST*
D10*
%TO.C,C6*%
X81162500Y-27080000D03*
X83237500Y-27080000D03*
%TD*%
%TO.C,C1*%
X38462500Y1200000D03*
X40537500Y1200000D03*
%TD*%
%TO.C,C10*%
X106012500Y-13300000D03*
X108087500Y-13300000D03*
%TD*%
%TO.C,C9*%
X113862500Y-22400000D03*
X115937500Y-22400000D03*
%TD*%
%TO.C,C8*%
X84462500Y-38900000D03*
X86537500Y-38900000D03*
%TD*%
D11*
%TO.C,D2*%
X40025000Y4750000D03*
X40025000Y3250000D03*
X45975000Y3250000D03*
X45975000Y4750000D03*
%TD*%
%TO.C,D6*%
X73275000Y-25580000D03*
X73275000Y-27080000D03*
X79225000Y-27080000D03*
X79225000Y-25580000D03*
%TD*%
D10*
%TO.C,C11*%
X82412500Y-1400000D03*
X84487500Y-1400000D03*
%TD*%
%TO.C,C4*%
X81162500Y-9750000D03*
X83237500Y-9750000D03*
%TD*%
%TO.C,C5*%
X81162500Y-18420000D03*
X83237500Y-18420000D03*
%TD*%
D12*
%TO.C,D13*%
X8550000Y-10600000D03*
X8550000Y-7400000D03*
X13450000Y-7400000D03*
X13450000Y-10600000D03*
%TD*%
%TO.C,D10*%
X111950000Y-7900000D03*
X111950000Y-11100000D03*
X107050000Y-11100000D03*
X107050000Y-7900000D03*
%TD*%
D11*
%TO.C,D7*%
X73275000Y-34250000D03*
X73275000Y-35750000D03*
X79225000Y-35750000D03*
X79225000Y-34250000D03*
%TD*%
%TO.C,D3*%
X47525000Y4750000D03*
X47525000Y3250000D03*
X53475000Y3250000D03*
X53475000Y4750000D03*
%TD*%
D13*
%TO.C,R1*%
X32000000Y900000D03*
X34000000Y900000D03*
%TD*%
D11*
%TO.C,D5*%
X73275000Y-16920000D03*
X73275000Y-18420000D03*
X79225000Y-18420000D03*
X79225000Y-16920000D03*
%TD*%
D10*
%TO.C,C3*%
X53462500Y1200000D03*
X55537500Y1200000D03*
%TD*%
D11*
%TO.C,D1*%
X32525000Y4750000D03*
X32525000Y3250000D03*
X38475000Y3250000D03*
X38475000Y4750000D03*
%TD*%
D14*
%TO.C,D9*%
X118100000Y-29450000D03*
X114900000Y-29450000D03*
X114900000Y-24550000D03*
X118100000Y-24550000D03*
%TD*%
D10*
%TO.C,C2*%
X45962500Y1200000D03*
X48037500Y1200000D03*
%TD*%
D12*
%TO.C,D8*%
X77550000Y-42100000D03*
X77550000Y-38900000D03*
X82450000Y-38900000D03*
X82450000Y-42100000D03*
%TD*%
%TO.C,D11*%
X75550000Y-4600000D03*
X75550000Y-1400000D03*
X80450000Y-1400000D03*
X80450000Y-4600000D03*
%TD*%
D10*
%TO.C,C12*%
X49462500Y-38900000D03*
X51537500Y-38900000D03*
%TD*%
%TO.C,C7*%
X81162500Y-35750000D03*
X83237500Y-35750000D03*
%TD*%
%TO.C,C13*%
X15462500Y-7400000D03*
X17537500Y-7400000D03*
%TD*%
D15*
%TO.C,C14*%
X34937500Y-2600000D03*
X38062500Y-2600000D03*
%TD*%
D12*
%TO.C,D12*%
X42550000Y-42100000D03*
X42550000Y-38900000D03*
X47450000Y-38900000D03*
X47450000Y-42100000D03*
%TD*%
D11*
%TO.C,D4*%
X73275000Y-8250000D03*
X73275000Y-9750000D03*
X79225000Y-9750000D03*
X79225000Y-8250000D03*
%TD*%
M02*
